<svg width="26" height="32" viewBox="0 0 26 32" fill="none" xmlns="http://www.w3.org/2000/svg">
<path d="M24.8679 10.8124H22.2334C21.9827 10.8124 21.7793 11.0092 21.7793 11.2518C21.7793 11.4944 21.9827 11.6913 22.2334 11.6913H24.8679C25.1186 11.6913 25.322 11.4944 25.322 11.2518C25.322 11.0092 25.1186 10.8124 24.8679 10.8124Z" fill="#23685C" stroke="#23685C" stroke-width="0.5"/>
<path d="M22.2334 8.12463H23.4294C23.6804 8.12463 23.8835 7.9278 23.8835 7.68518C23.8835 7.44234 23.6804 7.24573 23.4294 7.24573H22.2334C21.9827 7.24573 21.7793 7.44234 21.7793 7.68518C21.7793 7.9278 21.9827 8.12463 22.2334 8.12463Z" fill="#23685C" stroke="#23685C" stroke-width="0.5"/>
<path d="M22.2334 4.56641H23.8535C24.1042 4.56641 24.3076 4.3698 24.3076 4.12695C24.3076 3.88434 24.1042 3.6875 23.8535 3.6875H22.2334C21.9827 3.6875 21.7793 3.88434 21.7793 4.12695C21.7793 4.3698 21.9827 4.56641 22.2334 4.56641Z" fill="#23685C" stroke="#23685C" stroke-width="0.5"/>
<path d="M23.8535 17.9346H22.2334C21.9827 17.9346 21.7793 18.1312 21.7793 18.374C21.7793 18.6166 21.9827 18.8135 22.2334 18.8135H23.8535C24.1042 18.8135 24.3076 18.6166 24.3076 18.374C24.3076 18.1312 24.1042 17.9346 23.8535 17.9346Z" fill="#23685C" stroke="#23685C" stroke-width="0.5"/>
<path d="M22.2334 15.2524H23.4294C23.6804 15.2524 23.8835 15.0558 23.8835 14.813C23.8835 14.5704 23.6804 14.3735 23.4294 14.3735H22.2334C21.9827 14.3735 21.7793 14.5704 21.7793 14.813C21.7793 15.0558 21.9827 15.2524 22.2334 15.2524Z" fill="#23685C" stroke="#23685C" stroke-width="0.5"/>
<path d="M8.69609 10.539C9.44725 10.9272 9.49242 11.0151 9.69228 11.0151C10.1596 11.0151 10.3207 10.4122 9.9146 10.192L9.13955 9.77228L9.70954 9.54637C9.94156 9.45436 10.0527 9.19756 9.95764 8.97302C9.86256 8.74849 9.59743 8.64114 9.36542 8.73293L8.12728 9.22365L6.50292 8.34337L8.12728 7.46309C9.40042 7.9561 9.38103 7.98677 9.53736 7.98677C10.0333 7.98677 10.1686 7.32256 9.70954 7.14059L9.13979 6.91469L9.9146 6.49469C10.1334 6.37636 10.2117 6.10834 10.0891 5.89662C9.96663 5.68491 9.68991 5.60938 9.4709 5.72794L8.69609 6.14771L8.79495 5.55948C8.83516 5.32007 8.667 5.09416 8.41937 5.05525C8.17222 5.01634 7.93855 5.17885 7.89834 5.41849L7.68382 6.69633L6.02753 7.59378V5.75677L7.07481 4.95134C7.27111 4.80028 7.30375 4.52402 7.14789 4.33382C6.99179 4.14384 6.70609 4.11226 6.50978 4.26332L6.02753 4.63411V3.77466C6.02753 3.53204 5.82437 3.33521 5.57343 3.33521C5.32273 3.33521 5.11933 3.53204 5.11933 3.77466V4.63411L4.63732 4.26332C4.44102 4.11226 4.15531 4.14384 3.99921 4.33405C3.84312 4.52402 3.87576 4.80028 4.0723 4.95134L5.11933 5.757V7.59378L3.46328 6.69633L3.24853 5.41849C3.20832 5.17885 2.97512 5.01634 2.72749 5.05525C2.4801 5.09416 2.31194 5.32007 2.35215 5.55948L2.45101 6.14771L1.67596 5.72794C1.45719 5.60938 1.18047 5.68491 1.05796 5.89662C0.935448 6.10834 1.0135 6.37636 1.23227 6.49469L2.00732 6.91469L1.43732 7.14059C1.20531 7.2326 1.09438 7.48918 1.18922 7.71394C1.28454 7.93871 1.5499 8.04582 1.78169 7.95404L3.01958 7.46332L4.64394 8.3436L3.01958 9.22365L1.78169 8.73293C1.54943 8.64114 1.2843 8.74849 1.18922 8.97325C1.09415 9.19778 1.20531 9.45436 1.43732 9.54637L2.00732 9.77228L1.23227 10.1923C0.82618 10.4122 0.987481 11.0151 1.45459 11.0151C1.65444 11.0151 1.70009 10.927 2.45101 10.539L2.35215 11.1275C2.30721 11.3948 2.52055 11.6374 2.80105 11.6374C3.01958 11.6374 3.21234 11.4841 3.24853 11.2685L3.46328 9.99063L5.11933 9.09319V10.93L4.0723 11.7356C3.87576 11.8865 3.84312 12.1629 3.99921 12.3529C4.15531 12.5431 4.44102 12.5747 4.63732 12.4236L5.11933 12.0529V12.9123C5.11933 13.1549 5.32273 13.3518 5.57343 13.3518C5.82437 13.3518 6.02753 13.1549 6.02753 12.9123V12.0529C6.44687 12.3467 6.53722 12.5191 6.79194 12.5191C7.22002 12.5189 7.41136 11.9943 7.07481 11.7356L6.02753 10.93V9.09319L7.68382 9.99063L7.89834 11.2685C7.93452 11.4841 8.12728 11.6374 8.34605 11.6374C8.62703 11.6374 8.83965 11.3941 8.79495 11.1275L8.69609 10.539Z" fill="#23685C" stroke="#23685C" stroke-width="0.5"/>
<path d="M20.2592 19.1526V4.97499C20.2592 2.78322 18.4167 1 16.1519 1C13.8871 1 12.0444 2.78322 12.0444 4.97499V19.1526C10.3477 20.3964 9.3418 22.3441 9.3418 24.4096C9.3418 28.0435 12.3968 31 16.1519 31C19.907 31 22.962 28.0435 22.962 24.4096C22.962 22.3441 21.9561 20.3964 20.2592 19.1526ZM16.1519 30.1211C12.8975 30.1211 10.25 27.559 10.25 24.4096C10.25 22.5529 11.1882 20.8054 12.7599 19.7354C12.8807 19.653 12.9526 19.5188 12.9526 19.3758V4.97499C12.9526 3.26776 14.3878 1.87891 16.1519 1.87891C17.9158 1.87891 19.351 3.26776 19.351 4.97499V19.3758C19.351 19.5188 19.4229 19.653 19.5437 19.7354C21.1156 20.8056 22.0538 22.5529 22.0538 24.4096C22.0538 27.559 19.4061 30.1211 16.1519 30.1211Z" fill="#23685C" stroke="#23685C" stroke-width="0.5"/>
<path d="M18.1439 20.0218V4.97331C18.1439 3.91245 17.2522 3.04956 16.1563 3.04956C15.0603 3.04956 14.1684 3.91245 14.1684 4.97331V6.33401C14.1684 6.57663 14.3718 6.77347 14.6225 6.77347C14.8734 6.77347 15.0766 6.57663 15.0766 6.33401V4.97331C15.0766 4.39722 15.561 3.92847 16.1563 3.92847C16.7516 3.92847 17.2357 4.39722 17.2357 4.97331V17.996H15.0766V8.09595C15.0766 7.8531 14.8734 7.65649 14.6225 7.65649C14.3718 7.65649 14.1684 7.8531 14.1684 8.09595V20.0218C12.4478 20.7723 11.3125 22.4526 11.3125 24.2962C11.3125 26.881 13.4853 28.9837 16.156 28.9837C18.8269 28.9837 20.9998 26.881 20.9998 24.2962C21 22.4526 19.8645 20.7723 18.1439 20.0218ZM16.1563 28.1048C13.986 28.1048 12.2207 26.3964 12.2207 24.2962C12.2207 22.7142 13.2495 21.28 14.7812 20.7279C14.9588 20.6638 15.0768 20.4995 15.0768 20.3162V18.8749H17.2357V20.3162C17.2357 20.4995 17.3537 20.6638 17.5313 20.7279C19.063 21.28 20.0918 22.7139 20.0918 24.2962C20.0918 26.3964 18.3262 28.1048 16.1563 28.1048Z" fill="#23685C" stroke="#23685C" stroke-width="0.5"/>
</svg>
