<svg width="32" height="32" viewBox="0 0 32 32" fill="none" xmlns="http://www.w3.org/2000/svg">
<path fill-rule="evenodd" clip-rule="evenodd" d="M5.97749 24.789C5.97312 24.7891 5.96875 24.7891 5.96438 24.7891C3.27332 24.7891 1 22.6424 1 20.1016C1 18.3385 1.99928 16.8002 3.47168 16C1.99928 15.1998 1 13.6615 1 11.8984C1 9.35762 3.27355 7.21094 5.96438 7.21094C6.51881 7.21094 7.07347 7.29654 7.59448 7.45172C7.43181 6.93806 7.34076 6.3967 7.34006 5.86948C7.34005 5.86742 7.34005 5.86535 7.34005 5.86328C7.34005 3.22725 9.53136 1 12.125 1C12.236 1 12.3462 1.00408 12.4556 1.01209C14.096 1.13232 15.5388 2.13817 16.3118 3.54837C17.1363 2.04416 18.723 1 20.4986 1C20.8229 1 21.1408 1.0348 21.4489 1.10085C23.6059 1.5632 25.2836 3.55675 25.2836 5.86328C25.2836 6.39246 25.1925 6.93605 25.0292 7.45172C25.5502 7.29654 26.1048 7.21094 26.6593 7.21094C29.3501 7.21094 31.6236 9.35762 31.6236 11.8984C31.6236 13.6615 30.6244 15.1998 29.152 16C30.6244 16.8002 31.6236 18.3385 31.6236 20.1016C31.6236 20.5066 31.5659 20.9017 31.4578 21.2796C30.9728 22.976 29.4752 24.3274 27.6451 24.6919C27.3255 24.7555 26.9956 24.7891 26.6593 24.7891C26.6549 24.7891 26.6505 24.7891 26.6462 24.789C26.1145 24.7876 25.5536 24.6953 25.0174 24.5327C25.1882 25.058 25.2836 25.6092 25.2836 26.1367C25.2836 28.7728 23.0923 31 20.4986 31C18.723 31 17.1363 29.9558 16.3118 28.4516C15.4873 29.9558 13.9007 31 12.125 31C9.53136 31 7.34005 28.7728 7.34005 26.1367C7.34005 25.6092 7.43547 25.058 7.60626 24.5327C7.07006 24.6953 6.50913 24.7875 5.97749 24.789ZM30.3959 12.3654C30.4167 12.2126 30.4274 12.0567 30.4274 11.8984C30.4274 10.7103 29.7566 9.63715 28.7565 8.99742C28.732 8.98664 28.7081 8.97412 28.6847 8.95982C28.0679 8.5824 27.3677 8.38281 26.6593 8.38281C25.6741 8.38281 24.5067 8.81984 23.8699 9.42472C23.5913 9.6982 22.1921 11.0687 20.8322 12.4007C20.4298 12.7948 20.0308 13.1856 19.6654 13.5435C20.0341 14.025 20.2873 14.5749 20.4109 15.1609C20.4286 15.2446 20.4436 15.329 20.4559 15.4141H26.6593C28.466 15.4141 30.1022 14.0989 30.384 12.4203C30.3871 12.4016 30.3911 12.3833 30.3959 12.3654ZM3.86715 8.99742C2.86702 9.63715 2.19624 10.7103 2.19624 11.8984C2.19624 12.0567 2.20697 12.2126 2.22775 12.3654C2.23257 12.3833 2.23657 12.4016 2.23969 12.4203C2.52146 14.0989 4.15764 15.4141 5.96438 15.4141H12.1678C12.1747 15.3662 12.1825 15.3185 12.1911 15.2711C12.3051 14.6439 12.5665 14.0551 12.9583 13.5435C12.5944 13.1871 12.1973 12.7982 11.7967 12.4058C10.4351 11.0722 9.03277 9.69865 8.75374 9.42475C8.11696 8.81986 6.94959 8.38281 5.96438 8.38281C5.25598 8.38281 4.55577 8.5824 3.93896 8.95982C3.91559 8.97412 3.8916 8.98664 3.86715 8.99742ZM8.53629 26.1367C8.53629 28.1376 10.1797 29.8281 12.125 29.8281C12.3682 29.8281 12.6066 29.8017 12.8377 29.7516C14.4555 29.4006 15.7137 27.8875 15.7137 26.1367V20.0597C15.0201 19.9633 14.3681 19.699 13.8071 19.2873L9.67855 23.3853C9.01665 24.039 8.53629 25.196 8.53629 26.1367ZM19.3024 16C19.3024 14.3784 17.9623 13.0703 16.3118 13.0703C14.6626 13.0703 13.3212 14.377 13.3212 16C13.3212 17.6221 14.6619 18.9297 16.3118 18.9297C17.9672 18.9297 19.3024 17.6168 19.3024 16ZM16.9099 26.1367C16.9099 28.1376 18.5534 29.8281 20.4986 29.8281C20.7418 29.8281 20.9803 29.8017 21.2114 29.7516C22.8291 29.4006 24.0874 27.8875 24.0874 26.1367C24.0874 25.196 23.607 24.039 22.9451 23.3853L18.8165 19.2873C18.2555 19.699 17.6036 19.9633 16.9099 20.0597V26.1367ZM26.6593 23.6172C28.7017 23.6172 30.4274 22.0072 30.4274 20.1016C30.4274 18.1959 28.7017 16.5859 26.6593 16.5859H20.4559C20.4433 16.6725 20.428 16.7584 20.4099 16.8435C20.286 17.4278 20.0331 17.9763 19.6653 18.4564L23.8507 22.5568C24.4829 23.1713 25.6642 23.6172 26.6593 23.6172ZM24.0874 5.86328C24.0874 3.8624 22.4439 2.17188 20.4986 2.17188C18.5534 2.17188 16.9099 3.8624 16.9099 5.86328V11.9401C17.6047 12.0369 18.2579 12.3019 18.8193 12.7148L23.0049 8.61467C23.632 7.99532 24.0874 6.83809 24.0874 5.86328ZM15.7137 5.86328C15.7137 3.8624 14.0703 2.17188 12.125 2.17188C10.1797 2.17188 8.53629 3.8624 8.53629 5.86328C8.53629 6.83809 8.99165 7.99532 9.61874 8.61467L13.8043 12.7148C14.3657 12.3019 15.0189 12.0369 15.7137 11.9401V5.86328ZM12.1882 16.713C12.1807 16.6708 12.1739 16.6285 12.1678 16.5859H5.96438C3.9219 16.5859 2.19624 18.1959 2.19624 20.1016C2.19624 22.0072 3.9219 23.6172 5.96438 23.6172C6.95945 23.6172 8.14074 23.1713 8.77296 22.5568L12.9584 18.4564C12.5632 17.9407 12.3008 17.346 12.1882 16.713Z" fill="#23685C"/>
<path d="M5.97749 24.789L5.97814 25.039L5.97819 25.039L5.97749 24.789ZM3.47168 16L3.59105 16.2197L3.99524 16L3.59105 15.7803L3.47168 16ZM7.59448 7.45172L7.52312 7.69132L7.97525 7.82598L7.83282 7.37624L7.59448 7.45172ZM7.34006 5.86948L7.59006 5.86915L7.59005 5.86914L7.34006 5.86948ZM12.4556 1.01209L12.4738 0.762762L12.4556 1.01209ZM16.3118 3.54837L16.0926 3.66854L16.3118 4.06848L16.531 3.66854L16.3118 3.54837ZM21.4489 1.10085L21.5013 0.856403V0.856403L21.4489 1.10085ZM25.0292 7.45172L24.7908 7.37624L24.6484 7.82598L25.1005 7.69132L25.0292 7.45172ZM29.152 16L29.0326 15.7803L28.6284 16L29.0326 16.2197L29.152 16ZM31.4578 21.2796L31.6982 21.3483L31.4578 21.2796ZM27.6451 24.6919L27.5963 24.4467H27.5963L27.6451 24.6919ZM26.6462 24.789L26.6455 25.039L26.6455 25.039L26.6462 24.789ZM25.0174 24.5327L25.0899 24.2935L24.6315 24.1545L24.7796 24.61L25.0174 24.5327ZM16.3118 28.4516L16.531 28.3315L16.3118 27.9315L16.0926 28.3315L16.3118 28.4516ZM7.60626 24.5327L7.84401 24.61L7.99212 24.1545L7.53371 24.2935L7.60626 24.5327ZM30.3959 12.3654L30.6373 12.4303L30.6415 12.4149L30.6436 12.3991L30.3959 12.3654ZM28.7565 8.99742L28.8912 8.78682L28.875 8.77645L28.8574 8.76869L28.7565 8.99742ZM28.6847 8.95982L28.5542 9.17307L28.5542 9.17309L28.6847 8.95982ZM23.8699 9.42472L23.6977 9.24343L23.6948 9.24631L23.8699 9.42472ZM20.8322 12.4007L21.0071 12.5793L20.8322 12.4007ZM19.6654 13.5435L19.4904 13.3649L19.3323 13.5198L19.4669 13.6956L19.6654 13.5435ZM20.4109 15.1609L20.1663 15.2125L20.1663 15.2125L20.4109 15.1609ZM20.4559 15.4141L20.2085 15.4499L20.2395 15.6641H20.4559V15.4141ZM30.384 12.4203L30.6305 12.4617L30.6305 12.4616L30.384 12.4203ZM3.86715 8.99742L3.76624 8.76869L3.74865 8.77646L3.73244 8.78682L3.86715 8.99742ZM2.22775 12.3654L1.98004 12.3991L1.98218 12.4149L1.98632 12.4303L2.22775 12.3654ZM2.23969 12.4203L1.99313 12.4616L1.99314 12.4617L2.23969 12.4203ZM12.1678 15.4141V15.6641H12.3841L12.4152 15.4499L12.1678 15.4141ZM12.1911 15.2711L11.9451 15.2264L11.9451 15.2264L12.1911 15.2711ZM12.9583 13.5435L13.1568 13.6956L13.2914 13.5198L13.1332 13.3649L12.9583 13.5435ZM11.7967 12.4058L11.6217 12.5844L11.7967 12.4058ZM8.75374 9.42475L8.92889 9.24632L8.92592 9.24349L8.75374 9.42475ZM3.93896 8.95982L4.0694 9.17309L4.06944 9.17307L3.93896 8.95982ZM12.8377 29.7516L12.8907 29.9959L12.8377 29.7516ZM15.7137 20.0597H15.9637V19.842L15.7481 19.8121L15.7137 20.0597ZM13.8071 19.2873L13.955 19.0857L13.7827 18.9593L13.631 19.1099L13.8071 19.2873ZM9.67855 23.3853L9.85422 23.5632L9.85467 23.5628L9.67855 23.3853ZM21.2114 29.7516L21.2644 29.9959H21.2644L21.2114 29.7516ZM22.9451 23.3853L22.769 23.5628L22.7694 23.5632L22.9451 23.3853ZM18.8165 19.2873L18.9927 19.1099L18.841 18.9593L18.6686 19.0857L18.8165 19.2873ZM16.9099 20.0597L16.8755 19.8121L16.6599 19.842V20.0597H16.9099ZM20.4559 16.5859V16.3359H20.2395L20.2085 16.5501L20.4559 16.5859ZM20.4099 16.8435L20.1654 16.7916L20.1654 16.7917L20.4099 16.8435ZM19.6653 18.4564L19.4668 18.3043L19.3322 18.48L19.4903 18.6349L19.6653 18.4564ZM23.8507 22.5568L23.6757 22.7354L23.6764 22.736L23.8507 22.5568ZM16.9099 11.9401H16.6599V12.1577L16.8754 12.1877L16.9099 11.9401ZM18.8193 12.7148L18.6712 12.9162L18.8425 13.0421L18.9943 12.8934L18.8193 12.7148ZM23.0049 8.61467L23.1798 8.79326L23.1806 8.79254L23.0049 8.61467ZM9.61874 8.61467L9.44306 8.79254L9.4438 8.79326L9.61874 8.61467ZM13.8043 12.7148L13.6294 12.8934L13.7812 13.0421L13.9524 12.9162L13.8043 12.7148ZM15.7137 11.9401L15.7482 12.1877L15.9637 12.1577V11.9401H15.7137ZM12.1678 16.5859L12.4152 16.5501L12.3841 16.3359H12.1678V16.5859ZM12.1882 16.713L12.4344 16.6693V16.6693L12.1882 16.713ZM8.77296 22.5568L8.94722 22.736L8.94792 22.7354L8.77296 22.5568ZM12.9584 18.4564L13.1333 18.6349L13.2915 18.48L13.1568 18.3043L12.9584 18.4564ZM5.96438 25.0391C5.96903 25.0391 5.97363 25.0391 5.97814 25.039L5.97683 24.539C5.9726 24.5391 5.96846 24.5391 5.96438 24.5391V25.0391ZM0.75 20.1016C0.75 22.7938 3.14895 25.0391 5.96438 25.0391V24.5391C3.39768 24.5391 1.25 22.491 1.25 20.1016H0.75ZM1.25 20.1016C1.25 18.4359 2.19391 16.9789 3.59105 16.2197L3.3523 15.7803C1.80464 16.6214 0.75 18.241 0.75 20.1016H1.25ZM3.59105 15.7803C2.19391 15.0211 1.25 13.5641 1.25 11.8984H0.75C0.75 13.759 1.80464 15.3786 3.3523 16.2197L3.59105 15.7803ZM1.25 11.8984C1.25 9.50902 3.39791 7.46094 5.96438 7.46094V6.96094C3.14919 6.96094 0.75 9.20622 0.75 11.8984H1.25ZM5.96438 7.46094C6.49346 7.46094 7.0241 7.54269 7.52312 7.69132L7.66585 7.21212C7.12283 7.05039 6.54416 6.96094 5.96438 6.96094V7.46094ZM7.83282 7.37624C7.67708 6.88451 7.59073 6.36848 7.59006 5.86915L7.09006 5.86982C7.0908 6.42492 7.18653 6.99162 7.35615 7.5272L7.83282 7.37624ZM7.09005 5.86328C7.09005 5.86546 7.09005 5.86765 7.09006 5.86983L7.59005 5.86914C7.59005 5.86718 7.59005 5.86523 7.59005 5.86328H7.09005ZM12.125 0.75C9.38947 0.75 7.09005 3.09302 7.09005 5.86328H7.59005C7.59005 3.36148 9.67324 1.25 12.125 1.25V0.75ZM12.4738 0.762762C12.3584 0.754304 12.2421 0.75 12.125 0.75V1.25C12.2298 1.25 12.334 1.25385 12.4373 1.26142L12.4738 0.762762ZM16.531 3.4282C15.7206 1.94974 14.2055 0.889672 12.4738 0.762762L12.4373 1.26142C13.9865 1.37496 15.357 2.32661 16.0926 3.66854L16.531 3.4282ZM20.4986 0.75C18.6233 0.75 16.9568 1.85152 16.0926 3.4282L16.531 3.66854C17.3158 2.2368 18.8226 1.25 20.4986 1.25V0.75ZM21.5013 0.856403C21.1763 0.786731 20.8408 0.75 20.4986 0.75V1.25C20.8049 1.25 21.1053 1.28287 21.3965 1.3453L21.5013 0.856403ZM25.5336 5.86328C25.5336 3.43693 23.7716 1.34305 21.5013 0.856403L21.3965 1.3453C23.4401 1.78335 25.0336 3.67658 25.0336 5.86328H25.5336ZM25.2675 7.5272C25.4378 6.98953 25.5336 6.42048 25.5336 5.86328H25.0336C25.0336 6.36444 24.9472 6.88257 24.7908 7.37624L25.2675 7.5272ZM26.6593 6.96094C26.0795 6.96094 25.5008 7.05039 24.9578 7.21212L25.1005 7.69132C25.5995 7.54269 26.1302 7.46094 26.6593 7.46094V6.96094ZM31.8736 11.8984C31.8736 9.20622 29.4745 6.96094 26.6593 6.96094V7.46094C29.2257 7.46094 31.3736 9.50902 31.3736 11.8984H31.8736ZM29.2713 16.2197C30.819 15.3786 31.8736 13.759 31.8736 11.8984H31.3736C31.3736 13.5641 30.4297 15.0211 29.0326 15.7803L29.2713 16.2197ZM31.8736 20.1016C31.8736 18.241 30.819 16.6214 29.2713 15.7803L29.0326 16.2197C30.4297 16.9789 31.3736 18.4359 31.3736 20.1016H31.8736ZM31.6982 21.3483C31.8124 20.9487 31.8736 20.5305 31.8736 20.1016H31.3736C31.3736 20.4827 31.3193 20.8547 31.2174 21.2109L31.6982 21.3483ZM27.694 24.937C29.6108 24.5553 31.186 23.1397 31.6982 21.3483L31.2174 21.2109C30.7596 22.8123 29.3397 24.0995 27.5963 24.4467L27.694 24.937ZM26.6593 25.0391C27.0123 25.0391 27.3584 25.0039 27.694 24.937L27.5963 24.4467C27.2925 24.5072 26.979 24.5391 26.6593 24.5391V25.0391ZM26.6455 25.039C26.65 25.0391 26.6546 25.0391 26.6593 25.0391V24.5391C26.6552 24.5391 26.651 24.5391 26.6468 24.539L26.6455 25.039ZM24.9448 24.772C25.5013 24.9407 26.0865 25.0375 26.6455 25.039L26.6469 24.539C26.1426 24.5376 25.6059 24.45 25.0899 24.2935L24.9448 24.772ZM24.7796 24.61C24.9433 25.1133 25.0336 25.6384 25.0336 26.1367H25.5336C25.5336 25.5799 25.4331 25.0027 25.2551 24.4554L24.7796 24.61ZM20.4986 31.25C23.2342 31.25 25.5336 28.907 25.5336 26.1367H25.0336C25.0336 28.6385 22.9504 30.75 20.4986 30.75V31.25ZM16.0926 28.5718C16.9568 30.1485 18.6233 31.25 20.4986 31.25V30.75C18.8226 30.75 17.3158 29.7632 16.531 28.3315L16.0926 28.5718ZM12.125 31.25C14.0003 31.25 15.6668 30.1485 16.531 28.5718L16.0926 28.3315C15.3078 29.7632 13.801 30.75 12.125 30.75V31.25ZM7.09005 26.1367C7.09005 28.907 9.38947 31.25 12.125 31.25V30.75C9.67324 30.75 7.59005 28.6385 7.59005 26.1367H7.09005ZM7.36851 24.4554C7.19058 25.0027 7.09005 25.5799 7.09005 26.1367H7.59005C7.59005 25.6384 7.68037 25.1133 7.84401 24.61L7.36851 24.4554ZM7.53371 24.2935C7.01774 24.45 6.48107 24.5376 5.97678 24.539L5.97819 25.039C6.53718 25.0375 7.12238 24.9407 7.67881 24.772L7.53371 24.2935ZM30.1774 11.8984C30.1774 12.0454 30.1674 12.19 30.1482 12.3317L30.6436 12.3991C30.6659 12.2352 30.6774 12.068 30.6774 11.8984H30.1774ZM28.6218 9.20802C29.5605 9.80846 30.1774 10.8072 30.1774 11.8984H30.6774C30.6774 10.6134 29.9528 9.46584 28.8912 8.78682L28.6218 9.20802ZM28.8574 8.76869C28.8431 8.76237 28.829 8.75501 28.8151 8.74656L28.5542 9.17309C28.5872 9.19322 28.621 9.2109 28.6556 9.22615L28.8574 8.76869ZM28.8152 8.74658C28.16 8.34566 27.4147 8.13281 26.6593 8.13281V8.63281C27.3206 8.63281 27.9758 8.81913 28.5542 9.17307L28.8152 8.74658ZM26.6593 8.13281C25.6182 8.13281 24.3866 8.58913 23.6978 9.24346L24.0421 9.60598C24.6268 9.05056 25.73 8.63281 26.6593 8.63281V8.13281ZM21.0071 12.5793C22.367 11.2474 23.7663 9.87674 24.0451 9.60312L23.6948 9.24631C23.4163 9.51967 22.0173 10.89 20.6572 12.2221L21.0071 12.5793ZM19.8403 13.7221C20.2058 13.3642 20.6047 12.9734 21.0071 12.5793L20.6572 12.2221C20.2549 12.6162 19.8559 13.007 19.4904 13.3649L19.8403 13.7221ZM19.4669 13.6956C19.8132 14.1477 20.0505 14.6634 20.1663 15.2125L20.6555 15.1093C20.5242 14.4865 20.255 13.9023 19.8638 13.3915L19.4669 13.6956ZM20.7033 15.3782C20.6902 15.2879 20.6743 15.1982 20.6555 15.1093L20.1663 15.2125C20.1828 15.291 20.1969 15.3701 20.2085 15.4499L20.7033 15.3782ZM20.4559 15.6641H26.6593V15.1641H20.4559V15.6641ZM26.6593 15.6641C28.5769 15.6641 30.3267 14.2714 30.6305 12.4617L30.1374 12.3789C29.8776 13.9264 28.3551 15.1641 26.6593 15.1641V15.6641ZM30.6305 12.4616C30.6323 12.4509 30.6346 12.4405 30.6373 12.4303L30.1545 12.3005C30.1476 12.3262 30.1418 12.3524 30.1374 12.379L30.6305 12.4616ZM3.73244 8.78682C2.67088 9.46584 1.94624 10.6134 1.94624 11.8984H2.44624C2.44624 10.8072 3.06315 9.80846 4.00186 9.20802L3.73244 8.78682ZM1.94624 11.8984C1.94624 12.068 1.95774 12.2352 1.98004 12.3991L2.47547 12.3317C2.4562 12.19 2.44624 12.0454 2.44624 11.8984H1.94624ZM2.48626 12.379C2.4818 12.3524 2.47609 12.3262 2.46919 12.3005L1.98632 12.4303C1.98906 12.4405 1.99134 12.4509 1.99313 12.4616L2.48626 12.379ZM5.96438 15.1641C4.26857 15.1641 2.74601 13.9264 2.48624 12.3789L1.99314 12.4617C2.29692 14.2714 4.04671 15.6641 5.96438 15.6641V15.1641ZM5.96438 15.6641H12.1678V15.1641H5.96438V15.6641ZM11.9451 15.2264C11.936 15.2768 11.9277 15.3274 11.9203 15.3782L12.4152 15.4499C12.4217 15.405 12.429 15.3603 12.4371 15.3158L11.9451 15.2264ZM12.7598 13.3915C12.3441 13.9342 12.0663 14.5598 11.9451 15.2264L12.4371 15.3158C12.5439 14.728 12.7888 14.1759 13.1568 13.6956L12.7598 13.3915ZM13.1332 13.3649C12.7693 13.0085 12.3722 12.6196 11.9716 12.2272L11.6217 12.5844C12.0224 12.9768 12.4194 13.3657 12.7834 13.7221L13.1332 13.3649ZM11.9716 12.2272C10.61 10.8935 9.20777 9.52012 8.92887 9.24634L8.57861 9.60316C8.85777 9.87719 10.2603 11.2509 11.6217 12.5844L11.9716 12.2272ZM5.96438 8.63281C6.89367 8.63281 7.99684 9.05057 8.58156 9.606L8.92592 9.24349C8.23707 8.58914 7.0055 8.13281 5.96438 8.13281V8.63281ZM4.06944 9.17307C4.64786 8.81913 5.30307 8.63281 5.96438 8.63281V8.13281C5.2089 8.13281 4.46367 8.34566 3.80847 8.74658L4.06944 9.17307ZM3.96806 9.22615C4.00263 9.2109 4.03649 9.19322 4.0694 9.17309L3.80851 8.74655C3.79468 8.75501 3.78057 8.76237 3.76624 8.76869L3.96806 9.22615ZM12.125 29.5781C10.3244 29.5781 8.78629 28.0062 8.78629 26.1367H8.28629C8.28629 28.269 10.035 30.0781 12.125 30.0781V29.5781ZM12.7847 29.5073C12.5707 29.5537 12.35 29.5781 12.125 29.5781V30.0781C12.3863 30.0781 12.6425 30.0497 12.8907 29.9959L12.7847 29.5073ZM15.4637 26.1367C15.4637 27.7699 14.2875 29.1813 12.7847 29.5073L12.8907 29.9959C14.6235 29.62 15.9637 28.0051 15.9637 26.1367H15.4637ZM15.9637 26.1367V20.0597H15.4637V26.1367H15.9637ZM13.6592 19.4889C14.2538 19.9252 14.9448 20.2052 15.6793 20.3073L15.7481 19.8121C15.0953 19.7213 14.4824 19.4728 13.955 19.0857L13.6592 19.4889ZM13.631 19.1099L9.50243 23.2079L9.85467 23.5628L13.9832 19.4647L13.631 19.1099ZM9.50288 23.2075C8.79283 23.9087 8.28629 25.13 8.28629 26.1367H8.78629C8.78629 25.262 9.24047 24.1693 9.85422 23.5632L9.50288 23.2075ZM16.3118 13.3203C17.8293 13.3203 19.0524 14.5215 19.0524 16H19.5524C19.5524 14.2352 18.0952 12.8203 16.3118 12.8203V13.3203ZM13.5712 16C13.5712 14.5203 14.7953 13.3203 16.3118 13.3203V12.8203C14.5298 12.8203 13.0712 14.2337 13.0712 16H13.5712ZM16.3118 18.6797C14.7947 18.6797 13.5712 17.4789 13.5712 16H13.0712C13.0712 17.7653 14.529 19.1797 16.3118 19.1797V18.6797ZM19.0524 16C19.0524 17.4742 17.8337 18.6797 16.3118 18.6797V19.1797C18.1006 19.1797 19.5524 17.7595 19.5524 16H19.0524ZM20.4986 29.5781C18.698 29.5781 17.1599 28.0062 17.1599 26.1367H16.6599C16.6599 28.269 18.4087 30.0781 20.4986 30.0781V29.5781ZM21.1584 29.5073C20.9443 29.5537 20.7236 29.5781 20.4986 29.5781V30.0781C20.76 30.0781 21.0162 30.0497 21.2644 29.9959L21.1584 29.5073ZM23.8374 26.1367C23.8374 27.7699 22.6611 29.1813 21.1584 29.5073L21.2644 29.9959C22.9971 29.62 24.3374 28.0051 24.3374 26.1367H23.8374ZM22.7694 23.5632C23.3832 24.1693 23.8374 25.262 23.8374 26.1367H24.3374C24.3374 25.13 23.8308 23.9087 23.1208 23.2075L22.7694 23.5632ZM18.6404 19.4647L22.769 23.5628L23.1212 23.2079L18.9927 19.1099L18.6404 19.4647ZM18.6686 19.0857C18.1412 19.4728 17.5283 19.7213 16.8755 19.8121L16.9444 20.3073C17.6788 20.2052 18.3698 19.9252 18.9644 19.4889L18.6686 19.0857ZM16.6599 20.0597V26.1367H17.1599V20.0597H16.6599ZM30.1774 20.1016C30.1774 21.8531 28.5803 23.3672 26.6593 23.3672V23.8672C28.8232 23.8672 30.6774 22.1614 30.6774 20.1016H30.1774ZM30.6774 20.1016C30.6774 18.0418 28.8232 16.3359 26.6593 16.3359V16.8359C28.5803 16.8359 30.1774 18.35 30.1774 20.1016H30.6774ZM26.6593 16.3359H20.4559V16.8359H26.6593V16.3359ZM20.6545 16.8954C20.6737 16.805 20.69 16.7137 20.7033 16.6218L20.2085 16.5501C20.1967 16.6313 20.1823 16.7118 20.1654 16.7916L20.6545 16.8954ZM20.1654 16.7917C20.0492 17.3391 19.8122 17.8535 19.4668 18.3043L19.8637 18.6084C20.254 18.0991 20.5228 17.5164 20.6545 16.8954L20.1654 16.7917ZM19.4903 18.6349L23.6757 22.7354L24.0256 22.3782L19.8402 18.2778L19.4903 18.6349ZM23.6764 22.736C24.3615 23.4019 25.6082 23.8672 26.6593 23.8672V23.3672C25.7201 23.3672 24.6043 22.9407 24.0249 22.3775L23.6764 22.736ZM20.4986 2.42188C22.2993 2.42188 23.8374 3.99377 23.8374 5.86328H24.3374C24.3374 3.73102 22.5886 1.92188 20.4986 1.92188V2.42188ZM17.1599 5.86328C17.1599 3.99377 18.698 2.42188 20.4986 2.42188V1.92188C18.4087 1.92188 16.6599 3.73102 16.6599 5.86328H17.1599ZM16.6599 5.86328V11.9401H17.1599V5.86328H16.6599ZM18.9675 12.5134C18.3724 12.0757 17.6801 11.795 16.9444 11.6925L16.8754 12.1877C17.5294 12.2788 18.1435 12.5281 18.6712 12.9162L18.9675 12.5134ZM18.9943 12.8934L23.1798 8.79326L22.83 8.43608L18.6444 12.5362L18.9943 12.8934ZM23.1806 8.79254C23.8605 8.12103 24.3374 6.89717 24.3374 5.86328H23.8374C23.8374 6.77901 23.4035 7.8696 22.8292 8.4368L23.1806 8.79254ZM12.125 2.42188C13.9256 2.42188 15.4637 3.99377 15.4637 5.86328H15.9637C15.9637 3.73102 14.215 1.92188 12.125 1.92188V2.42188ZM8.78629 5.86328C8.78629 3.99377 10.3244 2.42188 12.125 2.42188V1.92188C10.035 1.92188 8.28629 3.73102 8.28629 5.86328H8.78629ZM9.79442 8.4368C9.22014 7.8696 8.78629 6.77901 8.78629 5.86328H8.28629C8.28629 6.89717 8.76317 8.12103 9.44306 8.79254L9.79442 8.4368ZM13.9792 12.5362L9.79368 8.43608L9.4438 8.79326L13.6294 12.8934L13.9792 12.5362ZM13.9524 12.9162C14.4801 12.5281 15.0942 12.2788 15.7482 12.1877L15.6792 11.6925C14.9436 11.795 14.2513 12.0757 13.6562 12.5134L13.9524 12.9162ZM15.9637 11.9401V5.86328H15.4637V11.9401H15.9637ZM11.9203 16.6218C11.9269 16.667 11.9341 16.712 11.9421 16.7568L12.4344 16.6693C12.4274 16.6297 12.4209 16.59 12.4152 16.5501L11.9203 16.6218ZM12.1678 16.3359H5.96438V16.8359H12.1678V16.3359ZM2.44624 20.1016C2.44624 18.35 4.04335 16.8359 5.96438 16.8359V16.3359C3.80045 16.3359 1.94624 18.0418 1.94624 20.1016H2.44624ZM5.96438 23.3672C4.04335 23.3672 2.44624 21.8531 2.44624 20.1016H1.94624C1.94624 22.1614 3.80045 23.8672 5.96438 23.8672V23.3672ZM8.59871 22.3775C8.01931 22.9407 6.9035 23.3672 5.96438 23.3672V23.8672C7.0154 23.8672 8.26216 23.4019 8.94722 22.736L8.59871 22.3775ZM12.7834 18.2778L8.59801 22.3782L8.94792 22.7354L13.1333 18.6349L12.7834 18.2778ZM11.9421 16.7568C12.0617 17.4295 12.3407 18.0613 12.76 18.6084L13.1568 18.3043C12.7858 17.8202 12.5398 17.2626 12.4344 16.6693L11.9421 16.7568Z" fill="#23685C"/>
</svg>
