<svg width="21" height="30" viewBox="0 0 21 30" fill="none" xmlns="http://www.w3.org/2000/svg">
<path d="M11.0604 0H1.50935C1.14197 0 0.84375 0.253924 0.84375 0.566725V29.4234C0.84375 29.7362 1.14197 29.9901 1.50935 29.9901H11.0604C11.4278 29.9901 11.726 29.7362 11.726 29.4234V0.566725C11.726 0.253924 11.4278 0 11.0604 0ZM10.3948 3.82524H8.75086C8.38348 3.82524 8.08526 4.07917 8.08526 4.39197C8.08526 4.70477 8.38348 4.95869 8.75086 4.95869H10.3948V6.85149H8.75086C8.38348 6.85149 8.08526 7.10541 8.08526 7.41821C8.08526 7.73101 8.38348 7.98494 8.75086 7.98494H10.3948V9.89473H7.25332C6.88595 9.89473 6.58772 10.1487 6.58772 10.4615C6.58772 10.7743 6.88595 11.0282 7.25332 11.0282H10.3948V12.921H8.75086C8.38348 12.921 8.08526 13.1749 8.08526 13.4877C8.08526 13.8005 8.38348 14.0544 8.75086 14.0544H10.3948V15.9529H8.75086C8.38348 15.9529 8.08526 16.2068 8.08526 16.5196C8.08526 16.8324 8.38348 17.0863 8.75086 17.0863H10.3948V18.9621H7.25332C6.88595 18.9621 6.58772 19.2161 6.58772 19.5289C6.58772 19.8417 6.88595 20.0956 7.25332 20.0956H10.3948V21.9884H8.75086C8.38348 21.9884 8.08526 22.2423 8.08526 22.5551C8.08526 22.8679 8.38348 23.1218 8.75086 23.1218H10.3948V25.0146H8.75086C8.38348 25.0146 8.08526 25.2685 8.08526 25.5813C8.08526 25.8941 8.38348 26.1481 8.75086 26.1481H10.3948V28.8399H2.17495V1.13345H10.3948V3.82524Z" fill="#23685C" stroke="#23685C" stroke-width="0.5"/>
<path d="M19.3345 5.55914C19.7018 5.55914 20.0001 5.30521 20.0001 4.99241C20.0001 4.85746 19.9435 4.72655 19.8404 4.62397L17.7837 1.57506C17.5993 1.30435 17.192 1.21249 16.874 1.3695C16.7733 1.41866 16.6901 1.49008 16.6324 1.57506L14.5091 4.70915C14.3254 4.97987 14.4345 5.32686 14.7527 5.48306C14.8546 5.53304 14.9704 5.55974 15.0882 5.55914H16.5459V24.4304H15.0882C14.7209 24.4292 14.4212 24.6821 14.42 24.9949C14.4193 25.0953 14.4504 25.1938 14.5091 25.2804L16.6324 28.4145C16.8168 28.6852 17.2241 28.7771 17.5423 28.6201C17.6428 28.5709 17.7259 28.4995 17.7837 28.4145L19.9069 25.2804C20.0906 25.0097 19.9815 24.6627 19.6633 24.5065C19.5614 24.4565 19.4457 24.4298 19.3278 24.4304H17.8702V5.55914H19.3345ZM18.1831 25.5639L17.2115 26.9976L16.2396 25.5639H18.1831ZM16.2396 4.42569L17.2115 2.99198L18.1831 4.42569H16.2396Z" fill="#23685C" stroke="#23685C" stroke-width="0.5"/>
</svg>
