<svg width="280" height="196" viewBox="0 0 280 196" fill="none" xmlns="http://www.w3.org/2000/svg">
<path d="M37.8942 184.117C26.5296 179.979 18.5803 170.109 13.9133 162.558C8.84609 154.362 6.44439 147.049 6.42071 146.976L5.91895 147.176C5.94262 147.249 8.36124 154.618 13.4601 162.869C18.1721 170.495 26.2015 180.459 37.7093 184.654L37.8942 184.117Z" fill="#25AEB1"/>
<path d="M6.86642 144.321C7.8637 146.19 8.10044 148.371 7.52716 150.41C5.72307 149.969 4.04639 148.692 3.0113 146.742C2.0139 144.874 1.77716 142.692 2.35055 140.653C4.1569 141.093 5.83132 142.372 6.86642 144.321Z" fill="#25AEB1"/>
<path d="M5.75505 151.776C6.69448 152.143 7.54689 152.702 8.25771 153.418C8.96853 154.134 9.52212 154.99 9.88304 155.932C8.99933 156.388 8.0277 156.649 7.03424 156.696C6.04078 156.743 5.04879 156.576 4.12573 156.206C3.18665 155.838 2.33463 155.279 1.62419 154.563C0.913754 153.847 0.360556 152.991 0 152.05C0.883418 151.594 1.85464 151.333 2.84769 151.286C3.84073 151.239 4.83231 151.406 5.75505 151.776Z" fill="#25AEB1"/>
<path d="M7.30795 163.242C10.2283 162.826 12.4476 161.449 12.2649 160.167C12.0822 158.884 9.56661 158.182 6.64622 158.598C3.72584 159.015 1.50653 160.391 1.68926 161.674C1.87199 162.956 4.38756 163.658 7.30795 163.242Z" fill="#25AEB1"/>
<path d="M11.3109 169.762C14.2313 169.346 16.4506 167.969 16.2678 166.686C16.0851 165.404 13.5695 164.702 10.6492 165.118C7.72877 165.534 5.50946 166.911 5.69219 168.193C5.87492 169.476 8.3905 170.178 11.3109 169.762Z" fill="#25AEB1"/>
<path d="M10.4633 154.948C10.576 152.89 11.4375 151.032 12.7003 149.761C13.8279 150.986 14.4751 152.817 14.3601 154.876C14.2451 156.935 13.387 158.792 12.1242 160.063C11 158.835 10.3483 157.004 10.4633 154.948Z" fill="#25AEB1"/>
<path d="M14.6459 161.692C14.7305 159.633 15.5615 157.759 16.8063 156.468C17.9485 157.671 18.6273 159.489 18.5428 161.549C18.4582 163.609 17.6261 165.482 16.3824 166.772C15.2401 165.569 14.5602 163.751 14.6459 161.692Z" fill="#25AEB1"/>
<path d="M17.6168 171.839C17.9892 171.637 18.4024 171.522 18.8256 171.502C19.2488 171.483 19.6709 171.559 20.0602 171.726C19.9463 172.154 19.7461 172.553 19.4718 172.9C19.1976 173.247 18.8553 173.534 18.4659 173.744C18.0935 173.945 17.6802 174.06 17.2571 174.08C16.8339 174.1 16.4119 174.023 16.0225 173.856C16.1362 173.429 16.3363 173.029 16.6105 172.682C16.8848 172.335 17.2273 172.048 17.6168 171.839Z" fill="#25AEB1"/>
<path d="M65.1526 173.173C65.1526 173.173 73.987 153.667 71.0339 149.314C66.9522 143.3 61.8759 161.757 61.629 160.139C59.2915 144.818 59.7798 125.495 48.847 122.566C42.6319 120.901 49.2585 136.999 48.4861 141.144C47.7138 145.289 37.3752 130.485 31.009 122.652C24.6428 114.819 20.7426 119.14 24.4331 128.644C28.0029 137.833 40.9326 148.602 38.0382 149.523C35.1438 150.444 18.9137 137.643 16.468 142.361C13.4687 148.145 38.4701 158.356 35.9624 159.508C33.4547 160.661 21.5432 155.244 21.5432 159.847C21.5432 164.449 38.0055 165.606 37.5725 167.599C36.8802 170.825 26.5416 162.565 25.7332 167.042C24.9078 171.62 39.7667 171.967 39.2481 175.548C38.9504 177.606 35.2069 175.452 34.5304 178.281C32.9867 184.733 56.405 193.773 56.405 193.773L65.1526 173.173Z" fill="#19797B"/>
<path d="M81.1199 177.469C84.675 179.134 83.7132 183.27 83.7132 183.27C83.7132 183.27 93.3516 175.743 96.9553 180.136C100.559 184.529 98.6647 193.139 94.4386 194.54C90.2125 195.94 53.4541 194.958 53.4541 194.958C53.4541 194.958 77.9221 175.97 81.1199 177.469Z" fill="#25AEB1"/>
<path d="M55.9382 188.08L56.2765 187.789C48.5539 178.381 45.2558 166.591 43.8497 158.351C42.323 149.414 42.6319 142.618 42.6353 142.55L42.1662 142.465C42.1662 142.534 41.8517 149.376 43.3863 158.364C44.8059 166.675 48.1333 178.571 55.9382 188.08Z" fill="#25AEB1"/>
<path d="M43.6659 141.055C43.8914 143.085 43.3694 144.841 42.3546 145.967C40.9866 144.532 40.124 142.689 39.8976 140.719C39.6721 138.69 40.1942 136.935 41.209 135.808C42.577 137.243 43.4396 139.085 43.6659 141.055Z" fill="#25AEB1"/>
<path d="M40.6542 145.785C41.978 147.46 42.6568 149.428 42.6557 151.179C41.0511 150.899 39.3575 149.864 38.0327 148.187C36.7078 146.511 36.0301 144.544 36.0313 142.793C37.6358 143.073 39.3305 144.109 40.6542 145.785Z" fill="#25AEB1"/>
<path d="M39.411 151.434C41.1293 152.4 42.4803 153.906 43.2537 155.719C41.86 156.274 40.0785 156.129 38.3263 155.163C36.608 154.2 35.2566 152.695 34.4824 150.884C35.8761 150.326 37.6576 150.468 39.411 151.434Z" fill="#25AEB1"/>
<path d="M42.5428 160.734C43.2885 161.088 43.8954 161.68 44.2679 162.416C43.7042 162.697 42.9633 162.695 42.2056 162.344C41.4599 161.99 40.853 161.398 40.4805 160.662C41.042 160.381 41.7907 160.383 42.5428 160.734Z" fill="#25AEB1"/>
<path d="M43.4969 164.202C44.2432 164.556 44.8505 165.148 45.2232 165.885C44.6594 166.165 43.9175 166.163 43.1609 165.812C42.4147 165.458 41.8074 164.867 41.4346 164.13C41.9961 163.848 42.7403 163.856 43.4969 164.202Z" fill="#25AEB1"/>
<path d="M44.9285 149.606C46.1689 148.717 47.7057 148.563 49.1355 149.042C49.0678 150.59 48.3901 152.027 47.1532 152.914C45.9163 153.802 44.3772 153.958 42.9463 153.478C43.0151 151.93 43.6916 150.493 44.9285 149.606Z" fill="#25AEB1"/>
<path d="M45.7529 154.894C46.9932 154.005 48.5289 153.851 49.9587 154.33C49.891 155.878 49.2134 157.315 47.9764 158.202C46.7395 159.09 45.2004 159.245 43.7695 158.766C43.8383 157.218 44.5148 155.781 45.7529 154.894Z" fill="#25AEB1"/>
<path d="M46.2948 162.53C47.101 161.953 48.0989 161.854 49.0337 162.159C48.9897 163.167 48.5488 164.102 47.7426 164.68C46.9364 165.259 45.9385 165.357 45.0049 165.051C45.0489 164.042 45.4897 163.109 46.2948 162.53Z" fill="#25AEB1"/>
<path d="M61.7566 195.139C61.7566 195.139 50.4663 180.644 45.7452 178.423C40.7163 176.055 45.0766 184.257 45.0766 184.257C45.0766 184.257 34.3242 173.694 31.7985 176.331C29.2727 178.969 31.9699 181.437 31.9699 181.437C31.9699 181.437 22.9652 179.765 21.6527 183.137C19.6355 188.324 34.4448 190.898 34.4448 190.898C34.4448 190.898 27.3581 189.339 28.7721 192.55C30.9122 197.39 61.7566 195.139 61.7566 195.139Z" fill="#25AEB1"/>
<path d="M21.6553 183.137C22.9678 179.765 31.9724 181.437 31.9724 181.437C31.9724 181.437 29.2753 178.965 31.801 176.331C34.3268 173.697 42.744 179.923 42.744 179.923C42.744 179.923 41.4394 174.198 47.7616 178.702C52.2786 181.917 60.9946 193.916 60.9946 193.916L21.6553 183.137Z" fill="#89E1E3"/>
<path d="M53.457 194.921C53.457 194.921 71.4461 196.193 74.9505 192.971C78.455 189.75 74.9776 183.915 74.9776 183.915C74.9776 183.915 81.151 179.035 81.0551 175.848C80.9593 172.662 76.9362 174.279 76.9362 174.279C76.9362 174.279 83.7534 165.502 82.1365 163.832C79.1248 160.723 71.2431 169.846 71.2431 169.846C71.2431 169.846 73.5828 165.506 71.1146 164.818C67.3936 163.778 64.6571 174.482 64.6571 174.482C64.6571 174.482 65.3505 170.255 62.7864 170.816C58.1838 171.823 53.457 194.921 53.457 194.921Z" fill="#25AEB1"/>
<path d="M68.3959 195.119H66.8906L72.5013 165.962L73.7541 166.2L68.3959 195.119Z" fill="#0E2E35"/>
<path d="M181.894 145.209L183.346 141.688C184.474 139.095 187.357 137.861 189.787 138.926C195.91 141.608 198.573 149.074 195.733 155.6L193.658 160.373C192.748 162.463 193.065 164.762 194.291 166.385C195.404 167.858 195.587 169.905 194.815 171.684L193.72 174.201C193.146 175.525 192.293 176.708 191.218 177.67C190.143 178.632 188.873 179.35 187.494 179.774C186.659 180.036 185.89 180.477 185.241 181.065C184.593 181.653 184.079 182.375 183.736 183.181L182.186 186.744C180.473 190.682 176.089 192.562 172.394 190.944L170.288 190.013C166.593 188.395 164.988 183.89 166.7 179.952C169.47 175.243 169.249 171.728 168.267 169.345C167.545 167.575 167.185 165.678 167.209 163.767C167.232 161.856 167.638 159.969 168.403 158.217L168.621 157.714C169.42 155.871 170.601 154.22 172.088 152.87C173.575 151.52 175.332 150.503 177.243 149.885C178.915 149.353 180.661 148.047 181.894 145.209Z" fill="#19797B"/>
<path d="M164.541 195.121C167.512 191.254 184.025 170.721 194.647 167.27C206.373 163.46 195.323 178.592 195.323 178.592C195.323 178.592 216.129 155.763 223.765 157.821C230.764 159.707 223.765 173.858 223.765 173.858C223.765 173.858 231.648 166.022 241.207 166.022C250.511 166.022 234.747 194.512 233.895 196L164.541 195.121Z" fill="#89E1E3"/>
<path d="M198.354 149.892C189.853 163.214 183.66 178.673 180.113 194.395L179.271 194.384C182.803 178.992 189.214 163.413 197.7 150.105C199.673 147.012 201.802 143.34 205.496 142.137C205.567 142.114 205.594 142.222 205.527 142.249C202.153 143.524 200.199 146.997 198.354 149.892Z" fill="#25AEB1"/>
<path d="M182.046 194.423C191.901 180.969 203.652 169.012 216.933 158.925C217.069 158.821 217.254 159.062 217.116 159.168C204.078 169.214 192.559 181.091 182.915 194.43L182.046 194.423Z" fill="#25AEB1"/>
<path d="M199.131 141.631C199.35 141.954 200.188 142.796 200.433 143.903C200.764 144.952 200.503 146.27 200.475 146.22C200.412 146.247 201.444 145.371 201.766 143.977C202.185 142.641 201.892 140.788 201.373 140.174C200.471 138.786 198.908 138.645 198.605 139.318C198.281 139.987 198.69 140.896 199.131 141.631Z" fill="#25AEB1"/>
<path d="M201.163 153.522C200.846 153.296 200.023 152.439 198.926 152.169C197.886 151.817 196.571 152.056 196.616 152.082C196.589 152.145 197.482 151.126 198.877 150.83C200.217 150.438 202.058 150.767 202.659 151.301C204.024 152.227 204.134 153.803 203.457 154.095C202.784 154.407 201.887 153.979 201.163 153.522Z" fill="#25AEB1"/>
<path d="M198.094 158.733C197.777 158.508 196.954 157.651 195.857 157.38C194.818 157.027 193.503 157.267 193.548 157.292C193.521 157.355 194.414 156.337 195.803 156.04C197.143 155.648 198.984 155.977 199.585 156.511C200.95 157.439 201.06 159.013 200.383 159.305C199.717 159.618 198.818 159.19 198.094 158.733Z" fill="#25AEB1"/>
<path d="M209.04 170.822C208.723 170.596 207.9 169.739 206.801 169.469C205.763 169.116 204.448 169.356 204.493 169.381C204.466 169.444 205.359 168.426 206.748 168.129C208.088 167.737 209.929 168.066 210.53 168.599C211.896 169.526 212.005 171.101 211.329 171.394C210.663 171.707 209.761 171.279 209.04 170.822Z" fill="#25AEB1"/>
<path d="M214.633 165.879C214.317 165.653 213.493 164.795 212.396 164.526C211.357 164.173 210.042 164.413 210.087 164.438C210.06 164.501 210.953 163.483 212.342 163.186C213.682 162.794 215.523 163.124 216.124 163.657C217.489 164.585 217.599 166.16 216.922 166.452C216.256 166.763 215.357 166.335 214.633 165.879Z" fill="#25AEB1"/>
<path d="M194.838 147.528C195.105 147.812 196.064 148.511 196.482 149.565C196.972 150.55 196.921 151.888 196.886 151.848C196.828 151.884 197.71 150.855 197.81 149.429C198.012 148.043 197.432 146.259 196.822 145.735C195.718 144.506 194.149 144.615 193.955 145.328C193.741 146.038 194.287 146.873 194.838 147.528Z" fill="#25AEB1"/>
<path d="M190.323 153.439C190.703 153.64 192.029 154.002 192.691 155.004C193.446 155.89 193.542 157.406 193.492 157.371C193.421 157.437 194.437 155.906 194.395 154.273C194.489 152.639 193.522 150.898 192.669 150.577C191.091 149.675 189.074 150.48 188.908 151.359C188.722 152.25 189.531 152.944 190.323 153.439Z" fill="#25AEB1"/>
<path d="M185.573 162.39C185.981 162.525 187.351 162.663 188.175 163.532C189.068 164.279 189.416 165.758 189.363 165.735C189.304 165.812 190.05 164.134 189.732 162.53C189.551 160.903 188.306 159.35 187.412 159.176C185.707 158.56 183.851 159.688 183.834 160.582C183.796 161.489 184.71 162.036 185.573 162.39Z" fill="#25AEB1"/>
<path d="M199.629 168.627C199.926 168.813 200.982 169.19 201.472 170.035C202.035 170.799 202.028 172.039 201.988 172.01C201.926 172.059 202.841 170.875 202.898 169.542C203.067 168.218 202.379 166.747 201.704 166.436C200.472 165.617 198.784 166.152 198.599 166.857C198.393 167.568 199.014 168.179 199.629 168.627Z" fill="#25AEB1"/>
<path d="M206.945 143.727C206.768 143.579 206.318 143.037 205.681 142.825C205.081 142.57 204.293 142.652 204.319 142.672C204.3 142.708 204.873 142.144 205.71 142.03C206.52 141.857 207.595 142.133 207.927 142.474C208.695 143.083 208.691 144.02 208.278 144.166C207.865 144.311 207.354 144.028 206.945 143.727Z" fill="#25AEB1"/>
<path d="M205.24 139.922C205.248 140.154 205.402 140.842 205.177 141.476C205.011 142.107 204.465 142.684 204.465 142.651C204.426 142.644 205.22 142.538 205.818 141.937C206.449 141.399 206.887 140.377 206.821 139.908C206.809 138.927 206.068 138.357 205.702 138.598C205.337 138.84 205.251 139.414 205.24 139.922Z" fill="#25AEB1"/>
<path d="M218.662 160.842C218.485 160.694 218.035 160.152 217.398 159.94C216.798 159.686 216.01 159.768 216.036 159.787C216.017 159.823 216.589 159.26 217.427 159.146C218.237 158.973 219.311 159.248 219.644 159.59C220.412 160.198 220.407 161.135 219.995 161.282C219.582 161.428 219.07 161.143 218.662 160.842Z" fill="#25AEB1"/>
<path d="M216.606 157.005C216.633 157.231 216.843 157.907 216.669 158.559C216.557 159.202 216.059 159.821 216.057 159.789C216.018 159.789 216.8 159.609 217.35 158.966C217.936 158.378 218.289 157.323 218.184 156.856C218.092 155.88 217.306 155.374 216.963 155.644C216.619 155.915 216.576 156.498 216.606 157.005Z" fill="#25AEB1"/>
<path d="M207.354 179.099C207.41 179.456 207.781 180.494 207.552 181.519C207.417 182.534 206.681 183.527 206.676 183.477C206.612 183.477 207.822 183.149 208.64 182.11C209.515 181.155 209.994 179.486 209.805 178.765C209.6 177.246 208.339 176.51 207.822 176.952C207.304 177.394 207.274 178.309 207.354 179.099Z" fill="#25AEB1"/>
<path d="M199.707 181.846C199.763 182.203 200.134 183.241 199.905 184.266C199.77 185.28 199.033 186.275 199.028 186.225C198.965 186.225 200.174 185.896 200.993 184.856C201.868 183.901 202.352 182.233 202.158 181.512C201.952 179.994 200.692 179.257 200.174 179.699C199.657 180.141 199.627 181.056 199.707 181.846Z" fill="#25AEB1"/>
<path d="M191.937 185.321C191.994 185.679 192.365 186.716 192.136 187.741C192 188.756 191.265 189.75 191.259 189.701C191.196 189.701 192.406 189.373 193.225 188.332C194.1 187.378 194.578 185.708 194.389 184.987C194.183 183.47 192.923 182.732 192.405 183.174C191.886 183.616 191.858 184.532 191.937 185.321Z" fill="#25AEB1"/>
<path d="M209.636 186.268C209.479 185.973 209.176 185.001 208.436 184.374C207.774 183.706 206.677 183.382 206.701 183.421C206.657 183.459 207.729 183.021 208.909 183.329C210.085 183.543 211.371 184.502 211.629 185.141C212.321 186.381 211.805 187.622 211.178 187.589C210.551 187.556 210.017 186.895 209.636 186.268Z" fill="#25AEB1"/>
<path d="M201.682 189.093C201.525 188.798 201.22 187.825 200.482 187.198C199.82 186.53 198.723 186.206 198.746 186.246C198.701 186.284 199.774 185.845 200.955 186.154C202.131 186.367 203.417 187.327 203.674 187.966C204.366 189.2 203.85 190.447 203.223 190.413C202.587 190.394 202.062 189.72 201.682 189.093Z" fill="#25AEB1"/>
<path d="M215.694 183.36C215.557 183.196 215.237 182.625 214.692 182.33C214.188 181.997 213.451 181.939 213.476 181.961C213.453 181.99 214.068 181.574 214.851 181.61C215.617 181.589 216.551 182.021 216.797 182.388C217.395 183.072 217.234 183.924 216.834 183.985C216.434 184.046 216.016 183.703 215.694 183.36Z" fill="#25AEB1"/>
<path d="M214.778 179.608C214.746 179.82 214.778 180.474 214.46 181.013C214.204 181.559 213.611 181.993 213.616 181.964C213.581 181.951 214.323 181.983 214.969 181.54C215.634 181.157 216.204 180.3 216.222 179.857C216.374 178.955 215.794 178.318 215.421 178.477C215.047 178.636 214.873 179.146 214.778 179.608Z" fill="#25AEB1"/>
<path d="M210.987 73.8637C211.425 74.0339 211.938 73.6273 211.933 73.1725C211.923 72.4467 211.926 71.7203 211.923 70.994C211.92 69.3892 211.869 69.3265 212.007 69.2265C212.337 68.9864 212.855 69.4932 213.029 69.6988C213.414 70.1522 213.687 70.7073 214.162 71.0799C215.091 71.8044 216.273 71.4707 216.411 70.2342C216.532 69.1018 216.588 67.953 216.64 66.803C217.585 67.6631 218.506 68.5542 219.462 69.3985C219.531 69.4652 219.617 69.511 219.711 69.5304C219.805 69.5499 219.903 69.5422 219.992 69.5083C220.082 69.4744 220.16 69.4156 220.218 69.3389C220.275 69.2622 220.31 69.1707 220.317 69.0751C220.444 68.0836 220.818 65.1497 220.942 64.1819C220.974 63.9318 220.984 62.7482 221.261 62.6855C221.507 62.6315 222.126 63.2731 222.281 63.3982C223.136 64.0913 223.443 64.3235 226.279 66.5154C226.616 66.7764 227.217 66.4608 227.18 66.0292C226.822 61.7784 227.355 61.7296 226.844 60.8593C226.729 60.664 226.498 60.6837 226.367 60.8436C226.032 61.2507 225.981 61.3717 225.938 63.2717C225.928 63.7637 225.929 64.2549 225.942 64.7452C222.554 62.0193 221.765 61.2465 220.769 61.7831C220.079 62.1528 220.154 62.409 219.46 67.9652C218.517 67.0112 217.519 66.1206 216.534 65.2037C216.455 65.1245 216.355 65.0699 216.246 65.0465C216.137 65.0231 216.024 65.0318 215.92 65.0717C215.816 65.1115 215.725 65.1807 215.66 65.2709C215.595 65.3612 215.557 65.4684 215.551 65.5798C215.137 69.6411 215.291 69.7637 215.159 70.1118C215.156 70.1216 215.322 70.281 215.049 70.0841C214.584 69.7479 214.105 68.4938 213.099 68.0428C212.213 67.6455 211.022 67.8526 210.672 68.8668C210.469 69.4561 210.554 69.758 210.495 72.096C209.382 71.7027 208.226 71.443 207.051 71.3226C206.516 71.2654 206.157 71.2967 205.667 71.5229C205.271 71.7099 205.231 72.3733 205.632 72.5828C206.765 73.173 207.747 72.6071 210.987 73.8637Z" fill="#FFB43A"/>
<path d="M225.189 94.2341C225.599 93.2215 226.098 92.2474 226.68 91.3232C226.794 91.1416 226.967 90.7781 227.222 90.7741C227.837 90.7632 228.05 91.9348 229.551 93.3402C230.203 93.9493 231.497 95.2674 232.425 94.4567C232.9 94.0417 233.177 93.3243 233.496 92.7886C233.735 92.384 233.992 91.9838 234.24 91.5811C236.572 94.041 236.315 94.1098 237.115 94.211C237.224 94.2167 237.332 94.179 237.414 94.1062C237.496 94.0333 237.546 93.9311 237.553 93.8216C237.531 93.0288 237.508 93.2379 234.598 90.1061C234.333 89.8204 233.804 89.8078 233.589 90.1745C233.264 90.726 231.926 93.3012 231.712 93.5914C231.695 93.5544 231.546 93.5004 231.517 93.4814C230.372 92.7441 229.639 91.7343 228.838 90.6639C228.181 89.7873 227.004 89.0767 226.069 90.0288C225.561 90.5448 224.88 91.8286 224.398 92.8419C223.017 91.2796 221.646 89.7037 220.255 88.155C219.982 87.8535 219.355 87.811 219.143 88.2297C218.556 89.3884 217.93 90.5236 217.296 91.6554C216.489 90.725 215.829 89.676 215.34 88.5451C214.979 87.7105 213.645 88.1163 214.699 90.1612C215.256 91.3245 216.003 92.3865 216.91 93.3034C217.212 93.6124 217.778 93.6394 218.025 93.2285C218.685 92.1266 219.297 90.9914 219.885 89.8501C221.281 91.3895 222.692 92.9141 224.087 94.4532C224.43 94.8331 225.005 94.6854 225.189 94.2341Z" fill="#FF8049"/>
<path d="M217.783 120.106C217.586 120.45 217.675 120.795 217.961 121.044C219.359 122.26 220.824 123.328 222.558 123.998C223.46 124.343 223.893 122.953 223.037 122.562C221.702 121.95 220.364 121.251 219.193 120.334C219.779 119.41 220.464 118.553 221.235 117.777C221.529 117.483 221.578 116.881 221.164 116.651C220.136 116.076 216.176 114.019 216.118 114.041C216.145 114.012 216.165 113.977 216.175 113.939C216.343 113.487 217.464 112.288 217.811 111.632C218.198 110.902 217.409 110.083 216.87 109.688C215.778 108.886 213.995 108.961 213.135 107.836C212.308 106.757 214.542 105.781 214.459 103.93C214.395 102.503 213.055 102.122 211.01 101.384C210.509 101.202 210.018 101.032 209.529 101.338C209.462 101.375 209.408 101.432 209.376 101.502C209.343 101.571 209.334 101.649 209.348 101.724C209.594 102.564 210.392 102.727 212.231 103.446C212.464 103.538 212.899 103.626 212.995 103.897C213.315 104.792 211.531 105.687 211.556 107.348C211.577 108.643 212.637 109.51 213.698 109.983C214.529 110.351 215.754 110.47 216.376 111.218C215.932 111.867 215.468 112.51 215.073 113.186C214.645 113.927 214.716 114.661 215.419 115.162C216.197 115.717 217.115 116.111 217.953 116.559C218.517 116.861 219.079 117.165 219.647 117.462C218.943 118.282 218.319 119.168 217.783 120.106Z" fill="#3CB4C5"/>
<path d="M198.148 50.4988C195.907 44.3018 191.753 46.2065 192.126 48.4456C192.286 49.4048 193.214 50.0279 194.127 49.5936C194.546 49.3937 194.545 48.6526 194.056 48.5359C193.652 48.4407 193.802 48.0063 194.253 48.0704C194.861 48.159 195.241 48.8692 195.528 49.342C196.201 50.4426 197.087 51.8668 196.521 53.1985C195.671 55.1794 192.655 56.0124 190.526 53.2957C187.457 49.3791 191.532 42.9663 196.407 44.4002C199.059 45.1803 200.95 47.6311 201.235 50.3641C201.291 50.8981 202.041 50.7587 202.113 50.299C202.659 46.8175 199.709 43.6104 196.421 42.9429C193.049 42.2577 189.908 44.3722 188.632 47.4631C187.294 50.7045 188.366 54.7034 191.667 56.237C195.29 57.9175 199.719 54.8329 198.148 50.4988Z" fill="#3CB4C5"/>
<path d="M209.891 128.871C209.472 127.951 208.183 126.762 207.124 127.449C206.632 127.767 206.424 128.4 206.847 128.89C207.269 129.381 207.904 129.374 208.018 130.086C208.117 130.692 207.562 131.16 207.033 131.34C205.422 131.892 203.608 130.347 202.843 129.055C201.631 127.004 202.849 124.244 205.52 124.167C206.356 124.145 207.11 124.479 207.89 124.727C208.321 124.863 208.861 124.373 208.581 123.932C207.505 122.239 205.011 122.106 203.321 122.872C201.546 123.676 200.419 125.655 200.473 127.585C200.533 129.739 202.068 131.71 203.88 132.759C207.645 134.938 211.242 131.866 209.891 128.871Z" fill="#3C8F7C"/>
<path d="M69.46 98.3534C69.5727 95.6687 69.1781 93.0156 67.9851 90.5158C66.9591 88.3644 64.4209 87.1433 62.106 87.141C54.7555 87.1309 53.8207 96.918 49.1391 100.693C47.7094 101.847 46.1116 102.786 44.7586 104.031C39.7624 108.624 42.0175 117.127 46.6021 121.154C49.7863 123.949 54.7882 125.537 58.7121 123.351C60.7597 122.211 62.3203 120.316 63.4219 118.239C64.9937 115.292 66.0074 111.89 67.1259 108.748C68.3155 105.405 69.3134 101.923 69.46 98.3534Z" fill="#0E2E35"/>
<path d="M53.696 99.4623C53.696 99.4623 48.2972 89.7529 46.9791 87.6883C45.661 85.6237 42.2433 77.4275 42.1216 77.0994C41.9998 76.7713 44.4782 72.8947 43.9257 72.7617C43.3732 72.6286 42.7643 74.8082 42.1734 74.5534C41.5826 74.2986 39.8586 69.0464 39.5226 69.3069C38.8934 69.794 40.4517 72.561 40.1168 72.7358C39.7819 72.9105 38.7637 69.6914 38.1052 69.7849C37.4467 69.8785 39.3591 72.7358 39.1741 72.9883C38.9892 73.2409 37.0047 70.5494 36.6462 71.1234C36.4511 71.4346 38.4717 73.4721 38.0827 73.6626C37.6937 73.8532 35.8986 72.5351 35.708 72.9173C35.5175 73.2995 37.37 73.8193 37.9237 74.8341C38.4773 75.849 39.4211 76.3 39.8123 78.192C40.2036 80.0841 40.7899 86.9374 42.7959 90.355C44.8018 93.7726 49.215 101.34 49.215 101.34L53.696 99.4623Z" fill="#F79C8D"/>
<path d="M82.2633 135.194L73.8686 128.767C73.8686 128.767 73.0241 122.775 71.8965 117.456C70.4792 117.857 69.2017 118.972 67.7832 119.361L69.9154 131.269L80.917 136.968L84.0245 140.975L84.7315 136.861L82.2633 135.194Z" fill="#F48C7F"/>
<path d="M70.6573 111.359C68.3604 104.368 65.793 104.668 65.793 104.668L67.7786 119.362C69.1971 118.973 71.0485 118.107 72.4591 117.705C71.9934 115.496 71.221 113.081 70.6573 111.359Z" fill="#FFB43A"/>
<path d="M46.4827 184.818C46.4827 184.818 45.9651 188.427 45.0743 189.596C44.7755 189.987 44.2287 190.482 43.8701 191.189C43.312 192.291 43.6209 193.929 44.0325 194.831C44.2445 195.295 44.0178 195.293 44.4993 195.443C45.9245 195.885 47.44 195.14 48.0466 193.768C48.4677 192.794 48.704 191.75 48.7434 190.69C48.8968 187.41 49.9116 185.742 49.9116 185.742L46.4827 184.818Z" fill="#F7A491"/>
<path d="M62.0673 186.47C62.0673 186.47 62.3876 190.544 62.1282 191.868C61.9884 192.576 61.2149 194.036 61.5645 194.703C61.914 195.369 62.3244 195.537 62.3244 195.537L71.5253 195.686C72.0271 195.694 71.6956 195.37 71.2919 195.071C70.63 194.582 70.0967 194.258 67.9836 193.23C67.8461 193.164 67.3443 192.842 67.1628 192.732C66.6722 192.405 66.2294 192.011 65.8469 191.562C65.1862 190.823 65.1287 187.235 65.1287 187.235L62.0673 186.47Z" fill="#F7A491"/>
<path d="M69.2662 132.323C69.2662 132.323 70.4242 138.936 69.6643 143.272C68.9043 147.609 65.251 187.801 65.251 187.801L61.1918 188.026C61.1918 188.026 60.3416 171.237 60.4938 168.902C60.6461 166.567 61.8469 162.661 61.8469 162.661L61.4421 149.105L66.5635 131.297L69.2662 132.323Z" fill="#13375B"/>
<path d="M57.3369 130.931C57.3369 130.931 54.1426 135.767 53.3815 139.77C52.6204 143.773 53.9452 156.073 52.4794 161.319C51.6901 164.158 48.6852 168.542 48.2285 172.211C47.7719 175.88 45.9824 185.491 45.9824 185.491L50.0416 186.3L59.4669 162.297L66.8603 140.603L68.7546 129.43L57.3369 130.931Z" fill="#355389"/>
<path d="M59.9228 103.419C59.9228 103.419 55.6922 103.147 54.0189 104.982C52.3456 106.816 57.7319 121.331 58.0363 123.663C58.3408 125.995 56.4848 132.205 56.4848 132.205C56.4848 132.205 66.422 134.217 69.2623 132.327C69.2623 132.327 69.5668 115.538 69.2623 113.87C68.9579 112.202 66.422 105.413 65.8131 104.753C65.2042 104.092 59.9228 103.419 59.9228 103.419Z" fill="#FFD38D"/>
<path d="M61.3272 97.7296C61.3272 97.7296 61.3058 97.8547 61.2663 98.0678C61.078 99.0905 60.3507 102.484 59.8602 103.417C59.2671 104.545 61.8898 108.139 64.4156 107.702C65.1665 107.571 63.7796 104.398 63.8518 104.062C63.9803 103.419 64.1528 102.541 64.3299 101.641C64.4291 101.134 64.5306 100.618 64.6253 100.135C64.8959 98.7602 65.1158 97.636 65.1158 97.636L61.3272 97.7296Z" fill="#F7A491"/>
<path d="M61.2719 98.0677C61.3114 97.8546 61.3328 97.7295 61.3328 97.7295L65.1158 97.6348C65.1158 97.6348 64.8903 98.7623 64.6253 100.133C64.5317 100.615 64.4314 101.127 64.331 101.632C63.7469 101.545 63.1369 101.26 62.5269 100.721C61.9012 100.169 61.4298 99.4636 61.1592 98.6744C61.2032 98.4342 61.2426 98.2324 61.2719 98.0677Z" fill="#F47458"/>
<path d="M63.876 89.0811C63.876 89.0811 62.0888 88.8737 60.9759 90.3282C59.863 91.7828 58.6531 96.2783 61.4269 98.7218C64.2007 101.165 66.952 98.3993 67.3545 95.4665C67.757 92.5337 67.9217 88.9752 63.876 89.0811Z" fill="#F7A491"/>
<path d="M68.1766 95.422C67.8451 96.0703 67.2892 96.4289 66.9362 96.2237C66.5833 96.0185 66.563 95.3216 66.8945 94.6789C67.226 94.0362 67.7819 93.672 68.1348 93.8772C68.4878 94.0825 68.5081 94.7748 68.1766 95.422Z" fill="#F7A491"/>
<path d="M64.0779 88.6005C64.0779 88.6005 61.6965 92.8762 59.9916 93.0735C58.2867 93.2708 58.0635 95.5428 58.0635 95.5428C58.0635 95.5428 58.6735 90.3076 60.3603 89.2984C62.0471 88.2893 64.0779 88.6005 64.0779 88.6005Z" fill="#0E2E35"/>
<path d="M48.3233 193.046C46.1132 193.451 44.6429 192.151 43.8773 191.178C43.3135 192.28 43.0406 193.925 43.4545 194.831C43.8187 195.629 44.882 195.607 45.7197 195.638C46.6049 195.671 47.2904 195.176 47.729 194.398C47.9716 193.968 48.1706 193.515 48.3233 193.046Z" fill="#B75742"/>
<path d="M67.1685 192.731C64.7353 193.359 62.9368 192.931 61.9299 192.524C61.6706 193.263 61.3267 194.191 61.5093 194.726C61.7348 195.381 62.0506 195.529 62.3313 195.537C64.5549 195.596 70.4734 195.676 72.1681 195.697C72.2214 195.698 72.2736 195.683 72.3187 195.654C72.3637 195.626 72.3997 195.585 72.4224 195.537C72.4451 195.489 72.4534 195.435 72.4465 195.383C72.4396 195.33 72.4178 195.28 72.3835 195.239C71.9629 194.735 67.3501 192.842 67.1685 192.731Z" fill="#B75742"/>
<path d="M60.4333 94.1481C60.572 94.9069 60.2935 95.6037 59.8109 95.703C59.3283 95.8022 58.8254 95.2677 58.6833 94.5089C58.5412 93.75 58.8231 93.0532 59.3057 92.954C59.7883 92.8547 60.2957 93.3836 60.4333 94.1481Z" fill="#F7A491"/>
<path d="M52.2042 96.3156C52.2042 96.3156 58.1802 102.774 59.0631 105.377C59.946 107.979 58.1983 111.702 55.7763 111.866C53.3543 112.029 47.9668 100.403 47.9668 100.403L52.2042 96.3156Z" fill="#FFB43A"/>
<path d="M179.744 111.024H160.699C160.518 111.024 160.371 111.171 160.371 111.353V117.083C160.371 117.264 160.518 117.411 160.699 117.411H179.744C179.925 117.411 180.072 117.264 180.072 117.083V111.353C180.072 111.171 179.925 111.024 179.744 111.024Z" fill="#F47458"/>
<path d="M167.995 186.623C168.534 186.623 168.97 186.185 168.97 185.644C168.97 185.104 168.534 184.666 167.995 184.666C167.456 184.666 167.02 185.104 167.02 185.644C167.02 186.185 167.456 186.623 167.995 186.623Z" fill="white"/>
<path d="M227.202 138.969H222.07V133.82H220.75V138.969H215.618V140.293H220.75V145.443H222.07V140.293H227.202V138.969Z" fill="white"/>
<path d="M171.622 14.5117L171.599 14.5038C171.388 14.4271 171.174 14.3595 170.956 14.2975C170.882 14.2761 170.809 14.2535 170.731 14.2332C170.653 14.2129 170.573 14.1949 170.493 14.1757L170.252 14.1193C170.175 14.1024 170.098 14.0878 170.026 14.0731C169.954 14.0584 169.854 14.0415 169.766 14.0269L169.54 13.9919C169.445 13.9784 169.351 13.9671 169.256 13.9558L169.048 13.9333C168.936 13.922 168.831 13.9152 168.721 13.9085L168.549 13.8961C168.381 13.8882 168.211 13.8837 168.042 13.8837H90.054C89.8728 13.8837 89.6924 13.8882 89.5128 13.8972C89.1574 13.9164 88.8032 13.954 88.4517 14.01C88.2781 14.0359 88.1056 14.0675 87.9342 14.1024C85.7402 14.559 83.7487 15.7026 82.2484 17.3673C80.7481 19.032 79.8171 21.1313 79.5903 23.3608C79.5553 23.716 79.5361 24.0757 79.5361 24.4399V184.362C79.5346 186.528 80.1996 188.642 81.4407 190.418C82.6819 192.193 84.4391 193.543 86.474 194.285L86.5281 194.303C86.7288 194.375 86.9329 194.439 87.1381 194.499C87.2126 194.521 87.287 194.543 87.3636 194.562C87.4403 194.582 87.5215 194.602 87.6016 194.621L87.8429 194.677L88.074 194.724L88.3345 194.77L88.56 194.805C88.6547 194.818 88.7494 194.83 88.8441 194.841L89.0516 194.863C89.1644 194.874 89.2692 194.881 89.3786 194.888C89.4361 194.888 89.4913 194.897 89.5511 194.9C89.7191 194.907 89.8894 194.913 90.0585 194.913H168.045C170.653 194.913 173.168 193.943 175.101 192.193C177.035 190.443 178.249 188.037 178.508 185.442C178.542 185.088 178.562 184.728 178.562 184.364V24.4354C178.563 22.2689 177.898 20.1545 176.656 18.3791C175.415 16.6038 173.657 15.2535 171.622 14.5117Z" fill="#FF8049"/>
<path d="M173.458 28.2648H84.6348V180.532H173.458V28.2648Z" fill="white"/>
<path d="M148.028 21.5717H110.215C110.161 21.5717 110.117 21.6156 110.117 21.6698V23.3814C110.117 23.4356 110.161 23.4795 110.215 23.4795H148.028C148.082 23.4795 148.126 23.4356 148.126 23.3814V21.6698C148.126 21.6156 148.082 21.5717 148.028 21.5717Z" fill="white"/>
<path opacity="0.3" d="M128.996 192.245C131.406 192.245 133.359 190.286 133.359 187.868C133.359 185.451 131.406 183.491 128.996 183.491C126.587 183.491 124.634 185.451 124.634 187.868C124.634 190.286 126.587 192.245 128.996 192.245Z" fill="#FFAF8C"/>
<path opacity="0.2" d="M173.458 174.144H84.6348V180.533H173.458V174.144Z" fill="#DDDDDD"/>
<path opacity="0.2" d="M173.458 28.2648H84.6348V36.3449H173.458V28.2648Z" fill="#DDDDDD"/>
<g style="mix-blend-mode:multiply" opacity="0.3">
<path d="M102.543 31.9893H25.402C24.7672 31.9903 24.1389 32.1164 23.5529 32.3603C22.9669 32.6041 22.4347 32.9611 21.9866 33.4107C21.5386 33.8603 21.1835 34.3938 20.9417 34.9806C20.6998 35.5675 20.576 36.1963 20.5772 36.831V68.7736C20.5761 69.4082 20.7001 70.0368 20.942 70.6236C21.1839 71.2103 21.539 71.7436 21.987 72.1931C22.4351 72.6426 22.9672 72.9995 23.5532 73.2433C24.1391 73.4871 24.7673 73.6131 25.402 73.6142H86.1345C88.5926 77.0555 93.0498 83.2187 93.4422 83.2187C93.8109 83.2187 93.1039 77.3983 92.6022 73.6142H102.543C103.177 73.6131 103.806 73.4871 104.392 73.2433C104.977 72.9995 105.51 72.6426 105.958 72.1931C106.406 71.7436 106.761 71.2103 107.003 70.6236C107.245 70.0368 107.369 69.4082 107.368 68.7736V36.831C107.369 36.1963 107.245 35.5675 107.003 34.9806C106.761 34.3938 106.406 33.8603 105.958 33.4107C105.51 32.9611 104.978 32.6041 104.392 32.3603C103.806 32.1164 103.177 31.9903 102.543 31.9893Z" fill="#DAEEF7"/>
</g>
<path d="M99.359 23.7008H22.2183C21.583 23.7018 20.9542 23.8281 20.3678 24.0725C19.7814 24.3168 19.249 24.6744 18.8009 25.1247C18.3529 25.5751 17.998 26.1093 17.7567 26.697C17.5154 27.2846 17.3923 27.9141 17.3946 28.5493V60.4874C17.3934 61.122 17.5172 61.7507 17.759 62.3375C18.0007 62.9243 18.3557 63.4577 18.8037 63.9073C19.2516 64.3569 19.7837 64.7138 20.3695 64.9578C20.9554 65.2018 21.5836 65.3279 22.2183 65.3291H82.9496C85.4077 68.7704 89.8638 74.9337 90.2573 74.9337C90.6249 74.9337 89.9191 69.1121 89.4162 65.3291H99.3567C99.9915 65.3281 100.62 65.202 101.206 64.9581C101.792 64.7142 102.324 64.3573 102.772 63.9077C103.22 63.4581 103.575 62.9246 103.817 62.3377C104.059 61.7509 104.183 61.1221 104.182 60.4874V28.5493C104.184 27.9141 104.061 27.2848 103.819 26.6972C103.578 26.1097 103.224 25.5754 102.776 25.1251C102.328 24.6748 101.795 24.3172 101.209 24.0728C100.623 23.8284 99.9941 23.702 99.359 23.7008Z" fill="#AECDFB"/>
<path d="M63.2946 34.0602H25.4774C25.4176 34.0602 25.3691 34.1086 25.3691 34.1684V36.0605C25.3691 36.1202 25.4176 36.1687 25.4774 36.1687H63.2946C63.3543 36.1687 63.4028 36.1202 63.4028 36.0605V34.1684C63.4028 34.1086 63.3543 34.0602 63.2946 34.0602Z" fill="white"/>
<path d="M41.6454 39.6249H25.4774C25.4176 39.6249 25.3691 39.6733 25.3691 39.7331V41.6252C25.3691 41.6849 25.4176 41.7334 25.4774 41.7334H41.6454C41.7052 41.7334 41.7537 41.6849 41.7537 41.6252V39.7331C41.7537 39.6733 41.7052 39.6249 41.6454 39.6249Z" fill="white"/>
<path d="M94.4819 39.6249H43.7069C43.6471 39.6249 43.5986 39.6733 43.5986 39.7331V41.6252C43.5986 41.6849 43.6471 41.7334 43.7069 41.7334H94.4819C94.5417 41.7334 94.5902 41.6849 94.5902 41.6252V39.7331C94.5902 39.6733 94.5417 39.6249 94.4819 39.6249Z" fill="white"/>
<path d="M94.6408 34.0602H67.4012C67.3414 34.0602 67.293 34.1086 67.293 34.1684V36.0605C67.293 36.1202 67.3414 36.1687 67.4012 36.1687H94.6408C94.7005 36.1687 94.749 36.1202 94.749 36.0605V34.1684C94.749 34.1086 94.7005 34.0602 94.6408 34.0602Z" fill="white"/>
<path d="M94.6384 50.5331H25.4774C25.4176 50.5331 25.3691 50.5815 25.3691 50.6413V52.5334C25.3691 52.5932 25.4176 52.6416 25.4774 52.6416H94.6384C94.6982 52.6416 94.7466 52.5932 94.7466 52.5334V50.6413C94.7466 50.5815 94.6982 50.5331 94.6384 50.5331Z" fill="white"/>
<path d="M61.1014 45.1906H25.4774C25.4176 45.1906 25.3691 45.239 25.3691 45.2988V47.1908C25.3691 47.2506 25.4176 47.2991 25.4774 47.2991H61.1014C61.1612 47.2991 61.2097 47.2506 61.2097 47.1908V45.2988C61.2097 45.239 61.1612 45.1906 61.1014 45.1906Z" fill="white"/>
<path d="M94.6402 45.1906H63.4012C63.3414 45.1906 63.293 45.239 63.293 45.2988V47.1908C63.293 47.2506 63.3414 47.2991 63.4012 47.2991H94.6402C94.7 47.2991 94.7485 47.2506 94.7485 47.1908V45.2988C94.7485 45.239 94.7 45.1906 94.6402 45.1906Z" fill="white"/>
<path d="M162.644 14.598L186.162 14.598C186.215 14.598 186.259 14.5546 186.259 14.5011V12.8108C186.259 12.7573 186.215 12.7139 186.162 12.7139L162.644 12.7139C162.591 12.7139 162.547 12.7573 162.547 12.8108V14.5011C162.547 14.5546 162.591 14.598 162.644 14.598Z" fill="white"/>
<g style="mix-blend-mode:multiply" opacity="0.3">
<path d="M155.585 7.41064H224.502C225.069 7.41153 225.63 7.52412 226.154 7.74198C226.677 7.95985 227.153 8.27871 227.553 8.68037C227.953 9.08203 228.27 9.55861 228.487 10.0829C228.703 10.6072 228.813 11.1689 228.812 11.736V40.2756C228.813 40.8425 228.702 41.4041 228.486 41.9283C228.27 42.4525 227.953 42.9289 227.553 43.3304C227.152 43.732 226.677 44.0507 226.153 44.2685C225.63 44.4863 225.069 44.5989 224.502 44.5998H170.245C168.048 47.6746 164.067 53.1805 163.715 53.1805C163.387 53.1805 164.019 47.9802 164.466 44.5998H155.585C154.441 44.5965 153.345 44.1392 152.538 43.3284C151.731 42.5177 151.278 41.4197 151.28 40.2756V11.736C151.278 10.5917 151.73 9.49338 152.538 8.68236C153.345 7.87133 154.441 7.41393 155.585 7.41064Z" fill="#DAEEF7"/>
</g>
<path d="M158.429 0.00830078H227.345C228.49 0.0103923 229.588 0.467232 230.396 1.27835C231.205 2.08947 231.658 3.18846 231.656 4.33361V32.871C231.657 33.4379 231.546 33.9995 231.33 34.5237C231.114 35.0478 230.796 35.5243 230.396 35.9258C229.996 36.3274 229.52 36.6461 228.997 36.8639C228.473 37.0817 227.912 37.1943 227.345 37.1952H173.087C170.892 40.27 166.91 45.7759 166.559 45.7759C166.229 45.7759 166.863 40.5756 167.309 37.1952H158.429C157.862 37.1943 157.301 37.0817 156.777 36.8639C156.254 36.6461 155.778 36.3274 155.378 35.9258C154.978 35.5243 154.66 35.0478 154.444 34.5237C154.228 33.9995 154.117 33.4379 154.118 32.871V4.33361C154.117 3.76655 154.228 3.20483 154.444 2.68055C154.66 2.15626 154.977 1.67968 155.378 1.27802C155.778 0.876366 156.253 0.557501 156.777 0.33964C157.3 0.121778 157.862 0.00918842 158.429 0.00830078Z" fill="#AECDFB"/>
<path d="M201.841 11.1451L222.717 11.1451C222.77 11.1451 222.813 11.1017 222.813 11.0482V9.35796C222.813 9.30441 222.77 9.26099 222.717 9.26099L201.841 9.26099C201.787 9.26099 201.744 9.30441 201.744 9.35796V11.0482C201.744 11.1017 201.787 11.1451 201.841 11.1451Z" fill="white"/>
<path d="M208.678 17.2983H222.717C222.77 17.2983 222.813 17.2549 222.813 17.2014V15.5112C222.813 15.4576 222.77 15.4142 222.717 15.4142L208.678 15.4142C208.625 15.4142 208.581 15.4576 208.581 15.5112V17.2014C208.581 17.2549 208.625 17.2983 208.678 17.2983Z" fill="white"/>
<path d="M189.446 17.2983L206.765 17.2983C206.819 17.2983 206.862 17.2549 206.862 17.2014V15.5112C206.862 15.4576 206.819 15.4142 206.765 15.4142L189.446 15.4142C189.392 15.4142 189.349 15.4576 189.349 15.5112V17.2014C189.349 17.2549 189.392 17.2983 189.446 17.2983Z" fill="white"/>
<path d="M162.749 17.2983L187.032 17.2983C187.085 17.2983 187.129 17.2549 187.129 17.2014V15.5112C187.129 15.4576 187.085 15.4142 187.032 15.4142L162.749 15.4142C162.695 15.4142 162.652 15.4576 162.652 15.5112V17.2014C162.652 17.2549 162.695 17.2983 162.749 17.2983Z" fill="white"/>
<path d="M162.645 11.1451L197.789 11.1451C197.842 11.1451 197.886 11.1017 197.886 11.0482V9.35796C197.886 9.30441 197.842 9.26099 197.789 9.26099L162.645 9.26099C162.591 9.26099 162.548 9.30441 162.548 9.35796V11.0482C162.548 11.1017 162.591 11.1451 162.645 11.1451Z" fill="white"/>
<path d="M162.648 29.3513L222.716 29.3513C222.77 29.3513 222.813 29.3079 222.813 29.2544V27.5641C222.813 27.5106 222.77 27.4672 222.716 27.4672L162.648 27.4672C162.595 27.4672 162.551 27.5106 162.551 27.5641V29.2544C162.551 29.3079 162.595 29.3513 162.648 29.3513Z" fill="white"/>
<path d="M191.779 23.3965L222.717 23.3965C222.77 23.3965 222.813 23.3531 222.813 23.2995V21.6093C222.813 21.5557 222.77 21.5123 222.717 21.5123L191.779 21.5123C191.725 21.5123 191.682 21.5557 191.682 21.6093V23.2995C191.682 23.3531 191.725 23.3965 191.779 23.3965Z" fill="white"/>
<path d="M162.645 23.3965L190.038 23.3965C190.091 23.3965 190.135 23.3531 190.135 23.2995V21.6093C190.135 21.5557 190.091 21.5123 190.038 21.5123L162.645 21.5123C162.591 21.5123 162.548 21.5557 162.548 21.6093V23.2995C162.548 23.3531 162.591 23.3965 162.645 23.3965Z" fill="white"/>
<path d="M106.854 85.9913C106.854 85.9913 89.638 88.472 92.2686 105.091C94.721 120.583 109.485 117.437 113.276 116.66C117.067 115.883 106.854 85.9913 106.854 85.9913Z" fill="#FFD38D"/>
<path d="M113.28 116.66C115.046 116.299 113.775 109.625 111.913 102.595C105.575 103.835 98.5138 105.224 92.5186 106.407C95.5776 120.4 109.599 117.414 113.28 116.66Z" fill="#FFB43A"/>
<path d="M116.761 119.533C116.761 119.533 120.543 133.034 119.547 143.524C118.618 153.306 120.011 154.937 123.648 154.627C127.284 154.317 136.106 152.146 136.261 148.651C136.415 145.155 134.795 127.221 128.678 117.594C122.561 107.967 116.761 119.533 116.761 119.533Z" fill="#89E1E3"/>
<path d="M122.641 113.905C120.216 115.534 116.764 119.536 116.764 119.536C116.764 119.536 120.545 133.037 119.55 143.527C118.621 153.31 120.014 154.94 123.651 154.63C124.985 154.517 127.015 154.151 129.063 153.563C130.511 129.516 124.308 116.622 122.641 113.905Z" fill="#25AEB1"/>
<path d="M159.009 53.2661C159.009 53.2661 130.457 74.0549 121.229 80.3433L115.833 88.3794L119.667 111.789L128.894 116.33L173.986 125.238L172.942 120.172L164.759 97.4619L160.58 71.607L159.361 55.7084L159.009 53.2661Z" fill="#89E1E3"/>
<path d="M164.752 97.4634L163.656 90.6857L118.024 101.798L119.659 111.789L128.886 116.331L173.978 125.24L172.934 120.174L164.752 97.4634Z" fill="#25AEB1"/>
<path d="M121.227 80.3436C121.227 80.3436 117.455 100.201 128.888 116.331C128.888 116.331 129.526 117.825 128.133 118.757L119.623 120.931C119.623 120.931 115.676 122.328 112.349 116.66C109.021 110.992 103.14 98.2593 106.623 84.2066C106.623 84.2066 107.473 80.4022 112.117 79.7031L118.307 78.5384C118.307 78.5384 121.058 78.111 121.227 80.3436Z" fill="#25AEB1"/>
<path d="M159.011 53.2661C159.011 53.2661 166.439 47.7918 170.738 47.9091C175.036 48.0264 179.326 53.7318 182.112 58.3897C184.899 63.0477 192.21 81.3333 192.907 93.6823C193.603 106.031 193.487 123.613 187.451 125.705C181.416 127.797 173.987 125.239 173.987 125.239C173.987 125.239 164.237 116.855 158.551 90.7664C152.865 64.6781 159.011 53.2661 159.011 53.2661Z" fill="#0B3839"/>
<path d="M183.17 126.404C183.17 126.404 190.114 117.384 186.576 93.0105C181.004 54.6431 166.956 48.8407 166.956 48.8407C166.956 48.8407 156.566 56.7618 166.501 93.8348C174.679 124.392 183.17 126.404 183.17 126.404Z" fill="#19797B"/>
<path d="M163.173 78.2376C163.849 82.7546 164.913 87.9244 166.497 93.8396C167.286 96.7994 168.086 99.4898 168.876 101.938C173.193 100.438 180.178 96.6788 177.195 87.143C174.432 78.3075 167.238 77.7674 163.173 78.2376Z" fill="#F7CC7F"/>
<path d="M166.501 93.8347C167.291 96.7946 168.09 99.4849 168.88 101.933C173.138 100.453 179.988 96.7765 177.317 87.5294L165.58 90.2435C165.863 91.4124 166.171 92.6094 166.501 93.8347Z" fill="#FFB43A"/>
<g style="mix-blend-mode:multiply" opacity="0.3">
<path d="M129.037 115.788C125.455 110.733 123.366 105.312 122.185 100.25L107.101 103.108C108.299 107.67 110.115 112.047 112.498 116.117C115.826 121.786 119.772 120.389 119.772 120.389L128.283 118.215C129.675 117.282 129.037 115.788 129.037 115.788Z" fill="#0B3839"/>
</g>
<path d="M260.389 42.5768L260.32 50.0559L265.056 45.5942L279.994 35.4462L267.802 38.1061C267.802 38.1061 261.713 40.4142 261.406 40.7649C261.099 41.1155 260.389 42.5768 260.389 42.5768Z" fill="#DD602A"/>
<path d="M254.385 38.8099L280.001 35.4486L260.391 42.577L254.385 38.8099Z" fill="#FF8049"/>
<path d="M269.54 48.9601L262.157 44.3766L279.997 35.4486L269.54 48.9601Z" fill="#FF8049"/>
<path d="M235.24 76.3757C235.244 75.7746 235.282 75.1742 235.352 74.5772C235.418 74.0259 235.513 73.4666 235.634 72.9163L236.229 73.0483C236.116 73.5793 236.02 74.1183 235.957 74.6494C235.887 75.2246 235.85 75.8031 235.844 76.3825C235.844 76.5505 235.844 76.7207 235.844 76.8865L235.236 76.9C235.24 76.7264 235.239 76.5493 235.24 76.3757ZM236.91 69.13C237.46 67.9204 238.114 66.7607 238.865 65.6639L239.367 66.0089C238.635 67.0796 237.996 68.2114 237.459 69.3916L236.91 69.13ZM255.907 65.5511C255.868 65.5342 255.831 65.5151 255.794 65.4959L256.067 64.9513C256.1 64.9671 256.132 64.984 256.16 64.9964C256.181 65.0027 256.202 65.0068 256.224 65.0088C256.562 65.0494 257.426 64.9411 257.874 64.5916C258.269 64.2723 258.562 63.8436 258.714 63.3592L259.289 63.5587C259.097 64.1541 258.735 64.6803 258.248 65.073C257.625 65.559 256.575 65.665 256.151 65.6143C256.067 65.6068 255.984 65.5855 255.907 65.5511ZM241.345 62.5507C242.241 61.5747 243.197 60.6559 244.208 59.7995L244.601 60.2651C243.61 61.1052 242.674 62.0068 241.796 62.9645L241.345 62.5507ZM252.918 61.1266C252.845 60.5274 252.845 59.9217 252.918 59.3225C252.959 58.981 253.02 58.6422 253.1 58.3077L253.692 58.4509C253.617 58.7615 253.56 59.0763 253.522 59.3935C253.454 59.944 253.454 60.5006 253.522 61.0511C253.57 61.4308 253.656 61.8048 253.779 62.1673L253.204 62.3647C253.066 61.9628 252.969 61.548 252.914 61.1266H252.918ZM255.44 57.683L255.359 57.6548L255.548 57.0753L255.636 57.1046C256.956 57.5556 258.108 58.434 258.793 59.5153L258.281 59.8434C257.663 58.8771 256.627 58.0901 255.44 57.683ZM247.686 57.8093C248.331 57.5207 249.508 57.02 250.146 56.9073C250.641 56.8216 251.098 56.7596 251.541 56.719L251.596 57.3267C251.17 57.3662 250.729 57.4259 250.249 57.5083C249.83 57.5804 248.986 57.8928 247.933 58.363L247.686 57.8093ZM254.746 54.6341C255.486 53.5122 256.387 52.5057 257.421 51.6472L257.809 52.1174C256.821 52.9374 255.96 53.8991 255.254 54.9713L254.746 54.6341Z" fill="#6DB1B5"/>
<path d="M109.917 194.989L111.168 194.749L105.759 165.962L104.508 166.2L109.917 194.989Z" fill="#0E2E35"/>
<path d="M95.9623 195.119H94.457L100.069 165.962L101.32 166.2L95.9623 195.119Z" fill="#0E2E35"/>
<path d="M82.1179 195.12L83.3413 195.135L77.9617 166.093L76.709 166.331L82.1179 195.12Z" fill="#0E2E35"/>
<path d="M87.5798 126.695C82.6185 127.227 76.2072 127.79 69.7643 138.76C62.7261 150.745 66.4313 168.648 71.9868 173.623C77.5422 178.598 95.6858 184.741 110.938 175.54C110.938 175.54 120.148 169.968 115.421 160.718C108.149 146.485 109.176 143.516 105.924 137.942C102.672 132.367 98.1021 125.564 87.5798 126.695Z" fill="#FFD38D"/>
<path d="M69.7653 138.756C74.1628 131.271 78.5445 128.634 82.4616 127.543C80.9462 129.122 79.4105 131.14 77.8736 133.758C70.8342 145.743 74.5394 163.646 80.0949 168.621C85.0223 173.033 99.8486 178.361 113.78 173.098C112.945 174.034 111.99 174.856 110.939 175.54C95.6868 184.736 77.5432 178.593 71.9877 173.623C66.4323 168.653 62.7271 150.74 69.7653 138.756Z" fill="#FFB43A"/>
<path d="M103.492 144.912L104.766 148.746L100.884 147.214L103.492 144.912Z" fill="#F79C8D"/>
<path d="M99.487 133.499C99.7463 133.509 100.456 133.747 101.493 135.706C102.818 138.209 104.754 145.772 104.754 145.772L98.9751 147.925L98.232 146.346L97.0098 134.194C97.0098 134.194 99.416 133.495 99.487 133.499Z" fill="#DD602A"/>
<path d="M91.8501 132.408C93.502 132.408 97.5905 132.892 99.4882 133.499C99.4882 133.499 100.883 145.481 98.2332 154.584C97.6401 156.623 98.7237 163.034 98.7237 163.034L81.6006 162.809C81.6006 162.809 83.6302 147.31 82.8646 144.807C82.099 142.304 82.0821 133.579 82.0821 133.579L85.9293 132.916C87.887 132.595 89.8664 132.426 91.8501 132.408Z" fill="#FF8049"/>
<path d="M89.8565 185.279C89.8565 185.279 90.2353 189.651 90.9322 190.862C91.629 192.073 90.895 194.132 90.8589 194.414C90.8228 194.696 89.3931 195.1 87.1188 194.858C84.8445 194.615 84.8828 194.091 85.0666 193.243C85.2504 192.395 86.4592 191.306 86.5325 190.499C86.6057 189.691 85.8356 186.786 85.8356 186.786L89.8565 185.279Z" fill="#F7A491"/>
<path d="M96.7943 159.427C96.7943 159.427 108.614 158.771 111.254 160.37C113.894 161.969 110.777 165.251 110.777 165.251C110.777 165.251 101.153 169.434 85.0429 170.364C81.2283 170.59 80.8991 160.417 81.6128 159.576C82.3266 158.735 96.7943 159.427 96.7943 159.427Z" fill="#19797B"/>
<path d="M86.8364 195.194C84.4956 194.945 84.7854 193.795 84.9737 192.922C85.0865 192.375 85.763 191.731 86.1644 191.118C86.373 191.284 86.7135 191.578 87.7295 191.879C88.7848 192.19 90.2315 191.573 91.1538 191.187C91.3937 192.175 91.4991 193.19 91.4673 194.206C91.429 194.502 89.1772 195.443 86.8364 195.194Z" fill="#184655"/>
<path d="M88.1276 167.884C88.5989 171.457 90.9375 189.247 90.9375 189.247L85.5117 189.924C85.5117 189.924 78.8399 166.704 79.1827 163.152C79.5255 159.601 82.0219 159.302 82.0219 159.302C82.0219 159.302 86.8771 158.423 88.1276 167.884Z" fill="#25AEB1"/>
<path d="M81.8964 134.912C83.4976 134.311 84.2801 148.737 84.4966 154.674C87.3313 154.947 92.2767 154.674 93.5035 154.584C94.0831 154.54 95.4204 154.052 95.992 153.976C96.5637 153.901 97.1196 153.864 97.4071 153.91C97.5131 153.928 100.468 155.137 100.721 155.402C101.036 155.73 101.882 156.56 101.736 156.918C101.589 157.277 100.107 155.919 100.107 155.919L99.3792 155.511C100.281 156.395 102.01 157.559 101.761 157.982C101.511 158.406 99.9622 157.215 98.8527 156.404C99.8043 157.263 100.986 158.802 100.714 159.041C100.47 159.257 99.1244 157.476 97.6879 156.963C97.1546 156.774 96.6235 157.301 96.2052 157.363C95.8973 157.41 95.4159 157.509 95.1193 157.423L93.5633 156.982C93.0333 157.031 93.0198 157.344 92.4853 157.458C91.8641 157.59 90.8436 157.73 90.0532 157.923C85.4956 159.037 83.9757 159.553 82.5809 159.552C78.357 159.555 78.1124 136.331 81.8964 134.912Z" fill="#F7A491"/>
<path d="M78.856 148.455C78.5561 142.373 78.6001 134.877 82.0132 133.597C83.3584 133.093 85.7342 136.127 85.3034 148.579C83.4802 148.729 80.8045 148.849 78.856 148.455Z" fill="#DD602A"/>
<path d="M97.9327 145.841H97.5855L92.3604 158.681L92.72 158.626L97.9327 145.841Z" fill="#F79C8D"/>
<path d="M105.727 189.016C105.727 189.016 105.254 190.534 106.101 191.537C106.948 192.541 110.471 193.526 110.934 194.07C111.396 194.613 111.361 195.076 111.361 195.076L101.475 194.804L101.587 191.818L102.038 189.676L105.727 189.016Z" fill="#F7A491"/>
<path d="M106.711 192.038C106.711 192.038 104.17 193.066 102.943 192.458C101.717 191.85 101.753 191.681 101.397 191.908C101.042 192.134 100.916 194.933 100.916 194.933L112.033 195.26C112.806 195.242 113.197 194.672 112.568 194.184C112.137 193.846 111.64 193.62 111.357 193.464C110.487 192.965 106.711 192.038 106.711 192.038Z" fill="#184655"/>
<path d="M105.346 162.229C106.111 160.621 107.848 158.527 110.906 159.788C113.822 160.991 114.606 163.946 113.686 166.972C112.765 169.999 106.707 187.792 106.496 190.239L101.66 190.27C101.66 190.27 102.539 176.182 102.754 172.777C102.961 169.5 104.024 165.012 105.346 162.229Z" fill="#25AEB1"/>
<path d="M113.198 145.841H97.0302C96.8208 145.841 96.6161 145.904 96.4424 146.021C96.2687 146.138 96.1338 146.304 96.0549 146.498L91.0767 158.676H82.16C82.0404 158.676 81.9257 158.724 81.8411 158.808C81.7565 158.893 81.709 159.007 81.709 159.127C81.709 159.247 81.7565 159.361 81.8411 159.446C81.9257 159.531 82.0404 159.578 82.16 159.578H107.53C107.872 159.578 108.206 159.478 108.493 159.292C108.78 159.106 109.007 158.841 109.146 158.528L114.158 147.325C114.228 147.165 114.258 146.989 114.244 146.815C114.23 146.64 114.173 146.471 114.078 146.324C113.983 146.177 113.853 146.056 113.699 145.972C113.546 145.887 113.373 145.842 113.198 145.841Z" fill="#394040"/>
<path d="M104.494 152.937C104.381 153.483 103.908 153.85 103.43 153.754C102.952 153.658 102.654 153.137 102.764 152.589C102.873 152.041 103.349 151.676 103.826 151.772C104.303 151.868 104.598 152.39 104.494 152.937Z" fill="white"/>
<path d="M95.6868 117.773C95.1987 117.613 94.7212 117.422 94.2571 117.201C93.7327 116.949 93.054 116.652 92.6255 116.587C91.7234 116.447 90.173 116.541 89.3172 117.469C88.2506 118.626 86.3563 117.677 86.7374 123.737C87.1704 130.595 90.9826 129.841 91.0762 129.725C91.1698 129.609 94.4769 125.338 94.4769 125.338C94.4769 125.338 95.6338 127.868 95.6338 127.776C95.6338 127.683 101.542 119.745 95.6868 117.773Z" fill="#0E2E35"/>
<path d="M92.796 130.232L93.1253 132.683C93.1253 132.683 93.8627 136.213 92.9133 136.894C91.9639 137.575 88.8789 132.582 88.8789 132.582L89.2048 126.373L92.796 130.232Z" fill="#F7A491"/>
<path d="M89.1016 128.384C89.8852 130.503 91.7513 131.804 93.0762 132.309L92.7977 130.232L89.2064 126.373L89.1016 128.384Z" fill="#F47458"/>
<path d="M92.6032 119.615C94.6136 119.291 96.4166 120.907 96.3659 122.92C96.341 123.972 96.2491 125.022 96.0907 126.063C95.6533 128.892 93.7229 131.382 92.4476 131.16C91.1723 130.938 87.9611 128.498 88.526 124.472C88.8755 121.987 90.4935 119.956 92.6032 119.615Z" fill="#F7A491"/>
<path d="M89.4128 124.955C89.3057 125.577 88.8073 126.01 88.2999 125.921C87.7925 125.832 87.4701 125.257 87.5772 124.636C87.6843 124.015 88.1838 123.58 88.6901 123.67C89.1963 123.759 89.5211 124.33 89.4128 124.955Z" fill="#F7A491"/>
<path d="M88.6912 123.666C88.6912 123.666 90.2348 124.05 90.8065 123.058C91.3782 122.065 93.4269 119.923 96.0293 120.811C98.6318 121.7 93.7393 118.652 93.5307 118.652C93.3221 118.652 90.8245 118.635 90.8245 118.635C90.8245 118.635 88.8987 120.214 88.8288 120.393C88.7589 120.572 88.2041 122.466 88.2041 122.466L88.6912 123.666Z" fill="#0E2E35"/>
<path d="M91.511 127.807L94.3186 128.344C94.3186 128.344 94.0502 129.401 92.8088 129.201C91.2922 128.957 91.511 127.807 91.511 127.807Z" fill="white"/>
<path d="M62.4969 96.5319L65.3045 97.0686C65.3045 97.0686 65.0373 98.1262 63.7958 97.9255C62.2815 97.6808 62.4969 96.5319 62.4969 96.5319Z" fill="white"/>
<path d="M216.931 181.256C214.482 181.486 212.057 181.919 209.681 182.552C205.341 183.694 201.167 185.378 197.059 187.169C195.04 188.049 193.007 188.918 191.025 189.883C190.1 190.334 189.167 190.785 188.319 191.364C187.169 192.144 185.374 193.705 185.162 193.958L186.105 193.986C186.75 193.46 189.115 191.462 192.4 189.88C200.18 186.131 208.267 182.286 216.947 181.332C216.952 181.331 216.957 181.329 216.961 181.327C216.965 181.324 216.969 181.32 216.972 181.316C216.974 181.311 216.976 181.307 216.977 181.302C216.978 181.296 216.978 181.291 216.977 181.286C216.976 181.281 216.974 181.276 216.971 181.272C216.968 181.268 216.965 181.264 216.96 181.261C216.956 181.259 216.951 181.257 216.946 181.256C216.941 181.255 216.936 181.255 216.931 181.256Z" fill="#3C8F7C"/>
</svg>
