<svg width="30" height="30" viewBox="0 0 30 30" fill="none" xmlns="http://www.w3.org/2000/svg">
<path d="M12.466 23.7694C12.1508 23.5818 11.7427 23.6106 11.458 23.8431C11.1735 24.0755 11.0662 24.4732 11.1887 24.8181C11.3114 25.1636 11.649 25.4004 12.0153 25.4004C12.4299 25.4004 12.7935 25.0989 12.8759 24.6938C12.9489 24.3352 12.7801 23.9563 12.466 23.7694Z" fill="#23685C"/>
<path d="M22.3958 13.5368C20.2041 13.5368 18.2264 14.4693 16.8374 15.9578C16.7138 16.0092 16.5968 16.0613 16.4832 16.1123C15.9418 16.355 15.5142 16.5466 14.5617 16.5466C13.6093 16.5466 13.1817 16.355 12.6404 16.1123C12.1777 15.9048 11.6684 15.6766 10.8788 15.5764V14.0024H15.1753C17.51 14.0024 19.4095 12.1029 19.4095 9.76815V7.87505C19.4095 7.39009 19.0163 6.99691 18.5314 6.99691H13.3567C12.4318 6.99691 11.576 7.29577 10.8788 7.80088V5.29712H12.3989C14.7337 5.29712 16.6332 3.39765 16.6332 1.0629V0.878141C16.6332 0.393173 16.24 0 15.755 0H13.3567C11.9913 0 10.7754 0.650351 10.0006 1.65688C9.22575 0.650351 8.00994 0 6.64449 0H4.24616C3.7612 0 3.36802 0.393173 3.36802 0.878141V1.0629C3.36802 3.39765 5.2675 5.29712 7.60225 5.29712H9.12242V7.80082C8.42518 7.29572 7.56929 6.99685 6.64449 6.99685H1.46983C0.984865 6.99685 0.591692 7.39003 0.591692 7.875V9.76809C0.591692 12.1028 2.49117 14.0023 4.82591 14.0023H9.12242V15.5764C8.33268 15.6766 7.82342 15.9048 7.3607 16.1122C6.81935 16.3549 6.39182 16.5466 5.43932 16.5466C4.48683 16.5466 4.0593 16.3549 3.51795 16.1122C2.90314 15.8366 2.20624 15.5242 0.878141 15.5242C0.393173 15.5242 0 15.9174 0 16.4023V19.9994C0 20.8558 0.108363 21.6872 0.311799 22.481C0.31859 22.5148 0.327664 22.5477 0.33826 22.5799C1.47908 26.8475 5.37832 30 10.0006 30C11.5929 30 13.1154 29.6366 14.5259 28.9198C15.5715 28.3884 16.5249 27.6658 17.3269 26.8042C18.6731 28.0104 20.4502 28.7453 22.3958 28.7453C26.5888 28.7453 30 25.334 30 21.141C30.0001 16.9481 26.5888 13.5368 22.3958 13.5368ZM13.3566 8.7532H17.6532V9.76815C17.6532 11.1345 16.5415 12.2461 15.1752 12.2461H10.8787V11.2311C10.8787 9.86481 11.9903 8.7532 13.3566 8.7532ZM13.3566 1.75628H14.7781C14.4774 2.78623 13.5246 3.54084 12.3989 3.54084H10.9774C11.2781 2.51096 12.2309 1.75628 13.3566 1.75628ZM7.60225 3.54084C6.47653 3.54084 5.52368 2.78617 5.22301 1.75628H6.64449C7.77026 1.75628 8.72305 2.51096 9.02372 3.54084H7.60225ZM2.34797 9.76815V8.7532H6.64449C8.01081 8.7532 9.12242 9.86481 9.12242 11.2311V12.2461H4.82591C3.45958 12.2461 2.34797 11.1344 2.34797 9.76815ZM1.75634 17.3529C2.16462 17.4302 2.45967 17.5625 2.79951 17.7149C3.41433 17.9905 4.11122 18.3029 5.43932 18.3029C6.76743 18.3029 7.46432 17.9905 8.07913 17.7149C8.62048 17.4722 9.04808 17.2805 10.0006 17.2805C10.9531 17.2805 11.3806 17.4722 11.9219 17.7149C12.5368 17.9905 13.2336 18.3029 14.5617 18.3029C14.8565 18.3029 15.1201 18.2875 15.3588 18.2605C14.9935 19.1495 14.7915 20.122 14.7915 21.1411C14.7915 21.2374 14.7939 21.3333 14.7975 21.4288H1.88063C1.79914 20.9644 1.75628 20.4869 1.75628 19.9995V17.3529H1.75634ZM12.8664 27.7359C12.8128 27.505 12.6679 27.2973 12.458 27.1741C12.1501 26.9934 11.7544 27.0181 11.4722 27.2378C11.1945 27.4539 11.0741 27.8262 11.1662 28.1625C10.7838 28.216 10.3946 28.2438 10.0006 28.2438C8.0878 28.2438 6.32513 27.5889 4.92485 26.4916C5.01126 26.5203 5.1027 26.5359 5.19649 26.5359C5.61021 26.5359 5.97569 26.235 6.05765 25.8298C6.13019 25.4711 5.96153 25.0919 5.64733 24.9048C5.33213 24.7172 4.92374 24.7464 4.63975 24.9791C4.35663 25.2111 4.24505 25.6091 4.36998 25.9537C4.38321 25.9902 4.3992 26.0251 4.41687 26.059C3.55296 25.2623 2.85911 24.284 2.39692 23.185H7.75147C7.71453 23.3404 7.7188 23.5059 7.77091 23.6613C7.88987 24.0163 8.22854 24.2643 8.60426 24.2643C9.00341 24.2643 9.35894 23.984 9.45594 23.5983C9.49043 23.4611 9.4889 23.3192 9.45694 23.185H15.071C15.2348 23.7712 15.4673 24.3288 15.7591 24.849C15.4637 24.7269 15.1151 24.7732 14.8637 24.9791C14.5806 25.2111 14.469 25.6091 14.5939 25.9537C14.6819 26.1966 14.8735 26.3855 15.1075 26.4764C14.4289 27.0144 13.6737 27.4382 12.8664 27.7359ZM22.3958 26.989C19.1712 26.989 16.5479 24.3656 16.5479 21.1411C16.5479 17.9165 19.1712 15.2931 22.3958 15.2931C25.6204 15.2931 28.2438 17.9164 28.2438 21.1411C28.2438 24.3656 25.6204 26.989 22.3958 26.989Z" fill="#23685C"/>
<path d="M24.0766 20.2613H23.2719V17.4662C23.2719 16.9812 22.8787 16.588 22.3938 16.588C21.9088 16.588 21.5156 16.9812 21.5156 17.4662V21.1394C21.5156 21.6244 21.9088 22.0176 22.3938 22.0176H24.0766C24.5616 22.0176 24.9548 21.6244 24.9548 21.1394C24.9548 20.6545 24.5616 20.2613 24.0766 20.2613Z" fill="#23685C"/>
</svg>
