<svg width="30" height="30" viewBox="0 0 30 30" fill="none" xmlns="http://www.w3.org/2000/svg">
<path d="M29.9869 6.51803C29.9813 6.4224 29.9756 6.32678 29.94 6.23115C29.9194 6.17678 29.8819 6.13928 29.8519 6.09053C29.8312 6.05678 29.8162 6.02678 29.7938 5.99678C29.6888 5.8599 29.5594 5.7549 29.4037 5.6949C29.3981 5.69303 29.3962 5.6874 29.3906 5.68553L14.3906 0.062401C14.1638 -0.025724 13.9144 -0.020099 13.6931 0.075526L0.568125 5.69865C0.555 5.70428 0.549375 5.71928 0.53625 5.7249C0.406875 5.78678 0.298125 5.8824 0.208125 6.00053C0.181875 6.03428 0.159375 6.06428 0.136875 6.10178C0.118125 6.13365 0.09 6.15615 0.075 6.19178C0.024375 6.31178 0 6.43553 0 6.55928V6.56115V23.4362C0 23.8112 0.223125 24.1505 0.568125 24.2987L13.6931 29.9237H13.695C13.8094 29.9724 13.9331 29.9987 14.0625 29.9987C14.175 29.9987 14.2856 29.978 14.3925 29.9387L14.4262 29.9255C14.4262 29.9255 14.4263 29.9255 14.4281 29.9255L29.3925 24.3137C29.7581 24.1768 30 23.8262 30 23.4362V6.56115C30 6.54428 29.9869 6.53303 29.9869 6.51803ZM13.125 27.638L1.875 22.8174V7.98422L13.125 12.8048V27.638ZM14.085 11.1755L3.31875 6.56115L14.085 1.94865L26.3925 6.56115L23.4581 7.66178L18.1969 5.3049C17.9306 5.1849 17.6269 5.19803 17.3737 5.33678L13.6969 6.89865C13.35 7.0449 13.125 7.3899 13.125 7.76678C13.125 8.14553 13.3538 8.48865 13.7063 8.63303L17.1169 10.0412L14.085 11.1755ZM20.625 10.7255L22.5 10.0224V14.5918L20.625 15.2949V10.7255ZM19.6912 9.07365L16.485 7.75178L17.8125 7.1874L20.9625 8.5974L19.6912 9.07365ZM28.125 22.7855L15 27.7074V12.8349L18.75 11.4287V16.6487C18.75 16.9562 18.9019 17.243 19.1531 17.4193C19.3125 17.5299 19.4981 17.5862 19.6875 17.5862C19.7981 17.5862 19.9106 17.5655 20.0175 17.5262L23.7675 16.1199C24.1331 15.9812 24.375 15.6324 24.375 15.2424V9.31928L28.125 7.91303V22.7855Z" fill="white"/>
</svg>
