<svg width="14" height="8" viewBox="0 0 14 8" fill="none" xmlns="http://www.w3.org/2000/svg">
<path d="M6.57861 7.67743L0.928611 2.01743C0.834882 1.92447 0.760488 1.81387 0.70972 1.69201C0.658951 1.57015 0.632812 1.43944 0.632812 1.30743C0.632812 1.17542 0.658951 1.04472 0.70972 0.922856C0.760488 0.800997 0.834882 0.690396 0.928611 0.597433C1.11597 0.411182 1.36942 0.306641 1.63361 0.306641C1.8978 0.306641 2.15125 0.411182 2.33861 0.597433L7.33861 5.54743L12.2886 0.597433C12.476 0.411182 12.7294 0.306641 12.9936 0.306641C13.2578 0.306641 13.5112 0.411182 13.6986 0.597433C13.7931 0.690048 13.8683 0.800493 13.9198 0.922368C13.9713 1.04424 13.9981 1.17513 13.9986 1.30743C13.9981 1.43974 13.9713 1.57062 13.9198 1.6925C13.8683 1.81437 13.7931 1.92482 13.6986 2.01743L8.04861 7.67743C7.95497 7.77894 7.84132 7.85995 7.71482 7.91535C7.58832 7.97076 7.45171 7.99936 7.31361 7.99936C7.17551 7.99936 7.0389 7.97076 6.9124 7.91535C6.7859 7.85995 6.67225 7.77894 6.57861 7.67743Z" fill="#443E3E"/>
</svg>
