<svg width="32" height="25" viewBox="0 0 32 25" fill="none" xmlns="http://www.w3.org/2000/svg">
<path d="M4 0C1.79086 0 0 1.86548 0 4.16667V6.25H32V4.16667C32 1.86548 30.2091 0 28 0H4Z" fill="#FF8049"/>
<path fill-rule="evenodd" clip-rule="evenodd" d="M32 10.4167H0V20.8333C0 23.1345 1.79086 25 4 25H28C30.2091 25 32 23.1345 32 20.8333V10.4167ZM4 18.75C4 17.5994 4.89543 16.6667 6 16.6667H8C9.10457 16.6667 10 17.5994 10 18.75C10 19.9006 9.10457 20.8333 8 20.8333H6C4.89543 20.8333 4 19.9006 4 18.75ZM14 16.6667C12.8954 16.6667 12 17.5994 12 18.75C12 19.9006 12.8954 20.8333 14 20.8333H16C17.1046 20.8333 18 19.9006 18 18.75C18 17.5994 17.1046 16.6667 16 16.6667H14Z" fill="#FF8049"/>
</svg>
