<svg width="24" height="24" viewBox="0 0 24 24" fill="none" xmlns="http://www.w3.org/2000/svg">
<path d="M22.1351 19.9223L23.7473 18.3101L22.7529 17.3158L21.0752 18.9936C20.9686 18.5594 20.735 18.1613 20.3983 17.8565C20.3952 17.8537 20.392 17.8512 20.3888 17.8484C20.8759 16.9309 21.1408 15.8736 21.1408 14.813C21.1408 13.6334 20.809 12.4821 20.1813 11.4835C19.5536 10.4849 19.5646 9.29719 19.6842 8.47671C20.0865 5.72068 18.1735 3.31518 15.6779 2.88759C15.6028 2.87475 15.5277 2.86402 15.4525 2.85464C15.1419 1.23164 13.7126 0.000976562 12.0004 0.000976562H11.2973V1.40719H12.0004C12.9437 1.40719 13.7443 2.02971 14.0132 2.88544C11.6434 3.28658 9.89106 5.35896 9.89106 7.782C9.89106 8.17072 9.93334 8.39581 9.95809 8.61771C9.55235 8.72345 9.15238 8.89182 8.76624 9.12282C8.6626 9.18483 8.55343 9.23536 8.44107 9.27591C8.31798 8.42417 7.93779 7.63425 7.33223 6.99368C6.53861 6.15412 5.4211 5.67264 4.26618 5.67264V7.07885C5.04742 7.07885 5.7734 7.39168 6.31034 7.9597C6.6528 8.32194 6.88656 8.75627 6.9998 9.22674C6.93057 9.19613 6.86265 9.162 6.79717 9.12282C5.88037 8.5743 4.88562 8.37443 3.92063 8.54459C1.6076 8.95243 -0.0409434 11.3957 0.000774164 14.3542C0.032367 16.593 0.981324 18.6989 2.53931 19.9876C3.44064 20.7331 4.54752 21.1869 5.72334 21.1031C5.92457 22.0445 6.70909 22.7716 7.70352 22.871L18.6592 23.989C19.7787 24.1009 20.817 23.3705 21.0795 22.2615L22.7529 23.935L23.7473 22.9407L22.1351 21.3285H24.0001V19.9223H22.1351ZM5.88384 19.6684C5.88065 19.669 5.87741 19.6698 5.87423 19.6703C5.07034 19.812 4.20435 19.5399 3.43563 18.904C2.20974 17.89 1.43239 16.139 1.40698 14.3345C1.37511 12.0695 2.535 10.2169 4.16503 9.92951C4.7922 9.81889 5.45297 9.95722 6.07541 10.3297C7.11211 10.9498 8.45167 10.9498 9.48842 10.3297C10.1109 9.95731 10.7714 9.81894 11.3989 9.92956C12.2853 10.0859 13.0476 10.713 13.5454 11.6954C14.0773 12.7452 14.241 14.0563 14.0063 15.3871C13.8461 16.2955 13.5134 17.1617 13.0649 17.8438L7.70497 18.3798C6.88623 18.4615 6.21031 18.9678 5.88384 19.6684ZM19.7346 21.7432C19.7346 22.2469 19.3015 22.6393 18.8002 22.5898L15.516 22.2547V20.6255H14.1098V22.1113L7.84489 21.472C7.40812 21.4283 7.07874 21.0644 7.07874 20.6255C7.07874 20.1865 7.40807 19.8226 7.84484 19.7789L11.2974 19.4337V20.6255H12.7036V19.2931L16.9222 18.8712V19.9224H18.3284V18.7306L18.7993 18.6835C19.2988 18.6335 19.7346 19.0241 19.7346 19.53V21.7432ZM19.0961 17.2839C18.9518 17.2702 18.8055 17.2696 18.6593 17.2842L14.7578 17.6743C15.0474 17.0424 15.2651 16.3454 15.3911 15.6311C15.6782 14.0026 15.4682 12.3792 14.7997 11.0597C14.097 9.67288 12.976 8.77966 11.643 8.54463C11.5491 8.52809 11.455 8.51609 11.3606 8.50652C11.3316 8.23278 11.2974 8.0841 11.2974 7.782C11.2974 5.64878 13.2023 3.89008 15.4405 4.2736C17.2303 4.58025 18.5798 6.30768 18.2929 8.27366C18.0723 9.78575 18.3136 11.1545 18.9909 12.2319C19.4775 13.006 19.7347 13.8985 19.7347 14.813C19.7346 15.6828 19.5094 16.5475 19.0961 17.2839Z" fill="#23685C"/>
</svg>
