<svg width="17" height="10" viewBox="0 0 17 10" fill="none" xmlns="http://www.w3.org/2000/svg">
<path d="M7.47522 0.402599L0.412717 7.4776C0.295556 7.5938 0.202564 7.73205 0.139103 7.88438C0.0756418 8.0367 0.0429687 8.20008 0.0429687 8.3651C0.0429687 8.53011 0.0756418 8.6935 0.139103 8.84582C0.202564 8.99814 0.295556 9.13639 0.412717 9.2526C0.64692 9.48541 0.963734 9.61609 1.29397 9.61609C1.6242 9.61609 1.94101 9.48541 2.17522 9.2526L8.42522 3.0651L14.6127 9.2526C14.8469 9.48541 15.1637 9.61609 15.494 9.61609C15.8242 9.61609 16.141 9.48541 16.3752 9.2526C16.4933 9.13683 16.5873 8.99877 16.6517 8.84643C16.716 8.69409 16.7495 8.53048 16.7502 8.3651C16.7495 8.19971 16.716 8.03611 16.6517 7.88377C16.5873 7.73142 16.4933 7.59337 16.3752 7.4776L9.31272 0.402599C9.19566 0.275719 9.0536 0.174458 8.89547 0.105198C8.73735 0.0359392 8.56659 0.000183105 8.39397 0.000183105C8.22134 0.000183105 8.05058 0.0359392 7.89246 0.105198C7.73433 0.174458 7.59227 0.275719 7.47522 0.402599Z" fill="#23685C"/>
</svg>
