<svg width="54" height="60" viewBox="0 0 54 60" fill="none" xmlns="http://www.w3.org/2000/svg">
<path d="M34.8076 28.9779C32.7744 27.7157 29.0474 29.0641 27.7831 29.6902C27.2904 29.9342 26.7088 29.935 26.2168 29.6902C24.8306 29.0038 21.1809 27.7434 19.1923 28.9779C18.0434 29.691 17.4609 31.3016 17.4609 33.7649C17.4609 39.0248 21.7402 43.304 27 43.304C32.2599 43.304 36.5391 39.0248 36.5391 33.7649C36.539 31.3016 35.9565 29.6911 34.8076 28.9779Z" fill="#23685C"/>
<path d="M34.6577 18.7028V18.5777C31.3858 18.5034 28.685 21.2044 28.7593 24.4761C31.9855 24.5455 34.6617 21.9316 34.6577 18.7028Z" fill="#23685C"/>
<path d="M53.2285 11.0129C53.1462 10.1075 52.3869 9.41418 51.4779 9.41418C51.3345 9.41418 37.0418 9.31246 28.2442 0.514924C27.9146 0.185274 27.4674 0 27.0012 0C26.5349 0 26.0878 0.185274 25.7583 0.514924C16.9609 9.31246 2.66806 9.41418 2.52463 9.41418C1.61548 9.41418 0.856338 10.1075 0.774072 11.0129C-2.33199 38.2268 11.2545 56.7108 27.0017 60C42.791 56.6776 56.3212 38.2265 53.2285 11.0129ZM27.0012 46.8205C19.8027 46.8205 13.9465 40.9641 13.9465 33.7657C13.8163 26.452 18.7698 23.5277 25.2434 25.5706C25.2434 24.9786 25.2434 23.7875 25.2434 23.1969L21.9926 19.9461C21.3061 19.2596 21.3061 18.1467 21.9926 17.4602C22.679 16.7737 23.792 16.7737 24.4785 17.4602L26.578 19.5596C28.2064 16.8667 31.1626 15.0625 34.5325 15.0625H36.4153C37.3861 15.0625 38.1731 15.8496 38.1731 16.8203C38.3138 20.3214 37.8296 22.9002 35.3443 25.3686C38.6291 26.5846 40.0113 29.3801 40.0561 33.7657C40.056 40.9642 34.1997 46.8205 27.0012 46.8205Z" fill="#23685C"/>
</svg>
