<svg width="60" height="60" viewBox="0 0 60 60" fill="none" xmlns="http://www.w3.org/2000/svg">
<g clip-path="url(#clip0)">
<path d="M27.5 34.3749C27.5 33.3424 26.655 32.4999 25.625 32.4999H16.25V39.9999C16.25 41.3799 15.13 42.4999 13.75 42.4999C12.37 42.4999 11.25 41.3799 11.25 39.9999V32.4999H1.875C0.8425 32.4999 0 33.3424 0 34.3749V58.1249C0 59.1574 0.8425 59.9999 1.875 59.9999H25.625C26.655 59.9999 27.5 59.1574 27.5 58.1249V34.3749Z" fill="#23685C"/>
<path d="M60 34.3749C60 33.3424 59.155 32.4999 58.125 32.4999H48.75V39.9999C48.75 41.3799 47.63 42.4999 46.25 42.4999C44.87 42.4999 43.75 41.3799 43.75 39.9999V32.4999H34.375C33.3425 32.4999 32.5 33.3424 32.5 34.3749V58.1249C32.5 59.1574 33.3425 59.9999 34.375 59.9999H58.125C59.155 59.9999 60 59.1574 60 58.1249V34.3749Z" fill="#23685C"/>
<path d="M43.75 1.875C43.75 0.845 42.905 0 41.875 0H32.5V7.5C32.5 8.88 31.38 10 30 10C28.62 10 27.5 8.88 27.5 7.5V0H18.125C17.0925 0 16.25 0.845 16.25 1.875V25.625C16.25 26.6575 17.0925 27.5 18.125 27.5H41.875C42.905 27.5 43.75 26.6575 43.75 25.625V1.875Z" fill="#23685C"/>
</g>
<defs>
<clipPath id="clip0">
<rect width="60" height="60" fill="white"/>
</clipPath>
</defs>
</svg>
