<svg width="60" height="60" viewBox="0 0 60 60" fill="none" xmlns="http://www.w3.org/2000/svg">
<ellipse cx="34.1268" cy="31.9575" rx="24.0065" ry="18.8698" transform="rotate(-5.39295 34.1268 31.9575)" fill="white"/>
<path d="M52.8261 14.3478H46.5652L43.1087 9.13043C41.8043 7.17391 39.5217 6 37.1739 6H22.8261C20.4783 6 18.1957 7.17391 16.8913 9.13043L13.4348 14.3478H7.17391C3.19565 14.3478 0 17.5435 0 21.5217V46.8261C0 50.8043 3.19565 54 7.17391 54H52.8261C56.8043 54 60 50.8043 60 46.8261V21.5217C60 17.5435 56.8043 14.3478 52.8261 14.3478ZM30 48.1304C21.0652 48.1304 13.8261 40.8913 13.8261 31.9565C13.8261 23.0217 21.0652 15.8478 30 15.8478C38.9348 15.8478 46.1739 23.087 46.1739 32.0217C46.1739 40.8913 38.9348 48.1304 30 48.1304ZM51.913 24.4565C51.8478 24.4565 51.7826 24.4565 51.6522 24.4565H49.0435C47.8696 24.3913 46.9565 23.413 47.0217 22.2391C47.087 21.1304 47.9348 20.2826 49.0435 20.2174H51.6522C52.8261 20.1522 53.8043 21.0652 53.8696 22.2391C53.9348 23.413 53.087 24.3913 51.913 24.4565Z" fill="#23685C"/>
<path d="M30 23.0214C25.0435 23.0214 21 27.0649 21 32.0214C21 36.9779 25.0435 40.9562 30 40.9562C34.9565 40.9562 39 36.9127 39 31.9562C39 26.9997 34.9565 23.0214 30 23.0214Z" fill="#23685C"/>
</svg>
