<svg width="23" height="24" viewBox="0 0 23 24" fill="none" xmlns="http://www.w3.org/2000/svg">
<path d="M11.9712 14.2648V10.9861H22.8389C22.9452 11.5575 23 12.2334 23 12.9652C23 15.4251 22.3385 18.4669 20.2068 20.6341C18.1334 22.8293 15.4841 24 11.9747 24C5.46983 24 0 18.6132 0 12C0 5.38676 5.46983 0 11.9747 0C15.5732 0 18.1368 1.43554 20.0629 3.30662L17.7872 5.62021C16.406 4.30314 14.5348 3.27875 11.9712 3.27875C7.22113 3.27875 3.50603 7.17073 3.50603 12C3.50603 16.8293 7.22113 20.7213 11.9712 20.7213C15.0523 20.7213 16.807 19.4634 17.9312 18.3206C18.8428 17.3937 19.4426 16.0697 19.679 14.2613L11.9712 14.2648Z" fill="white"/>
</svg>
