<svg width="22" height="22" viewBox="0 0 22 22" fill="none" xmlns="http://www.w3.org/2000/svg">
<path d="M9.64372 5.07994C10.0171 5.02617 10.3942 4.99943 10.7719 4.99994C14.1566 4.99994 17.339 7.28994 19.191 10.9999C18.9078 11.5645 18.5879 12.1122 18.2331 12.6399C18.1204 12.8038 18.0613 12.9949 18.0628 13.1899C18.0652 13.4082 18.1434 13.6197 18.2857 13.7922C18.428 13.9647 18.6264 14.0888 18.8508 14.1455C19.0751 14.2021 19.313 14.1883 19.5282 14.106C19.7433 14.0238 19.924 13.8776 20.0425 13.6899C20.5384 12.9579 20.9691 12.1886 21.3304 11.3899C21.3875 11.2652 21.4169 11.1308 21.4169 10.9949C21.4169 10.8591 21.3875 10.7247 21.3304 10.5999C19.1804 5.90994 15.1358 2.99994 10.7719 2.99994C10.2724 2.99758 9.77367 3.03774 9.28184 3.11994C9.14207 3.14227 9.00834 3.19024 8.8883 3.26112C8.76826 3.332 8.66426 3.4244 8.58223 3.53304C8.50019 3.64169 8.44174 3.76445 8.4102 3.89432C8.37867 4.02419 8.37467 4.15862 8.39843 4.28994C8.42219 4.42126 8.47325 4.5469 8.54869 4.65968C8.62413 4.77247 8.72248 4.87018 8.83811 4.94726C8.95375 5.02433 9.08441 5.07925 9.22264 5.10888C9.36087 5.13851 9.50395 5.14227 9.64372 5.11994V5.07994ZM1.94843 1.28994C1.84919 1.1967 1.73137 1.12274 1.60171 1.07228C1.47205 1.02182 1.33308 0.99585 1.19273 0.99585C1.05239 0.99585 0.913419 1.02182 0.783757 1.07228C0.654095 1.12274 0.536281 1.1967 0.437042 1.28994C0.236619 1.47824 0.124023 1.73364 0.124023 1.99994C0.124023 2.26624 0.236619 2.52164 0.437042 2.70994L3.73655 5.79994C2.23109 7.16147 1.03293 8.79393 0.213527 10.5999C0.15492 10.7261 0.124669 10.8623 0.124669 10.9999C0.124669 11.1376 0.15492 11.2738 0.213527 11.3999C2.36353 16.0899 6.40808 18.9999 10.7719 18.9999C12.6847 18.9875 14.5523 18.4524 16.1469 17.4599L19.5955 20.7099C19.6944 20.8037 19.8121 20.8781 19.9418 20.9288C20.0715 20.9796 20.2106 21.0057 20.3511 21.0057C20.4917 21.0057 20.6308 20.9796 20.7605 20.9288C20.8902 20.8781 21.0079 20.8037 21.1068 20.7099C21.2066 20.617 21.2858 20.5064 21.3398 20.3845C21.3939 20.2627 21.4217 20.132 21.4217 19.9999C21.4217 19.8679 21.3939 19.7372 21.3398 19.6154C21.2858 19.4935 21.2066 19.3829 21.1068 19.2899L1.94843 1.28994ZM8.71773 10.4799L11.3254 12.9299C11.1455 12.9784 10.9591 13.002 10.7719 12.9999C10.2074 12.9999 9.66593 12.7892 9.26671 12.4142C8.8675 12.0391 8.64323 11.5304 8.64323 10.9999C8.64105 10.8241 8.66615 10.649 8.71773 10.4799ZM10.7719 16.9999C7.38729 16.9999 4.20486 14.7099 2.36353 10.9999C3.0512 9.57369 4.02719 8.28652 5.23729 7.20994L7.1212 8.99994C6.67869 9.75874 6.50998 10.6319 6.64039 11.4884C6.77079 12.3449 7.19327 13.1386 7.84446 13.7504C8.49564 14.3622 9.34042 14.7592 10.252 14.8817C11.1637 15.0042 12.093 14.8457 12.9007 14.4299L14.593 15.9999C13.434 16.6408 12.1167 16.9856 10.7719 16.9999Z" fill="#CCCCCC"/>
</svg>
