<svg width="82" height="26" viewBox="0 0 82 26" fill="none" xmlns="http://www.w3.org/2000/svg">
<path d="M0.398438 24.823V22.7676H1.51042C2.11696 22.7676 2.58871 22.644 2.92568 22.3969C3.28511 22.1273 3.46482 21.5769 3.46482 20.7458V4.70622C3.46482 3.87504 3.28511 3.35836 2.92568 3.15618C2.58871 2.93153 2.11696 2.81921 1.51042 2.81921H0.398438V0.763723H13.4053V2.81921H12.0911C11.4397 2.81921 10.9679 2.93153 10.6759 3.15618C10.3838 3.38082 10.2378 3.94243 10.2378 4.841V11.6477C10.8668 11.6477 11.3947 11.5915 11.8216 11.4792C12.2484 11.3444 12.664 11.0861 13.0683 10.7042C13.3828 10.4122 13.8209 9.87302 14.3825 9.08676C14.9441 8.30051 15.5057 7.28962 16.0673 6.05408C16.7412 4.61636 17.3703 3.50437 17.9543 2.71812C18.5609 1.93187 19.1786 1.38149 19.8076 1.06699C20.4591 0.730027 21.1892 0.561544 21.9979 0.561544C23.0088 0.561544 23.7838 0.797419 24.323 1.26917C24.8846 1.71846 25.1654 2.34746 25.1654 3.15618C25.1654 3.71778 25.0306 4.20077 24.761 4.60513C24.4915 4.98702 24.0646 5.23413 23.4806 5.34645C23.3682 4.91963 23.1773 4.53773 22.9077 4.20077C22.6381 3.8638 22.2226 3.69532 21.6609 3.69532C21.1892 3.69532 20.8073 3.80764 20.5153 4.03229C20.2457 4.25693 19.9649 4.62759 19.6728 5.14427C19.4033 5.66095 19.0214 6.36858 18.5272 7.26715C17.7634 8.70487 17.1119 9.73823 16.5728 10.3672C16.0336 10.9962 15.4832 11.4904 14.9216 11.8499C15.9325 11.9847 16.876 12.3104 17.7521 12.8271C18.6507 13.3438 19.4819 14.3322 20.2457 15.7924L22.1327 19.3979C22.7392 20.566 23.2784 21.4197 23.7501 21.9588C24.2443 22.498 24.8733 22.7676 25.6371 22.7676H25.9741V24.823H21.8294C20.6837 24.823 19.7402 24.6658 18.9989 24.3513C18.2801 24.0143 17.696 23.5875 17.2467 23.0708C16.8199 22.5541 16.4492 22.015 16.1347 21.4534L13.1694 15.7924C12.7426 14.9612 12.2821 14.4333 11.7879 14.2086C11.3161 13.9615 10.7994 13.838 10.2378 13.838V20.7458C10.2378 21.6443 10.4063 22.2059 10.7433 22.4306C11.0802 22.6552 11.5632 22.7676 12.1922 22.7676H13.4053V24.823H0.398438Z" fill="white"/>
<path d="M41.5998 25.16C38.8816 25.16 36.6127 24.6433 34.7931 23.61C32.9735 22.5766 31.6032 21.1389 30.6821 19.2968C29.7836 17.4323 29.3343 15.2532 29.3343 12.7597C29.3343 10.3335 29.7948 8.19942 30.7158 6.35735C31.6369 4.4928 33.0072 3.04385 34.8268 2.01049C36.6464 0.95467 38.8929 0.426758 41.5661 0.426758C44.3517 0.426758 46.4296 0.819884 47.8 1.60614C49.1928 2.36992 49.8891 3.31343 49.8891 4.43664C49.8891 5.35768 49.4623 6.14393 48.6087 6.7954C47.7775 7.44687 46.4858 7.7726 44.7336 7.7726C44.7336 7.00881 44.6213 6.25626 44.3966 5.51493C44.1944 4.75114 43.835 4.12214 43.3183 3.62793C42.8016 3.11125 42.094 2.85291 41.1954 2.85291C39.3534 2.85291 38.0954 3.71778 37.4214 5.44754C36.7475 7.15483 36.4105 9.59221 36.4105 12.7597C36.4105 15.0286 36.6127 16.8594 37.0171 18.2522C37.4214 19.6225 38.0841 20.611 39.0052 21.2175C39.9487 21.824 41.1954 22.1273 42.7455 22.1273C43.9586 22.1273 44.9807 21.9476 45.8119 21.5882C46.6655 21.2063 47.3844 20.7458 47.9684 20.2066C48.5525 19.6675 49.0355 19.1508 49.4174 18.6566C49.5746 18.8138 49.6982 19.0497 49.7881 19.3642C49.8779 19.6787 49.9228 19.9595 49.9228 20.2066C49.9228 20.7233 49.7993 21.2737 49.5522 21.8577C49.3275 22.4194 48.912 22.9585 48.3054 23.4752C47.6989 23.9694 46.8452 24.3738 45.7445 24.6883C44.6662 25.0028 43.2846 25.16 41.5998 25.16Z" fill="white"/>
<path d="M54.27 24.823V22.7676H55.3819C55.9885 22.7676 56.4715 22.6552 56.8309 22.4306C57.1903 22.2059 57.37 21.6443 57.37 20.7458V4.70622C57.37 3.87504 57.1791 3.35836 56.7972 3.15618C56.4378 2.93153 55.966 2.81921 55.3819 2.81921H54.27V0.763723H81.2946V2.81921H80.0815C79.4974 2.81921 79.0369 2.93153 78.6999 3.15618C78.363 3.38082 78.1945 3.94243 78.1945 4.841V20.9142C78.1945 21.7454 78.3742 22.2621 78.7336 22.4643C79.1155 22.6665 79.5873 22.7676 80.1489 22.7676H81.2946V24.823H68.9953V22.7676H69.5008C70.0849 22.7676 70.5566 22.6552 70.916 22.4306C71.2755 22.2059 71.4552 21.6443 71.4552 20.7458V3.08878H64.1093V20.7458C64.1093 21.6443 64.2554 22.2059 64.5474 22.4306C64.8619 22.6552 65.3224 22.7676 65.929 22.7676H66.5692V24.823H54.27Z" fill="white"/>
</svg>
