<svg width="105" height="33" viewBox="0 0 105 33" fill="none" xmlns="http://www.w3.org/2000/svg">
<path d="M-0.000976562 31.641V28.9751H1.44123C2.22789 28.9751 2.83973 28.8148 3.27676 28.4943C3.74293 28.1447 3.97601 27.4309 3.97601 26.3529V5.55018C3.97601 4.47217 3.74293 3.80205 3.27676 3.53983C2.83973 3.24848 2.22789 3.1028 1.44123 3.1028H-0.000976562V0.436909H16.8684V3.1028H15.164C14.3191 3.1028 13.7073 3.24848 13.3285 3.53983C12.9497 3.83119 12.7603 4.55957 12.7603 5.72499V14.553C13.5761 14.553 14.2608 14.4802 14.8144 14.3345C15.368 14.1597 15.907 13.8246 16.4314 13.3293C16.8393 12.9506 17.4075 12.2513 18.1358 11.2316C18.8642 10.2118 19.5926 8.90075 20.321 7.29831C21.1951 5.43364 22.0109 3.99143 22.7684 2.97169C23.555 1.95195 24.3563 1.23813 25.1721 0.830238C26.017 0.393207 26.9639 0.174691 28.0128 0.174691C29.3239 0.174691 30.329 0.480613 31.0283 1.09246C31.7567 1.67517 32.1209 2.49096 32.1209 3.53983C32.1209 4.26822 31.946 4.89463 31.5964 5.41907C31.2468 5.91437 30.6932 6.23486 29.9357 6.38054C29.79 5.82697 29.5424 5.33166 29.1927 4.89463C28.8431 4.4576 28.3041 4.23908 27.5757 4.23908C26.9639 4.23908 26.4686 4.38476 26.0898 4.67612C25.7402 4.96747 25.376 5.4482 24.9972 6.11832C24.6476 6.78843 24.1523 7.7062 23.5113 8.87162C22.5207 10.7363 21.6758 12.0765 20.9765 12.8923C20.2773 13.7081 19.5635 14.3491 18.8351 14.8152C20.1462 14.9901 21.3699 15.4125 22.5062 16.0826C23.6716 16.7528 24.7496 18.0347 25.7402 19.9285L28.1876 24.6048C28.9742 26.1198 29.6735 27.2269 30.2853 27.9262C30.9263 28.6254 31.7421 28.9751 32.7327 28.9751H33.1697V31.641H27.7942C26.3083 31.641 25.0846 31.437 24.1232 31.0291C23.1908 30.5921 22.4333 30.0385 21.8506 29.3684C21.297 28.6983 20.8163 27.999 20.4084 27.2706L16.5625 19.9285C16.009 18.8505 15.4117 18.1658 14.7707 17.8745C14.1588 17.554 13.4887 17.3937 12.7603 17.3937V26.3529C12.7603 27.5183 12.9789 28.2467 13.4159 28.538C13.8529 28.8294 14.4793 28.9751 15.2951 28.9751H16.8684V31.641H-0.000976562Z" fill="#155F52"/>
<path d="M53.4357 32.078C49.9103 32.078 46.9676 31.4079 44.6077 30.0677C42.2477 28.7274 40.4704 26.8628 39.2759 24.4736C38.1105 22.0554 37.5278 19.2293 37.5278 15.9952C37.5278 12.8486 38.125 10.0807 39.3196 7.69163C40.5141 5.27339 42.2914 3.39416 44.6514 2.05393C47.0113 0.684561 49.9249 -0.00012207 53.392 -0.00012207C57.0048 -0.00012207 59.6998 0.509749 61.4771 1.52949C63.2835 2.52009 64.1867 3.74378 64.1867 5.20055C64.1867 6.39511 63.6331 7.41485 62.526 8.25978C61.448 9.1047 59.7727 9.52717 57.5001 9.52717C57.5001 8.53656 57.3544 7.56052 57.0631 6.59906C56.8009 5.60845 56.3347 4.79266 55.6646 4.15168C54.9944 3.48156 54.0767 3.14651 52.9113 3.14651C50.5222 3.14651 48.8906 4.26822 48.0165 6.51165C47.1424 8.72594 46.7054 11.8871 46.7054 15.9952C46.7054 18.9379 46.9676 21.3125 47.4921 23.1188C48.0165 24.8961 48.876 26.1781 50.0706 26.9647C51.2943 27.7514 52.9113 28.1447 54.9216 28.1447C56.4949 28.1447 57.8206 27.9116 58.8986 27.4455C60.0057 26.9502 60.9381 26.3529 61.6956 25.6536C62.4531 24.9544 63.0795 24.2843 63.5748 23.6433C63.7788 23.8472 63.939 24.1532 64.0556 24.5611C64.1721 24.969 64.2304 25.3331 64.2304 25.6536C64.2304 26.3237 64.0701 27.0376 63.7497 27.7951C63.4583 28.5235 62.9193 29.2227 62.1326 29.8928C61.346 30.5338 60.2388 31.0583 58.8112 31.4662C57.4127 31.8741 55.6209 32.078 53.4357 32.078Z" fill="#155F52"/>
<path d="M69.8684 31.641V28.9751H71.3106C72.0973 28.9751 72.7237 28.8294 73.1899 28.538C73.656 28.2467 73.8891 27.5183 73.8891 26.3529V5.55018C73.8891 4.47217 73.6415 3.80205 73.1462 3.53983C72.68 3.24848 72.0682 3.1028 71.3106 3.1028H69.8684V0.436909H104.918V3.1028H103.345C102.588 3.1028 101.99 3.24848 101.553 3.53983C101.116 3.83119 100.898 4.55957 100.898 5.72499V26.5714C100.898 27.6494 101.131 28.3195 101.597 28.5817C102.092 28.844 102.704 28.9751 103.432 28.9751H104.918V31.641H88.9667V28.9751H89.6223C90.3798 28.9751 90.9916 28.8294 91.4578 28.538C91.924 28.2467 92.1571 27.5183 92.1571 26.3529V3.45243H82.6298V26.3529C82.6298 27.5183 82.8191 28.2467 83.1979 28.538C83.6058 28.8294 84.2031 28.9751 84.9897 28.9751H85.8201V31.641H69.8684Z" fill="#155F52"/>
</svg>
