<svg width="50" height="50" viewBox="0 0 50 50" fill="none" xmlns="http://www.w3.org/2000/svg">
<rect width="50" height="50" rx="25" fill="#5181B8"/>
<path fill-rule="evenodd" clip-rule="evenodd" d="M40.8996 17.223C41.1314 16.4504 40.8996 15.8826 39.7967 15.8826H36.1501C35.2228 15.8826 34.7956 16.373 34.5637 16.9141C34.5637 16.9141 32.7091 21.4341 30.082 24.3702C29.232 25.2202 28.8457 25.4903 28.3821 25.4903C28.1503 25.4903 27.8148 25.2202 27.8148 24.4476V17.223C27.8148 16.2957 27.5457 15.8826 26.7729 15.8826H21.0424C20.4631 15.8826 20.1145 16.3129 20.1145 16.7208C20.1145 17.5999 21.4279 17.8025 21.5633 20.275V25.6453C21.5633 26.8226 21.3508 27.0362 20.8871 27.0362C19.6509 27.0362 16.6439 22.4956 14.8602 17.3003C14.5106 16.2905 14.16 15.8826 13.228 15.8826H9.58135C8.53944 15.8826 8.33105 16.373 8.33105 16.9141C8.33105 17.8799 9.56754 22.6706 14.0876 29.0065C17.1013 33.333 21.3466 35.6789 25.21 35.6789C27.5282 35.6789 27.8148 35.1579 27.8148 34.2606V30.9903C27.8148 29.9484 28.0344 29.7405 28.7681 29.7405C29.3094 29.7405 30.2364 30.0109 32.4002 32.097C34.8727 34.5692 35.2801 35.6789 36.671 35.6789H40.3177C41.3596 35.6789 41.8806 35.1579 41.58 34.1298C41.2512 33.1051 40.0708 31.6188 38.5042 29.8564C37.6543 28.8517 36.3793 27.77 35.9932 27.2292C35.4522 26.5338 35.6067 26.2248 35.9932 25.607C35.9932 25.607 40.4359 19.3482 40.8996 17.2232V17.223Z" fill="white"/>
</svg>
