<svg width="50" height="50" viewBox="0 0 50 50" fill="none" xmlns="http://www.w3.org/2000/svg">
<rect width="50" height="50" rx="25" fill="#EA4335"/>
<path d="M36.9313 20.1782C37.9952 20.1782 39.0586 20.1782 40.1273 20.1782C40.1332 21.2475 40.1434 22.3221 40.1492 23.3908C41.218 23.4015 42.2926 23.4069 43.3618 23.4122C43.3618 24.4815 43.3618 25.5449 43.3618 26.6141C42.2931 26.6195 41.2185 26.6249 40.1492 26.6302C40.1385 27.7048 40.1332 28.7736 40.1273 29.8482C39.0586 29.8428 37.9888 29.8482 36.9254 29.8482C36.9152 28.7736 36.9152 27.7048 36.904 26.6356C35.8353 26.6244 34.7607 26.6195 33.6914 26.6137C33.6914 25.5444 33.6914 24.481 33.6914 23.4118C34.7607 23.4064 35.8299 23.4011 36.904 23.3903C36.9094 22.3221 36.9201 21.2475 36.9313 20.1782Z" fill="white"/>
<path d="M7.94929 25.0134C7.72892 19.2113 12.811 13.8495 18.6189 13.78C21.5791 13.5275 24.4589 14.677 26.6991 16.5518C25.7802 17.5622 24.8452 18.5609 23.8465 19.4959C21.8743 18.2978 19.4999 17.3847 17.195 18.1956C13.4775 19.2542 11.2261 23.6435 12.6018 27.2803C13.7411 31.0787 18.3611 33.1632 21.9819 31.5675C23.8567 30.8962 25.0928 29.1664 25.6352 27.3076C23.4865 27.2648 21.3373 27.2915 19.1886 27.2322C19.1832 25.9537 19.1779 24.6802 19.1832 23.4018C22.7665 23.3964 26.3552 23.3857 29.9438 23.4178C30.1642 26.5502 29.702 29.9024 27.6657 32.4164C24.8773 36.0051 19.7256 37.0583 15.5347 35.6504C11.087 34.1896 7.85249 29.7088 7.94929 25.0134Z" fill="white"/>
</svg>
