<svg width="16" height="15" viewBox="0 0 16 15" fill="none" xmlns="http://www.w3.org/2000/svg">
<path d="M14.9952 5.42558C14.9479 5.2884 14.8617 5.1679 14.7472 5.07871C14.6327 4.98952 14.4948 4.93545 14.3502 4.92308L10.0827 4.30058L8.17022 0.423083C8.10881 0.296279 8.01292 0.189339 7.89354 0.114513C7.77416 0.0396862 7.63612 0 7.49522 0C7.35433 0 7.21629 0.0396862 7.09691 0.114513C6.97753 0.189339 6.88164 0.296279 6.82022 0.423083L4.90772 4.29308L0.640222 4.92308C0.501414 4.94281 0.370916 5.00106 0.263535 5.0912C0.156155 5.18135 0.0761923 5.29979 0.0327223 5.43308C-0.00706894 5.56334 -0.0106397 5.70197 0.0223932 5.8341C0.055426 5.96623 0.123816 6.08688 0.220222 6.18308L3.31772 9.18308L2.56772 13.4431C2.54095 13.5837 2.55497 13.729 2.60813 13.8619C2.66129 13.9948 2.75136 14.1097 2.86772 14.1931C2.98114 14.2742 3.1149 14.322 3.25401 14.3313C3.39311 14.3406 3.53205 14.3109 3.65522 14.2456L7.49522 12.2431L11.3202 14.2531C11.4255 14.3125 11.5444 14.3435 11.6652 14.3431C11.8241 14.3437 11.979 14.2938 12.1077 14.2006C12.2241 14.1172 12.3142 14.0023 12.3673 13.8694C12.4205 13.7365 12.4345 13.5912 12.4077 13.4506L11.6577 9.19058L14.7552 6.19058C14.8635 6.09884 14.9435 5.97826 14.986 5.84284C15.0285 5.70743 15.0317 5.56274 14.9952 5.42558ZM10.3827 8.42558C10.2948 8.51066 10.229 8.61596 10.1911 8.73231C10.1531 8.84866 10.1443 8.97252 10.1652 9.09308L10.7052 12.2356L7.88522 10.7356C7.77671 10.6778 7.65566 10.6476 7.53272 10.6476C7.40979 10.6476 7.28874 10.6778 7.18022 10.7356L4.36022 12.2356L4.90022 9.09308C4.92117 8.97252 4.91231 8.84866 4.8744 8.73231C4.83649 8.61596 4.77068 8.51066 4.68272 8.42558L2.43272 6.17558L5.59022 5.71808C5.71172 5.70118 5.82722 5.65474 5.9266 5.58282C6.02597 5.51091 6.10619 5.41571 6.16022 5.30558L7.49522 2.44808L8.90522 5.31308C8.95925 5.42321 9.03947 5.51841 9.13885 5.59032C9.23823 5.66224 9.35372 5.70868 9.47522 5.72558L12.6327 6.18308L10.3827 8.42558Z" fill="#FCC02A"/>
</svg>
