<?xml version="1.0" encoding="UTF-8"?>
<!DOCTYPE svg PUBLIC "-//W3C//DTD SVG 1.1//EN" "http://www.w3.org/Graphics/SVG/1.1/DTD/svg11.dtd">
<!-- Creator: CorelDRAW 2021 (64-Bit) -->
<svg xmlns="http://www.w3.org/2000/svg" xml:space="preserve" width="17.6388mm" height="17.6388mm" version="1.1" style="shape-rendering:geometricPrecision; text-rendering:geometricPrecision; image-rendering:optimizeQuality; fill-rule:evenodd; clip-rule:evenodd"
viewBox="0 0 1763.88 1763.88"
 xmlns:xlink="http://www.w3.org/1999/xlink"
 xmlns:xodm="http://www.corel.com/coreldraw/odm/2003">
 <defs>
  <style type="text/css">
   <![CDATA[
    .fil0 {fill:black}
    .fil3 {fill:#69C9D0}
    .fil1 {fill:#EE1D52}
    .fil2 {fill:white}
   ]]>
  </style>
 </defs>
 <g id="Слой_x0020_1">
  <metadata id="CorelCorpID_0Corel-Layer"/>
  <circle class="fil0" cx="881.94" cy="881.94" r="881.95"/>
  <g id="_2460146499120">
   <path class="fil1" d="M1137.12 685.61c77.21,55.17 171.82,87.63 273.98,87.63l0 -196.51c-0.04,0 -0.08,0 -0.11,0 -19.28,0 -38.59,-2.03 -57.42,-6.02l0 154.68c-102.16,0 -196.75,-32.46 -273.98,-87.63l0 401.01c0,200.6 -162.71,363.21 -363.4,363.21 -74.88,0 -144.48,-22.63 -202.3,-61.43 65.98,67.43 158.01,109.27 259.82,109.27 200.71,0 363.42,-162.61 363.42,-363.22l0 -400.99 -0.01 0zm-222.32 392.13c-21.98,-28.81 -33.91,-64.09 -33.91,-100.34 0,-0.06 0,-0.18 0,-0.24 0,-6.83 159.16,-610.93 159.16,-97.31 -16.27,-5.15 -33.28,-7.79 -50.35,-7.79 -0.02,0 -0.1,0 -0.12,0 -91.81,0 -166.23,74.39 -166.23,166.14 0,64.88 37.2,121.06 91.44,148.42l0.01 -108.88z"/>
   <path class="fil2" d="M1079.58 637.76c77.24,55.17 171.82,87.63 273.98,87.63l0 -154.67c-57.02,-12.14 -107.5,-41.93 -145.46,-83.36 -64.97,-40.52 -111.78,-107.37 -125.51,-185.62l-143.22 0 0 784.86c-0.32,91.49 -74.62,165.58 -166.23,165.58 -53.99,0 -101.96,-25.72 -132.33,-65.56 -54.24,-27.37 -91.44,-83.54 -91.44,-148.42 0,-91.76 74.41,-166.14 166.23,-166.14 17.59,0 34.54,2.74 50.45,7.78l0 -156.37c-197.17,4.08 -355.75,165.1 -355.75,363.13 0,98.86 39.49,188.48 103.58,253.95 57.82,38.81 127.42,61.44 202.3,61.44 200.7,0 363.4,-162.62 363.4,-363.22l0 -401.01z"/>
   <path class="fil3" d="M1353.56 570.72l0 -41.83c-0.14,0 -0.28,0 -0.41,0 -51.26,0 -101.61,-14.45 -145.07,-41.55 38.62,42.26 89.51,71.42 145.47,83.36l0.01 0.02zm-270.97 -268.98c-1.29,-7.4 -2.31,-15.03 -3,-22.55l-0.01 -25.28 -197.75 0 0 784.86c-0.32,91.49 -74.61,165.57 -166.23,165.57 -26.9,0 -52.3,-6.38 -74.79,-17.72 30.37,39.84 78.34,65.56 132.33,65.56 91.61,0 165.91,-74.09 166.23,-165.58l0 -784.86 143.22 0zm-316.54 421.73l0 -44.52c-16.41,-2.26 -33.06,-3.38 -49.67,-3.38 -0.04,0 -0.13,0 -0.18,0 -200.73,0 -363.43,162.61 -363.43,363.2 0,125.76 63.95,236.58 161.12,301.78 -64.09,-65.48 -103.58,-155.1 -103.58,-253.95 0,-198.03 158.57,-359.05 355.74,-363.13z"/>
  </g>
 </g>
</svg>
