<svg width="60" height="60" viewBox="0 0 60 60" fill="none" xmlns="http://www.w3.org/2000/svg">
<g clip-path="url(#clip0)">
<circle cx="46.5" cy="38.5" r="3.5" fill="white"/>
<path d="M11.5 18L38.5 1H40.5L46.5 9L51.5 20L35.5 24L11.5 18Z" fill="white"/>
<path d="M55.9083 49.0911H46.3629C40.3479 49.0911 35.4541 44.1973 35.4541 38.1822C35.4541 32.1671 40.3479 27.2733 46.3629 27.2733H55.9083C56.662 27.2733 57.2719 26.6634 57.2719 25.9097V21.8188C57.2719 18.9593 55.0539 16.6338 52.2516 16.4083L44.4202 2.72954C43.6944 1.46445 42.5225 0.560242 41.1203 0.18478C39.7246 -0.188126 38.2652 0.00772307 37.0161 0.734742L10.1696 16.3643H5.4545C2.44632 16.3643 0 18.8105 0 21.8188V54.5456C0 57.5537 2.4462 60.0001 5.4545 60.0001H51.8174C54.8256 60.0001 57.2719 57.5539 57.2719 54.5456V50.4547C57.2719 49.701 56.662 49.0911 55.9083 49.0911ZM46.1113 11.1746L49.0826 16.3643H37.1973L46.1113 11.1746ZM15.5899 16.3643L38.389 3.09171C39.0055 2.73082 39.7259 2.63494 40.4145 2.81877C41.1109 3.00516 41.6916 3.45528 42.0525 4.08514L42.0553 4.09013L20.9734 16.3643H15.5899Z" fill="#23685C"/>
<path d="M55.9067 30.0007H46.3614C41.8497 30.0007 38.1797 33.6707 38.1797 38.1824C38.1797 42.6941 41.8497 46.3641 46.3614 46.3641H55.9067C58.1626 46.3641 59.9976 44.5291 59.9976 42.2732V34.0915C59.9976 31.8357 58.1626 30.0007 55.9067 30.0007ZM46.3614 40.9095C44.858 40.9095 43.6342 39.6858 43.6342 38.1824C43.6342 36.679 44.858 35.4552 46.3614 35.4552C47.8648 35.4552 49.0886 36.679 49.0886 38.1824C49.0887 39.6858 47.8649 40.9095 46.3614 40.9095Z" fill="#23685C"/>
</g>
<defs>
<clipPath id="clip0">
<rect width="60" height="60" fill="white"/>
</clipPath>
</defs>
</svg>
