<svg width="51" height="50" viewBox="0 0 51 50" fill="none" xmlns="http://www.w3.org/2000/svg">
<circle cx="25.25" cy="25" r="25" fill="#F40000"/>
<path d="M36.1414 23.6414C36.1414 23.1566 36.0606 22.5909 36.0606 21.9444C35.9798 21.298 35.899 20.6515 35.8182 20.0859C35.6566 19.4394 35.4141 18.9545 34.9293 18.5505C34.5252 18.1465 33.9596 17.904 33.3939 17.8232C31.5354 17.5808 28.7879 17.5 25.0707 17.5C21.3535 17.5 18.5252 17.5808 16.7475 17.8232C16.1818 17.904 15.6162 18.1465 15.2121 18.5505C14.8081 18.9545 14.4848 19.4394 14.3232 20.0859C14.1616 20.6515 14.0808 21.2172 14.0808 21.9444C14 22.5909 14 23.1566 14 23.6414C14 24.1263 14 24.6919 14 25.5C14 26.3081 14 26.9545 14 27.3586C14 27.8434 14.0808 28.4091 14.0808 29.0556C14.1616 29.702 14.2424 30.3485 14.3232 30.9141C14.4848 31.5606 14.7273 32.0455 15.2121 32.4495C15.6162 32.8535 16.1818 33.096 16.7475 33.1768C18.6061 33.4192 21.3535 33.5 25.0707 33.5C28.7879 33.5 31.6162 33.4192 33.3939 33.1768C33.9596 33.096 34.5252 32.8535 34.9293 32.4495C35.3333 32.0455 35.6566 31.5606 35.8182 30.9141C35.9798 30.3485 36.0606 29.7828 36.0606 29.0556C36.1414 28.4091 36.1414 27.8434 36.1414 27.3586C36.1414 26.8737 36.1414 26.3081 36.1414 25.5C36.1414 24.6919 36.1414 24.0454 36.1414 23.6414ZM29.3535 26.1465L22.9697 30.1061C22.8889 30.1869 22.7273 30.2677 22.5657 30.2677C22.404 30.2677 22.3232 30.2677 22.1616 30.1869C21.9192 30.0253 21.7576 29.7828 21.7576 29.4596V21.4596C21.7576 21.1364 21.9192 20.8939 22.1616 20.7323C22.404 20.5707 22.7273 20.5707 22.9697 20.7323L29.3535 24.6919C29.596 24.8535 29.7576 25.096 29.7576 25.3384C29.7576 25.5808 29.596 25.9848 29.3535 26.1465Z" fill="white"/>
</svg>
