<?xml version="1.0"?>
<svg xmlns="http://www.w3.org/2000/svg" xmlns:xlink="http://www.w3.org/1999/xlink" version="1.1" xml:space="preserve">
  <defs>
    <symbol id="1" width="100%" height="100%" viewBox="0 0 23 22">
      <rect x="0.650391" y="0.846191" width="9.73092" height="9.23077" rx="2" />
      <rect x="12.3274" y="0.846191" width="9.73092" height="9.23077" rx="2" />
      <rect x="12.3274" y="11.9231" width="9.73092" height="9.23077" rx="2" />
      <rect x="0.650391" y="11.9231" width="9.73092" height="9.23077" rx="2" />
    </symbol>
    <symbol id="2" width="100%" height="100%" viewBox="0 0 21 22">
      <path d="M20.9559 20.9506C20.0241 18.6118 20.7274 20.4474 17.0215 10.5302C17.7627 9.02971 17.5556 7.21179 16.4475 5.91393C16.247 3.97001 14.742 2.41973 12.8146 2.15538C11.7633 0.689518 9.70166 0.349405 8.23827 1.43316C6.28817 0.966221 4.23102 1.53816 2.76475 2.94432C0.064836 3.77031 -0.869859 7.08456 0.917591 9.20265C-1.06997 11.2421 0.382303 14.7206 3.25309 14.7206C3.71179 14.7206 4.15979 14.6251 4.57237 14.4419C5.03684 14.8701 5.62401 15.1336 6.25894 15.1946V21.1791C6.25894 21.52 6.53564 21.7967 6.87658 21.7967C7.21752 21.7967 7.49422 21.52 7.49422 21.1791V18.4738L9.77125 16.1194C10.9032 16.338 12.1096 16.0963 13.0888 15.3774C15.0937 20.6994 14.5551 19.1981 15.2658 21.3714C15.3712 21.6934 15.7179 21.8717 16.0452 21.7663C16.3693 21.66 16.5459 21.3113 16.4401 20.9868L16.1663 20.1497H19.3072L19.8087 21.4076C19.9351 21.7255 20.295 21.8787 20.6108 21.7527C20.9279 21.6267 21.0823 21.2672 20.9559 20.9506ZM2.96445 6.68515C2.96445 6.34381 3.24115 6.0671 3.5825 6.0671C3.92344 6.0671 4.20014 6.34381 4.20014 6.68515C4.20014 7.02609 3.92344 7.30279 3.5825 7.30279C3.24115 7.30279 2.96445 7.02609 2.96445 6.68515ZM3.91191 11.9145C3.57056 11.9145 3.29386 11.6378 3.29386 11.2969C3.29386 10.9555 3.57056 10.6788 3.91191 10.6788C4.25285 10.6788 4.52955 10.9555 4.52955 11.2969C4.52955 11.6378 4.25285 11.9145 3.91191 11.9145ZM14.7737 12.6079C15.293 12.4029 15.7578 12.0994 16.149 11.7234L16.8663 13.6439H14.4744C14.616 13.3182 14.7177 12.9711 14.7737 12.6079ZM4.94131 4.70871C4.94131 4.36736 5.21801 4.09065 5.55895 4.09065C5.9003 4.09065 6.177 4.36736 6.177 4.70871C6.177 5.04964 5.9003 5.32635 5.55895 5.32635C5.21801 5.32635 4.94131 5.04964 4.94131 4.70871ZM5.59971 8.6616C5.59971 8.32025 5.87641 8.04355 6.21776 8.04355C6.5587 8.04355 6.8354 8.32025 6.8354 8.6616C6.8354 9.00254 6.5587 9.27924 6.21776 9.27924C5.87641 9.27924 5.59971 9.00254 5.59971 8.6616ZM6.87658 12.5733C6.53523 12.5733 6.25853 12.2966 6.25853 11.9557C6.25853 11.6143 6.53523 11.3376 6.87658 11.3376C7.21752 11.3376 7.49422 11.6143 7.49422 11.9557C7.49422 12.2966 7.21752 12.5733 6.87658 12.5733ZM7.49422 16.6967V15.0517C7.54034 15.0361 7.58563 15.0192 7.63051 15.0006C7.89404 15.2576 8.18762 15.4762 8.50303 15.6537L7.49422 16.6967ZM8.19421 6.31457C7.85286 6.31457 7.57616 6.03787 7.57616 5.69693C7.57616 5.35558 7.85286 5.07888 8.19421 5.07888C8.53515 5.07888 8.81185 5.35558 8.81185 5.69693C8.81185 6.03787 8.53515 6.31457 8.19421 6.31457ZM9.55261 4.04989C9.55261 3.70854 9.82931 3.43184 10.1707 3.43184C10.5116 3.43184 10.7883 3.70854 10.7883 4.04989C10.7883 4.39083 10.5116 4.66753 10.1707 4.66753C9.82931 4.66753 9.55261 4.39083 9.55261 4.04989ZM11.4068 12.4024C11.1795 12.6297 10.8089 12.6301 10.5808 12.4016C10.3543 12.1743 10.3543 11.8042 10.5816 11.5773C10.8074 11.3506 11.1786 11.3483 11.4068 11.5773C11.6341 11.8042 11.6341 12.1743 11.4068 12.4024ZM12.8059 6.31457C12.4646 6.31457 12.1879 6.03787 12.1879 5.69693C12.1879 5.35558 12.4646 5.07888 12.8059 5.07888C13.1469 5.07888 13.4236 5.35558 13.4236 5.69693C13.4236 6.03787 13.1469 6.31457 12.8059 6.31457ZM14.2215 14.8792H17.3278L17.8512 16.2792H14.7486L14.2215 14.8792ZM15.7414 18.9144L15.2143 17.5144H18.3128L18.8357 18.9144H15.7414Z" />
    </symbol>
    <symbol id="3" width="100%" height="100%" viewBox="0 0 23 25">
      <path d="M20.8739 7.59262C20.8739 5.77161 19.492 4.27383 17.7197 4.08987C17.2222 2.74844 15.9349 1.79047 14.42 1.79047C13.7568 1.79047 13.1388 1.97715 12.6094 2.2957C12.0074 1.21759 10.8566 0.487549 9.5338 0.487549C7.78011 0.487549 6.32975 1.77102 6.06062 3.4489C5.91749 3.43142 5.77282 3.41934 5.62501 3.41934C3.67996 3.41934 2.10283 4.9961 2.10283 6.94153C2.10283 7.03683 2.10982 7.13017 2.11722 7.22352C1.13091 7.84776 0.474365 8.94532 0.474365 10.1989C0.474365 11.307 0.987006 12.294 1.787 12.9397C1.7835 13.0031 1.77728 13.0661 1.77728 13.1303C1.77728 15.0753 3.35405 16.6525 5.29947 16.6525C5.88247 16.6525 6.43087 16.5086 6.91512 16.2581C7.58602 16.74 8.54671 17.3429 9.01184 17.2227C9.01184 17.2227 9.18491 19.9032 9.14757 20.5839C9.07639 21.879 8.68784 23.3208 8.41444 24.4876H12.6492C12.6492 24.4876 12.0249 21.8864 11.9977 21.0179C11.9705 20.1494 12.2692 18.5501 12.2692 18.5501L13.7382 17.0306C14.3037 17.4172 14.9866 17.6369 15.7233 17.6369C17.5443 17.6369 19.0421 16.2515 19.2261 14.4791C20.5675 13.9817 21.5254 12.6908 21.5254 11.1759C21.5254 10.2813 21.1894 9.46769 20.6402 8.8462C20.7888 8.45643 20.8739 8.03486 20.8739 7.59262ZM7.72874 15.6766C8.01109 15.4071 8.24797 15.0921 8.4288 14.7424L9.12032 16.1912C9.11995 16.1912 8.74385 16.3573 7.72874 15.6766ZM10.3144 16.5712C9.95655 16.6361 9.34711 15.5343 8.9146 14.6385C9.39417 14.8832 9.93557 15.024 10.5112 15.024C10.659 15.024 10.8041 15.0119 10.9472 14.994C10.8359 15.7109 10.6399 16.5117 10.3144 16.5712ZM11.8347 17.2763C11.0071 17.5062 11.5026 15.7917 11.7398 14.7992C11.9114 14.7354 12.0774 14.6604 12.2353 14.5712C12.3306 15.2947 12.6449 15.9473 13.1105 16.4634C12.7071 16.8217 12.2427 17.1631 11.8347 17.2763Z" />
    </symbol>
    <symbol id="4" width="100%" height="100%" viewBox="0 0 21 18">
      <path d="M20.3501 7.49507C20.3501 5.67848 18.9715 4.18433 17.2035 4.00081C16.7072 2.66263 15.423 1.70698 13.9118 1.70698C13.2502 1.70698 12.6337 1.89322 12.1056 2.211C11.5051 1.13549 10.357 0.407227 9.03746 0.407227C7.28802 0.407227 5.84119 1.68759 5.57271 3.3614C5.42993 3.34395 5.2856 3.3319 5.13816 3.3319C3.19782 3.3319 1.62451 4.90485 1.62451 6.84556C1.62451 6.94062 1.63149 7.03374 1.63887 7.12686C0.654949 7.74959 0 8.84449 0 10.095C0 11.2004 0.511398 12.1851 1.30945 12.8292C1.30596 12.8924 1.29975 12.9552 1.29975 13.0193C1.29975 14.9596 2.8727 16.533 4.8134 16.533C5.39499 16.533 5.94205 16.3894 6.42513 16.1395C7.52138 16.927 6.35675 16.8342 6.78351 17.515C9.03746 17.515 8.81339 17.515 11.7324 17.515C14.6515 17.515 12.6947 17.4656 13.2317 16.9101C13.7958 17.2958 14.4771 17.515 15.212 17.515C17.0285 17.515 18.5227 16.133 18.7062 14.3649C20.0444 13.8686 21 12.5809 21 11.0697C21 10.1773 20.6648 9.36558 20.1169 8.74561C20.2651 8.35679 20.3501 7.93623 20.3501 7.49507ZM7.23678 15.5595C7.51844 15.2906 7.75475 14.9763 7.93514 14.6275L8.37963 15.5851C8.37963 15.5851 8.24943 16.2385 7.23678 15.5595ZM9.57672 15.5851C9.17769 15.6108 8.85122 15.4174 8.41976 14.5239C8.89817 14.7679 9.43825 14.9084 10.0125 14.9084C10.1599 14.9084 10.3046 14.8964 10.4474 14.8785C10.3748 15.1861 9.90147 15.5258 9.57672 15.5851ZM11.2381 14.6841C11.4093 14.6205 11.5749 14.5457 11.7324 14.4568C11.8275 15.1784 12.141 15.8295 12.6054 16.3443C11.2381 16.533 11.1728 15.9841 11.2381 14.6841Z" />
    </symbol>
    <symbol id="5" width="100%" height="100%" viewBox="0 0 21 21">
      <path d="M13.256 7.94871C13.0482 7.80942 12.778 7.80942 12.5702 7.94871C12.4165 8.05202 11.0684 8.99477 11.0684 10.3038C11.0684 11.6129 12.4165 12.5557 12.5702 12.6589C12.6741 12.7286 12.7936 12.7634 12.913 12.7634C13.0325 12.7634 13.152 12.7286 13.2559 12.6589C13.4097 12.5556 14.7578 11.6129 14.7578 10.3038C14.7578 8.99477 13.4097 8.05194 13.256 7.94871Z" />
      <path d="M18.5101 11.1231C18.4621 10.878 18.2699 10.6865 18.0249 10.6384C17.8442 10.603 16.224 10.3172 15.2981 11.2419C14.3721 12.1673 14.6591 13.788 14.6946 13.97C14.7426 14.215 14.9348 14.4065 15.1798 14.4546C15.253 14.469 15.5599 14.5236 15.961 14.5236C16.5543 14.5236 17.3542 14.403 17.9066 13.8511C18.8325 12.9258 18.5455 11.305 18.5101 11.1231Z" />
      <path d="M12.9874 13.7127C12.0608 12.7861 10.4413 13.0726 10.26 13.1092C10.015 13.1578 9.82345 13.3488 9.77538 13.5938C9.73994 13.7757 9.45291 15.3965 10.3789 16.3212C10.9314 16.8737 11.73 16.9943 12.3238 16.9943C12.7256 16.9943 13.033 16.9391 13.1063 16.9247C13.3513 16.8767 13.5428 16.6851 13.5909 16.4401C13.6263 16.2582 13.9134 14.638 12.9874 13.7127Z" />
      <path d="M20.62 5.66428C20.62 5.66428 20.619 5.66363 20.6186 5.66309L17.668 1.72928C16.8603 0.650779 15.5729 0.00708008 14.2248 0.00708008H8.32941C6.94587 0.00708008 5.57316 0.44242 4.44121 1.23628C4.36857 1.23689 4.30373 1.23747 4.30373 1.23747L0.614906 1.23689C0.27501 1.23685 0 1.5119 0 1.85176V6.77097C0 7.11086 0.27501 7.38587 0.614906 7.38587H5.30172C7.35669 9.19318 9.57797 9.44158 11.7408 7.5396C11.8537 7.44051 11.9978 7.38587 12.1473 7.38587C13.9345 7.38587 13.7927 7.38587 14.2248 7.38587C14.904 7.38587 15.4546 6.8352 15.4546 6.15606C15.4546 5.47684 14.904 4.92625 14.2248 4.92625C12.3766 4.92625 12.8375 4.92625 11.0022 4.92625C10.2984 4.92625 9.66611 4.53533 9.35267 3.90598C9.20075 3.60214 9.32445 3.23284 9.62829 3.08153C9.93333 2.9278 10.3021 3.05388 10.4528 3.35715C10.5573 3.5667 10.768 3.69643 11.0022 3.69643H14.6367C15.1477 3.69643 15.6395 3.91078 15.9872 4.28431L19.0237 7.54423C20.033 8.62754 21.7715 7.19675 20.62 5.66428Z" />
    </symbol>
    <symbol id="6" width="100%" height="100%" viewBox="0 0 21 21">
      <path d="M13.5352 9.30984V7.42029C13.5352 6.57405 13.8963 6.08338 14.4338 5.54591C16.6742 5.39682 18.457 3.54534 18.457 1.26794C18.457 0.927884 18.1819 0.65271 17.8418 0.65271C15.5644 0.65271 13.7129 2.43549 13.5638 4.67593C13.2944 4.9454 13.1395 5.08953 12.9199 5.41676C12.7003 5.08953 12.5454 4.9454 12.276 4.67593C12.1269 2.43549 10.2754 0.65271 7.99805 0.65271C7.65799 0.65271 7.38281 0.927884 7.38281 1.26794C7.38281 3.54534 9.1656 5.39682 11.406 5.54591C11.9436 6.08342 12.3047 6.57405 12.3047 7.42029V9.31685L12.3113 9.31693C11.3236 9.42972 10.4141 9.79464 9.65081 10.3576C10.6182 10.5413 11.5245 10.9685 12.2711 11.6256L12.3822 11.7259C13.6073 11.7259 14.136 11.7187 14.136 11.7187C15.2998 11.7187 16.2713 12.5218 16.5386 13.5919L17.7982 12.2393C16.9609 10.6537 15.3916 9.51955 13.5352 9.30984Z" />
      <path d="M20.2816 12.5231C19.8475 12.3524 19.3534 12.4648 19.0355 12.8061L15.9132 16.0683C15.5659 16.4414 15.0738 16.6559 14.5625 16.6559H11.0081C10.7774 16.6559 10.5617 16.7893 10.4584 16.996C10.0948 17.7252 8.99177 17.1786 9.35767 16.4468C9.67128 15.8166 10.3039 15.4172 11.0081 15.4172C11.3254 15.4172 13.8362 15.4212 14.1503 15.41C14.8299 15.41 15.3808 14.8673 15.3808 14.1878C15.3808 13.5082 14.8299 12.9573 14.1503 12.9573C13.6482 12.9632 13.8932 12.9645 12.1538 12.9645C11.8537 12.9645 11.6902 12.7613 11.4581 12.5571C9.83587 11.1296 7.38937 11.1308 5.76836 12.5571L5.30512 12.9645H0.615234C0.275174 12.9645 0 13.2397 0 13.5797V18.5016C0 18.8417 0.275174 19.1086 0.615234 19.1086H4.37214C4.37214 19.1086 4.37214 19.1086 4.44244 19.1093C5.57558 19.9035 6.94965 20.3473 8.33392 20.3473H14.1504C15.4992 20.3473 16.7868 19.7033 17.5955 18.6248L20.6311 14.688L20.632 14.6875C21.1819 13.9556 21.155 12.8667 20.2816 12.5231Z" />
    </symbol>
    <symbol id="7" width="100%" height="100%" viewBox="0 0 22 17">
      <path d="M15.3999 0.634644C13.0637 0.634644 10.9901 1.86982 9.84961 3.79486C12.2895 5.03003 13.8447 7.39527 13.8447 10.0102C13.8447 10.8511 13.5821 11.6395 13.3263 12.3754C14.0037 12.6251 14.6742 12.8222 15.3999 12.8222C18.925 12.8222 21.7797 10.1087 21.7797 6.70541C21.7797 3.34809 18.925 0.634644 15.3999 0.634644ZM18.6278 7.7829C18.6278 7.7829 18.2615 7.63179 17.9021 7.48725C17.4873 7.33614 17.121 7.18502 16.81 7.19159C16.5473 7.19816 16.4091 7.34928 16.1533 7.49382C15.946 7.64493 15.7179 7.7829 15.7179 7.7829C15.1995 8.13112 14.6258 7.53324 14.9921 7.09304C14.9921 7.09304 15.1511 6.89594 15.3032 6.64628C15.7179 6.05497 15.3861 5.19428 15.3032 5.01689C15.1165 4.61612 14.9368 4.32703 14.9368 4.32703C14.7295 3.99196 14.9852 3.59118 15.3515 3.59118C15.5105 3.59118 15.6142 3.64375 15.7179 3.68974C15.7179 3.68974 15.9252 3.84085 16.1326 3.98539C16.7547 4.3796 17.2731 4.18249 17.8951 3.98539C18.2615 3.83428 18.6209 3.63717 18.6209 3.63717C18.69 3.60432 18.7246 3.58461 18.8283 3.58461C19.243 3.58461 19.5056 3.97882 19.2983 4.32703C19.2983 4.32703 19.1739 4.61612 18.9872 5.01689C18.6831 5.68704 18.6762 6.05497 18.9872 6.64628C19.0909 6.89594 19.2499 7.09304 19.2499 7.09304C19.6162 7.48725 19.1047 8.026 18.6278 7.7829Z" />
      <path d="M6.37974 3.93945C2.85464 3.93945 0 6.6529 0 10.0036C0 13.361 2.85464 16.0678 6.37974 16.0678C9.96014 16.0678 12.8079 13.3544 12.8079 10.0036C12.8079 6.6529 9.96014 3.93945 6.37974 3.93945ZM8.2598 9.76055C8.2598 9.76055 7.89346 9.60944 7.53404 9.4649C7.11932 9.31379 6.60092 9.14296 6.44195 9.16924C6.20003 9.20866 6.02032 9.30065 5.76458 9.4649C5.55031 9.60287 5.34986 9.76055 5.34986 9.76055C4.83146 10.1088 4.25777 9.51089 4.6241 9.07069C4.6241 9.07069 4.78308 8.87359 4.93514 8.62393C5.34986 8.03262 5.14941 7.52015 4.93514 6.99455C4.78999 6.64633 4.56881 6.30469 4.56881 6.30469C4.36145 5.96304 4.61719 5.56883 4.98353 5.56883C5.1425 5.56883 5.26 5.60826 5.34986 5.66739C5.34986 5.66739 5.55722 5.8185 5.76458 5.96304C6.38665 6.35725 6.90505 6.16014 7.52713 5.96304C7.89346 5.81193 8.25288 5.61483 8.25288 5.61483C8.32892 5.58198 8.35656 5.56227 8.46024 5.56227C8.87496 5.56227 9.13762 5.95647 8.93026 6.30469C8.93026 6.30469 8.77128 6.60034 8.61922 6.99455C8.25288 7.63841 8.30818 8.03262 8.61922 8.62393C8.7229 8.87359 8.88187 9.07069 8.88187 9.07069C9.24821 9.4649 8.80584 10.0168 8.2598 9.76055Z" />
    </symbol>
    <symbol id="8" width="100%" height="100%" viewBox="0 0 21 21">
      <path d="M13.5947 7.45412C10.2627 4.12209 7.17657 1.69111 3.15383 5.714C-0.528602 9.39644 -0.703719 17.5177 1.41371 19.6351C3.53114 21.7526 11.6524 21.5774 15.3348 17.895C19.3577 13.8721 16.9267 10.7862 13.5947 7.45412ZM4.45896 17.46L3.58882 16.5899L5.32894 14.8498L6.19908 15.7197L4.45896 17.46ZM4.45896 13.9796L3.58882 13.1096L5.32894 11.3694L6.19908 12.2395L4.45896 13.9796ZM4.45896 10.4994L3.58882 9.62923L5.32894 7.88911L6.19908 8.75925L4.45896 10.4994ZM7.9392 17.46L7.06922 16.5899L8.80934 14.8498L9.67948 15.7197L7.9392 17.46ZM7.9392 13.9796L7.06922 13.1096L8.80934 11.3694L9.67948 12.2395L7.9392 13.9796ZM7.9392 10.4994L7.06922 9.62923L8.80934 7.88911L9.67948 8.75925L7.9392 10.4994ZM11.4196 17.46L10.5495 16.5899L12.2896 14.8498L13.1597 15.7197L11.4196 17.46ZM11.4196 13.9796L10.5495 13.1096L12.2896 11.3694L13.1597 12.2395L11.4196 13.9796Z" />
      <path d="M14.6558 5.49946C14.8934 4.32619 14.5611 2.64823 13.6531 1.74012L11.913 0C11.0932 0.819672 10.6986 2.42425 10.8125 3.49594C12.2477 4.36913 13.4817 5.60088 14.4646 6.58397C15.4477 7.56706 16.6796 8.8009 17.5528 10.2363C18.6245 10.3502 20.2054 9.93187 21.0252 9.1122L19.2851 7.37208C18.377 6.46397 16.6989 6.13168 15.5257 6.36944L15.5424 6.35278C17.0132 4.88214 18.9688 4.07192 21.0487 4.07192V2.84161C18.6399 2.84161 16.3755 3.77953 14.6723 5.4828L14.6558 5.49946Z" />
    </symbol>
    <symbol id="9" width="100%" height="100%" viewBox="0 0 21 21">
      <path d="M3.32038 20.9999C4.46365 20.9999 5.45715 20.3511 5.95589 19.4031C5.46189 18.9612 5.09378 18.3843 4.90952 17.7288C4.66471 17.7827 4.4115 17.8132 4.15089 17.8132C2.84725 17.8132 1.70954 17.1008 1.09883 16.0471C0.630159 16.5734 0.342773 17.2641 0.342773 18.0227C0.342457 19.6644 1.67838 20.9999 3.32038 20.9999Z" />
      <path d="M1.3935 15.4059C1.42907 15.4933 1.46908 15.5788 1.51278 15.6618C2.0108 16.612 3.00543 17.2627 4.1505 17.2627C4.374 17.2627 4.59126 17.2359 4.80121 17.1889C4.78541 17.0535 4.77516 16.9162 4.77516 16.7768C4.77516 16.3496 4.85517 15.9418 4.995 15.5627C5.02765 15.4746 5.06291 15.388 5.10219 15.3032C5.1407 15.2199 5.18075 15.1377 5.2255 15.0581C5.43762 14.6796 5.71656 14.3439 6.04761 14.0675C4.54981 13.9915 3.29466 12.9815 2.86158 11.606C1.86442 12.0879 1.17334 13.1059 1.17334 14.2855C1.17334 14.581 1.21813 14.8661 1.2985 15.1359C1.326 15.228 1.35792 15.3179 1.3935 15.4059Z" />
      <path d="M7.65944 14.6511C7.54458 14.4283 7.45392 14.1919 7.38822 13.9449C7.38714 13.9453 7.38637 13.9457 7.38529 13.946C7.29354 13.9757 7.2036 14.0099 7.11592 14.0481C6.49347 14.32 5.98186 14.7983 5.66734 15.3965C5.62291 15.4809 5.58255 15.5671 5.54661 15.6559C5.50845 15.7492 5.4754 15.8449 5.44678 15.943C5.36934 16.208 5.32568 16.4873 5.32568 16.7772C5.32568 16.8575 5.33155 16.9361 5.33778 17.0146C5.3455 17.1108 5.35797 17.2051 5.37449 17.2983C5.39066 17.3897 5.4112 17.4796 5.43576 17.5677C5.57158 18.0598 5.82921 18.5017 6.17678 18.857C6.24762 18.9297 6.32176 18.9991 6.39991 19.064C6.47333 19.1253 6.54963 19.183 6.62892 19.2369C7.10639 19.5632 7.68297 19.7544 8.30361 19.7544C9.94525 19.7544 11.2808 18.4188 11.2808 16.7768C11.2808 16.6942 11.2749 16.6131 11.2684 16.532C11.1131 16.5529 10.9556 16.5676 10.7949 16.5676C9.42958 16.5676 8.24595 15.7873 7.65944 14.6511Z" />
      <path d="M3.30965 11.1464C3.32839 11.2371 3.35187 11.3259 3.37828 11.4132C3.74969 12.6343 4.8856 13.5257 6.22667 13.5257C6.49424 13.5257 6.75223 13.4868 6.99889 13.4204C7.08806 13.3962 7.17579 13.3683 7.26167 13.3364C7.26826 13.3338 7.27453 13.3316 7.28113 13.3294C7.27341 13.2336 7.26645 13.1375 7.26645 13.0399C7.26645 12.9166 7.27304 12.7947 7.28555 12.6743C7.37292 11.8302 7.76009 11.0745 8.33739 10.513C7.98029 10.012 7.75092 9.41524 7.69697 8.76823C7.24884 8.97484 6.75191 9.09341 6.22672 9.09341C5.45233 9.09341 4.73737 8.83943 4.15492 8.41443C3.59744 8.95579 3.24951 9.71143 3.24951 10.5483C3.24951 10.6584 3.25646 10.7667 3.26825 10.8738C3.27805 10.9659 3.29128 11.0572 3.30965 11.1464Z" />
      <path d="M11.7087 15.872C12.2615 15.6929 12.7441 15.3571 13.103 14.916C12.3282 14.2682 11.8338 13.2956 11.8338 12.2092C11.8338 12.1182 11.8408 12.0287 11.8474 11.9391C11.64 11.9773 11.4276 12 11.2096 12C10.6268 12 10.0777 11.8554 9.59291 11.6044C9.50847 11.5607 9.42702 11.5126 9.34665 11.4627C9.26371 11.4109 9.18334 11.3555 9.10514 11.2972C8.95759 11.187 8.81776 11.0678 8.6893 10.9364C8.15051 11.4755 7.81689 12.2195 7.81689 13.0401C7.81689 13.0471 7.81798 13.0541 7.81798 13.061C7.81834 13.1366 7.82313 13.2107 7.82936 13.2849C7.83193 13.3142 7.83337 13.3436 7.83672 13.3726C7.84367 13.435 7.85432 13.4963 7.86498 13.5576C7.87121 13.5924 7.876 13.6273 7.88331 13.6618C7.89505 13.7177 7.91085 13.772 7.92589 13.8266C8.27197 15.0873 9.42549 16.0177 10.7945 16.0177C10.9226 16.0177 11.0477 16.0067 11.1717 15.991C11.2639 15.9792 11.3549 15.9642 11.444 15.944C11.5337 15.9234 11.6221 15.8999 11.7087 15.872Z" />
      <path d="M4.36384 7.88432C4.44019 7.94559 4.51947 8.00324 4.60165 8.05679C5.06959 8.36323 5.62743 8.54271 6.22676 8.54271C6.76225 8.54271 7.26356 8.39886 7.69809 8.15039C7.7036 8.09165 7.71241 8.0344 7.72085 7.97679C7.7348 7.87845 7.75133 7.78155 7.77332 7.6861C7.79422 7.59508 7.81589 7.50442 7.8438 7.41597C8.08124 6.66064 8.56716 6.01543 9.20392 5.57318C9.20392 5.5706 9.20428 5.56803 9.20428 5.5651C9.20428 3.92345 7.86836 2.58789 6.22672 2.58789C4.58508 2.58789 3.24951 3.92345 3.24951 5.5651C3.24951 6.40152 3.59744 7.15757 4.15492 7.69893C4.22143 7.76394 4.29114 7.82598 4.36384 7.88432Z" />
      <path d="M8.35063 7.64843C8.34367 7.6734 8.33776 7.69873 8.33117 7.72365C8.30584 7.82054 8.28566 7.91929 8.27026 8.01948C8.26583 8.04774 8.26073 8.07565 8.25739 8.10391C8.2471 8.18794 8.24123 8.27309 8.23793 8.35933C8.23644 8.39419 8.23278 8.42868 8.23278 8.46431C8.23278 8.46688 8.23242 8.46981 8.23242 8.47239C8.23242 9.09962 8.42842 9.68135 8.76127 10.1618C8.81338 10.237 8.86806 10.3097 8.92644 10.3794C8.9859 10.4506 9.0483 10.5189 9.11399 10.5842C9.14117 10.611 9.17052 10.6352 9.19879 10.6613C9.28281 10.7383 9.37054 10.8106 9.46306 10.8778C9.54455 10.9373 9.62894 10.9923 9.71631 11.0433C10.156 11.2999 10.6654 11.4492 11.21 11.4492C11.4636 11.4492 11.7085 11.414 11.9437 11.3542C12.0218 11.0419 12.1401 10.7457 12.2953 10.4723C12.3408 10.3923 12.3874 10.3126 12.4388 10.2363C12.4902 10.1603 12.5463 10.088 12.6036 10.0161C13.004 9.51325 13.5387 9.12423 14.1531 8.89888C14.1733 8.75905 14.1872 8.61701 14.1872 8.47167C14.1872 7.67561 13.8712 6.95297 13.3603 6.41825C13.3974 6.32429 13.433 6.22997 13.4738 6.13894C13.5127 6.05158 13.5563 5.96791 13.5986 5.88312C14.6812 3.70712 16.7938 2.40383 19.0175 1.47494C19.8777 1.11563 19.5005 -0.305446 18.6273 0.0593732C16.001 1.15668 13.6495 2.63979 12.3452 5.1351C12.303 5.21583 12.2644 5.30027 12.2244 5.38285C12.1844 5.46615 12.1415 5.54652 12.1037 5.63203C11.8215 5.54286 11.5213 5.49441 11.2097 5.49441C10.6746 5.49441 10.1732 5.63827 9.7387 5.88673C9.63264 5.94728 9.53132 6.01518 9.43371 6.08783C9.3104 6.17994 9.19332 6.27941 9.08614 6.38876C8.74479 6.7371 8.48933 7.16798 8.35063 7.64843Z" />
      <path d="M13.4128 14.455C13.483 14.5159 13.556 14.5732 13.6316 14.6275C13.7057 14.6807 13.7824 14.7303 13.8613 14.7765C14.3025 15.0356 14.8145 15.1865 15.362 15.1865C17.0037 15.1865 18.3392 13.8509 18.3392 12.2093C18.3392 10.5673 17.0033 9.23169 15.362 9.23169C15.1084 9.23169 14.8636 9.26691 14.6284 9.32673C14.5234 9.35351 14.4203 9.38583 14.3201 9.42326C14.2004 9.46805 14.0834 9.51867 13.9714 9.57813C13.6169 9.76641 13.3046 10.0237 13.0528 10.3327C12.9952 10.4035 12.9401 10.477 12.8891 10.5529C12.837 10.6307 12.7879 10.7111 12.7431 10.7936C12.6891 10.8931 12.6425 10.9966 12.5999 11.1027C12.5526 11.2201 12.5144 11.3416 12.4821 11.4656C12.4554 11.5691 12.4344 11.6741 12.4187 11.7816C12.3985 11.9215 12.3845 12.0635 12.3845 12.2089C12.3845 13.1055 12.7845 13.9086 13.4128 14.455Z" />
      <path d="M20.6573 7.86308C20.6573 7.86308 18.3807 1.16914 15.6655 4.48548C12.95 7.80176 18.7609 9.14762 20.6573 7.86308Z" />
    </symbol>
    <symbol id="10" width="100%" height="100%" viewBox="0 0 22 23">
      <path d="M19.7782 14.7793C16.378 14.7793 13.435 16.6952 11.8669 19.3414V17.4165H9.22985V19.3414C7.66707 16.7044 4.73301 14.7793 1.31854 14.7793C0.580079 14.7793 0 15.3594 0 16.0978C8.78908e-05 17.5328 0.722638 20.7938 1.31854 22.0405H19.2729C19.8688 20.7937 21.097 17.5329 21.097 16.0978C21.0968 15.3594 20.5167 14.7793 19.7782 14.7793Z" />
      <path d="M11.4188 0.336182C10.9177 -0.112061 10.1793 -0.112061 9.67819 0.336182C9.59979 0.388477 8.3796 1.50873 7.25293 3.25143C8.49825 3.73044 9.62493 4.47698 10.5592 5.43464C11.4869 4.49201 12.6095 3.73975 13.8681 3.25882C12.7088 1.49458 11.4978 0.388917 11.4188 0.336182Z" />
      <path d="M6.03181 3.53063C5.21496 3.38614 4.38456 3.43404 3.55566 3.59321V10.0229C3.55566 13.2106 5.82193 15.8712 8.82991 16.4827V10.0229C8.82991 8.4911 9.21575 7.05461 9.88117 5.78626C8.89187 4.62012 7.53976 3.79747 6.03181 3.53063Z" />
      <path d="M16.2236 3.43066C12.5886 3.43066 9.63086 6.38845 9.63086 10.0234V16.6162H10.9494C14.5886 16.6162 17.5422 13.6626 17.5422 10.0234V3.43066H16.2236Z" />
    </symbol>
    <symbol id="11" width="100%" height="100%" viewBox="0 0 21 22">
      <path d="M7.80788 0.253705C7.30336 -0.0845684 6.64704 -0.0845684 6.14241 0.253705C5.76908 0.504621 2.49512 2.79414 2.49512 5.97327C2.49512 9.15241 5.76908 11.442 6.14241 11.6928C6.39473 11.862 6.68489 11.9467 6.97505 11.9467C7.26521 11.9467 7.55547 11.862 7.80778 11.6928C8.18112 11.4419 11.4551 9.15241 11.4551 5.97327C11.4551 2.79414 8.18122 0.504422 7.80788 0.253705Z" />
      <path d="M19.864 7.27771C19.7474 6.68264 19.2807 6.21747 18.6856 6.10072C18.2467 6.01466 14.3121 5.32049 12.0633 7.56638C9.81453 9.81366 10.5116 13.7497 10.5977 14.1916C10.7143 14.7867 11.181 15.2517 11.776 15.3685C11.9539 15.4035 12.6991 15.5362 13.6734 15.5362C15.1142 15.5362 17.0567 15.2432 18.3984 13.9029C20.647 11.6556 19.95 7.71958 19.864 7.27771Z" />
      <path d="M7.96955 13.8169C5.71938 11.5667 1.78621 12.2623 1.34583 12.3513C0.750767 12.4694 0.285691 12.9332 0.168949 13.5281C0.0828863 13.97 -0.614179 17.9061 1.6346 20.1519C2.97634 21.4936 4.91583 21.7867 6.35808 21.7867C7.33375 21.7867 8.08042 21.6525 8.25832 21.6175C8.85339 21.5009 9.31847 21.0356 9.43521 20.4406C9.52127 19.9988 10.2183 16.0641 7.96955 13.8169Z" />
    </symbol>
    <symbol id="12" width="100%" height="100%" viewBox="0 0 21 21">
      <path d="M11.0158 7.30139L6.59018 11.7264C5.21451 13.1038 5.17944 14.517 5.17944 15.7477C6.40991 15.7477 7.82413 15.7129 9.20008 14.3369L13.6259 9.91154L11.0158 7.30139Z" />
      <path d="M14.0605 13.8275L12.7553 12.5219L10.0699 15.207C8.08965 17.1882 5.91201 16.9782 4.56407 16.9782C4.22401 16.9782 3.94883 16.703 3.94883 16.3629V15.1325C3.94883 13.5187 4.57732 11.9998 5.72005 10.8565L8.4051 8.1717L7.09953 6.86642C6.85934 6.62623 6.46974 6.62623 6.22955 6.86642L3.78063 9.31596C0.895508 12.201 -0.464734 16.3322 0.142051 20.3667C0.182903 20.6371 0.396799 20.8486 0.667174 20.8852C4.66505 21.4239 8.71518 20.0428 11.5311 17.2269L14.0605 14.6975C14.3008 14.4571 14.3008 14.0678 14.0605 13.8275Z" />
      <path d="M20.1748 0.825698C19.6089 0.259149 18.8206 -0.043095 18.0251 0.00497531C17.2261 0.0493952 16.481 0.433342 15.9811 1.05817L11.8252 6.37113L14.556 9.10191L19.9333 5.02537C20.5666 4.51887 20.9511 3.77386 20.9956 2.97479C21.04 2.17573 20.7408 1.39225 20.1748 0.825698ZM18.4342 3.43597C18.1939 3.67624 17.8044 3.67624 17.5641 3.43597C17.3238 3.19566 17.3238 2.80618 17.5641 2.56583C17.8044 2.32556 18.1939 2.32556 18.4342 2.56583C18.6745 2.80614 18.6745 3.19558 18.4342 3.43597Z" />
    </symbol>
  </defs>
</svg>