<svg width="18" height="26" viewBox="0 0 18 26" fill="none" xmlns="http://www.w3.org/2000/svg">
<path d="M14.2964 0.817261H4.44856C3.46914 0.817261 2.52982 1.20634 1.83726 1.8989C1.1447 2.59146 0.755625 3.53077 0.755625 4.5102V24.2059C0.754764 24.4228 0.811234 24.6361 0.919318 24.8241C1.0274 25.0122 1.18326 25.1684 1.37111 25.2768C1.55825 25.3849 1.77052 25.4417 1.9866 25.4417C2.20269 25.4417 2.41496 25.3849 2.60209 25.2768L9.37248 21.3623L16.1429 25.2768C16.3305 25.3832 16.5427 25.4383 16.7584 25.4368C16.974 25.4383 17.1862 25.3832 17.3738 25.2768C17.5617 25.1684 17.7176 25.0122 17.8256 24.8241C17.9337 24.6361 17.9902 24.4228 17.9893 24.2059V4.5102C17.9893 3.53077 17.6003 2.59146 16.9077 1.8989C16.2151 1.20634 15.2758 0.817261 14.2964 0.817261ZM15.5274 22.0763L9.98797 18.8757C9.80084 18.7677 9.58856 18.7108 9.37248 18.7108C9.1564 18.7108 8.94412 18.7677 8.75699 18.8757L3.21758 22.0763V4.5102C3.21758 4.18372 3.34728 3.87062 3.57813 3.63977C3.80898 3.40891 4.12209 3.27922 4.44856 3.27922H14.2964C14.6229 3.27922 14.936 3.40891 15.1668 3.63977C15.3977 3.87062 15.5274 4.18372 15.5274 4.5102V22.0763Z" fill="#FF8049"/>
</svg>
