<svg width="16" height="18" viewBox="0 0 16 18" fill="none" xmlns="http://www.w3.org/2000/svg">
<path d="M9.66667 14C9.44565 14 9.23369 13.9122 9.07741 13.7559C8.92113 13.5997 8.83333 13.3877 8.83333 13.1667V8.16669C8.83333 7.94567 8.92113 7.73371 9.07741 7.57743C9.23369 7.42115 9.44565 7.33335 9.66667 7.33335C9.88768 7.33335 10.0996 7.42115 10.2559 7.57743C10.4122 7.73371 10.5 7.94567 10.5 8.16669V13.1667C10.5 13.3877 10.4122 13.5997 10.2559 13.7559C10.0996 13.9122 9.88768 14 9.66667 14ZM1.33333 4.00002H4.66667V3.16669C4.66667 2.50365 4.93006 1.86776 5.3989 1.39892C5.86774 0.930079 6.50363 0.666687 7.16667 0.666687H8.83333C9.49637 0.666687 10.1323 0.930079 10.6011 1.39892C11.0699 1.86776 11.3333 2.50365 11.3333 3.16669V4.00002H14.6667C14.8877 4.00002 15.0996 4.08782 15.2559 4.2441C15.4122 4.40038 15.5 4.61234 15.5 4.83335C15.5 5.05437 15.4122 5.26633 15.2559 5.42261C15.0996 5.57889 14.8877 5.66669 14.6667 5.66669H13.8333V14.8334C13.8333 15.4964 13.5699 16.1323 13.1011 16.6011C12.6323 17.07 11.9964 17.3334 11.3333 17.3334H4.66667C4.00363 17.3334 3.36774 17.07 2.8989 16.6011C2.43006 16.1323 2.16667 15.4964 2.16667 14.8334V5.66669H1.33333C1.11232 5.66669 0.900357 5.57889 0.744078 5.42261C0.587797 5.26633 0.5 5.05437 0.5 4.83335C0.5 4.61234 0.587797 4.40038 0.744078 4.2441C0.900357 4.08782 1.11232 4.00002 1.33333 4.00002ZM9.66667 3.16669C9.66667 2.94567 9.57887 2.73371 9.42259 2.57743C9.26631 2.42115 9.05435 2.33335 8.83333 2.33335H7.16667C6.94565 2.33335 6.73369 2.42115 6.57741 2.57743C6.42113 2.73371 6.33333 2.94567 6.33333 3.16669V4.00002H9.66667V3.16669ZM3.83333 14.8334C3.83333 15.0544 3.92113 15.2663 4.07741 15.4226C4.23369 15.5789 4.44565 15.6667 4.66667 15.6667H11.3333C11.5543 15.6667 11.7663 15.5789 11.9226 15.4226C12.0789 15.2663 12.1667 15.0544 12.1667 14.8334V5.66669H3.83333V14.8334ZM6.33333 14C6.11232 14 5.90036 13.9122 5.74408 13.7559C5.5878 13.5997 5.5 13.3877 5.5 13.1667V8.16669C5.5 7.94567 5.5878 7.73371 5.74408 7.57743C5.90036 7.42115 6.11232 7.33335 6.33333 7.33335C6.55435 7.33335 6.76631 7.42115 6.92259 7.57743C7.07887 7.73371 7.16667 7.94567 7.16667 8.16669V13.1667C7.16667 13.3877 7.07887 13.5997 6.92259 13.7559C6.76631 13.9122 6.55435 14 6.33333 14Z" fill="white"/>
</svg>
