<svg width="28" height="30" viewBox="0 0 28 30" fill="none" xmlns="http://www.w3.org/2000/svg">
<path d="M14 0C6.73057 0 0.816406 5.91416 0.816406 13.1836C0.816406 13.9892 0.816406 20.2212 0.816406 20.332C0.816406 21.7859 1.99924 22.9688 3.45312 22.9688H4.4832C4.84602 23.9917 5.82295 24.7266 6.96875 24.7266C8.42264 24.7266 9.60547 23.5437 9.60547 22.0898V14.9414C9.60547 13.4875 8.42264 12.3047 6.96875 12.3047C5.82295 12.3047 4.84602 13.0396 4.4832 14.0625H3.45312C3.14498 14.0625 2.84932 14.1161 2.57422 14.2137V13.1836C2.57422 6.88342 7.69982 1.75781 14 1.75781C20.3002 1.75781 25.4258 6.88342 25.4258 13.1836V14.2137C25.1507 14.1161 24.855 14.0625 24.5469 14.0625H23.5168C23.154 13.0396 22.1771 12.3047 21.0312 12.3047C19.5774 12.3047 18.3945 13.4875 18.3945 14.9414V22.0898C18.3945 23.5437 19.5774 24.7266 21.0312 24.7266C21.2973 24.7266 21.5542 24.6866 21.7965 24.6129C21.4678 25.6947 20.4613 26.4844 19.2734 26.4844H16.4855C16.1227 25.4614 15.1458 24.7266 14 24.7266C12.5461 24.7266 11.3633 25.9094 11.3633 27.3633C11.3633 28.8172 12.5461 30 14 30C15.1458 30 16.1227 29.2651 16.4855 28.2422H19.2734C21.6966 28.2422 23.668 26.2708 23.668 23.8477V22.9688H24.5469C26.0008 22.9688 27.1836 21.7859 27.1836 20.332C27.1836 20.2228 27.1836 13.9886 27.1836 13.1836C27.1836 5.91416 21.2694 0 14 0ZM6.08984 14.9414C6.08984 14.4568 6.48412 14.0625 6.96875 14.0625C7.45338 14.0625 7.84766 14.4568 7.84766 14.9414V22.0898C7.84766 22.5745 7.45338 22.9688 6.96875 22.9688C6.48412 22.9688 6.08984 22.5745 6.08984 22.0898V14.9414ZM3.45312 15.8203H4.33203V21.2109H3.45312C2.9685 21.2109 2.57422 20.8167 2.57422 20.332V16.6992C2.57422 16.2146 2.9685 15.8203 3.45312 15.8203ZM14 28.2422C13.5154 28.2422 13.1211 27.8479 13.1211 27.3633C13.1211 26.8787 13.5154 26.4844 14 26.4844C14.4846 26.4844 14.8789 26.8787 14.8789 27.3633C14.8789 27.8479 14.4846 28.2422 14 28.2422ZM21.9102 22.0898C21.9102 22.5745 21.5159 22.9688 21.0312 22.9688C20.5466 22.9688 20.1523 22.5745 20.1523 22.0898V14.9414C20.1523 14.4568 20.5466 14.0625 21.0312 14.0625C21.5159 14.0625 21.9102 14.4568 21.9102 14.9414V22.0898ZM25.4258 20.332C25.4258 20.8167 25.0315 21.2109 24.5469 21.2109H23.668V15.8203H24.5469C25.0315 15.8203 25.4258 16.2146 25.4258 16.6992V20.332Z" fill="white"/>
</svg>
