<svg width="20" height="20" viewBox="0 0 20 20" fill="none" xmlns="http://www.w3.org/2000/svg">
<path fill-rule="evenodd" clip-rule="evenodd" d="M19.6004 9.9999C19.6004 15.3018 15.3023 19.5999 10.0004 19.5999C4.69846 19.5999 0.400391 15.3018 0.400391 9.9999C0.400391 4.69797 4.69846 0.399902 10.0004 0.399902C15.3023 0.399902 19.6004 4.69797 19.6004 9.9999ZM11.2004 14.7999C11.2004 15.4626 10.6631 15.9999 10.0004 15.9999C9.33765 15.9999 8.80039 15.4626 8.80039 14.7999C8.80039 14.1372 9.33765 13.5999 10.0004 13.5999C10.6631 13.5999 11.2004 14.1372 11.2004 14.7999ZM10.0004 3.9999C9.33765 3.9999 8.80039 4.53716 8.80039 5.1999V9.9999C8.80039 10.6626 9.33765 11.1999 10.0004 11.1999C10.6631 11.1999 11.2004 10.6626 11.2004 9.9999V5.1999C11.2004 4.53716 10.6631 3.9999 10.0004 3.9999Z" fill="#FF8049"/>
</svg>
