<svg width="8" height="13" viewBox="0 0 8 13" fill="none" xmlns="http://www.w3.org/2000/svg">
<path d="M7.63918 7.36446L2.30729 12.6869C2.21972 12.7752 2.11553 12.8453 2.00074 12.8931C1.88594 12.941 1.76281 12.9656 1.63845 12.9656C1.5141 12.9656 1.39097 12.941 1.27617 12.8931C1.16138 12.8453 1.05719 12.7752 0.969614 12.6869C0.79416 12.5104 0.695679 12.2717 0.695679 12.0228C0.695679 11.7739 0.79416 11.5352 0.969614 11.3587L5.63266 6.64852L0.969614 1.98548C0.79416 1.80898 0.695679 1.57022 0.695679 1.32135C0.695679 1.07248 0.79416 0.833718 0.969614 0.657217C1.05686 0.568207 1.1609 0.497394 1.27571 0.448883C1.39052 0.400372 1.51382 0.375127 1.63845 0.374609C1.76309 0.375127 1.88639 0.400372 2.0012 0.448883C2.11601 0.497394 2.22005 0.568207 2.30729 0.657217L7.63918 5.97968C7.7348 6.06789 7.81111 6.17496 7.86331 6.29412C7.9155 6.41329 7.94245 6.54198 7.94245 6.67207C7.94245 6.80217 7.9155 6.93085 7.86331 7.05002C7.81111 7.16919 7.7348 7.27625 7.63918 7.36446Z" fill="#443E3E"/>
</svg>
