<svg width="20" height="32" viewBox="0 0 20 32" fill="none" xmlns="http://www.w3.org/2000/svg">
<path fill-rule="evenodd" clip-rule="evenodd" d="M4 0C1.79086 0 0 1.79086 0 4V28C0 30.2091 1.79086 32 4 32H16C18.2091 32 20 30.2091 20 28V4C20 1.79086 18.2091 0 16 0H4ZM10 28C11.1046 28 12 27.1046 12 26C12 24.8954 11.1046 24 10 24C8.89543 24 8 24.8954 8 26C8 27.1046 8.89543 28 10 28Z" fill="#FF8049"/>
<path d="M15.5387 8.75635C15.8712 9.19206 16.1528 9.66543 16.3775 10.1669L10.0009 14.9308L7.33594 13.2377V11.2009L10.0009 12.894L15.5387 8.75635Z" fill="white"/>
<path d="M4.61724 13.0944C4.61724 13.003 4.61944 12.9122 4.62384 12.8219L3.0088 12.7417C3.0033 12.8587 3 12.9768 3 13.096C2.99931 14.0274 3.18008 14.9498 3.53195 15.8102C3.88381 16.6706 4.39983 17.4521 5.05042 18.11L6.19601 16.9495C5.69521 16.444 5.29792 15.8432 5.02699 15.1816C4.75605 14.52 4.6168 13.8107 4.61724 13.0944Z" fill="white"/>
<path d="M9.99702 7.63863C10.0872 7.63863 10.1767 7.64197 10.2658 7.64643L10.3466 6.00909C10.2308 6.00352 10.1143 6.00074 9.99702 6.00074C9.07754 5.9996 8.16695 6.18254 7.31747 6.53905C6.46798 6.89556 5.69635 7.41862 5.04688 8.07819L6.19247 9.2392C6.69126 8.7315 7.28417 8.32872 7.93709 8.05404C8.59002 7.77936 9.29005 7.63818 9.99702 7.63863Z" fill="white"/>
<path d="M9.99858 18.5504C9.90844 18.5504 9.81883 18.5504 9.72925 18.5432L9.64844 20.18C9.7646 20.1859 9.88133 20.1889 9.99858 20.1889C10.9177 20.1899 11.8278 20.0068 12.6769 19.6502C13.5259 19.2936 14.297 18.7704 14.946 18.1109L13.8026 16.9504C13.3037 17.4579 12.7109 17.8604 12.0581 18.135C11.4053 18.4096 10.7054 18.5508 9.99858 18.5504Z" fill="white"/>
<path d="M13.0366 8.59056L14.3977 7.57384C13.1537 6.55292 11.6008 5.99717 10 6.00001V7.63846C11.084 7.6371 12.1428 7.96909 13.0366 8.59056Z" fill="white"/>
<path d="M16.9994 13.0946C17.0003 12.6683 16.9635 12.2428 16.8895 11.8232L15.3827 12.9486C15.3827 12.9971 15.3827 13.0455 15.3827 13.0946C15.3831 13.8568 15.2255 14.6107 14.92 15.3073C14.6145 16.0038 14.168 16.6276 13.6094 17.138L14.6962 18.3553C15.4224 17.6909 16.0027 16.8793 16.3994 15.973C16.7963 15.0667 17.0007 14.086 16.9994 13.0946Z" fill="white"/>
<path d="M9.9995 18.5499C9.24729 18.5502 8.5034 18.3903 7.81599 18.0807C7.12862 17.7712 6.51304 17.3187 6.00915 16.7527L4.80859 17.8535C5.4641 18.5896 6.26494 19.1778 7.15919 19.5801C8.05344 19.9823 9.02111 20.1895 9.9995 20.1883V18.5499Z" fill="white"/>
<path d="M6.39061 9.05053L5.30438 7.83325C4.57798 8.49753 3.99747 9.30913 3.60048 10.2154C3.2035 11.1217 2.99892 12.1024 3 13.094H4.61725C4.61691 12.3318 4.77461 11.5779 5.08009 10.8813C5.38559 10.1848 5.83207 9.56105 6.39061 9.05053Z" fill="white"/>
</svg>
