<svg width="19" height="18" viewBox="0 0 19 18" fill="none" xmlns="http://www.w3.org/2000/svg">
<path d="M17.9737 15.9188L14.7328 12.8521C15.9908 11.3558 16.6001 9.4565 16.4352 7.54484C16.2704 5.63317 15.344 3.8544 13.8466 2.57429C12.3492 1.29417 10.3945 0.61001 8.38457 0.662477C6.3746 0.714944 4.46209 1.50005 3.0403 2.85637C1.6185 4.21269 0.795493 6.03712 0.740494 7.95452C0.685494 9.87192 1.40269 11.7366 2.7446 13.165C4.08651 14.5935 5.95115 15.4772 7.95511 15.6344C9.95906 15.7917 11.95 15.2105 13.5186 14.0104L16.7333 17.0771C16.8145 17.1552 16.9111 17.2172 17.0176 17.2595C17.124 17.3018 17.2382 17.3236 17.3535 17.3236C17.4688 17.3236 17.583 17.3018 17.6895 17.2595C17.7959 17.2172 17.8925 17.1552 17.9737 17.0771C18.1312 16.9217 18.2192 16.714 18.2192 16.4979C18.2192 16.2818 18.1312 16.0741 17.9737 15.9188ZM8.61788 14.0104C7.40846 14.0104 6.22619 13.6683 5.2206 13.0273C4.215 12.3864 3.43123 11.4753 2.96841 10.4094C2.50558 9.3435 2.38448 8.17061 2.62043 7.03906C2.85638 5.9075 3.43877 4.8681 4.29396 4.0523C5.14915 3.23649 6.23873 2.68092 7.42491 2.45584C8.6111 2.23076 9.84061 2.34628 10.958 2.78779C12.0753 3.2293 13.0304 3.97697 13.7023 4.93626C14.3742 5.89555 14.7328 7.02336 14.7328 8.17709C14.7328 9.72418 14.0886 11.2079 12.9418 12.3019C11.795 13.3958 10.2397 14.0104 8.61788 14.0104Z" fill="#443E3E"/>
</svg>
