<svg width="26" height="23" viewBox="0 0 26 23" fill="none" xmlns="http://www.w3.org/2000/svg">
<path d="M24.7208 10.9014L14.873 1.05353C14.7008 0.881427 14.4815 0.76423 14.2428 0.716754C14.004 0.669278 13.7565 0.693656 13.5316 0.786804C13.3067 0.879952 13.1145 1.03769 12.9792 1.24007C12.844 1.44246 12.7718 1.68041 12.7717 1.92383V6.28765C9.40903 6.59884 6.28349 8.15365 4.00675 10.6478C1.73001 13.142 0.465941 16.396 0.461914 19.773V21.6195C0.462108 21.875 0.541817 22.1242 0.689983 22.3323C0.838149 22.5405 1.04743 22.6974 1.28879 22.7813C1.53016 22.8652 1.79165 22.8719 2.03699 22.8005C2.28233 22.7291 2.49936 22.583 2.65798 22.3827C3.86397 20.9486 5.34368 19.7691 7.01066 18.9134C8.67763 18.0576 10.4984 17.5426 12.3667 17.3985C12.4283 17.3911 12.5821 17.3788 12.7717 17.3665V21.6195C12.7718 21.8629 12.844 22.1009 12.9792 22.3033C13.1145 22.5056 13.3067 22.6634 13.5316 22.7565C13.7565 22.8497 14.004 22.8741 14.2428 22.8266C14.4815 22.7791 14.7008 22.6619 14.873 22.4898L24.7208 12.642C24.9516 12.4111 25.0812 12.0981 25.0812 11.7717C25.0812 11.4453 24.9516 11.1322 24.7208 10.9014ZM15.2337 18.6479V16.0801C15.2337 15.7536 15.104 15.4405 14.8731 15.2097C14.6423 14.9788 14.3292 14.8491 14.0027 14.8491C13.6888 14.8491 12.4073 14.9107 12.0799 14.9538C8.76224 15.2594 5.60423 16.5199 2.98788 18.5827C3.28485 15.8677 4.57282 13.3576 6.60518 11.5331C8.63755 9.70851 11.2715 8.69772 14.0027 8.69422C14.3292 8.69422 14.6423 8.56453 14.8731 8.33367C15.104 8.10282 15.2337 7.78972 15.2337 7.46324V4.89542L22.1099 11.7717L15.2337 18.6479Z" fill="#443E3E"/>
</svg>
