<svg width="18" height="14" viewBox="0 0 18 14" fill="none" xmlns="http://www.w3.org/2000/svg">
<path d="M5.42971 0.572228C5.35046 0.496361 5.257 0.43689 5.15471 0.397228C4.95183 0.31388 4.72426 0.31388 4.52138 0.397228C4.41909 0.43689 4.32563 0.496361 4.24638 0.572228L0.913045 3.90556C0.835346 3.98326 0.773713 4.0755 0.731662 4.17702C0.689612 4.27854 0.667969 4.38735 0.667969 4.49723C0.667969 4.60711 0.689612 4.71592 0.731662 4.81744C0.773713 4.91895 0.835346 5.0112 0.913045 5.0889C0.990744 5.16659 1.08299 5.22823 1.1845 5.27028C1.28602 5.31233 1.39483 5.33397 1.50471 5.33397C1.61459 5.33397 1.7234 5.31233 1.82492 5.27028C1.92644 5.22823 2.01868 5.16659 2.09638 5.0889L4.00471 3.17223V12.8306C4.00471 13.0516 4.09251 13.2635 4.24879 13.4198C4.40507 13.5761 4.61703 13.6639 4.83804 13.6639C5.05906 13.6639 5.27102 13.5761 5.4273 13.4198C5.58358 13.2635 5.67138 13.0516 5.67138 12.8306V3.17223L7.57971 5.0889C7.65718 5.167 7.74935 5.229 7.8509 5.2713C7.95245 5.31361 8.06137 5.33539 8.17138 5.33539C8.28139 5.33539 8.39031 5.31361 8.49186 5.2713C8.59341 5.229 8.68557 5.167 8.76304 5.0889C8.84115 5.01143 8.90315 4.91926 8.94545 4.81771C8.98776 4.71616 9.00954 4.60724 9.00954 4.49723C9.00954 4.38722 8.98776 4.2783 8.94545 4.17675C8.90315 4.0752 8.84115 3.98303 8.76304 3.90556L5.42971 0.572228Z" fill="#443E3E"/>
<path d="M13.7696 13.4266C13.6903 13.5024 13.5968 13.5619 13.4946 13.6016C13.2917 13.6849 13.0641 13.6849 12.8612 13.6016C12.7589 13.5619 12.6655 13.5024 12.5862 13.4266L9.25289 10.0932C9.17519 10.0155 9.11356 9.92328 9.07151 9.82176C9.02946 9.72024 9.00781 9.61143 9.00781 9.50155C9.00781 9.39167 9.02946 9.28286 9.07151 9.18134C9.11356 9.07983 9.17519 8.98758 9.25289 8.90988C9.33059 8.83219 9.42283 8.77055 9.52435 8.7285C9.62587 8.68645 9.73467 8.66481 9.84456 8.66481C9.95444 8.66481 10.0632 8.68645 10.1648 8.7285C10.2663 8.77055 10.3585 8.83219 10.4362 8.90988L12.3446 10.8266V1.16822C12.3446 0.947206 12.4324 0.735245 12.5886 0.578964C12.7449 0.422684 12.9569 0.334887 13.1779 0.334887C13.3989 0.334887 13.6109 0.422684 13.7671 0.578964C13.9234 0.735245 14.0112 0.947206 14.0112 1.16822V10.8266L15.9196 8.90988C15.997 8.83178 16.0892 8.76978 16.1907 8.72748C16.2923 8.68517 16.4012 8.66339 16.5112 8.66339C16.6212 8.66339 16.7302 8.68517 16.8317 8.72748C16.9333 8.76978 17.0254 8.83178 17.1029 8.90988C17.181 8.98735 17.243 9.07952 17.2853 9.18107C17.3276 9.28262 17.3494 9.39154 17.3494 9.50155C17.3494 9.61156 17.3276 9.72048 17.2853 9.82203C17.243 9.92358 17.181 10.0157 17.1029 10.0932L13.7696 13.4266Z" fill="#443E3E"/>
</svg>
