<svg width="24" height="26" viewBox="0 0 24 26" fill="none" xmlns="http://www.w3.org/2000/svg">
<path d="M9.5 20.2217C9.83152 20.2217 10.1495 20.09 10.3839 19.8556C10.6183 19.6211 10.75 19.3032 10.75 18.9717V11.4717C10.75 11.1402 10.6183 10.8222 10.3839 10.5878C10.1495 10.3534 9.83152 10.2217 9.5 10.2217C9.16848 10.2217 8.85054 10.3534 8.61612 10.5878C8.3817 10.8222 8.25 11.1402 8.25 11.4717V18.9717C8.25 19.3032 8.3817 19.6211 8.61612 19.8556C8.85054 20.09 9.16848 20.2217 9.5 20.2217ZM22 5.22168H17V3.97168C17 2.97712 16.6049 2.02329 15.9017 1.32003C15.1984 0.616768 14.2446 0.22168 13.25 0.22168H10.75C9.75544 0.22168 8.80161 0.616768 8.09835 1.32003C7.39509 2.02329 7 2.97712 7 3.97168V5.22168H2C1.66848 5.22168 1.35054 5.35338 1.11612 5.5878C0.881696 5.82222 0.75 6.14016 0.75 6.47168C0.75 6.8032 0.881696 7.12114 1.11612 7.35556C1.35054 7.58998 1.66848 7.72168 2 7.72168H3.25V21.4717C3.25 22.4662 3.64509 23.4201 4.34835 24.1233C5.05161 24.8266 6.00544 25.2217 7 25.2217H17C17.9946 25.2217 18.9484 24.8266 19.6517 24.1233C20.3549 23.4201 20.75 22.4662 20.75 21.4717V7.72168H22C22.3315 7.72168 22.6495 7.58998 22.8839 7.35556C23.1183 7.12114 23.25 6.8032 23.25 6.47168C23.25 6.14016 23.1183 5.82222 22.8839 5.5878C22.6495 5.35338 22.3315 5.22168 22 5.22168ZM9.5 3.97168C9.5 3.64016 9.6317 3.32222 9.86612 3.0878C10.1005 2.85338 10.4185 2.72168 10.75 2.72168H13.25C13.5815 2.72168 13.8995 2.85338 14.1339 3.0878C14.3683 3.32222 14.5 3.64016 14.5 3.97168V5.22168H9.5V3.97168ZM18.25 21.4717C18.25 21.8032 18.1183 22.1211 17.8839 22.3556C17.6495 22.59 17.3315 22.7217 17 22.7217H7C6.66848 22.7217 6.35054 22.59 6.11612 22.3556C5.8817 22.1211 5.75 21.8032 5.75 21.4717V7.72168H18.25V21.4717ZM14.5 20.2217C14.8315 20.2217 15.1495 20.09 15.3839 19.8556C15.6183 19.6211 15.75 19.3032 15.75 18.9717V11.4717C15.75 11.1402 15.6183 10.8222 15.3839 10.5878C15.1495 10.3534 14.8315 10.2217 14.5 10.2217C14.1685 10.2217 13.8505 10.3534 13.6161 10.5878C13.3817 10.8222 13.25 11.1402 13.25 11.4717V18.9717C13.25 19.3032 13.3817 19.6211 13.6161 19.8556C13.8505 20.09 14.1685 20.2217 14.5 20.2217Z" fill="#999999"/>
</svg>
