<svg width="28" height="24" viewBox="0 0 28 24" fill="none" xmlns="http://www.w3.org/2000/svg">
<path d="M27.75 12.625V18.875C27.75 19.2065 27.6183 19.5245 27.3839 19.7589C27.1495 19.9933 26.8315 20.125 26.5 20.125H25.25C25.25 21.1196 24.8549 22.0734 24.1517 22.7767C23.4484 23.4799 22.4946 23.875 21.5 23.875C20.5054 23.875 19.5516 23.4799 18.8483 22.7767C18.1451 22.0734 17.75 21.1196 17.75 20.125H10.25C10.25 21.1196 9.85491 22.0734 9.15165 22.7767C8.44839 23.4799 7.49456 23.875 6.5 23.875C5.50544 23.875 4.55161 23.4799 3.84835 22.7767C3.14509 22.0734 2.75 21.1196 2.75 20.125H1.5C1.16848 20.125 0.850536 19.9933 0.616116 19.7589C0.381695 19.5245 0.25 19.2065 0.25 18.875V3.875C0.25 2.88044 0.645088 1.92661 1.34835 1.22335C2.05161 0.520088 3.00544 0.125 4 0.125H15.25C16.2446 0.125 17.1984 0.520088 17.9017 1.22335C18.6049 1.92661 19 2.88044 19 3.875V6.375H21.5C22.0822 6.375 22.6563 6.51054 23.1771 6.7709C23.6978 7.03125 24.1507 7.40926 24.5 7.875L27.5 11.875C27.5366 11.9293 27.566 11.9882 27.5875 12.05L27.6625 12.1875C27.7177 12.3269 27.7473 12.4751 27.75 12.625ZM7.75 20.125C7.75 19.8778 7.67669 19.6361 7.53934 19.4305C7.40199 19.225 7.20676 19.0648 6.97835 18.9701C6.74995 18.8755 6.49861 18.8508 6.25614 18.899C6.01366 18.9473 5.79093 19.0663 5.61612 19.2411C5.4413 19.4159 5.32225 19.6387 5.27402 19.8811C5.22579 20.1236 5.25054 20.3749 5.34515 20.6034C5.43976 20.8318 5.59998 21.027 5.80554 21.1643C6.0111 21.3017 6.25277 21.375 6.5 21.375C6.83152 21.375 7.14946 21.2433 7.38388 21.0089C7.61831 20.7745 7.75 20.4565 7.75 20.125ZM16.5 3.875C16.5 3.54348 16.3683 3.22554 16.1339 2.99112C15.8995 2.7567 15.5815 2.625 15.25 2.625H4C3.66848 2.625 3.35054 2.7567 3.11612 2.99112C2.88169 3.22554 2.75 3.54348 2.75 3.875V17.625H3.725C4.07648 17.2383 4.50489 16.9293 4.98277 16.7179C5.46065 16.5065 5.97744 16.3973 6.5 16.3973C7.02256 16.3973 7.53935 16.5065 8.01723 16.7179C8.49511 16.9293 8.92352 17.2383 9.275 17.625H16.5V3.875ZM19 11.375H24L22.5 9.375C22.3836 9.21975 22.2326 9.09375 22.059 9.00697C21.8854 8.92018 21.6941 8.875 21.5 8.875H19V11.375ZM22.75 20.125C22.75 19.8778 22.6767 19.6361 22.5393 19.4305C22.402 19.225 22.2068 19.0648 21.9784 18.9701C21.7499 18.8755 21.4986 18.8508 21.2561 18.899C21.0137 18.9473 20.7909 19.0663 20.6161 19.2411C20.4413 19.4159 20.3222 19.6387 20.274 19.8811C20.2258 20.1236 20.2505 20.3749 20.3452 20.6034C20.4398 20.8318 20.6 21.027 20.8055 21.1643C21.0111 21.3017 21.2528 21.375 21.5 21.375C21.8315 21.375 22.1495 21.2433 22.3839 21.0089C22.6183 20.7745 22.75 20.4565 22.75 20.125ZM25.25 13.875H19V17.35C19.7377 16.6907 20.7061 16.3496 21.6941 16.4012C22.6822 16.4527 23.6098 16.8926 24.275 17.625H25.25V13.875Z" fill="white"/>
</svg>
