<svg width="17" height="15" viewBox="0 0 17 15" fill="none" xmlns="http://www.w3.org/2000/svg">
<path d="M16.6996 7.18948C15.0419 3.34061 11.9234 0.952515 8.55875 0.952515C5.19408 0.952515 2.0756 3.34061 0.417877 7.18948C0.372689 7.29302 0.349365 7.40477 0.349365 7.51774C0.349365 7.63071 0.372689 7.74246 0.417877 7.846C2.0756 11.6949 5.19408 14.083 8.55875 14.083C11.9234 14.083 15.0419 11.6949 16.6996 7.846C16.7448 7.74246 16.7681 7.63071 16.7681 7.51774C16.7681 7.40477 16.7448 7.29302 16.6996 7.18948ZM8.55875 12.4417C5.95728 12.4417 3.49533 10.5624 2.0756 7.51774C3.49533 4.47312 5.95728 2.59382 8.55875 2.59382C11.1602 2.59382 13.6222 4.47312 15.0419 7.51774C13.6222 10.5624 11.1602 12.4417 8.55875 12.4417ZM8.55875 4.23513C7.90952 4.23513 7.27486 4.42765 6.73503 4.78835C6.19521 5.14904 5.77447 5.66172 5.52602 6.26154C5.27756 6.86135 5.21256 7.52138 5.33922 8.15814C5.46588 8.79491 5.77852 9.37981 6.2376 9.83889C6.69668 10.298 7.28159 10.6106 7.91835 10.7373C8.55511 10.8639 9.21514 10.7989 9.81496 10.5505C10.4148 10.302 10.9274 9.88128 11.2881 9.34146C11.6488 8.80164 11.8414 8.16698 11.8414 7.51774C11.8414 6.64713 11.4955 5.81219 10.8799 5.19658C10.2643 4.58097 9.42936 4.23513 8.55875 4.23513ZM8.55875 9.15904C8.23414 9.15904 7.91681 9.06278 7.64689 8.88243C7.37698 8.70208 7.16661 8.44575 7.04239 8.14584C6.91816 7.84593 6.88566 7.51592 6.94899 7.19753C7.01232 6.87915 7.16864 6.5867 7.39818 6.35716C7.62772 6.12762 7.92017 5.9713 8.23855 5.90797C8.55693 5.84464 8.88695 5.87714 9.18686 6.00137C9.48676 6.1256 9.7431 6.33597 9.92345 6.60588C10.1038 6.87579 10.2001 7.19312 10.2001 7.51774C10.2001 7.95304 10.0271 8.37051 9.71933 8.67832C9.41153 8.98612 8.99406 9.15904 8.55875 9.15904Z" fill="#999999"/>
</svg>
