<svg width="24" height="24" viewBox="0 0 24 24" fill="none" xmlns="http://www.w3.org/2000/svg">
<path d="M17.1903 14.2813C13.0105 14.3025 12.3344 16.9125 12.1091 19.1194L12.0066 20.0955H11.1665L11.0641 19.1194C10.8387 16.9125 10.1421 14.3025 6.10573 14.2813C5.4296 12.8382 5.14275 11.6711 5.14275 10.3555C5.14275 7.06641 7.74489 3.98939 11.5968 3.98939C15.4487 3.98939 18.0099 7.04507 18.0099 10.3768C18.0099 11.6711 17.8869 12.8382 17.1903 14.2813ZM11.5559 0C5.20428 0 0 5.38997 0 11.9893C0 18.6101 5.20428 24 11.5559 24C17.9689 24 23.1526 18.6101 23.1526 11.9893C23.1526 5.38999 17.9689 0 11.5559 0Z" fill="#29B24A"/>
</svg>
