<svg width="14" height="14" viewBox="0 0 14 14" fill="none" xmlns="http://www.w3.org/2000/svg">
<path d="M6.10456 0.679308C6.38641 -0.226436 7.61359 -0.226436 7.89544 0.679309L8.90246 3.91549C9.0285 4.32055 9.39 4.5948 9.79789 4.5948H13.0567C13.9687 4.5948 14.348 5.81347 13.6101 6.37325L10.9737 8.37332C10.6437 8.62366 10.5056 9.0674 10.6317 9.47246L11.6387 12.7086C11.9205 13.6144 10.9277 14.3676 10.1898 13.8078L7.55341 11.8077C7.22342 11.5574 6.77658 11.5574 6.44659 11.8077L3.81018 13.8078C3.0723 14.3676 2.07949 13.6144 2.36133 12.7086L3.36835 9.47246C3.4944 9.0674 3.35631 8.62366 3.02632 8.37332L0.389912 6.37325C-0.347968 5.81347 0.0312524 4.5948 0.943323 4.5948H4.20211C4.61 4.5948 4.9715 4.32055 5.09754 3.91549L6.10456 0.679308Z" fill="#EFB647"/>
</svg>
