<svg width="32" height="32" viewBox="0 0 32 32" fill="none" xmlns="http://www.w3.org/2000/svg">
<g clip-path="url(#clip0_31_77)">
<rect width="32" height="32" rx="6" fill="#583FBB"/>
<rect width="32" height="32" rx="6" fill="url(#paint0_linear_31_77)" fill-opacity="0.2"/>
<path d="M24.4784 10.416C24.1436 9.20342 23.4806 8.24556 22.5096 7.56792C21.2842 6.71026 19.8746 6.40796 18.6576 6.22284C16.9734 5.96809 15.4483 5.93242 13.9935 6.11245C12.6308 6.28228 11.6046 6.55232 10.6688 6.98879C8.83397 7.84475 7.73242 9.2289 7.39592 11.1022C7.23186 12.0125 7.12137 12.8345 7.05776 13.6191C6.91044 15.4329 7.04436 17.0379 7.46624 18.5256C7.87806 19.976 8.59625 21.012 9.66265 21.693C9.93385 21.8662 10.2821 21.9919 10.6186 22.1125C10.8094 22.1804 10.9952 22.2467 11.1476 22.3197C11.2882 22.3859 11.2882 22.3978 11.2865 22.5167C11.2748 23.5476 11.2865 25.5686 11.2865 25.5686L11.2899 26H12.0533L12.1771 25.8777C12.2592 25.7996 14.1509 23.945 14.8256 23.1977L14.9176 23.0941C15.0331 22.9583 15.0331 22.9583 15.152 22.9566C16.0627 22.9379 16.9935 22.9022 17.9176 22.8513C19.0376 22.7901 20.335 22.6797 21.5571 22.1635C22.6754 21.6896 23.4923 20.9373 23.9828 19.9284C24.4951 18.8755 24.7981 17.7359 24.912 16.4434C25.1129 14.1711 24.9706 12.1993 24.4784 10.416ZM20.4505 19.2525C20.1693 19.7161 19.7507 20.0388 19.2569 20.2477C18.8953 20.4006 18.527 20.3683 18.1704 20.2155C15.1855 18.9332 12.8434 16.9139 11.2966 14.0097C10.9768 13.4119 10.7558 12.7597 10.5014 12.128C10.4495 11.9989 10.4528 11.846 10.4294 11.7034C10.4511 10.6827 11.2229 10.1069 12.003 9.93371C12.301 9.86578 12.5655 9.97277 12.7865 10.1885C13.3992 10.7795 13.883 11.4673 14.248 12.2384C14.407 12.5763 14.335 12.8752 14.0638 13.1266C14.0069 13.1792 13.9483 13.2268 13.8864 13.2743C13.267 13.7465 13.1766 14.1048 13.5064 14.8164C14.0689 16.0274 15.003 16.8409 16.21 17.3453C16.5281 17.4777 16.8278 17.4115 17.0705 17.15C17.104 17.116 17.1408 17.082 17.1643 17.0413C17.6397 16.2362 18.3311 16.3161 18.9689 16.7746C19.3875 17.0769 19.7943 17.3962 20.2078 17.7036C20.8389 18.1741 20.8339 18.6156 20.4505 19.2525ZM16.4913 11.2177C16.3507 11.2177 16.21 11.2295 16.0711 11.2533C15.8367 11.2924 15.6174 11.1327 15.5772 10.895C15.5387 10.6589 15.6961 10.4347 15.9305 10.3957C16.1146 10.3634 16.3038 10.3481 16.4913 10.3481C18.3478 10.3481 19.8579 11.88 19.8579 13.7635C19.8579 13.9554 19.8428 14.1473 19.811 14.3324C19.7759 14.5447 19.595 14.6959 19.3891 14.6959C19.3657 14.6959 19.3423 14.6942 19.3171 14.6891C19.0844 14.65 18.9271 14.4258 18.9656 14.1897C18.989 14.0505 19.0007 13.9078 19.0007 13.7635C19.0007 12.3606 17.8741 11.2177 16.4913 11.2177ZM18.5722 13.8263C18.5722 14.0658 18.3797 14.2611 18.1436 14.2611C17.9076 14.2611 17.715 14.0658 17.715 13.8263C17.715 13.1079 17.1375 12.522 16.4293 12.522C16.1933 12.522 16.0008 12.3267 16.0008 12.0872C16.0008 11.8477 16.1933 11.6524 16.4293 11.6524C17.6112 11.6524 18.5722 12.6273 18.5722 13.8263ZM21.0197 14.7927C20.9745 14.9948 20.797 15.1306 20.6012 15.1306C20.5694 15.1306 20.5376 15.1272 20.5058 15.1204C20.2747 15.0661 20.1308 14.8334 20.1827 14.599C20.2446 14.3222 20.2764 14.0352 20.2764 13.7465C20.2764 11.6337 18.5805 9.91333 16.498 9.91333C16.2134 9.91333 15.9305 9.9456 15.6576 10.0084C15.4266 10.0628 15.1972 9.91503 15.1453 9.68066C15.0917 9.44629 15.2374 9.21361 15.4684 9.16097C15.8032 9.08284 16.1498 9.04378 16.498 9.04378C19.0543 9.04378 21.1335 11.1531 21.1335 13.7465C21.1335 14.0997 21.095 14.4513 21.0197 14.7927Z" fill="white"/>
</g>
<defs>
<linearGradient id="paint0_linear_31_77" x1="16" y1="0" x2="16" y2="32" gradientUnits="userSpaceOnUse">
<stop stop-color="white"/>
<stop offset="1" stop-color="white" stop-opacity="0"/>
</linearGradient>
<clipPath id="clip0_31_77">
<rect width="32" height="32" fill="white"/>
</clipPath>
</defs>
</svg>
