<svg width="88" height="24" viewBox="0 0 88 24" fill="none" xmlns="http://www.w3.org/2000/svg">
<path d="M0.77125 5.432C1.38992 5.176 2.02992 4.888 2.69125 4.568C3.37392 4.22667 4.03525 3.864 4.67525 3.48C5.31525 3.07467 5.92325 2.65867 6.49925 2.232C7.09658 1.784 7.62992 1.31467 8.09925 0.823999H11.4273V23H6.65925V7.032C6.01925 7.45867 5.30458 7.85333 4.51525 8.216C3.72592 8.55733 2.95792 8.856 2.21125 9.112L0.77125 5.432ZM33.8068 11.864C33.8068 15.5973 33.0921 18.4667 31.6628 20.472C30.2548 22.456 28.3028 23.448 25.8068 23.448C23.3108 23.448 21.3481 22.456 19.9188 20.472C18.5108 18.4667 17.8068 15.5973 17.8068 11.864C17.8068 10.008 17.9881 8.36533 18.3508 6.936C18.7348 5.50667 19.2788 4.30133 19.9828 3.32C20.6868 2.33867 21.5294 1.592 22.5108 1.08C23.4921 0.567998 24.5908 0.311998 25.8068 0.311998C28.3028 0.311998 30.2548 1.31467 31.6628 3.32C33.0921 5.304 33.8068 8.152 33.8068 11.864ZM28.9428 11.864C28.9428 10.7547 28.8894 9.752 28.7828 8.856C28.6761 7.93867 28.5054 7.14933 28.2708 6.488C28.0361 5.82667 27.7161 5.31467 27.3108 4.952C26.9054 4.58933 26.4041 4.408 25.8068 4.408C25.2094 4.408 24.7081 4.58933 24.3028 4.952C23.9188 5.31467 23.5988 5.82667 23.3428 6.488C23.1081 7.14933 22.9374 7.93867 22.8308 8.856C22.7241 9.752 22.6708 10.7547 22.6708 11.864C22.6708 12.9733 22.7241 13.9867 22.8308 14.904C22.9374 15.8213 23.1081 16.6107 23.3428 17.272C23.5988 17.9333 23.9188 18.4453 24.3028 18.808C24.7081 19.1707 25.2094 19.352 25.8068 19.352C26.4041 19.352 26.9054 19.1707 27.3108 18.808C27.7161 18.4453 28.0361 17.9333 28.2708 17.272C28.5054 16.6107 28.6761 15.8213 28.7828 14.904C28.8894 13.9867 28.9428 12.9733 28.9428 11.864ZM51.9943 11.864C51.9943 15.5973 51.2796 18.4667 49.8503 20.472C48.4423 22.456 46.4903 23.448 43.9943 23.448C41.4983 23.448 39.5356 22.456 38.1063 20.472C36.6983 18.4667 35.9943 15.5973 35.9943 11.864C35.9943 10.008 36.1756 8.36533 36.5383 6.936C36.9223 5.50667 37.4663 4.30133 38.1703 3.32C38.8743 2.33867 39.7169 1.592 40.6983 1.08C41.6796 0.567998 42.7783 0.311998 43.9943 0.311998C46.4903 0.311998 48.4423 1.31467 49.8503 3.32C51.2796 5.304 51.9943 8.152 51.9943 11.864ZM47.1303 11.864C47.1303 10.7547 47.0769 9.752 46.9703 8.856C46.8636 7.93867 46.6929 7.14933 46.4583 6.488C46.2236 5.82667 45.9036 5.31467 45.4983 4.952C45.0929 4.58933 44.5916 4.408 43.9943 4.408C43.3969 4.408 42.8956 4.58933 42.4903 4.952C42.1063 5.31467 41.7863 5.82667 41.5303 6.488C41.2956 7.14933 41.1249 7.93867 41.0183 8.856C40.9116 9.752 40.8583 10.7547 40.8583 11.864C40.8583 12.9733 40.9116 13.9867 41.0183 14.904C41.1249 15.8213 41.2956 16.6107 41.5303 17.272C41.7863 17.9333 42.1063 18.4453 42.4903 18.808C42.8956 19.1707 43.3969 19.352 43.9943 19.352C44.5916 19.352 45.0929 19.1707 45.4983 18.808C45.9036 18.4453 46.2236 17.9333 46.4583 17.272C46.6929 16.6107 46.8636 15.8213 46.9703 14.904C47.0769 13.9867 47.1303 12.9733 47.1303 11.864ZM70.1818 11.864C70.1818 15.5973 69.4671 18.4667 68.0378 20.472C66.6298 22.456 64.6778 23.448 62.1818 23.448C59.6858 23.448 57.7231 22.456 56.2938 20.472C54.8858 18.4667 54.1818 15.5973 54.1818 11.864C54.1818 10.008 54.3631 8.36533 54.7258 6.936C55.1098 5.50667 55.6538 4.30133 56.3578 3.32C57.0618 2.33867 57.9044 1.592 58.8858 1.08C59.8671 0.567998 60.9658 0.311998 62.1818 0.311998C64.6778 0.311998 66.6298 1.31467 68.0378 3.32C69.4671 5.304 70.1818 8.152 70.1818 11.864ZM65.3178 11.864C65.3178 10.7547 65.2644 9.752 65.1578 8.856C65.0511 7.93867 64.8804 7.14933 64.6458 6.488C64.4111 5.82667 64.0911 5.31467 63.6858 4.952C63.2804 4.58933 62.7791 4.408 62.1818 4.408C61.5844 4.408 61.0831 4.58933 60.6778 4.952C60.2938 5.31467 59.9738 5.82667 59.7178 6.488C59.4831 7.14933 59.3124 7.93867 59.2058 8.856C59.0991 9.752 59.0458 10.7547 59.0458 11.864C59.0458 12.9733 59.0991 13.9867 59.2058 14.904C59.3124 15.8213 59.4831 16.6107 59.7178 17.272C59.9738 17.9333 60.2938 18.4453 60.6778 18.808C61.0831 19.1707 61.5844 19.352 62.1818 19.352C62.7791 19.352 63.2804 19.1707 63.6858 18.808C64.0911 18.4453 64.4111 17.9333 64.6458 17.272C64.8804 16.6107 65.0511 15.8213 65.1578 14.904C65.2644 13.9867 65.3178 12.9733 65.3178 11.864ZM72.8493 11.448H78.1933V5.528H82.5453V11.448H87.8893V15.448H82.5453V21.368H78.1933V15.448H72.8493V11.448Z" fill="#23685C"/>
</svg>
