<svg width="89" height="24" viewBox="0 0 89 24" fill="none" xmlns="http://www.w3.org/2000/svg">
<path d="M11.0513 16.472C11.0513 15.8533 10.9126 15.3093 10.6353 14.84C10.3579 14.3493 9.87792 13.944 9.19525 13.624C8.51258 13.304 7.59525 13.0587 6.44325 12.888C5.29125 12.7173 3.84058 12.632 2.09125 12.632C2.32592 10.648 2.51792 8.632 2.66725 6.584C2.81658 4.536 2.93392 2.616 3.01925 0.823999H15.0193V4.824H7.01925C6.97658 5.592 6.92325 6.33867 6.85925 7.064C6.81658 7.768 6.76325 8.38667 6.69925 8.92C9.81392 9.13333 12.1073 9.86933 13.5793 11.128C15.0726 12.3653 15.8193 14.0933 15.8193 16.312C15.8193 17.336 15.6379 18.2853 15.2753 19.16C14.9126 20.0347 14.3686 20.792 13.6433 21.432C12.9179 22.072 12.0006 22.5733 10.8913 22.936C9.80325 23.2987 8.52325 23.48 7.05125 23.48C6.47525 23.48 5.86725 23.4373 5.22725 23.352C4.60858 23.288 4.00058 23.192 3.40325 23.064C2.82725 22.9573 2.30458 22.84 1.83525 22.712C1.36592 22.584 1.00325 22.456 0.74725 22.328L1.61125 18.392C2.14458 18.6267 2.84858 18.8613 3.72325 19.096C4.59792 19.3093 5.64325 19.416 6.85925 19.416C8.33125 19.416 9.39792 19.128 10.0593 18.552C10.7206 17.9547 11.0513 17.2613 11.0513 16.472ZM34.8068 11.864C34.8068 15.5973 34.0921 18.4667 32.6628 20.472C31.2548 22.456 29.3028 23.448 26.8068 23.448C24.3108 23.448 22.3481 22.456 20.9188 20.472C19.5108 18.4667 18.8068 15.5973 18.8068 11.864C18.8068 10.008 18.9881 8.36533 19.3508 6.936C19.7348 5.50667 20.2788 4.30133 20.9828 3.32C21.6868 2.33867 22.5294 1.592 23.5108 1.08C24.4921 0.567998 25.5908 0.311998 26.8068 0.311998C29.3028 0.311998 31.2548 1.31467 32.6628 3.32C34.0921 5.304 34.8068 8.152 34.8068 11.864ZM29.9428 11.864C29.9428 10.7547 29.8894 9.752 29.7828 8.856C29.6761 7.93867 29.5054 7.14933 29.2708 6.488C29.0361 5.82667 28.7161 5.31467 28.3108 4.952C27.9054 4.58933 27.4041 4.408 26.8068 4.408C26.2094 4.408 25.7081 4.58933 25.3028 4.952C24.9188 5.31467 24.5988 5.82667 24.3428 6.488C24.1081 7.14933 23.9374 7.93867 23.8308 8.856C23.7241 9.752 23.6708 10.7547 23.6708 11.864C23.6708 12.9733 23.7241 13.9867 23.8308 14.904C23.9374 15.8213 24.1081 16.6107 24.3428 17.272C24.5988 17.9333 24.9188 18.4453 25.3028 18.808C25.7081 19.1707 26.2094 19.352 26.8068 19.352C27.4041 19.352 27.9054 19.1707 28.3108 18.808C28.7161 18.4453 29.0361 17.9333 29.2708 17.272C29.5054 16.6107 29.6761 15.8213 29.7828 14.904C29.8894 13.9867 29.9428 12.9733 29.9428 11.864ZM52.9943 11.864C52.9943 15.5973 52.2796 18.4667 50.8503 20.472C49.4423 22.456 47.4903 23.448 44.9943 23.448C42.4983 23.448 40.5356 22.456 39.1063 20.472C37.6983 18.4667 36.9943 15.5973 36.9943 11.864C36.9943 10.008 37.1756 8.36533 37.5383 6.936C37.9223 5.50667 38.4663 4.30133 39.1703 3.32C39.8743 2.33867 40.7169 1.592 41.6983 1.08C42.6796 0.567998 43.7783 0.311998 44.9943 0.311998C47.4903 0.311998 49.4423 1.31467 50.8503 3.32C52.2796 5.304 52.9943 8.152 52.9943 11.864ZM48.1303 11.864C48.1303 10.7547 48.0769 9.752 47.9703 8.856C47.8636 7.93867 47.6929 7.14933 47.4583 6.488C47.2236 5.82667 46.9036 5.31467 46.4983 4.952C46.0929 4.58933 45.5916 4.408 44.9943 4.408C44.3969 4.408 43.8956 4.58933 43.4903 4.952C43.1063 5.31467 42.7863 5.82667 42.5303 6.488C42.2956 7.14933 42.1249 7.93867 42.0183 8.856C41.9116 9.752 41.8583 10.7547 41.8583 11.864C41.8583 12.9733 41.9116 13.9867 42.0183 14.904C42.1249 15.8213 42.2956 16.6107 42.5303 17.272C42.7863 17.9333 43.1063 18.4453 43.4903 18.808C43.8956 19.1707 44.3969 19.352 44.9943 19.352C45.5916 19.352 46.0929 19.1707 46.4983 18.808C46.9036 18.4453 47.2236 17.9333 47.4583 17.272C47.6929 16.6107 47.8636 15.8213 47.9703 14.904C48.0769 13.9867 48.1303 12.9733 48.1303 11.864ZM71.1818 11.864C71.1818 15.5973 70.4671 18.4667 69.0378 20.472C67.6298 22.456 65.6778 23.448 63.1818 23.448C60.6858 23.448 58.7231 22.456 57.2938 20.472C55.8858 18.4667 55.1818 15.5973 55.1818 11.864C55.1818 10.008 55.3631 8.36533 55.7258 6.936C56.1098 5.50667 56.6538 4.30133 57.3578 3.32C58.0618 2.33867 58.9044 1.592 59.8858 1.08C60.8671 0.567998 61.9658 0.311998 63.1818 0.311998C65.6778 0.311998 67.6298 1.31467 69.0378 3.32C70.4671 5.304 71.1818 8.152 71.1818 11.864ZM66.3178 11.864C66.3178 10.7547 66.2644 9.752 66.1578 8.856C66.0511 7.93867 65.8804 7.14933 65.6458 6.488C65.4111 5.82667 65.0911 5.31467 64.6858 4.952C64.2804 4.58933 63.7791 4.408 63.1818 4.408C62.5844 4.408 62.0831 4.58933 61.6778 4.952C61.2938 5.31467 60.9738 5.82667 60.7178 6.488C60.4831 7.14933 60.3124 7.93867 60.2058 8.856C60.0991 9.752 60.0458 10.7547 60.0458 11.864C60.0458 12.9733 60.0991 13.9867 60.2058 14.904C60.3124 15.8213 60.4831 16.6107 60.7178 17.272C60.9738 17.9333 61.2938 18.4453 61.6778 18.808C62.0831 19.1707 62.5844 19.352 63.1818 19.352C63.7791 19.352 64.2804 19.1707 64.6858 18.808C65.0911 18.4453 65.4111 17.9333 65.6458 17.272C65.8804 16.6107 66.0511 15.8213 66.1578 14.904C66.2644 13.9867 66.3178 12.9733 66.3178 11.864ZM73.8493 11.448H79.1933V5.528H83.5453V11.448H88.8893V15.448H83.5453V21.368H79.1933V15.448H73.8493V11.448Z" fill="#23685C"/>
</svg>
