<svg width="10" height="17" viewBox="0 0 10 17" fill="none" xmlns="http://www.w3.org/2000/svg">
<path d="M9.58151 9.58962L2.22391 16.3531C2.10306 16.4653 1.95929 16.5544 1.80088 16.6152C1.64247 16.676 1.47257 16.7072 1.30096 16.7072C1.12935 16.7072 0.959445 16.676 0.801037 16.6152C0.642629 16.5544 0.498855 16.4653 0.37801 16.3531C0.135897 16.1289 0 15.8255 0 15.5092C0 15.193 0.135897 14.8895 0.37801 14.6653L6.81266 8.67983L0.37801 2.75426C0.135897 2.52997 0 2.22657 0 1.91031C0 1.59406 0.135897 1.29066 0.37801 1.06637C0.498402 0.953259 0.641973 0.863274 0.800402 0.801628C0.958832 0.739982 1.12897 0.707902 1.30096 0.707245C1.47295 0.707902 1.64309 0.739982 1.80152 0.801628C1.95995 0.863274 2.10352 0.953259 2.22391 1.06637L9.58151 7.8299C9.71346 7.942 9.81877 8.07805 9.89079 8.22948C9.96282 8.38091 10 8.54444 10 8.70976C10 8.87508 9.96282 9.03861 9.89079 9.19004C9.81877 9.34147 9.71346 9.47752 9.58151 9.58962V9.58962Z" fill="white"/>
</svg>
