<svg width="10" height="16" viewBox="0 0 10 16" fill="none" xmlns="http://www.w3.org/2000/svg">
<path d="M0.41849 8.88237L7.77609 15.6459C7.89694 15.7581 8.04071 15.8472 8.19912 15.9079C8.35753 15.9687 8.52743 16 8.69904 16C8.87065 16 9.04055 15.9687 9.19896 15.9079C9.35737 15.8472 9.50114 15.7581 9.62199 15.6459C9.8641 15.4216 10 15.1182 10 14.802C10 14.4857 9.8641 14.1823 9.62199 13.958L3.18734 7.97259L9.62199 2.04701C9.8641 1.82273 10 1.51932 10 1.20307C10 0.886817 9.8641 0.583413 9.62199 0.359124C9.5016 0.246014 9.35803 0.156029 9.1996 0.0943828C9.04117 0.032737 8.87103 0.00065726 8.69904 -2.39446e-07C8.52705 0.00065726 8.35691 0.032737 8.19848 0.0943828C8.04005 0.156029 7.89648 0.246014 7.77609 0.359124L0.41849 7.12266C0.28654 7.23475 0.181235 7.3708 0.109209 7.52224C0.0371837 7.67367 -3.96052e-07 7.83719 -3.96052e-07 8.00251C-3.96052e-07 8.16783 0.0371837 8.33136 0.109209 8.48279C0.181235 8.63422 0.28654 8.77027 0.41849 8.88237V8.88237Z" fill="white"/>
</svg>
