<svg width="14" height="8" viewBox="0 0 14 8" fill="none" xmlns="http://www.w3.org/2000/svg">
<path d="M6.57861 7.67792L0.928611 2.01792C0.834882 1.92496 0.760488 1.81436 0.70972 1.6925C0.658951 1.57064 0.632812 1.43993 0.632812 1.30792C0.632812 1.17591 0.658951 1.0452 0.70972 0.923345C0.760488 0.801485 0.834882 0.690884 0.928611 0.597921C1.11597 0.41167 1.36942 0.307129 1.63361 0.307129C1.8978 0.307129 2.15125 0.41167 2.33861 0.597921L7.33861 5.54792L12.2886 0.597921C12.476 0.41167 12.7294 0.307129 12.9936 0.307129C13.2578 0.307129 13.5112 0.41167 13.6986 0.597921C13.7931 0.690536 13.8683 0.800981 13.9198 0.922856C13.9713 1.04473 13.9981 1.17561 13.9986 1.30792C13.9981 1.44023 13.9713 1.57111 13.9198 1.69299C13.8683 1.81486 13.7931 1.92531 13.6986 2.01792L8.04861 7.67792C7.95497 7.77943 7.84132 7.86043 7.71482 7.91584C7.58832 7.97125 7.45171 7.99985 7.31361 7.99985C7.17551 7.99985 7.0389 7.97125 6.9124 7.91584C6.7859 7.86043 6.67225 7.77943 6.57861 7.67792Z" fill="#999999"/>
</svg>
