<svg width="51" height="51" viewBox="0 0 51 51" fill="none" xmlns="http://www.w3.org/2000/svg">
<path d="M50.7212 25.6835C50.7212 25.5727 50.7212 25.4613 50.7212 25.3499C50.7212 25.153 50.7212 24.9561 50.7212 24.7592C50.7212 24.649 50.7212 24.5388 50.7212 24.4286C50.7183 23.5405 50.712 22.6507 50.5995 21.7701C50.2849 19.3172 49.6144 16.9636 48.5915 14.7081C47.3699 12.0158 45.7281 9.61228 43.6707 7.49517C42.5289 6.32066 41.278 5.26957 39.9227 4.34534C38.2487 3.20355 36.4721 2.25981 34.5708 1.55315C34.4629 1.51297 34.3555 1.47106 34.2367 1.4946C34.142 1.52388 34.0719 1.58989 33.999 1.65189C32.9812 2.52215 31.9778 3.40849 30.9652 4.28392C29.5541 5.50321 28.1506 6.73111 26.7413 7.95269C25.7149 8.84247 24.6954 9.73914 23.6649 10.6238C23.5605 10.7133 23.4267 10.7994 23.4715 10.9762C23.5542 11.11 23.6994 11.1421 23.8314 11.1938C27.2562 12.5411 30.6856 13.8786 34.1156 15.2127C34.3504 15.304 34.4537 15.4326 34.4514 15.6995C34.4399 17.2868 34.4462 18.8746 34.4451 20.4619C34.4451 20.653 34.4566 20.8442 34.4307 21.0354C34.398 21.1571 34.2907 21.2145 34.2051 21.2862C31.4376 23.5951 28.6603 25.893 25.894 28.203C25.1236 28.8465 24.3423 29.4774 23.5783 30.1284C23.4566 30.2323 23.2683 30.3218 23.3837 30.5434C23.7453 30.7868 24.1684 30.889 24.5662 31.0451C27.7321 32.2874 30.9055 33.5101 34.0645 34.7701C34.4462 34.9223 34.4462 34.9257 34.4462 35.3327C34.4468 36.9573 34.4468 38.5819 34.4456 40.2064C34.4456 40.3298 34.4623 40.4561 34.3946 40.5709C34.3234 40.7139 34.1862 40.7925 34.0702 40.8884C31.1868 43.2621 28.3119 45.6467 25.4313 48.0239C24.805 48.5405 24.1713 49.0486 23.5576 49.5801C23.4612 49.6634 23.2953 49.73 23.3831 49.9165C23.5415 49.9975 23.7229 49.9355 23.8842 49.9986C23.9606 49.9986 24.0375 49.9986 24.1139 49.9986C24.1523 49.963 24.1902 49.963 24.2287 49.9986C24.305 49.9986 24.3819 49.9986 24.4583 49.9986C24.5731 49.9533 24.6879 49.9533 24.8027 49.9986C25.4152 49.9986 26.0272 49.9986 26.6397 49.9986C26.7356 49.9527 26.8308 49.9527 26.9267 49.9986C27.0226 49.9986 27.1179 49.9986 27.2137 49.9986C27.2522 49.963 27.2901 49.963 27.3285 49.9986C27.367 49.9986 27.4049 49.9986 27.4434 49.9986C27.5117 49.9458 27.5909 49.9762 27.6649 49.9705C28.2258 49.9274 28.7912 49.9406 29.3492 49.8591C31.6632 49.5204 33.8871 48.8763 36.0191 47.9091C39.4996 46.3304 42.4738 44.0818 44.937 41.1628C46.4514 39.3683 47.6833 37.3918 48.6374 35.2449C49.9898 32.2018 50.7637 29.0313 50.7212 25.6835Z" fill="#FE0000"/>
<path d="M28.0278 38.5512C28.1386 38.4565 28.2781 38.3537 28.1851 38.1666C28.0869 38.0518 27.9475 38.0104 27.8143 37.9588C27.3057 37.7636 26.7976 37.5661 26.289 37.3698C23.3545 36.236 20.4245 35.0908 17.4888 33.9611C17.0542 33.794 17.0548 33.7906 17.0542 33.3176C17.0542 31.701 17.0537 30.0845 17.0548 28.468C17.0548 28.3348 17.0433 28.1999 17.0841 28.0684C17.1082 27.976 17.1886 27.9347 17.254 27.8813C20.2339 25.4404 23.1983 22.9812 26.1748 20.5357C26.8097 20.0139 27.4469 19.4944 28.076 18.9657C28.1868 18.8727 28.3418 18.7825 28.231 18.592C28.1323 18.4949 28.002 18.4553 27.878 18.4083C27.0198 18.0833 26.1673 17.7446 25.3114 17.4146C22.6897 16.4037 20.0726 15.3818 17.4509 14.3715C17.0554 14.2188 17.0554 14.2154 17.0554 13.7877C17.0548 12.1436 17.0548 10.499 17.0554 8.85486C17.0554 8.73087 17.0473 8.6063 17.076 8.48288C17.1696 8.32099 17.3292 8.22628 17.4687 8.11434C20.6019 5.60917 23.7201 3.08563 26.8533 0.57989C26.9578 0.496652 27.0726 0.423173 27.1558 0.318122C27.2178 0.24005 27.3103 0.14935 27.1627 0.0603718C26.8941 -0.00621831 26.6202 0.0431502 26.3493 0.0276508C26.2333 0.0276508 26.1168 0.0276508 26.0003 0.0276508C25.8177 0.0276508 25.6346 0.0276508 25.452 0.0276508C25.3407 0.0276508 25.2293 0.0276508 25.1179 0.0276508C24.4107 0.01904 23.7023 0.0374097 23.0003 0.0965372C21.7029 0.205607 20.4285 0.460487 19.1702 0.803196C15.0227 1.93178 11.409 4.00469 8.30395 6.96451C7.0198 8.18839 5.89006 9.54947 4.90212 11.0254C3.75287 12.7424 2.81716 14.5678 2.11337 16.5104C1.51119 18.1706 1.08869 19.8755 0.865385 21.6281C0.796498 22.166 0.833812 22.7114 0.75 23.2481C0.75 23.3244 0.75 23.4014 0.75 23.4777C0.785017 23.5099 0.77698 23.5523 0.778703 23.5925C0.77698 23.6327 0.785017 23.6752 0.75 23.7073C0.75 24.4536 0.75 25.1999 0.75 25.9461C0.79535 26.061 0.79535 26.1758 0.75 26.2906C0.75 26.4628 0.75 26.635 0.75 26.8072C0.831515 27.3244 0.794776 27.8509 0.860218 28.3686C1.17997 30.9134 1.90385 33.3411 2.99397 35.6585C4.45723 38.7693 6.47101 41.4731 9.03645 43.7636C11.087 45.5943 13.3895 47.0305 15.9067 48.1253C16.1403 48.2269 16.3694 48.3606 16.6392 48.352C16.8085 48.3015 16.9423 48.197 17.0732 48.0834C17.4561 47.7527 17.8344 47.4163 18.2167 47.0851C19.4429 46.0219 20.6685 44.9576 21.8912 43.891C23.1788 42.7676 24.4681 41.6459 25.758 40.5254C26.5158 39.8681 27.2643 39.201 28.0278 38.5512Z" fill="#FE0000"/>
<path d="M50.7031 25.3732C50.7031 25.1619 50.7031 24.9512 50.7031 24.74C50.7198 24.7095 50.7353 24.7084 50.7508 24.7405C50.7508 24.9512 50.7508 25.1613 50.7508 25.372C50.7358 25.4042 50.7198 25.403 50.7031 25.3732Z" fill="#FDD4D4"/>
<path d="M26.007 0.0476464C25.8152 0.0476464 25.6229 0.0476464 25.4312 0.0476464C25.4088 0.0367394 25.4013 0.0258324 25.4094 0.0154994C25.4163 0.00516648 25.4237 0 25.4318 0C25.6229 0 25.8147 0 26.0058 0C26.0288 0.010333 26.0362 0.0206659 26.0288 0.0315729C26.0219 0.0424799 26.0144 0.0476464 26.007 0.0476464Z" fill="#FDD2D2"/>
<path d="M25.4354 0C25.4354 0.0160735 25.4349 0.0315729 25.4343 0.0476464C25.3195 0.0476464 25.2047 0.0476464 25.0898 0.0476464C25.0904 0.0315729 25.0904 0.0160735 25.091 0C25.2058 0 25.3206 0 25.4354 0Z" fill="#FDE6E6"/>
<path d="M26.009 0.0476464C26.0084 0.0315729 26.0078 0.0160735 26.0078 0C26.1226 0 26.2374 0 26.3523 0C26.3528 0.0160735 26.3528 0.0315729 26.3534 0.0476464C26.2386 0.0476464 26.1238 0.0476464 26.009 0.0476464Z" fill="#FDE6E6"/>
<path d="M50.7514 24.7413L50.7272 24.7401L50.7031 24.7407C50.7031 24.6259 50.7031 24.5111 50.7031 24.3957C50.7192 24.394 50.7347 24.394 50.7508 24.3969C50.7514 24.5117 50.7514 24.6265 50.7514 24.7413Z" fill="#FDE5E5"/>
<path d="M50.7031 25.3742C50.7192 25.3753 50.7353 25.3748 50.7514 25.373C50.7514 25.4879 50.7514 25.6027 50.7514 25.7175L50.7272 25.7186L50.7031 25.7181C50.7031 25.6038 50.7031 25.489 50.7031 25.3742Z" fill="#FDE9E9"/>
<path d="M0.75 25.9473C0.821183 26.0621 0.848163 26.1769 0.75 26.2917C0.75 26.1769 0.75 26.0621 0.75 25.9473Z" fill="#FD3C3C"/>
<path d="M24.457 50.0022C24.5718 49.904 24.6867 49.9287 24.8015 50.0022C24.6867 50.0022 24.5718 50.0022 24.457 50.0022Z" fill="#FD3737"/>
<path d="M26.6406 50.0015C26.7365 49.9303 26.8318 49.9079 26.9277 50.0015C26.8318 50.0015 26.7365 50.0015 26.6406 50.0015Z" fill="#FD3737"/>
<path d="M0.75 23.479C0.816016 23.4951 0.803961 23.5444 0.79822 23.5909C0.784443 23.6306 0.76837 23.6311 0.75 23.5938C0.75 23.5554 0.75 23.5175 0.75 23.479Z" fill="#FD9797"/>
<path d="M0.75 23.5938C0.766073 23.592 0.782147 23.5909 0.79822 23.5915C0.807405 23.6408 0.806257 23.6856 0.75 23.7085C0.75 23.6701 0.75 23.6322 0.75 23.5938Z" fill="#FD7777"/>
<path d="M24.1133 49.9991C24.1517 49.9147 24.1896 49.9233 24.2281 49.9991C24.1896 49.9991 24.1517 49.9991 24.1133 49.9991Z" fill="#FDA7A7"/>
<path d="M27.2148 49.9991C27.2533 49.9233 27.2912 49.9147 27.3297 49.9991C27.2912 49.9991 27.2533 49.9991 27.2148 49.9991Z" fill="#FDA7A7"/>
<path d="M28.1913 38.245C26.4697 37.5733 24.7493 36.8999 23.0265 36.2312C21.0822 35.4763 19.1368 34.7237 17.1884 33.978C17.0013 33.9063 16.9301 33.8213 16.9312 33.6118C16.941 31.8156 16.9358 30.0194 16.9399 28.2231C16.9399 28.1382 16.8847 28.032 16.9927 27.966C17.2332 27.9235 17.441 28.0337 17.6517 28.1164C19.2889 28.7599 20.9318 29.389 22.5679 30.0354C22.7366 30.102 22.9077 30.164 23.0771 30.23C23.2033 30.2794 23.3228 30.3391 23.3819 30.4734C26.0644 31.5171 28.747 32.5601 31.429 33.6055C32.3968 33.9826 33.3607 34.3707 34.3308 34.7432C34.5099 34.8121 34.5673 34.9022 34.5662 35.0974C34.557 36.8753 34.5627 38.6537 34.553 40.4315C34.5524 40.4993 34.6787 40.6778 34.4514 40.6675C34.2367 40.749 34.0587 40.6215 33.8779 40.5515C32.2292 39.9143 30.5799 39.2777 28.9318 38.637C28.7717 38.5745 28.6081 38.5211 28.4496 38.4539C28.344 38.4091 28.2355 38.3661 28.1913 38.245Z" fill="#FEFEFE"/>
<path d="M28.2315 18.6664C24.9342 17.3903 21.6362 16.1147 18.3389 14.8386C17.9301 14.6802 17.5243 14.5148 17.1121 14.365C16.9853 14.3191 16.9336 14.2634 16.9336 14.1222C16.9382 12.2577 16.9365 10.3937 16.9376 8.52918C16.9376 8.47522 16.9221 8.4115 16.9933 8.3828C17.1506 8.35352 17.2947 8.40232 17.4382 8.458C19.0495 9.08602 20.6592 9.71977 22.27 10.3512C22.5725 10.4701 22.8802 10.5757 23.1787 10.7031C23.2906 10.7508 23.4187 10.7818 23.4697 10.9149C24.6546 11.3857 25.8377 11.8604 27.0249 12.3254C29.4462 13.2737 31.8693 14.2186 34.2941 15.1583C34.4864 15.233 34.5679 15.3191 34.5667 15.5424C34.5553 17.3099 34.561 19.0774 34.5581 20.8449C34.5581 20.9431 34.6064 21.0562 34.5059 21.1394C34.3687 21.1572 34.2436 21.1159 34.1173 21.0671C32.2648 20.3524 30.4146 19.6325 28.5616 18.9201C28.4267 18.8684 28.2947 18.8116 28.2315 18.6664Z" fill="#FEFEFE"/>
<path d="M28.2316 18.667C30.1873 19.4265 32.1431 20.1854 34.0984 20.9466C34.2384 21.0011 34.3934 21.0269 34.5059 21.14C33.8814 21.7307 33.2 22.2542 32.541 22.8036C29.5536 25.2939 26.5611 27.7778 23.5714 30.2646C23.4991 30.3243 23.4107 30.3719 23.3814 30.4718C21.285 29.6532 19.1891 28.8352 17.0926 28.016C17.0576 28.0022 17.0255 27.9816 16.9922 27.9638C20.6874 24.9202 24.3825 21.8765 28.0771 18.8317C28.1351 18.7847 28.1805 18.7221 28.2316 18.667Z" fill="#FEB1B1"/>
<path d="M28.1905 38.2441C30.2772 39.0518 32.3638 39.8595 34.4505 40.6666C34.0372 41.1041 33.5418 41.4456 33.0854 41.832C32.1411 42.6316 31.1807 43.4129 30.2261 44.1999C29.2054 45.0421 28.1824 45.8819 27.1618 46.724C26.2146 47.5053 25.268 48.2878 24.3231 49.0719C24.001 49.3389 23.6847 49.6121 23.3656 49.8825C22.3443 49.8274 21.342 49.6425 20.3449 49.4278C19.1612 49.173 18.0027 48.8314 16.873 48.3934C16.7944 48.363 16.7209 48.3216 16.6445 48.2849C17.2467 47.8457 17.7766 47.3211 18.3426 46.8394C19.1773 46.1288 20.0022 45.4066 20.83 44.6873C21.4706 44.1305 22.1072 43.5691 22.7473 43.0122C23.582 42.2866 24.4195 41.5645 25.2536 40.8383C25.9149 40.2619 26.5762 39.685 27.2307 39.1006C27.551 38.8147 27.908 38.5708 28.1905 38.2441Z" fill="#CF0000"/>
<path d="M23.4731 10.916C22.4266 10.513 21.379 10.114 20.3342 9.7053C19.2194 9.2696 18.1086 8.82471 16.9961 8.38383C18.1993 7.4154 19.4025 6.44813 20.6046 5.47913C22.2223 4.1743 23.8377 2.86718 25.4565 1.56351C25.976 1.14503 26.503 0.735726 27.0242 0.31839C27.0977 0.259836 27.1551 0.181765 27.2206 0.112305C28.4858 0.139285 29.7298 0.338482 30.9628 0.60025C32.0719 0.835611 33.1683 1.12379 34.2234 1.55031C33.8859 1.95616 33.4462 2.25123 33.0598 2.60427C32.3985 3.20702 31.7097 3.77993 31.0317 4.36546C30.2246 5.06294 29.4157 5.75869 28.6103 6.45846C27.9559 7.02677 27.3067 7.6014 26.6522 8.17086C25.8331 8.88326 25.011 9.59336 24.1896 10.3035C23.9513 10.5078 23.7114 10.7116 23.4731 10.916Z" fill="#CF0000"/>
</svg>
