<svg width="24" height="25" viewBox="0 0 24 25" fill="none" xmlns="http://www.w3.org/2000/svg">
    <path d="M20.9414 8.68881C21.5215 9.26206 21.771 9.98386 21.8877 10.8411C22 11.6668 22 12.7166 22 14.0191V14.1236C22 15.4261 22 16.476 21.8877 17.3016C21.771 18.1589 21.5215 18.8807 20.9414 19.4539C20.3612 20.0272 19.6307 20.2738 18.7632 20.389C17.9276 20.5 16.8651 20.5 15.547 20.5H10.622C9.30387 20.5 8.24141 20.5 7.4058 20.389C6.53824 20.2738 5.80777 20.0272 5.22762 19.4539C4.87566 19.1062 4.64535 18.7037 4.49261 18.2495C5.36407 18.3574 6.4422 18.3573 7.68787 18.3573H12.6974C13.979 18.3573 15.0833 18.3574 15.9676 18.2399C16.9154 18.114 17.8238 17.8301 18.5607 17.102C19.2975 16.3739 19.5848 15.4762 19.7123 14.5398C19.8312 13.666 19.8311 12.5748 19.831 11.3084V11.1203C19.8311 9.88912 19.8311 8.82356 19.7219 7.96234C20.1818 8.11328 20.5893 8.34088 20.9414 8.68881Z" fill="#719A1A"/>
    <path d="M10.1926 9.54765C9.26108 9.54765 8.50591 10.2939 8.50591 11.2143C8.50591 12.1348 9.26108 12.881 10.1926 12.881C11.1242 12.881 11.8793 12.1348 11.8793 11.2143C11.8793 10.2939 11.1242 9.54765 10.1926 9.54765Z" fill="#719A1A"/>
    <path fill-rule="evenodd" clip-rule="evenodd" d="M2.84691 6.33684C2 7.17369 2 8.52057 2 11.2143C2 13.9081 2 15.255 2.84691 16.0918C3.69381 16.9287 5.05688 16.9287 7.78303 16.9287H12.6022C15.3284 16.9287 16.6914 16.9287 17.5384 16.0918C18.3853 15.255 18.3853 13.9081 18.3853 11.2143C18.3853 8.52057 18.3853 7.17369 17.5384 6.33684C16.6914 5.5 15.3284 5.5 12.6022 5.5H7.78303C5.05688 5.5 3.69381 5.5 2.84691 6.33684ZM7.06015 11.2143C7.06015 9.50487 8.46261 8.11907 10.1926 8.11907C11.9226 8.11907 13.3251 9.50487 13.3251 11.2143C13.3251 12.9238 11.9226 14.3096 10.1926 14.3096C8.46261 14.3096 7.06015 12.9238 7.06015 11.2143ZM15.4937 13.8334C15.0945 13.8334 14.7709 13.5136 14.7709 13.1191V9.30956C14.7709 8.91506 15.0945 8.59526 15.4937 8.59526C15.893 8.59526 16.2166 8.91506 16.2166 9.30956V13.1191C16.2166 13.5136 15.893 13.8334 15.4937 13.8334ZM4.16864 13.1191C4.16864 13.5136 4.49228 13.8334 4.89152 13.8334C5.29075 13.8334 5.61439 13.5136 5.61439 13.1191L5.61439 9.30956C5.61439 8.91506 5.29075 8.59526 4.89152 8.59526C4.49228 8.59526 4.16864 8.91506 4.16864 9.30956L4.16864 13.1191Z" fill="#719A1A"/>
    </svg>
    