<svg width="38" height="10" viewBox="0 0 38 10" fill="none" xmlns="http://www.w3.org/2000/svg">
    <path fill-rule="evenodd" clip-rule="evenodd" d="M5.83149 7.57262H4.17674C1.59533 7.57262 3.47072 2.41701 5.64395 2.41701H8.25848C8.67766 2.41701 9.41679 2.48964 9.78085 1.51452L10.3435 0H6.75815C4.81659 0 3.30523 0.643155 2.2131 1.72199C0.326682 3.56846 -0.313154 6.45228 0.139145 7.83196C0.569381 9.10788 1.73874 9.94814 3.56999 9.96889L4.99309 9.97925H6.74711L7.17736 8.76556C7.49728 7.90457 6.78022 7.57262 5.83149 7.57262ZM25.9754 5.43568L26.5159 3.78631H20.7463C19.7866 3.78631 19.3563 4.03528 19.1909 4.55393L18.6503 6.20332H24.4199C25.3796 6.20332 25.8099 5.95436 25.9754 5.43568ZM17.7898 8.34026L17.2493 9.98962H23.0189C23.9676 9.98962 24.4089 9.74066 24.5743 9.222L25.1149 7.57262H19.3453C18.3966 7.57262 17.9663 7.82158 17.7898 8.34026ZM27.3212 1.65975L27.8619 0.0103733H22.0922C21.1325 0.0103733 20.7022 0.259336 20.5367 0.778008L19.9962 2.42739H25.7658C26.7146 2.42739 27.1447 2.17843 27.3212 1.65975ZM18.6062 1.9917C18.3635 0.456433 17.492 0.0103733 15.3739 0.0103733H11.5128L9.26236 6.20332H10.6854C11.5349 6.20332 11.9651 6.2137 12.4174 5.07261L13.3551 2.41701H14.7892C16.0138 2.41701 15.738 3.85893 15.1202 5.25933C14.5686 6.49377 13.6088 7.58299 12.4505 7.58299H10.0566C9.09688 7.58299 8.65562 7.83196 8.47909 8.35064L7.88338 10H9.63743L11.3584 9.98962C12.8807 9.97925 14.1273 9.87552 15.5835 8.64108C17.1279 7.32365 18.9151 3.9419 18.6062 1.9917ZM38 0H34.6574L31.5133 3.14315C31.1492 3.50622 30.7741 3.86929 30.41 4.29462H30.3769L31.9434 0H29.2188L25.5451 9.98962H28.27L29.4392 6.84648L30.6527 5.88174L31.6126 8.72408C31.9103 9.6058 32.2194 9.98962 32.8813 9.98962H34.9663L32.826 4.40872L38 0Z" fill="#719A1A"/>
    </svg>
    