<svg width="24" height="26" viewBox="0 0 24 26" fill="none" xmlns="http://www.w3.org/2000/svg">
<path d="M9.5 20.5C9.83152 20.5 10.1495 20.3683 10.3839 20.1339C10.6183 19.8995 10.75 19.5815 10.75 19.25V11.75C10.75 11.4185 10.6183 11.1005 10.3839 10.8661C10.1495 10.6317 9.83152 10.5 9.5 10.5C9.16848 10.5 8.85054 10.6317 8.61612 10.8661C8.3817 11.1005 8.25 11.4185 8.25 11.75V19.25C8.25 19.5815 8.3817 19.8995 8.61612 20.1339C8.85054 20.3683 9.16848 20.5 9.5 20.5ZM22 5.5H17V4.25C17 3.25544 16.6049 2.30161 15.9017 1.59835C15.1984 0.895088 14.2446 0.5 13.25 0.5H10.75C9.75544 0.5 8.80161 0.895088 8.09835 1.59835C7.39509 2.30161 7 3.25544 7 4.25V5.5H2C1.66848 5.5 1.35054 5.6317 1.11612 5.86612C0.881696 6.10054 0.75 6.41848 0.75 6.75C0.75 7.08152 0.881696 7.39946 1.11612 7.63388C1.35054 7.8683 1.66848 8 2 8H3.25V21.75C3.25 22.7446 3.64509 23.6984 4.34835 24.4017C5.05161 25.1049 6.00544 25.5 7 25.5H17C17.9946 25.5 18.9484 25.1049 19.6517 24.4017C20.3549 23.6984 20.75 22.7446 20.75 21.75V8H22C22.3315 8 22.6495 7.8683 22.8839 7.63388C23.1183 7.39946 23.25 7.08152 23.25 6.75C23.25 6.41848 23.1183 6.10054 22.8839 5.86612C22.6495 5.6317 22.3315 5.5 22 5.5ZM9.5 4.25C9.5 3.91848 9.6317 3.60054 9.86612 3.36612C10.1005 3.1317 10.4185 3 10.75 3H13.25C13.5815 3 13.8995 3.1317 14.1339 3.36612C14.3683 3.60054 14.5 3.91848 14.5 4.25V5.5H9.5V4.25ZM18.25 21.75C18.25 22.0815 18.1183 22.3995 17.8839 22.6339C17.6495 22.8683 17.3315 23 17 23H7C6.66848 23 6.35054 22.8683 6.11612 22.6339C5.8817 22.3995 5.75 22.0815 5.75 21.75V8H18.25V21.75ZM14.5 20.5C14.8315 20.5 15.1495 20.3683 15.3839 20.1339C15.6183 19.8995 15.75 19.5815 15.75 19.25V11.75C15.75 11.4185 15.6183 11.1005 15.3839 10.8661C15.1495 10.6317 14.8315 10.5 14.5 10.5C14.1685 10.5 13.8505 10.6317 13.6161 10.8661C13.3817 11.1005 13.25 11.4185 13.25 11.75V19.25C13.25 19.5815 13.3817 19.8995 13.6161 20.1339C13.8505 20.3683 14.1685 20.5 14.5 20.5Z" fill="#999999"/>
</svg>
