<svg width="40" height="40" viewBox="0 0 40 40" fill="none" xmlns="http://www.w3.org/2000/svg">
<path d="M35.652 7.82609H31.0371C31.4825 7.05797 31.7389 6.16742 31.7389 5.21742C31.7389 2.34055 29.3984 0 26.5215 0C23.8023 0 21.403 1.3943 19.9998 3.50523C18.5966 1.3943 16.1973 0 13.4781 0C10.6012 0 8.26066 2.34055 8.26066 5.21742C8.26066 6.16742 8.51707 7.05805 8.96254 7.82609H4.34762C2.18996 7.82609 0.43457 9.58148 0.43457 11.7391V17.8261C0.43457 18.5464 1.01855 19.1305 1.73895 19.1305H3.04332V36.087C3.04332 38.2446 4.79871 40 6.95637 40C8.0477 40 31.8416 40 33.0433 40C35.201 40 36.9564 38.2446 36.9564 36.087V19.1305H38.2607C38.9811 19.1305 39.5651 18.5465 39.5651 17.8261V11.7391C39.565 9.58148 37.8096 7.82609 35.652 7.82609ZM13.4781 2.60867C16.355 2.60867 18.6955 4.94922 18.6955 7.82609C18.1243 7.82609 14.1419 7.82609 13.4781 7.82609C12.0396 7.82609 10.8694 6.65586 10.8694 5.21742C10.8693 3.77898 12.0396 2.60867 13.4781 2.60867ZM16.0868 37.3913H6.95637C6.23715 37.3913 5.65199 36.8062 5.65199 36.087V19.1305H16.0868V37.3913ZM16.0868 16.5217C15.5428 16.5217 3.59137 16.5217 3.04332 16.5217V11.7391C3.04332 11.0199 3.62848 10.4348 4.3477 10.4348C4.5834 10.4348 15.8294 10.4348 16.0868 10.4348V16.5217H16.0868ZM21.3042 37.3913H18.6955V19.1305H21.3042V37.3913ZM21.3042 16.5217H18.6955V10.4348C19.6395 10.4348 20.3602 10.4348 21.3042 10.4348V16.5217ZM26.5215 2.60867C27.96 2.60867 29.1302 3.77891 29.1302 5.21734C29.1302 6.65578 27.96 7.82602 26.5215 7.82602C25.9221 7.82602 21.8664 7.82602 21.3041 7.82602C21.3042 4.94922 23.6446 2.60867 26.5215 2.60867ZM34.3476 36.087C34.3476 36.8062 33.7625 37.3913 33.0432 37.3913H23.9128V19.1305H34.3475V36.087H34.3476ZM36.9563 16.5217C36.408 16.5217 24.4564 16.5217 23.9129 16.5217V10.4348C24.1704 10.4348 35.4164 10.4348 35.652 10.4348C36.3712 10.4348 36.9564 11.0199 36.9564 11.7391V16.5217H36.9563Z" fill="#23685C"/>
</svg>
