<svg width="50" height="50" viewBox="0 0 50 50" fill="none" xmlns="http://www.w3.org/2000/svg">
<mask id="mask0_523_794" style="mask-type:alpha" maskUnits="userSpaceOnUse" x="0" y="0" width="50" height="50">
<circle cx="25" cy="25" r="25" fill="url(#paint0_linear_523_794)"/>
</mask>
<g mask="url(#mask0_523_794)">
<path d="M25.0082 0C14.5709 0 11.5184 0.0107701 10.925 0.0600051C8.78314 0.238097 7.45031 0.575433 5.99827 1.29857C4.87925 1.85439 3.99673 2.49867 3.12574 3.40183C1.5395 5.04889 0.578139 7.07521 0.230128 9.48388C0.0609287 10.6532 0.0117072 10.8917 0.00170908 16.8645C-0.00213635 18.8554 0.00170908 21.4757 0.00170908 24.9902C0.00170908 35.4218 0.0132454 38.4721 0.063236 39.0645C0.23628 41.1493 0.563142 42.4609 1.25532 43.8956C2.57815 46.642 5.1046 48.7037 8.08096 49.473C9.11154 49.7384 10.2498 49.8846 11.711 49.9538C12.3302 49.9808 18.6405 50 24.9547 50C31.2689 50 37.5831 49.9923 38.1868 49.9615C39.8788 49.8819 40.8613 49.75 41.9477 49.4692C44.9433 48.696 47.4236 46.6651 48.7733 43.8803C49.452 42.4801 49.7962 41.1185 49.9519 39.1425C49.9858 38.7117 50 31.8431 50 24.9837C50 18.1231 49.9846 11.2671 49.9508 10.8363C49.7931 8.82844 49.4489 7.47833 48.7483 6.05128C48.1734 4.88311 47.5351 4.01072 46.6083 3.11873C44.9544 1.53859 42.9317 0.576972 40.5214 0.22925C39.3535 0.0603897 39.1209 0.0103855 33.1451 0H25.0082Z" fill="url(#paint1_radial_523_794)"/>
<path d="M25.0082 0C14.5709 0 11.5184 0.0107701 10.925 0.0600051C8.78314 0.238097 7.45031 0.575433 5.99827 1.29857C4.87925 1.85439 3.99673 2.49867 3.12574 3.40183C1.5395 5.04889 0.578139 7.07521 0.230128 9.48388C0.0609287 10.6532 0.0117072 10.8917 0.00170908 16.8645C-0.00213635 18.8554 0.00170908 21.4757 0.00170908 24.9902C0.00170908 35.4218 0.0132454 38.4721 0.063236 39.0645C0.23628 41.1493 0.563142 42.4609 1.25532 43.8956C2.57815 46.642 5.1046 48.7037 8.08096 49.473C9.11154 49.7384 10.2498 49.8846 11.711 49.9538C12.3302 49.9808 18.6405 50 24.9547 50C31.2689 50 37.5831 49.9923 38.1868 49.9615C39.8788 49.8819 40.8613 49.75 41.9477 49.4692C44.9433 48.696 47.4236 46.6651 48.7733 43.8803C49.452 42.4801 49.7962 41.1185 49.9519 39.1425C49.9858 38.7117 50 31.8431 50 24.9837C50 18.1231 49.9846 11.2671 49.9508 10.8363C49.7931 8.82844 49.4489 7.47833 48.7483 6.05128C48.1734 4.88311 47.5351 4.01072 46.6083 3.11873C44.9544 1.53859 42.9317 0.576972 40.5214 0.22925C39.3535 0.0603897 39.1209 0.0103855 33.1451 0H25.0082Z" fill="url(#paint2_radial_523_794)"/>
</g>
<path d="M36.939 20.0561C36.8828 18.7809 36.6765 17.9042 36.381 17.1445C36.0762 16.3381 35.6073 15.6162 34.9929 15.016C34.3927 14.4065 33.6658 13.9329 32.8686 13.6329C32.1044 13.3375 31.2321 13.1313 29.9567 13.0751C28.6717 13.0141 28.2638 13 25.0047 13C21.7456 13 21.3377 13.0141 20.0574 13.0703C18.782 13.1266 17.9051 13.333 17.1455 13.6282C16.3388 13.9329 15.6167 14.4018 15.0164 15.016C14.4068 15.6162 13.9333 16.3429 13.6331 17.1399C13.3376 17.9042 13.1313 18.7761 13.0751 20.0513C13.0141 21.3361 13 21.7439 13 25.0024C13 28.2608 13.0141 28.6687 13.0703 29.9487C13.1266 31.2239 13.333 32.1006 13.6285 32.8603C13.9333 33.6666 14.4068 34.3886 15.0164 34.9887C15.6167 35.5982 16.3435 36.0718 17.1407 36.3718C17.9051 36.6672 18.7772 36.8734 20.0529 36.9297C21.3329 36.9861 21.741 37 25.0001 37C28.2592 37 28.6671 36.9861 29.9473 36.9297C31.2228 36.8734 32.0997 36.6672 32.8593 36.3718C34.4725 35.7482 35.748 34.473 36.3717 32.8603C36.667 32.096 36.8734 31.2239 36.9297 29.9487C36.9859 28.6687 37 28.2608 37 25.0024C37 21.7439 36.9952 21.3361 36.939 20.0561ZM34.7773 29.8549C34.7257 31.027 34.5288 31.66 34.3646 32.0819C33.9613 33.1275 33.1313 33.9573 32.0856 34.3606C31.6635 34.5247 31.0259 34.7215 29.8581 34.773C28.592 34.8294 28.2123 34.8433 25.0094 34.8433C21.8066 34.8433 21.4221 34.8294 20.1606 34.773C18.9882 34.7215 18.3552 34.5247 17.9331 34.3606C17.4127 34.1683 16.939 33.8635 16.5545 33.465C16.156 33.0758 15.8511 32.607 15.6588 32.0867C15.4947 31.6647 15.2978 31.027 15.2463 29.8597C15.1899 28.5938 15.176 28.214 15.176 25.0117C15.176 21.8095 15.1899 21.4251 15.2463 20.164C15.2978 18.9918 15.4947 18.3589 15.6588 17.937C15.8511 17.4165 16.156 16.943 16.5593 16.5584C16.9484 16.1599 17.4173 15.8552 17.9379 15.6631C18.3599 15.499 18.9978 15.3021 20.1653 15.2504C21.4314 15.1942 21.8114 15.1801 25.014 15.1801C28.2216 15.1801 28.6013 15.1942 29.8629 15.2504C31.0352 15.3021 31.6683 15.499 32.0903 15.6631C32.6107 15.8552 33.0844 16.1599 33.4689 16.5584C33.8675 16.9476 34.1723 17.4165 34.3646 17.937C34.5288 18.3589 34.7257 18.9964 34.7773 20.164C34.8336 21.4298 34.8477 21.8095 34.8477 25.0117C34.8477 28.214 34.8336 28.589 34.7773 29.8549Z" fill="white"/>
<path d="M25.0005 18.4546C21.387 18.4546 18.4551 21.3863 18.4551 25C18.4551 28.6138 21.387 31.5455 25.0005 31.5455C28.6143 31.5455 31.546 28.6138 31.546 25C31.546 21.3863 28.6143 18.4546 25.0005 18.4546ZM25.0005 29.2459C22.6562 29.2459 20.7547 27.3445 20.7547 25C20.7547 22.6555 22.6562 20.7542 25.0005 20.7542C27.345 20.7542 29.2464 22.6555 29.2464 25C29.2464 27.3445 27.345 29.2459 25.0005 29.2459Z" fill="white"/>
<path d="M32.6369 18.4546C32.6369 19.057 32.1485 19.5455 31.5459 19.5455C30.9435 19.5455 30.4551 19.057 30.4551 18.4546C30.4551 17.852 30.9435 17.3636 31.5459 17.3636C32.1485 17.3636 32.6369 17.852 32.6369 18.4546Z" fill="white"/>
<defs>
<linearGradient id="paint0_linear_523_794" x1="10.625" y1="44.375" x2="43.75" y2="10" gradientUnits="userSpaceOnUse">
<stop stop-color="#EEA054"/>
<stop offset="0.502762" stop-color="#D64763"/>
<stop offset="1" stop-color="#B62A99"/>
</linearGradient>
<radialGradient id="paint1_radial_523_794" cx="0" cy="0" r="1" gradientUnits="userSpaceOnUse" gradientTransform="translate(13.2813 53.851) rotate(-90) scale(49.5537 46.0888)">
<stop stop-color="#FFDD55"/>
<stop offset="0.1" stop-color="#FFDD55"/>
<stop offset="0.5" stop-color="#FF543E"/>
<stop offset="1" stop-color="#C837AB"/>
</radialGradient>
<radialGradient id="paint2_radial_523_794" cx="0" cy="0" r="1" gradientUnits="userSpaceOnUse" gradientTransform="translate(-8.37526 3.60192) rotate(78.6806) scale(22.1507 91.3062)">
<stop stop-color="#3771C8"/>
<stop offset="0.128" stop-color="#3771C8"/>
<stop offset="1" stop-color="#6600FF" stop-opacity="0"/>
</radialGradient>
</defs>
</svg>
