<svg width="23" height="25" viewBox="0 0 23 25" fill="none" xmlns="http://www.w3.org/2000/svg">
<path d="M8.625 20.75C8.25416 20.75 7.89165 20.86 7.58331 21.066C7.27496 21.272 7.03464 21.5649 6.89273 21.9075C6.75081 22.2501 6.71368 22.6271 6.78603 22.9908C6.85837 23.3545 7.03695 23.6886 7.29917 23.9508C7.5614 24.213 7.89549 24.3916 8.2592 24.464C8.62292 24.5363 8.99992 24.4992 9.34253 24.3573C9.68514 24.2154 9.97798 23.975 10.184 23.6667C10.39 23.3584 10.5 22.9958 10.5 22.625C10.5 22.1277 10.3025 21.6508 9.95083 21.2992C9.59919 20.9475 9.12228 20.75 8.625 20.75ZM21.75 17H6.75C6.41848 17 6.10054 16.8683 5.86612 16.6339C5.6317 16.3995 5.5 16.0815 5.5 15.75C5.5 15.4185 5.6317 15.1005 5.86612 14.8661C6.10054 14.6317 6.41848 14.5 6.75 14.5H17.3638C18.1781 14.4975 18.9697 14.231 19.6199 13.7406C20.2701 13.2502 20.7438 12.5623 20.97 11.78L22.9513 4.8425C23.0042 4.65658 23.0133 4.4609 22.9779 4.27086C22.9425 4.08082 22.8634 3.90158 22.747 3.74725C22.6306 3.59291 22.48 3.46768 22.307 3.3814C22.134 3.29512 21.9433 3.25014 21.75 3.25H6.425C6.16601 2.52127 5.68854 1.89017 5.0577 1.44276C4.42687 0.995361 3.67338 0.753442 2.9 0.75H1.75C1.41848 0.75 1.10054 0.881696 0.866116 1.11612C0.631696 1.35054 0.5 1.66848 0.5 2C0.5 2.33152 0.631696 2.64946 0.866116 2.88388C1.10054 3.1183 1.41848 3.25 1.75 3.25H2.90125C3.17269 3.25087 3.43655 3.33963 3.65332 3.503C3.8701 3.66637 4.02813 3.89556 4.10375 4.15625L4.2975 4.8375V4.84375L6.34875 12.0212C5.39396 12.1233 4.5147 12.5878 3.89219 13.3189C3.26967 14.05 2.95133 14.9921 3.00278 15.9509C3.05422 16.9098 3.47153 17.8123 4.1687 18.4727C4.86587 19.133 5.78977 19.5007 6.75 19.5H21.75C22.0815 19.5 22.3995 19.3683 22.6339 19.1339C22.8683 18.8995 23 18.5815 23 18.25C23 17.9185 22.8683 17.6005 22.6339 17.3661C22.3995 17.1317 22.0815 17 21.75 17ZM20.0925 5.75L18.5675 11.0925C18.492 11.3536 18.3339 11.5832 18.1169 11.7469C17.8998 11.9105 17.6356 11.9993 17.3638 12H8.9425L8.62375 10.885L7.1575 5.75H20.0925ZM18.625 20.75C18.2542 20.75 17.8916 20.86 17.5833 21.066C17.275 21.272 17.0346 21.5649 16.8927 21.9075C16.7508 22.2501 16.7137 22.6271 16.786 22.9908C16.8584 23.3545 17.037 23.6886 17.2992 23.9508C17.5614 24.213 17.8955 24.3916 18.2592 24.464C18.6229 24.5363 18.9999 24.4992 19.3425 24.3573C19.6851 24.2154 19.978 23.975 20.184 23.6667C20.39 23.3584 20.5 22.9958 20.5 22.625C20.5 22.1277 20.3025 21.6508 19.9508 21.2992C19.5992 20.9475 19.1223 20.75 18.625 20.75Z" fill="#FF8049"/>
</svg>
