<svg width="20" height="22" viewBox="0 0 20 22" fill="none" xmlns="http://www.w3.org/2000/svg">
<path d="M13.7085 11.7096C14.6889 10.9383 15.4045 9.88056 15.7558 8.68358C16.107 7.4866 16.0765 6.2099 15.6683 5.0311C15.2602 3.85231 14.4948 2.83003 13.4786 2.10649C12.4624 1.38296 11.246 0.994141 9.99853 0.994141C8.75108 0.994141 7.53465 1.38296 6.51846 2.10649C5.50228 2.83003 4.73688 3.85231 4.32874 5.0311C3.92061 6.2099 3.89004 7.4866 4.24129 8.68358C4.59254 9.88056 5.30814 10.9383 6.28853 11.7096C4.60861 12.3827 3.14282 13.499 2.04742 14.9396C0.95203 16.3801 0.268095 18.0909 0.0685318 19.8896C0.0540864 20.021 0.0656484 20.1538 0.102557 20.2807C0.139466 20.4075 0.200999 20.5259 0.283643 20.629C0.450551 20.8371 0.693315 20.9705 0.958532 20.9996C1.22375 21.0288 1.48969 20.9514 1.69786 20.7845C1.90602 20.6176 2.03936 20.3749 2.06853 20.1096C2.28812 18.1548 3.22022 16.3494 4.68675 15.0384C6.15328 13.7274 8.05143 13.0027 10.0185 13.0027C11.9856 13.0027 13.8838 13.7274 15.3503 15.0384C16.8168 16.3494 17.7489 18.1548 17.9685 20.1096C17.9957 20.3554 18.113 20.5823 18.2976 20.7467C18.4823 20.911 18.7213 21.0011 18.9685 20.9996H19.0785C19.3407 20.9695 19.5803 20.8369 19.7451 20.6309C19.9099 20.4248 19.9866 20.162 19.9585 19.8996C19.758 18.0958 19.0704 16.3806 17.9694 14.9378C16.8684 13.4951 15.3954 12.3791 13.7085 11.7096ZM9.99853 10.9996C9.20741 10.9996 8.43405 10.765 7.77625 10.3255C7.11845 9.88599 6.60576 9.26128 6.30301 8.53037C6.00026 7.79947 5.92105 6.9952 6.07539 6.21928C6.22973 5.44335 6.61069 4.73062 7.1701 4.17121C7.72951 3.6118 8.44225 3.23084 9.21817 3.0765C9.99409 2.92215 10.7984 3.00137 11.5293 3.30412C12.2602 3.60687 12.8849 4.11956 13.3244 4.77736C13.7639 5.43515 13.9985 6.20851 13.9985 6.99964C13.9985 8.0605 13.5771 9.07792 12.827 9.82806C12.0768 10.5782 11.0594 10.9996 9.99853 10.9996Z" fill="white"/>
</svg>
