<svg width="30" height="30" viewBox="0 0 30 30" fill="none" xmlns="http://www.w3.org/2000/svg">
<path d="M20.7942 2.57081C22.8523 2.73624 24.7849 3.65049 26.2428 5.14842C27.8487 6.80412 28.75 9.04369 28.75 11.3781C28.75 13.7125 27.8487 15.9521 26.2428 17.6078L17.7019 26.3744C16.9867 27.0957 16.0235 27.5 15.02 27.5C14.0165 27.5 13.0533 27.0957 12.3381 26.3744L3.79714 17.6078C2.24962 16.033 1.34184 13.9158 1.2566 11.6825C1.17135 9.44932 1.91498 7.26593 3.33774 5.57207C4.76049 3.87821 6.75668 2.79969 8.92433 2.55371C11.092 2.30773 13.2701 2.91255 15.02 4.24638C16.688 2.9997 18.736 2.40539 20.7942 2.57081Z" fill="#D62D30"/>
<path d="M25.1994 6.25021C23.8743 4.92172 22.1179 4.11088 20.2473 3.96417C18.3767 3.81746 16.5153 4.34454 14.9994 5.45021C13.4089 4.26725 11.4294 3.73085 9.45927 3.949C7.48918 4.16716 5.67492 5.12368 4.38183 6.62594C3.08875 8.1282 2.4129 10.0646 2.49037 12.0452C2.56784 14.0258 3.39289 15.9035 4.79937 17.3002L12.5619 25.0752C13.2119 25.7149 14.0874 26.0735 14.9994 26.0735C15.9114 26.0735 16.7868 25.7149 17.4369 25.0752L25.1994 17.3002C26.6588 15.8318 27.478 13.8455 27.478 11.7752C27.478 9.70486 26.6588 7.71862 25.1994 6.25021ZM23.4369 15.5752L15.6744 23.3377C15.586 23.4269 15.4809 23.4977 15.365 23.546C15.2492 23.5943 15.1249 23.6192 14.9994 23.6192C14.8738 23.6192 14.7496 23.5943 14.6337 23.546C14.5178 23.4977 14.4127 23.4269 14.3244 23.3377L6.56187 15.5377C5.58157 14.5356 5.03263 13.1895 5.03263 11.7877C5.03263 10.3859 5.58157 9.03977 6.56187 8.03771C7.56081 7.05144 8.90808 6.49842 10.3119 6.49842C11.7157 6.49842 13.0629 7.05144 14.0619 8.03771C14.1781 8.15487 14.3163 8.24786 14.4686 8.31132C14.621 8.37478 14.7844 8.40745 14.9494 8.40745C15.1144 8.40745 15.2778 8.37478 15.4301 8.31132C15.5824 8.24786 15.7207 8.15487 15.8369 8.03771C16.8358 7.05144 18.1831 6.49842 19.5869 6.49842C20.9907 6.49842 22.3379 7.05144 23.3369 8.03771C24.3306 9.02664 24.8976 10.3654 24.9163 11.7673C24.935 13.1692 24.4039 14.5226 23.4369 15.5377V15.5752Z" fill="#443E3E"/>
</svg>
