<svg width="18" height="16" viewBox="0 0 18 16" fill="none" xmlns="http://www.w3.org/2000/svg">
<path d="M15.8001 2.1262C14.9167 1.24054 13.7457 0.699979 12.4987 0.602171C11.2516 0.504362 10.0107 0.855751 9.00007 1.59286C7.93978 0.804227 6.62006 0.446622 5.30667 0.59206C3.99327 0.737499 2.78377 1.37518 1.92171 2.37668C1.05966 3.37819 0.609085 4.66913 0.660734 5.98954C0.712383 7.30995 1.26242 8.56175 2.20007 9.49286L7.37507 14.6762C7.80842 15.1027 8.39206 15.3417 9.00007 15.3417C9.60808 15.3417 10.1917 15.1027 10.6251 14.6762L15.8001 9.49286C16.7731 8.51392 17.3192 7.18976 17.3192 5.80953C17.3192 4.4293 16.7731 3.10514 15.8001 2.1262ZM14.6251 8.34286L9.45007 13.5179C9.39118 13.5773 9.32109 13.6245 9.24385 13.6567C9.16661 13.6889 9.08375 13.7055 9.00007 13.7055C8.91638 13.7055 8.83352 13.6889 8.75628 13.6567C8.67904 13.6245 8.60896 13.5773 8.55007 13.5179L3.37507 8.31786C2.72153 7.64982 2.35558 6.75242 2.35558 5.81786C2.35558 4.88331 2.72153 3.98591 3.37507 3.31786C4.04103 2.66035 4.93921 2.29167 5.87507 2.29167C6.81092 2.29167 7.7091 2.66035 8.37507 3.31786C8.45254 3.39597 8.5447 3.45796 8.64625 3.50027C8.7478 3.54258 8.85672 3.56436 8.96673 3.56436C9.07674 3.56436 9.18567 3.54258 9.28721 3.50027C9.38876 3.45796 9.48093 3.39597 9.5584 3.31786C10.2244 2.66035 11.1225 2.29167 12.0584 2.29167C12.9943 2.29167 13.8924 2.66035 14.5584 3.31786C15.2209 3.97715 15.5989 4.86969 15.6114 5.80427C15.6238 6.73885 15.2698 7.64114 14.6251 8.31786V8.34286Z" fill="#443E3E"/>
</svg>
