<svg width="18" height="18" viewBox="0 0 18 18" fill="none" xmlns="http://www.w3.org/2000/svg">
<path d="M12.0917 9.55116C12.9087 8.90838 13.505 8.02693 13.7977 7.02945C14.0904 6.03196 14.0649 4.96805 13.7248 3.98572C13.3847 3.00339 12.7469 2.15149 11.9001 1.54854C11.0532 0.945594 10.0395 0.621582 9 0.621582C7.96045 0.621582 6.94676 0.945594 6.09994 1.54854C5.25312 2.15149 4.61528 3.00339 4.27517 3.98572C3.93506 4.96805 3.90959 6.03196 4.2023 7.02945C4.49501 8.02693 5.09134 8.90838 5.90833 9.55116C4.5084 10.112 3.2869 11.0423 2.37407 12.2428C1.46125 13.4432 0.8913 14.8689 0.724997 16.3678C0.712959 16.4773 0.722594 16.588 0.753352 16.6937C0.784109 16.7994 0.835387 16.898 0.904257 16.9839C1.04335 17.1574 1.24565 17.2685 1.46666 17.2928C1.68768 17.3171 1.9093 17.2527 2.08277 17.1136C2.25624 16.9745 2.36735 16.7722 2.39166 16.5512C2.57465 14.9222 3.3514 13.4177 4.57351 12.3252C5.79562 11.2326 7.37741 10.6287 9.01667 10.6287C10.6559 10.6287 12.2377 11.2326 13.4598 12.3252C14.6819 13.4177 15.4587 14.9222 15.6417 16.5512C15.6643 16.7559 15.762 16.945 15.9159 17.082C16.0698 17.219 16.269 17.2941 16.475 17.2928H16.5667C16.7851 17.2677 16.9848 17.1572 17.1221 16.9855C17.2595 16.8138 17.3234 16.5948 17.3 16.3762C17.1329 14.873 16.5599 13.4437 15.6424 12.2413C14.7249 11.039 13.4974 10.1091 12.0917 9.55116ZM9 8.9595C8.34073 8.9595 7.69626 8.764 7.1481 8.39773C6.59993 8.03146 6.17269 7.51086 5.9204 6.90177C5.66811 6.29269 5.6021 5.62246 5.73071 4.97586C5.85933 4.32926 6.1768 3.73531 6.64297 3.26914C7.10915 2.80296 7.70309 2.4855 8.3497 2.35688C8.9963 2.22826 9.66652 2.29427 10.2756 2.54656C10.8847 2.79886 11.4053 3.2261 11.7716 3.77426C12.1378 4.32243 12.3333 4.96689 12.3333 5.62616C12.3333 6.51022 11.9821 7.35806 11.357 7.98319C10.7319 8.60831 9.88405 8.9595 9 8.9595Z" fill="#443E3E"/>
</svg>
