<svg width="50" height="50" viewBox="0 0 50 50" fill="none" xmlns="http://www.w3.org/2000/svg">
<circle cx="25" cy="25" r="25" fill="#F79A38"/>
<path d="M32.7971 28.491C33.453 27.8351 33.5467 26.8981 32.9845 25.9611C32.516 25.2115 31.6726 24.8367 30.7356 25.0241C30.3608 25.1178 29.986 25.3052 29.6112 25.5863C26.7065 27.554 22.771 27.4603 19.8663 25.4926C19.6789 25.3989 19.4915 25.3052 19.3041 25.2115C18.2734 24.743 17.2427 24.9304 16.6804 25.8674C16.0245 26.8044 16.1182 27.8351 16.9615 28.6785C17.1489 28.8659 17.3363 28.9596 17.43 29.147L17.5238 29.2407C18.8356 30.2714 20.4285 30.9273 22.4899 31.2084L21.2718 32.4265C20.2411 33.4572 19.1167 34.5816 18.086 35.6123C17.8049 35.8934 17.43 36.3619 17.43 37.0179C17.43 37.8612 17.8986 38.7045 18.7419 39.0793C19.023 39.2667 19.3041 39.2667 19.5852 39.2667C20.0537 39.2667 20.6159 39.0793 20.9907 38.6108C22.3962 37.2053 23.5206 36.0808 24.6451 34.9564C24.7388 34.8627 24.7387 34.8627 24.7387 34.8627C24.7387 34.8627 24.8325 34.8627 24.8325 34.9564C25.5821 35.7997 26.4254 36.5493 27.175 37.3927C27.5498 37.7675 27.9246 38.1423 28.2994 38.5171C28.7679 38.9856 29.1427 39.173 29.7049 39.173C30.5482 39.2667 31.4852 38.7045 31.86 37.8612C32.2348 37.1116 32.0474 36.1745 31.3915 35.6123C30.4545 34.6753 29.5175 33.6446 28.4868 32.7076L26.8939 31.1147C27.7372 31.021 28.6742 30.8336 29.5175 30.4588C30.923 29.9903 31.9537 29.3343 32.7971 28.491Z" fill="white"/>
<path d="M24.7387 25.8674C28.7679 25.8674 32.0474 22.6815 32.0474 18.6524C32.0474 16.6847 31.2978 14.8107 29.8923 13.4051C28.4868 11.9996 26.7065 11.25 24.8324 11.25C20.8033 11.25 17.6175 14.5295 17.5237 18.465C17.5237 20.4327 18.2734 22.213 19.6789 23.6186C20.9907 25.1178 22.771 25.8674 24.7387 25.8674ZM22.6773 16.4973C23.2395 15.9351 23.9891 15.654 24.7387 15.654C26.4254 15.654 27.6435 16.9658 27.6435 18.5587C27.6435 20.2453 26.3317 21.4634 24.7387 21.4634C23.0521 21.4634 21.834 20.1516 21.834 18.5587C21.834 17.8091 22.1151 17.0595 22.6773 16.4973Z" fill="white"/>
<path d="M32.7971 28.491C33.453 27.8351 33.5467 26.8981 32.9845 25.9611C32.516 25.2115 31.6726 24.8367 30.7356 25.0241C30.3608 25.1178 29.986 25.3052 29.6112 25.5863C26.7065 27.554 22.771 27.4603 19.8663 25.4926C19.6789 25.3989 19.4915 25.3052 19.3041 25.2115C18.2734 24.743 17.2427 24.9304 16.6804 25.8674C16.0245 26.8044 16.1182 27.8351 16.9615 28.6785C17.1489 28.8659 17.3363 28.9596 17.43 29.147L17.5238 29.2407C18.8356 30.2714 20.4285 30.9273 22.4899 31.2084L21.2718 32.4265C20.2411 33.4572 19.1167 34.5816 18.086 35.6123C17.8049 35.8934 17.43 36.3619 17.43 37.0179C17.43 37.8612 17.8986 38.7045 18.7419 39.0793C19.023 39.2667 19.3041 39.2667 19.5852 39.2667C20.0537 39.2667 20.6159 39.0793 20.9907 38.6108C22.3962 37.2053 23.5206 36.0808 24.6451 34.9564C24.7388 34.8627 24.7387 34.8627 24.7387 34.8627C24.7387 34.8627 24.8325 34.8627 24.8325 34.9564C25.5821 35.7997 26.4254 36.5493 27.175 37.3927C27.5498 37.7675 27.9246 38.1423 28.2994 38.5171C28.7679 38.9856 29.1427 39.173 29.7049 39.173C30.5482 39.2667 31.4852 38.7045 31.86 37.8612C32.2348 37.1116 32.0474 36.1745 31.3915 35.6123C30.4545 34.6753 29.5175 33.6446 28.4868 32.7076L26.8939 31.1147C27.7372 31.021 28.6742 30.8336 29.5175 30.4588C30.923 29.9903 31.9537 29.3343 32.7971 28.491Z" fill="white"/>
</svg>
