<svg width="190" height="183" viewBox="0 0 190 183" fill="none" xmlns="http://www.w3.org/2000/svg">
<path d="M0.171047 121.987H2.18968C22.8036 121.98 43.034 127.561 60.729 138.136C62.4174 133.082 64.6283 128.218 67.3257 123.623C47.5294 112.168 25.0614 106.138 2.18968 106.142H1.13422C0.397616 110.364 0.0180002 114.64 -0.000473879 118.926C-0.0015322 119.949 0.0557388 120.971 0.171047 121.987Z" fill="#FF8049"/>
<path d="M58.146 148.239C41.7011 137.779 22.6452 132.155 3.15576 132.011C11.5996 148.978 34.82 161.182 58.0273 172.185C56.6671 164.258 56.7073 156.153 58.146 148.239Z" fill="#FF8049"/>
<path d="M72.883 115.311C84.2689 100.349 100.695 89.3062 116.909 85.7572C135.629 81.8358 155.014 82.4328 173.457 87.4987C170.818 79.3056 167.546 71.3104 164.419 63.5658L164.313 63.2887C158.891 49.871 154.207 38.2212 154.207 29.1442C154.219 26.4414 154.828 23.7745 155.988 21.3336C136.515 20.7267 125.749 14.0773 117.081 8.72072C109.165 3.85234 102.964 -0.00012207 89.665 -0.00012207C76.366 -0.00012207 70.1651 3.83917 62.2886 8.70755C53.6073 14.0641 42.8151 20.7267 23.3548 21.3336C24.5071 23.7774 25.1148 26.4424 25.136 29.1442C25.136 38.274 20.439 49.8842 15.0165 63.3152C10.9134 73.4477 6.29568 84.8996 3.31396 96.1668C27.7782 96.3579 51.7651 102.958 72.883 115.311Z" fill="#FF8049"/>
<path d="M190 101.484H189.828L186.081 100.297C183.772 99.5579 181.187 98.7399 178.495 97.9351C166.469 94.0875 153.941 92.0337 141.316 91.8397C133.535 91.7473 125.783 92.7963 118.307 94.9533H118.162C113.467 96.3421 108.906 98.148 104.533 100.349L104.388 100.429C99.2909 103.229 94.5547 106.641 90.2838 110.588C89.5582 111.34 88.6874 112.144 87.9485 112.831C85.1285 115.643 82.5346 118.674 80.1908 121.894C79.0166 123.491 78.0007 124.995 77.0772 126.499C76.7078 127.066 76.3911 127.607 76.0877 128.135C75.3092 129.454 74.5704 130.774 73.9107 132.093V132.251L73.4754 133.096C73.04 134.046 72.5518 135.088 72.0768 136.17C72.0452 136.229 72.0188 136.291 71.9976 136.354L71.1797 138.307C69.7468 141.863 68.6557 145.547 67.9209 149.31C66.7412 155.398 66.5719 161.638 67.4196 167.781C91.6793 149.097 118.762 134.4 147.649 124.243L152.333 122.778L148.071 125.206C147.741 125.391 115.312 143.967 65.9814 182.426C80.8109 182.729 124.033 181.898 152.333 163.572C178.97 146.315 187.506 114.757 190 101.484Z" fill="#155F52"/>
</svg>
