<svg width="50" height="50" viewBox="0 0 50 50" fill="none" xmlns="http://www.w3.org/2000/svg">
<path d="M25 50C38.8071 50 50 38.8071 50 25C50 11.1929 38.8071 0 25 0C11.1929 0 0 11.1929 0 25C0 38.8071 11.1929 50 25 50Z" fill="url(#paint0_linear_523_806)"/>
<path fill-rule="evenodd" clip-rule="evenodd" d="M11.302 24.7294C18.5876 21.5654 23.4378 19.463 25.8732 18.443C32.805 15.5496 34.2621 15.05 35.1988 15.0292C35.407 15.0292 35.8649 15.0708 36.1771 15.3206C36.4269 15.5288 36.4894 15.7994 36.531 16.0075C36.5726 16.2157 36.6143 16.6528 36.5726 16.9859C36.198 20.9409 34.5743 30.5371 33.7417 34.9501C33.3878 36.8235 32.7009 37.448 32.0348 37.5104C30.5776 37.6353 29.4744 36.5529 28.0797 35.637C25.8732 34.2007 24.6451 33.3056 22.501 31.8901C20.0239 30.2665 21.6268 29.3714 23.0423 27.9143C23.4169 27.5396 29.8075 21.7111 29.9324 21.1907C29.9532 21.1283 29.9532 20.8785 29.8075 20.7536C29.6617 20.6287 29.4536 20.6703 29.2871 20.7119C29.0581 20.7536 25.561 23.085 18.7542 27.6853C17.755 28.3722 16.8599 28.7053 16.0481 28.6845C15.153 28.6636 13.4461 28.1849 12.1555 27.7686C10.5943 27.269 9.34534 26.9984 9.44942 26.1241C9.51187 25.6661 10.1364 25.2082 11.302 24.7294Z" fill="white"/>
<defs>
<linearGradient id="paint0_linear_523_806" x1="24.9792" y1="0" x2="24.9792" y2="49.6045" gradientUnits="userSpaceOnUse">
<stop stop-color="#2AABEE"/>
<stop offset="1" stop-color="#229ED9"/>
</linearGradient>
</defs>
</svg>
