<svg width="34" height="34" viewBox="0 0 34 34" fill="none" xmlns="http://www.w3.org/2000/svg">
<path d="M21.532 11.6507L14.382 18.8173L11.632 16.0673C11.4826 15.8928 11.2988 15.7511 11.092 15.6511C10.8852 15.5511 10.66 15.4949 10.4305 15.486C10.2009 15.4771 9.97204 15.5158 9.75817 15.5996C9.54429 15.6834 9.35005 15.8105 9.18762 15.9729C9.0252 16.1353 8.8981 16.3296 8.81431 16.5434C8.73052 16.7573 8.69184 16.9862 8.70071 17.2157C8.70957 17.4453 8.76579 17.6705 8.86583 17.8773C8.96587 18.084 9.10757 18.2679 9.28204 18.4173L13.1987 22.3507C13.3544 22.5051 13.5391 22.6273 13.7422 22.7103C13.9453 22.7932 14.1627 22.8353 14.382 22.834C14.8193 22.8321 15.2383 22.6586 15.5487 22.3507L23.882 14.0173C24.0383 13.8624 24.1622 13.678 24.2469 13.4749C24.3315 13.2718 24.375 13.054 24.375 12.834C24.375 12.614 24.3315 12.3961 24.2469 12.193C24.1622 11.9899 24.0383 11.8056 23.882 11.6507C23.5698 11.3402 23.1473 11.166 22.707 11.166C22.2667 11.166 21.8443 11.3402 21.532 11.6507ZM16.9987 0.333984C13.7024 0.333984 10.48 1.31147 7.7392 3.14282C4.99838 4.97418 2.86217 7.57716 1.60071 10.6226C0.339253 13.668 0.00919709 17.0191 0.652284 20.2522C1.29537 23.4852 2.88272 26.4549 5.21359 28.7858C7.54447 31.1166 10.5142 32.704 13.7472 33.3471C16.9802 33.9902 20.3313 33.6601 23.3768 32.3986C26.4222 31.1372 29.0252 29.001 30.8565 26.2602C32.6879 23.5193 33.6654 20.297 33.6654 17.0007C33.6654 14.812 33.2343 12.6447 32.3967 10.6226C31.5591 8.6005 30.3315 6.76318 28.7838 5.21554C27.2362 3.6679 25.3989 2.44024 23.3768 1.60266C21.3547 0.765081 19.1874 0.333984 16.9987 0.333984ZM16.9987 30.334C14.3616 30.334 11.7838 29.552 9.5911 28.0869C7.39845 26.6218 5.68948 24.5394 4.68031 22.1031C3.67114 19.6667 3.4071 16.9859 3.92157 14.3994C4.43604 11.813 5.70591 9.43726 7.57061 7.57256C9.43532 5.70786 11.8111 4.43798 14.3975 3.92351C16.9839 3.40904 19.6648 3.67309 22.1012 4.68226C24.5375 5.69143 26.6199 7.40039 28.085 9.59305C29.55 11.7857 30.332 14.3636 30.332 17.0007C30.332 20.5369 28.9273 23.9283 26.4268 26.4287C23.9263 28.9292 20.5349 30.334 16.9987 30.334Z" fill="#FF8049"/>
</svg>
