<?xml version="1.0"?>
<svg xmlns="http://www.w3.org/2000/svg" xmlns:xlink="http://www.w3.org/1999/xlink" version="1.1" xml:space="preserve">
	<defs>
		<symbol id="CircularProgress" width="100%" height="100%" viewBox="22 22 44 44">
			<circle class="CircularProgress-circle" cx="44" cy="44" r="20.2" fill="none" stroke-width="3.6">
			</circle>
		</symbol>
		<symbol id="star" width="100%" height="100%" viewBox="0 0 16 16">
		<path d="M15.4998 6.25253C15.4524 6.11535 15.3663 5.99485 15.2518 5.90566C15.1373 5.81647 14.9994 5.7624 14.8548 5.75003L10.5873 5.12753L8.6748 1.25003C8.61339 1.12323 8.5175 1.01629 8.39812 0.941463C8.27874 0.866636 8.14069 0.82695 7.9998 0.82695C7.85891 0.82695 7.72086 0.866636 7.60148 0.941463C7.4821 1.01629 7.38621 1.12323 7.3248 1.25003L5.4123 5.12003L1.1448 5.75003C1.00599 5.76976 0.875493 5.82801 0.768113 5.91815C0.660732 6.0083 0.58077 6.12674 0.5373 6.26003C0.497509 6.39029 0.493938 6.52892 0.526971 6.66105C0.560004 6.79318 0.628393 6.91383 0.7248 7.01003L3.8223 10.01L3.0723 14.27C3.04553 14.4106 3.05955 14.556 3.1127 14.6889C3.16586 14.8218 3.25594 14.9367 3.3723 15.02C3.48571 15.1011 3.61948 15.149 3.75859 15.1582C3.89769 15.1675 4.03663 15.1378 4.1598 15.0725L7.9998 13.07L11.8248 15.08C11.9301 15.1394 12.0489 15.1704 12.1698 15.17C12.3287 15.1706 12.4836 15.1207 12.6123 15.0275C12.7287 14.9442 12.8187 14.8293 12.8719 14.6964C12.9251 14.5635 12.9391 14.4181 12.9123 14.2775L12.1623 10.0175L15.2598 7.01753C15.3681 6.92579 15.4481 6.80521 15.4906 6.6698C15.5331 6.53438 15.5363 6.38969 15.4998 6.25253Z" />
		</symbol>
	</defs>
</svg>
