<svg width="50" height="50" viewBox="0 0 50 50" fill="none" xmlns="http://www.w3.org/2000/svg">
<circle cx="25" cy="25" r="25" fill="url(#paint0_linear_523_809)"/>
<path fill-rule="evenodd" clip-rule="evenodd" d="M36.2067 13.6505C33.213 10.6532 29.2317 9.00183 24.9899 9C16.2498 9 9.13639 16.113 9.13288 24.8558C9.13182 27.6505 9.86183 30.3783 11.2496 32.7832L9 41L17.406 38.795C19.722 40.0582 22.3297 40.7242 24.9835 40.7251H24.9901C33.7292 40.7251 40.8433 33.6112 40.847 24.8682C40.8485 20.6315 39.2005 16.6476 36.2067 13.6505ZM24.9901 38.0471H24.9847C22.6198 38.0462 20.3003 37.4108 18.2768 36.2099L17.7955 35.9245L12.8072 37.2329L14.1387 32.3695L13.8253 31.8706C12.5061 29.7724 11.8092 27.347 11.8102 24.8566C11.8131 17.59 17.7254 11.6781 24.9954 11.6781C28.5155 11.6793 31.8248 13.0519 34.3131 15.5433C36.8014 18.0345 38.1708 21.3458 38.1695 24.8674C38.1666 32.1347 32.2543 38.0471 24.9901 38.0471ZM32.2193 28.1761C31.8231 27.9779 29.8753 27.0193 29.5121 26.8871C29.149 26.7551 28.8847 26.6889 28.6206 27.0856C28.3566 27.4822 27.5971 28.3746 27.366 28.6391C27.1348 28.9033 26.9037 28.9366 26.5076 28.7381C26.1113 28.5399 24.8348 28.1215 23.3213 26.7716C22.1435 25.721 21.3484 24.4236 21.1172 24.0268C20.8861 23.6301 21.0925 23.4158 21.291 23.2182C21.4692 23.0406 21.6872 22.7553 21.8854 22.524C22.0836 22.2928 22.1495 22.1274 22.2816 21.863C22.4137 21.5986 22.3477 21.3671 22.2485 21.169C22.1495 20.9705 21.3571 19.0203 21.0269 18.2269C20.7053 17.4545 20.3787 17.559 20.1355 17.5468C19.9047 17.5353 19.6403 17.5328 19.376 17.5328C19.1119 17.5328 18.6828 17.6319 18.3195 18.0286C17.9564 18.4253 16.9329 19.3838 16.9329 21.334C16.9329 23.2843 18.3525 25.1681 18.5507 25.4327C18.7487 25.6971 21.3446 29.699 25.319 31.4153C26.2641 31.8236 27.0022 32.0672 27.5777 32.25C28.527 32.5516 29.3906 32.5089 30.0732 32.407C30.8345 32.2932 32.4174 31.4484 32.7475 30.523C33.0776 29.5974 33.0776 28.804 32.9786 28.6388C32.8796 28.4737 32.6155 28.3746 32.2193 28.1761Z" fill="white"/>
<defs>
<linearGradient id="paint0_linear_523_809" x1="25" y1="0" x2="25" y2="50" gradientUnits="userSpaceOnUse">
<stop stop-color="#61FD7D"/>
<stop offset="1" stop-color="#25CF43"/>
</linearGradient>
</defs>
</svg>
