<svg width="21" height="20" viewBox="0 0 21 20" fill="none" xmlns="http://www.w3.org/2000/svg">
<path d="M18.6954 9.16602H2.97122C2.73954 9.16602 2.51734 9.25381 2.35352 9.41009C2.18969 9.56637 2.09766 9.77834 2.09766 9.99935C2.09766 10.2204 2.18969 10.4323 2.35352 10.5886C2.51734 10.7449 2.73954 10.8327 2.97122 10.8327H18.6954C18.927 10.8327 19.1492 10.7449 19.3131 10.5886C19.4769 10.4323 19.5689 10.2204 19.5689 9.99935C19.5689 9.77834 19.4769 9.56637 19.3131 9.41009C19.1492 9.25381 18.927 9.16602 18.6954 9.16602Z" fill="#443E3E"/>
<path d="M18.6954 13.334H2.97122C2.73954 13.334 2.51734 13.4218 2.35352 13.5781C2.18969 13.7343 2.09766 13.9463 2.09766 14.1673C2.09766 14.3883 2.18969 14.6003 2.35352 14.7566C2.51734 14.9129 2.73954 15.0006 2.97122 15.0006H18.6954C18.927 15.0006 19.1492 14.9129 19.3131 14.7566C19.4769 14.6003 19.5689 14.3883 19.5689 14.1673C19.5689 13.9463 19.4769 13.7343 19.3131 13.5781C19.1492 13.4218 18.927 13.334 18.6954 13.334Z" fill="#443E3E"/>
<path d="M2.97122 6.66667H18.6954C18.927 6.66667 19.1492 6.57887 19.3131 6.42259C19.4769 6.26631 19.5689 6.05435 19.5689 5.83333C19.5689 5.61232 19.4769 5.40036 19.3131 5.24408C19.1492 5.0878 18.927 5 18.6954 5H2.97122C2.73954 5 2.51734 5.0878 2.35352 5.24408C2.18969 5.40036 2.09766 5.61232 2.09766 5.83333C2.09766 6.05435 2.18969 6.26631 2.35352 6.42259C2.51734 6.57887 2.73954 6.66667 2.97122 6.66667Z" fill="#443E3E"/>
</svg>
