<svg width="22" height="22" viewBox="0 0 22 22" fill="none" xmlns="http://www.w3.org/2000/svg">
<path d="M9.64421 5.08C10.0175 5.02624 10.3947 4.99949 10.7724 5C14.1571 5 17.3395 7.29 19.1915 11C18.9083 11.5646 18.5883 12.1123 18.2336 12.64C18.1209 12.8038 18.0617 12.995 18.0633 13.19C18.0656 13.4082 18.1439 13.6198 18.2862 13.7923C18.4285 13.9648 18.6269 14.0889 18.8513 14.1455C19.0756 14.2022 19.3135 14.1883 19.5287 14.1061C19.7438 14.0238 19.9245 13.8777 20.043 13.69C20.5389 12.9579 20.9696 12.1887 21.3308 11.39C21.3879 11.2652 21.4174 11.1308 21.4174 10.995C21.4174 10.8592 21.3879 10.7248 21.3308 10.6C19.1808 5.91 15.1363 3 10.7724 3C10.2729 2.99764 9.77415 3.0378 9.28233 3.12C9.14256 3.14233 9.00883 3.1903 8.88879 3.26118C8.76875 3.33206 8.66475 3.42446 8.58271 3.5331C8.50068 3.64175 8.44223 3.76451 8.41069 3.89438C8.37916 4.02425 8.37515 4.15868 8.39892 4.29C8.42268 4.42132 8.47374 4.54696 8.54918 4.65975C8.62462 4.77253 8.72297 4.87024 8.8386 4.94732C8.95424 5.02439 9.0849 5.07931 9.22313 5.10894C9.36135 5.13857 9.50444 5.14233 9.64421 5.12V5.08ZM1.94892 1.29C1.84968 1.19676 1.73186 1.1228 1.6022 1.07234C1.47254 1.02188 1.33357 0.995911 1.19322 0.995911C1.05288 0.995911 0.913907 1.02188 0.784245 1.07234C0.654583 1.1228 0.536769 1.19676 0.43753 1.29C0.237108 1.47831 0.124512 1.7337 0.124512 2C0.124512 2.2663 0.237108 2.5217 0.43753 2.71L3.73703 5.8C2.23158 7.16153 1.03342 8.79399 0.214015 10.6C0.155408 10.7262 0.125158 10.8623 0.125158 11C0.125158 11.1377 0.155408 11.2738 0.214015 11.4C2.36401 16.09 6.40857 19 10.7724 19C12.6852 18.9876 14.5528 18.4525 16.1474 17.46L19.5959 20.71C19.6949 20.8037 19.8126 20.8781 19.9423 20.9289C20.072 20.9797 20.2111 21.0058 20.3516 21.0058C20.4921 21.0058 20.6313 20.9797 20.761 20.9289C20.8907 20.8781 21.0084 20.8037 21.1073 20.71C21.2071 20.617 21.2863 20.5064 21.3403 20.3846C21.3943 20.2627 21.4222 20.132 21.4222 20C21.4222 19.868 21.3943 19.7373 21.3403 19.6154C21.2863 19.4936 21.2071 19.383 21.1073 19.29L1.94892 1.29ZM8.71822 10.48L11.3259 12.93C11.146 12.9785 10.9596 13.002 10.7724 13C10.2079 13 9.66641 12.7893 9.2672 12.4142C8.86799 12.0391 8.64372 11.5304 8.64372 11C8.64154 10.8242 8.66664 10.649 8.71822 10.48ZM10.7724 17C7.38778 17 4.20535 14.71 2.36401 11C3.05168 9.57375 4.02768 8.28658 5.23778 7.21L7.12169 9C6.67918 9.7588 6.51047 10.6319 6.64087 11.4885C6.77128 12.345 7.19376 13.1387 7.84495 13.7505C8.49613 14.3623 9.3409 14.7592 10.2525 14.8817C11.1642 15.0043 12.0935 14.8458 12.9011 14.43L14.5935 16C13.4345 16.6409 12.1172 16.9856 10.7724 17Z" fill="#CCCCCC"/>
</svg>
