<svg width="10" height="14" viewBox="0 0 10 14" fill="none" xmlns="http://www.w3.org/2000/svg">
<path d="M4.99988 -0.000152588C6.19335 -0.000152588 7.33794 0.473953 8.18186 1.31787C9.02577 2.16178 9.49988 3.30637 9.49988 4.49985C9.49988 6.72735 7.87988 8.57985 5.74988 8.93985V10.4998H7.24988V11.9998H5.74988V13.4998H4.24988V11.9998H2.74988V10.4998H4.24988V8.93985C2.11988 8.57985 0.499878 6.72735 0.499878 4.49985C0.499878 3.30637 0.973984 2.16178 1.8179 1.31787C2.66181 0.473953 3.8064 -0.000152588 4.99988 -0.000152588ZM4.99988 1.49985C4.20423 1.49985 3.44117 1.81592 2.87856 2.37853C2.31595 2.94114 1.99988 3.7042 1.99988 4.49985C1.99988 5.2955 2.31595 6.05856 2.87856 6.62117C3.44117 7.18378 4.20423 7.49985 4.99988 7.49985C5.79553 7.49985 6.55859 7.18378 7.1212 6.62117C7.68381 6.05856 7.99988 5.2955 7.99988 4.49985C7.99988 3.7042 7.68381 2.94114 7.1212 2.37853C6.55859 1.81592 5.79553 1.49985 4.99988 1.49985Z" fill="white"/>
</svg>
