<svg width="21" height="18" viewBox="0 0 21 18" fill="none" xmlns="http://www.w3.org/2000/svg">
<path d="M19.1598 1.99998C18.0998 0.93719 16.6946 0.288522 15.1981 0.171152C13.7017 0.0537822 12.2126 0.475448 10.9998 1.35998C9.72744 0.41362 8.14378 -0.0155064 6.56771 0.15902C4.99164 0.333546 3.54023 1.09876 2.50576 2.30057C1.47129 3.50237 0.93061 5.0515 0.992588 6.636C1.05457 8.22049 1.71461 9.72265 2.83979 10.84L9.04979 17.06C9.56981 17.5718 10.2702 17.8586 10.9998 17.8586C11.7294 17.8586 12.4298 17.5718 12.9498 17.06L19.1598 10.84C20.3274 9.66525 20.9827 8.07626 20.9827 6.41998C20.9827 4.76371 20.3274 3.17472 19.1598 1.99998ZM17.7498 9.45998L11.5398 15.67C11.4691 15.7413 11.385 15.798 11.2923 15.8366C11.1996 15.8753 11.1002 15.8952 10.9998 15.8952C10.8994 15.8952 10.7999 15.8753 10.7072 15.8366C10.6146 15.798 10.5305 15.7413 10.4598 15.67L4.24979 9.42998C3.46555 8.62833 3.0264 7.55145 3.0264 6.42998C3.0264 5.30852 3.46555 4.23164 4.24979 3.42998C5.04894 2.64097 6.12676 2.19855 7.24979 2.19855C8.37281 2.19855 9.45063 2.64097 10.2498 3.42998C10.3428 3.52371 10.4534 3.59811 10.5752 3.64887C10.6971 3.69964 10.8278 3.72578 10.9598 3.72578C11.0918 3.72578 11.2225 3.69964 11.3444 3.64887C11.4662 3.59811 11.5768 3.52371 11.6698 3.42998C12.4689 2.64097 13.5468 2.19855 14.6698 2.19855C15.7928 2.19855 16.8706 2.64097 17.6698 3.42998C18.4648 4.22113 18.9184 5.29217 18.9333 6.41367C18.9483 7.53516 18.5234 8.61792 17.7498 9.42998V9.45998Z" fill="#443E3E"/>
</svg>
