<svg width="14" height="14" viewBox="0 0 14 14" fill="none" xmlns="http://www.w3.org/2000/svg">
<path d="M4.75 4.74995C5.7175 4.74995 6.625 5.05745 7.3525 5.58245L11.185 1.74995H7.75V0.249954H13.75V6.24995H12.25V2.80745L8.4175 6.62495C8.9425 7.37495 9.25 8.27495 9.25 9.24995C9.25 10.4434 8.77589 11.588 7.93198 12.4319C7.08807 13.2758 5.94347 13.75 4.75 13.75C3.55653 13.75 2.41193 13.2758 1.56802 12.4319C0.724106 11.588 0.25 10.4434 0.25 9.24995C0.25 8.05648 0.724106 6.91189 1.56802 6.06797C2.41193 5.22406 3.55653 4.74995 4.75 4.74995ZM4.75 6.24995C3.95435 6.24995 3.19129 6.56602 2.62868 7.12863C2.06607 7.69124 1.75 8.4543 1.75 9.24995C1.75 10.0456 2.06607 10.8087 2.62868 11.3713C3.19129 11.9339 3.95435 12.25 4.75 12.25C5.54565 12.25 6.30871 11.9339 6.87132 11.3713C7.43393 10.8087 7.75 10.0456 7.75 9.24995C7.75 8.4543 7.43393 7.69124 6.87132 7.12863C6.30871 6.56602 5.54565 6.24995 4.75 6.24995Z" fill="#23685C"/>
</svg>
