<svg width="18" height="18" viewBox="0 0 18 18" fill="none" xmlns="http://www.w3.org/2000/svg">
<path d="M15.6679 5.8165V1.49984C15.6679 1.27882 15.5801 1.06686 15.4238 0.910582C15.2675 0.754301 15.0556 0.666504 14.8346 0.666504C14.6136 0.666504 14.4016 0.754301 14.2453 0.910582C14.089 1.06686 14.0012 1.27882 14.0012 1.49984V5.8165C13.5186 5.99167 13.1016 6.31119 12.8069 6.73164C12.5122 7.15209 12.3542 7.65307 12.3542 8.1665C12.3542 8.67994 12.5122 9.18092 12.8069 9.60137C13.1016 10.0218 13.5186 10.3413 14.0012 10.5165V16.4998C14.0012 16.7209 14.089 16.9328 14.2453 17.0891C14.4016 17.2454 14.6136 17.3332 14.8346 17.3332C15.0556 17.3332 15.2675 17.2454 15.4238 17.0891C15.5801 16.9328 15.6679 16.7209 15.6679 16.4998V10.5165C16.1505 10.3413 16.5675 10.0218 16.8622 9.60137C17.1569 9.18092 17.315 8.67994 17.315 8.1665C17.315 7.65307 17.1569 7.15209 16.8622 6.73164C16.5675 6.31119 16.1505 5.99167 15.6679 5.8165ZM14.8346 8.99984C14.6697 8.99984 14.5086 8.95096 14.3716 8.8594C14.2345 8.76783 14.1277 8.63768 14.0647 8.48541C14.0016 8.33314 13.9851 8.16558 14.0172 8.00393C14.0494 7.84228 14.1288 7.69379 14.2453 7.57725C14.3619 7.4607 14.5103 7.38134 14.672 7.34918C14.8336 7.31703 15.0012 7.33353 15.1535 7.3966C15.3057 7.45968 15.4359 7.56649 15.5275 7.70353C15.619 7.84057 15.6679 8.00169 15.6679 8.1665C15.6679 8.38752 15.5801 8.59948 15.4238 8.75576C15.2675 8.91204 15.0556 8.99984 14.8346 8.99984ZM9.83456 10.8165V1.49984C9.83456 1.27882 9.74677 1.06686 9.59049 0.910582C9.43421 0.754301 9.22224 0.666504 9.00123 0.666504C8.78022 0.666504 8.56826 0.754301 8.41198 0.910582C8.2557 1.06686 8.1679 1.27882 8.1679 1.49984V10.8165C7.68527 10.9917 7.26828 11.3112 6.9736 11.7316C6.67892 12.1521 6.52083 12.6531 6.52083 13.1665C6.52083 13.6799 6.67892 14.1809 6.9736 14.6014C7.26828 15.0218 7.68527 15.3413 8.1679 15.5165V16.4998C8.1679 16.7209 8.2557 16.9328 8.41198 17.0891C8.56826 17.2454 8.78022 17.3332 9.00123 17.3332C9.22224 17.3332 9.43421 17.2454 9.59049 17.0891C9.74677 16.9328 9.83456 16.7209 9.83456 16.4998V15.5165C10.3172 15.3413 10.7342 15.0218 11.0289 14.6014C11.3235 14.1809 11.4816 13.6799 11.4816 13.1665C11.4816 12.6531 11.3235 12.1521 11.0289 11.7316C10.7342 11.3112 10.3172 10.9917 9.83456 10.8165ZM9.00123 13.9998C8.83641 13.9998 8.6753 13.951 8.53826 13.8594C8.40121 13.7678 8.2944 13.6377 8.23133 13.4854C8.16826 13.3331 8.15176 13.1656 8.18391 13.0039C8.21606 12.8423 8.29543 12.6938 8.41198 12.5772C8.52852 12.4607 8.677 12.3813 8.83866 12.3492C9.00031 12.317 9.16786 12.3335 9.32013 12.3966C9.47241 12.4597 9.60255 12.5665 9.69412 12.7035C9.78569 12.8406 9.83456 13.0017 9.83456 13.1665C9.83456 13.3875 9.74677 13.5995 9.59049 13.7558C9.43421 13.912 9.22224 13.9998 9.00123 13.9998ZM4.00123 4.14984V1.49984C4.00123 1.27882 3.91343 1.06686 3.75715 0.910582C3.60087 0.754301 3.38891 0.666504 3.1679 0.666504C2.94688 0.666504 2.73492 0.754301 2.57864 0.910582C2.42236 1.06686 2.33456 1.27882 2.33456 1.49984V4.14984C1.85194 4.32501 1.43495 4.64453 1.14027 5.06498C0.845583 5.48542 0.6875 5.9864 0.6875 6.49984C0.6875 7.01327 0.845583 7.51425 1.14027 7.9347C1.43495 8.35515 1.85194 8.67467 2.33456 8.84984V16.4998C2.33456 16.7209 2.42236 16.9328 2.57864 17.0891C2.73492 17.2454 2.94688 17.3332 3.1679 17.3332C3.38891 17.3332 3.60087 17.2454 3.75715 17.0891C3.91343 16.9328 4.00123 16.7209 4.00123 16.4998V8.84984C4.48386 8.67467 4.90085 8.35515 5.19553 7.9347C5.49021 7.51425 5.64829 7.01327 5.64829 6.49984C5.64829 5.9864 5.49021 5.48542 5.19553 5.06498C4.90085 4.64453 4.48386 4.32501 4.00123 4.14984ZM3.1679 7.33317C3.00308 7.33317 2.84196 7.2843 2.70492 7.19273C2.56788 7.10116 2.46107 6.97101 2.398 6.81874C2.33492 6.66647 2.31842 6.49891 2.35058 6.33726C2.38273 6.17561 2.4621 6.02713 2.57864 5.91058C2.69519 5.79404 2.84367 5.71467 3.00532 5.68252C3.16697 5.65036 3.33453 5.66686 3.4868 5.72994C3.63907 5.79301 3.76922 5.89982 3.86079 6.03686C3.95236 6.1739 4.00123 6.33502 4.00123 6.49984C4.00123 6.72085 3.91343 6.93281 3.75715 7.08909C3.60087 7.24537 3.38891 7.33317 3.1679 7.33317Z" fill="#443E3E"/>
</svg>
