<svg width="26" height="20" viewBox="0 0 26 20" fill="none" xmlns="http://www.w3.org/2000/svg">
<path d="M21.0249 5.27499C20.2612 3.52 18.943 2.06384 17.2725 1.12965C15.602 0.195462 13.6712 -0.165219 11.7761 0.102877C9.88102 0.370974 8.12608 1.25306 6.78024 2.61396C5.4344 3.97486 4.57191 5.73951 4.32492 7.63749C3.13316 7.92289 2.0877 8.63603 1.3871 9.64148C0.686491 10.6469 0.379529 11.8747 0.524503 13.0915C0.669478 14.3084 1.25629 15.4296 2.17351 16.2423C3.09072 17.055 4.27446 17.5026 5.49992 17.5C5.83145 17.5 6.14939 17.3683 6.38381 17.1339C6.61823 16.8995 6.74992 16.5815 6.74992 16.25C6.74992 15.9185 6.61823 15.6005 6.38381 15.3661C6.14939 15.1317 5.83145 15 5.49992 15C4.83688 15 4.201 14.7366 3.73216 14.2678C3.26332 13.7989 2.99992 13.163 2.99992 12.5C2.99992 11.8369 3.26332 11.2011 3.73216 10.7322C4.201 10.2634 4.83688 9.99999 5.49992 9.99999C5.83145 9.99999 6.14939 9.86829 6.38381 9.63387C6.61823 9.39945 6.74992 9.08151 6.74992 8.74999C6.75312 7.27159 7.28028 5.84218 8.23776 4.71572C9.19524 3.58926 10.521 2.83868 11.9796 2.59733C13.4382 2.35599 14.9351 2.6395 16.2044 3.3975C17.4737 4.1555 18.4332 5.33892 18.9124 6.73749C18.9839 6.95229 19.1123 7.14366 19.284 7.29116C19.4558 7.43866 19.6643 7.53676 19.8874 7.57499C20.72 7.73233 21.4748 8.167 22.0287 8.80816C22.5827 9.44932 22.9031 10.2592 22.9379 11.1058C22.9727 11.9524 22.7198 12.7858 22.2203 13.4703C21.7208 14.1547 21.0043 14.6499 20.1874 14.875C19.8659 14.9579 19.5904 15.1651 19.4216 15.4511C19.2528 15.7371 19.2045 16.0784 19.2874 16.4C19.3703 16.7216 19.5775 16.997 19.8635 17.1658C20.1495 17.3346 20.4909 17.3829 20.8124 17.3C22.1279 16.9524 23.294 16.185 24.1337 15.1143C24.9733 14.0437 25.4407 12.7283 25.4647 11.3678C25.4888 10.0074 25.0682 8.67629 24.2669 7.57664C23.4656 6.47699 22.3273 5.66886 21.0249 5.27499ZM13.8874 7.86249C13.7685 7.74869 13.6284 7.65948 13.4749 7.59999C13.1706 7.47497 12.8293 7.47497 12.5249 7.59999C12.3715 7.65948 12.2313 7.74869 12.1124 7.86249L8.36242 11.6125C8.12705 11.8479 7.99481 12.1671 7.99481 12.5C7.99481 12.8329 8.12705 13.1521 8.36242 13.3875C8.5978 13.6229 8.91705 13.7551 9.24992 13.7551C9.5828 13.7551 9.90205 13.6229 10.1374 13.3875L11.7499 11.7625V18.75C11.7499 19.0815 11.8816 19.3995 12.116 19.6339C12.3505 19.8683 12.6684 20 12.9999 20C13.3314 20 13.6494 19.8683 13.8838 19.6339C14.1182 19.3995 14.2499 19.0815 14.2499 18.75V11.7625L15.8624 13.3875C15.9786 13.5047 16.1169 13.5976 16.2692 13.6611C16.4215 13.7246 16.5849 13.7572 16.7499 13.7572C16.9149 13.7572 17.0783 13.7246 17.2306 13.6611C17.383 13.5976 17.5212 13.5047 17.6374 13.3875C17.7546 13.2713 17.8476 13.133 17.911 12.9807C17.9745 12.8284 18.0072 12.665 18.0072 12.5C18.0072 12.335 17.9745 12.1716 17.911 12.0193C17.8476 11.8669 17.7546 11.7287 17.6374 11.6125L13.8874 7.86249Z" fill="#999999"/>
</svg>
