<?xml version="1.0" standalone="no"?>
<!DOCTYPE svg PUBLIC "-//W3C//DTD SVG 20010904//EN"
 "http://www.w3.org/TR/2001/REC-SVG-20010904/DTD/svg10.dtd">
<svg version="1.0" xmlns="http://www.w3.org/2000/svg"
 width="260.000000pt" height="260.000000pt" viewBox="0 0 260.000000 260.000000"
 preserveAspectRatio="xMidYMid meet">
<metadata>
Created by potrace 1.14, written by Peter Selinger 2001-2017
</metadata>
<g transform="translate(0.000000,260.000000) scale(0.100000,-0.100000)"
fill="#000000" stroke="none">
<path d="M1433 1818 c-1 -13 5 -33 13 -45 15 -25 19 -208 4 -232 -4 -7 -18
-11 -31 -9 -22 3 -24 8 -25 73 -1 39 -2 75 -3 82 -1 8 -65 11 -238 10 l-236
-2 -145 -218 c-115 -173 -143 -221 -131 -228 8 -5 17 -9 22 -9 4 0 7 -46 7
-103 l0 -102 -59 -16 -58 -15 -1 31 c0 18 -9 35 -21 43 -11 8 -30 22 -42 33
-29 25 -64 24 -91 -3 -12 -12 -35 -23 -51 -24 -28 -2 -67 -29 -67 -45 0 -4 -5
-20 -12 -36 -13 -32 -13 -28 -5 -70 4 -20 2 -33 -4 -33 -14 0 -241 -111 -236
-116 2 -2 35 7 73 20 89 31 288 81 384 96 41 6 85 13 96 15 12 2 48 6 80 10
33 4 69 8 80 10 95 14 250 20 559 20 318 0 429 -4 540 -20 17 -2 54 -7 83 -10
63 -6 108 -13 187 -27 33 -5 74 -12 90 -15 67 -10 235 -53 315 -82 48 -16 76
-23 65 -14 -25 19 -225 115 -287 138 -46 17 -48 19 -49 59 0 22 -1 60 -3 84
-2 40 0 42 25 42 97 0 169 92 136 173 -8 18 -22 41 -31 50 -10 9 -20 33 -22
53 -6 49 -19 71 -54 89 -36 19 -77 19 -110 0 -14 -8 -41 -15 -60 -15 -19 0
-41 -4 -49 -9 -17 -11 -10 -24 75 -146 34 -50 64 -97 66 -105 2 -12 -11 -15
-67 -15 -69 -1 -69 -1 -71 -29 -2 -39 27 -66 70 -66 l35 0 0 -55 c0 -30 -4
-57 -8 -59 -6 -4 -150 33 -161 41 -2 2 -4 53 -5 113 l0 110 25 1 c51 2 60 4
59 14 0 10 -53 96 -197 320 l-77 120 -132 1 c-72 1 -136 5 -142 9 -7 4 -9 15
-6 25 3 10 7 39 9 64 l4 46 -57 0 c-52 0 -57 -2 -58 -22z m-366 -364 l102
-149 0 -107 1 -108 -47 -1 c-27 -1 -59 -2 -73 -4 -54 -4 -186 -17 -210 -20
-14 -2 -43 -6 -66 -10 l-41 -6 1 125 1 124 105 156 c58 86 109 155 115 153 5
-2 55 -71 112 -153z m703 30 c0 -3 -31 -45 -70 -93 l-70 -89 0 -111 0 -112
-47 5 c-27 2 -63 5 -81 5 l-33 1 2 106 c2 98 4 109 28 138 14 17 28 33 31 36
3 3 25 30 49 60 23 30 49 57 56 60 16 6 135 0 135 -6z m80 -254 c0 -64 -2 -66
-70 -66 l-45 1 -2 61 -2 61 59 1 60 0 0 -58z"/>
<path d="M879 1291 c-1 -3 -2 -34 -3 -68 l-2 -63 73 0 72 0 -2 68 -2 67 -67 1
c-38 0 -68 -2 -69 -5z"/>
</g>
</svg>
