<svg width="32" height="32" viewBox="0 0 32 32" fill="none" xmlns="http://www.w3.org/2000/svg">
<path d="M2.8751 22.5628C3.24596 22.5628 3.60849 22.4529 3.91685 22.2468C4.2252 22.0408 4.46554 21.748 4.60746 21.4054C4.74938 21.0628 4.78652 20.6858 4.71416 20.3221C4.64181 19.9584 4.46323 19.6243 4.20099 19.3621C3.93875 19.0998 3.60464 18.9213 3.24091 18.8489C2.87718 18.7766 2.50016 18.8137 2.15753 18.9556C1.8149 19.0975 1.52205 19.3379 1.31601 19.6462C1.10997 19.9545 1 20.317 1 20.6879C1.00057 21.185 1.19831 21.6615 1.54984 22.013C1.90136 22.3645 2.37797 22.5623 2.8751 22.5628ZM2.8751 19.7504C3.06053 19.7504 3.24179 19.8054 3.39597 19.9084C3.55015 20.0114 3.67032 20.1578 3.74128 20.3291C3.81224 20.5004 3.83081 20.6889 3.79463 20.8708C3.75846 21.0526 3.66916 21.2197 3.53804 21.3508C3.40693 21.4819 3.23987 21.5712 3.058 21.6073C2.87614 21.6435 2.68763 21.6249 2.51631 21.554C2.345 21.483 2.19857 21.3629 2.09555 21.2087C1.99253 21.0545 1.93755 20.8733 1.93755 20.6879C1.93783 20.4393 2.03669 20.201 2.21246 20.0253C2.38822 19.8495 2.62653 19.7507 2.8751 19.7504Z" fill="#23685C"/>
<path d="M18.0083 11.9642L17.2726 10.6193C17.2323 10.5455 17.1728 10.484 17.1004 10.4411C17.0281 10.3982 16.9455 10.3755 16.8614 10.3755C16.7773 10.3755 16.6947 10.3982 16.6223 10.4411C16.55 10.484 16.4905 10.5455 16.4501 10.6193L15.7145 11.9642L14.3695 12.6998C14.2957 12.7401 14.2342 12.7996 14.1913 12.872C14.1484 12.9443 14.1257 13.0269 14.1257 13.111C14.1257 13.1951 14.1484 13.2777 14.1913 13.35C14.2342 13.4224 14.2957 13.4819 14.3695 13.5222L15.7145 14.2578L16.4501 15.6027C16.4905 15.6765 16.55 15.7381 16.6223 15.781C16.6947 15.8238 16.7773 15.8465 16.8614 15.8465C16.9455 15.8465 17.0281 15.8238 17.1004 15.781C17.1728 15.7381 17.2323 15.6765 17.2726 15.6027L18.0083 14.2578L19.3532 13.5222C19.427 13.4819 19.4886 13.4224 19.5315 13.35C19.5744 13.2777 19.597 13.1951 19.597 13.111C19.597 13.0269 19.5744 12.9443 19.5315 12.872C19.4886 12.7996 19.427 12.7401 19.3532 12.6998L18.0083 11.9642ZM17.438 13.5012C17.3593 13.5442 17.2946 13.6088 17.2516 13.6875L16.8614 14.4008L16.4712 13.6874C16.4282 13.6088 16.3635 13.5441 16.2849 13.5011L15.5714 13.1109L16.2849 12.7208C16.3635 12.6777 16.4282 12.6131 16.4712 12.5344L16.8614 11.821L17.2516 12.5344C17.2946 12.6131 17.3593 12.6777 17.438 12.7208L18.1514 13.1109L17.438 13.5012Z" fill="#23685C"/>
<path d="M11.5569 23.5204L12.9018 24.2559L13.6374 25.6008C13.6778 25.6746 13.7373 25.7362 13.8097 25.7791C13.882 25.822 13.9646 25.8446 14.0487 25.8446C14.1328 25.8446 14.2154 25.822 14.2878 25.7791C14.3601 25.7362 14.4196 25.6746 14.46 25.6008L15.1956 24.2559L16.5406 23.5204C16.6144 23.48 16.6759 23.4205 16.7188 23.3482C16.7617 23.2758 16.7844 23.1932 16.7844 23.1091C16.7844 23.025 16.7617 22.9424 16.7188 22.8701C16.6759 22.7977 16.6144 22.7383 16.5406 22.6979L15.1956 21.9623L14.46 20.6174C14.4196 20.5436 14.3601 20.4821 14.2878 20.4392C14.2154 20.3963 14.1328 20.3737 14.0487 20.3737C13.9646 20.3737 13.882 20.3963 13.8097 20.4392C13.7373 20.4821 13.6778 20.5436 13.6374 20.6174L12.9018 21.9623L11.5569 22.6979C11.4831 22.7383 11.4215 22.7977 11.3786 22.8701C11.3357 22.9424 11.3131 23.025 11.3131 23.1091C11.3131 23.1932 11.3357 23.2758 11.3786 23.3482C11.4215 23.4205 11.4831 23.48 11.5569 23.5204ZM13.4722 22.7189C13.5509 22.6759 13.6155 22.6112 13.6585 22.5326L14.0487 21.8192L14.4389 22.5326C14.4819 22.6112 14.5466 22.6759 14.6253 22.7189L15.3387 23.1091L14.6253 23.4993C14.5466 23.5423 14.4819 23.6069 14.4389 23.6856L14.0487 24.399L13.6585 23.6856C13.6155 23.6069 13.5509 23.5423 13.4722 23.4993L12.7587 23.1091L13.4722 22.7189Z" fill="#23685C"/>
<path d="M23.97 2.8757H24.9075V3.81318H23.97V2.8757Z" fill="#23685C"/>
<path d="M12.7194 5.21939H13.6569V6.15687H12.7194V5.21939Z" fill="#23685C"/>
<path d="M23.7824 9.48349H24.4405V10.421H23.7824V9.48349Z" fill="#23685C"/>
<path d="M3.3446 13.6565C3.50218 13.6565 3.65938 13.6408 3.81384 13.6096C3.81357 13.6252 3.81341 13.6409 3.81337 13.6565C3.81329 14.2017 4.00335 14.7299 4.35083 15.1501C4.69831 15.5703 5.18144 15.8562 5.71703 15.9585C6.25261 16.0608 6.80712 15.9732 7.28504 15.7107C7.76297 15.4482 8.13439 15.0273 8.33534 14.5204L9.53652 16.4689H8.03234C7.90801 16.4689 7.78878 16.5183 7.70087 16.6062C7.61295 16.6941 7.56357 16.8133 7.56357 16.9377V22.2684C7.56357 23.501 10.2188 29.5264 10.7512 30.7218C10.7881 30.8045 10.8481 30.8749 10.9241 30.9242C11.0001 30.9736 11.0887 30.9999 11.1793 30.9999H15.3121C15.4038 30.9999 15.4935 30.973 15.5701 30.9226C15.6467 30.8721 15.7068 30.8003 15.7429 30.716C16.2558 29.5211 18.8142 23.4979 18.8142 22.2684V16.9377C18.8142 16.8133 18.7648 16.6941 18.6769 16.6062C18.5889 16.5183 18.4697 16.4689 18.3454 16.4689H13.6576V10.3284C14.1867 10.2197 14.6621 9.93183 15.0037 9.51344C15.3452 9.09504 15.5321 8.57168 15.5327 8.03158C15.5327 8.016 15.5327 8.00053 15.5323 7.98471C15.8726 8.05364 16.224 8.04608 16.5611 7.96259C16.8982 7.8791 17.2125 7.72176 17.4813 7.50194C17.7501 7.28212 17.9667 7.00532 18.1155 6.69155C18.2642 6.37778 18.3414 6.03488 18.3414 5.68765C18.3414 5.34041 18.2642 4.99751 18.1155 4.68374C17.9667 4.36997 17.7501 4.09317 17.4813 3.87335C17.2125 3.65353 16.8982 3.49619 16.5611 3.4127C16.224 3.32921 15.8726 3.32165 15.5323 3.39058C15.5323 3.37499 15.5327 3.35953 15.5327 3.34371C15.5327 2.72212 15.2858 2.12599 14.8462 1.68646C14.4067 1.24693 13.8105 1 13.1889 1C12.5672 1 11.9711 1.24693 11.5315 1.68646C11.0919 2.12599 10.845 2.72212 10.845 3.34371C10.845 3.35929 10.845 3.37476 10.8455 3.39058C10.5051 3.32165 10.1537 3.32921 9.81661 3.4127C9.47954 3.49619 9.16523 3.65353 8.89641 3.87335C8.62759 4.09317 8.41097 4.36997 8.26222 4.68374C8.11348 4.99751 8.03631 5.34041 8.03631 5.68765C8.03631 6.03488 8.11348 6.37778 8.26222 6.69155C8.41097 7.00532 8.62759 7.28212 8.89641 7.50194C9.16523 7.72176 9.47954 7.8791 9.81661 7.96259C10.1537 8.04608 10.5051 8.05364 10.8455 7.98471C10.8455 8.0003 10.845 8.01576 10.845 8.03158C10.8456 8.57168 11.0325 9.09504 11.374 9.51344C11.7156 9.93183 12.191 10.2197 12.7201 10.3284V16.4689H10.638L8.9035 13.6548C8.92571 13.6554 8.94786 13.6565 8.97018 13.6565C9.29763 13.6561 9.62136 13.5871 9.92052 13.4539C10.2197 13.3208 10.4876 13.1264 10.707 12.8834C10.9265 12.6404 11.0926 12.3541 11.1946 12.0429C11.2966 11.7318 11.3323 11.4028 11.2993 11.077C11.2664 10.7512 11.1656 10.436 11.0033 10.1516C10.8411 9.86716 10.6211 9.61989 10.3574 9.42571C10.0938 9.23153 9.79234 9.09474 9.47258 9.02416C9.15283 8.95359 8.82184 8.95078 8.50094 9.01594C8.50121 9.00032 8.50137 8.98469 8.50141 8.96907C8.50141 8.34748 8.25446 7.75135 7.8149 7.31182C7.37534 6.87229 6.77917 6.62536 6.15754 6.62536C5.5359 6.62536 4.93973 6.87229 4.50017 7.31182C4.06061 7.75135 3.81366 8.34748 3.81366 8.96907C3.81366 8.98465 3.81366 9.00012 3.81413 9.01594C3.49301 8.95024 3.16167 8.95261 2.84151 9.0229C2.52136 9.09318 2.2195 9.22982 1.95544 9.424C1.69137 9.61817 1.47096 9.86556 1.30844 10.1502C1.14592 10.4348 1.0449 10.7504 1.01191 11.0765C0.978912 11.4026 1.01468 11.7319 1.11689 12.0434C1.2191 12.3548 1.38548 12.6413 1.6053 12.8844C1.82513 13.1276 2.09349 13.3219 2.39308 13.4549C2.69267 13.5878 3.01682 13.6565 3.3446 13.6565ZM11.7825 8.03158C11.7819 7.8069 11.8358 7.58542 11.9396 7.38613C11.9885 7.29133 12.0036 7.18267 11.9825 7.07811C11.9613 6.97354 11.9051 6.87933 11.8231 6.81103C11.7412 6.74273 11.6383 6.70444 11.5317 6.70247C11.425 6.7005 11.3208 6.73497 11.2364 6.8002C10.9907 6.99167 10.6878 7.09516 10.3762 7.0941C10.0032 7.0941 9.64553 6.94595 9.38179 6.68223C9.11805 6.41851 8.96989 6.06083 8.96989 5.68788C8.96989 5.31493 9.11805 4.95725 9.38179 4.69353C9.64553 4.42981 10.0032 4.28166 10.3762 4.28166C10.6877 4.2807 10.9906 4.38427 11.2362 4.57579C11.3207 4.64102 11.4248 4.67549 11.5315 4.67353C11.6382 4.67156 11.741 4.63326 11.8229 4.56496C11.9049 4.49666 11.9611 4.40245 11.9823 4.29789C12.0035 4.19332 11.9883 4.08467 11.9394 3.98986C11.8357 3.79049 11.7818 3.56892 11.7825 3.34417C11.7825 2.97122 11.9307 2.61354 12.1944 2.34982C12.4582 2.08611 12.8159 1.93795 13.1889 1.93795C13.5618 1.93795 13.9195 2.08611 14.1833 2.34982C14.447 2.61354 14.5952 2.97122 14.5952 3.34417C14.5958 3.56886 14.5419 3.79034 14.4381 3.98963C14.3892 4.08443 14.3741 4.19309 14.3952 4.29765C14.4164 4.40222 14.4726 4.49643 14.5546 4.56473C14.6366 4.63303 14.7394 4.67132 14.846 4.67329C14.9527 4.67526 15.0569 4.64078 15.1413 4.57556C15.3871 4.38408 15.69 4.2806 16.0015 4.28166C16.3745 4.28166 16.7322 4.42981 16.9959 4.69353C17.2597 4.95725 17.4078 5.31493 17.4078 5.68788C17.4078 6.06083 17.2597 6.41851 16.9959 6.68223C16.7322 6.94595 16.3745 7.0941 16.0015 7.0941C15.69 7.09506 15.3872 6.99149 15.1415 6.79997C15.0571 6.73474 14.9529 6.70026 14.8462 6.70223C14.7395 6.7042 14.6367 6.7425 14.5548 6.8108C14.4728 6.8791 14.4166 6.97331 14.3954 7.07787C14.3742 7.18244 14.3894 7.29109 14.4383 7.38589C14.5421 7.58527 14.5959 7.80684 14.5952 8.03158C14.5952 8.40454 14.447 8.76222 14.1833 9.02593C13.9195 9.28965 13.5618 9.43781 13.1889 9.43781C12.8159 9.43781 12.4582 9.28965 12.1944 9.02593C11.9307 8.76222 11.7825 8.40454 11.7825 8.03158ZM17.8766 22.2684C17.8766 22.9623 16.4181 26.7439 15.0028 30.0624H11.4842C10.0155 26.7438 8.50111 22.9606 8.50111 22.2684V17.4064H17.8766V22.2684ZM3.3446 9.90655C3.65613 9.90559 3.95898 10.0092 4.20468 10.2007C4.28913 10.266 4.39336 10.3006 4.50012 10.2987C4.60688 10.2967 4.70979 10.2584 4.7918 10.19C4.87381 10.1216 4.93002 10.0273 4.95112 9.92262C4.97222 9.81795 4.95695 9.70922 4.90784 9.61441C4.8041 9.41515 4.75026 9.1937 4.75092 8.96907C4.75092 8.59611 4.89909 8.23843 5.16282 7.97472C5.42656 7.711 5.78426 7.56284 6.15724 7.56284C6.53022 7.56284 6.88793 7.711 7.15166 7.97472C7.4154 8.23843 7.56357 8.59611 7.56357 8.96907C7.56417 9.19377 7.51029 9.41527 7.40653 9.61458C7.35759 9.70938 7.34246 9.81804 7.36363 9.9226C7.3848 10.0272 7.44102 10.1214 7.52298 10.1897C7.60494 10.258 7.70775 10.2963 7.81443 10.2982C7.9211 10.3002 8.02526 10.2657 8.10969 10.2005C8.35545 10.009 8.65834 9.90553 8.96989 9.90655C9.34287 9.90655 9.70057 10.0547 9.96431 10.3184C10.228 10.5821 10.3762 10.9398 10.3762 11.3128C10.3762 11.6857 10.228 12.0434 9.96431 12.3071C9.70057 12.5708 9.34287 12.719 8.96989 12.719C8.65835 12.72 8.3555 12.6164 8.10981 12.4249C8.02536 12.3595 7.92113 12.3249 7.81437 12.3269C7.7076 12.3288 7.6047 12.3672 7.52269 12.4355C7.44068 12.5039 7.38447 12.5983 7.36337 12.7029C7.34226 12.8076 7.35753 12.9163 7.40664 13.0111C7.51038 13.2104 7.56423 13.4318 7.56357 13.6565C7.56357 14.0294 7.4154 14.3871 7.15166 14.6508C6.88793 14.9145 6.53022 15.0627 6.15724 15.0627C5.78426 15.0627 5.42656 14.9145 5.16282 14.6508C4.89909 14.3871 4.75092 14.0294 4.75092 13.6565C4.75031 13.4318 4.8042 13.2103 4.90796 13.011C4.9569 12.9162 4.97203 12.8075 4.95086 12.7029C4.92968 12.5984 4.87347 12.5042 4.79151 12.4359C4.70954 12.3676 4.60673 12.3293 4.50006 12.3273C4.39338 12.3253 4.28923 12.3598 4.2048 12.425C3.95904 12.6165 3.65615 12.72 3.3446 12.719C2.97162 12.719 2.61391 12.5708 2.35018 12.3071C2.08644 12.0434 1.93827 11.6857 1.93827 11.3128C1.93827 10.9398 2.08644 10.5821 2.35018 10.3184C2.61391 10.0547 2.97162 9.90655 3.3446 9.90655Z" fill="#23685C"/>
<path d="M5.68776 10.8443H6.62531V11.7818H5.68776V10.8443Z" fill="#23685C"/>
<path d="M9.43791 18.3441H10.3755V20.2191H9.43791V18.3441Z" fill="#23685C"/>
<path d="M30.9212 20.4277L30.9194 20.425L29.0462 17.6154C28.9903 17.5315 28.9088 17.4678 28.8138 17.4338L25.0268 16.0814L24.6641 13.7607C25.161 14.0172 25.7333 14.0875 26.2775 13.9591C26.8218 13.8307 27.3022 13.512 27.6321 13.0605C27.9619 12.609 28.1195 12.0544 28.0764 11.4969C28.0333 10.9394 27.7923 10.4157 27.3969 10.0203C27.3859 10.0093 27.3748 9.9985 27.3636 9.98766C27.4948 9.90046 27.617 9.80036 27.7283 9.68884C27.9486 9.4718 28.1238 9.21331 28.2437 8.92827C28.3636 8.64324 28.426 8.33729 28.4271 8.02805C28.4283 7.71882 28.3682 7.41241 28.2504 7.1265C28.1326 6.84058 27.9593 6.58081 27.7406 6.36215C27.522 6.14348 27.2622 5.97025 26.9762 5.85244C26.6903 5.73463 26.3839 5.67456 26.0746 5.67571C25.7654 5.67685 25.4594 5.73917 25.1743 5.85909C24.8893 5.97901 24.6308 6.15416 24.4137 6.37443C24.3022 6.48577 24.2021 6.60797 24.1149 6.73923C24.1041 6.72802 24.0932 6.7169 24.0822 6.70589C23.6427 6.26635 23.0465 6.01943 22.4248 6.01943C21.8032 6.01943 21.207 6.26635 20.7675 6.70589C20.3279 7.14542 20.0809 7.74156 20.0809 8.36315C20.0809 8.98475 20.3279 9.58088 20.7675 10.0204C20.7785 10.0314 20.7896 10.0423 20.8008 10.0531C20.5112 10.2451 20.2679 10.499 20.0884 10.7965C19.9089 11.094 19.7977 11.4276 19.7628 11.7733C19.7279 12.119 19.7702 12.4681 19.8866 12.7955C20.003 13.1229 20.1907 13.4203 20.436 13.6663C20.868 14.0986 21.4518 14.3449 22.0629 14.3527C22.674 14.3605 23.264 14.1291 23.7069 13.7081L24.0218 15.7225L22.251 15.0901C22.1674 15.0602 22.0771 15.0547 21.9905 15.0742C21.9039 15.0937 21.8246 15.1373 21.7618 15.2001C21.7351 15.2268 21.1074 15.8663 21.2196 16.778C21.3026 17.4518 21.7546 18.0643 22.5621 18.6014V22.2548C22.5605 22.7164 22.6884 23.1692 22.9311 23.5619C23.1738 23.9546 23.5216 24.2714 23.9353 24.4764L24.4371 24.7273V25.8438C24.4371 25.9078 24.4502 25.9711 24.4756 26.0298L25.2473 27.8157V31H26.1848V27.7188C26.1848 27.6549 26.1718 27.5916 26.1464 27.5329L25.3747 25.7469V21.2863L25.754 21.438C25.5526 22.3585 25.2982 24.5551 26.9183 26.1753L27.5813 25.5124C25.9393 23.8706 26.7489 21.3292 26.757 21.3047C26.7948 21.1913 26.7878 21.0677 26.7375 20.9592C26.6872 20.8508 26.5974 20.7657 26.4863 20.7213L24.1902 19.8029C23.7963 19.5272 23.6257 19.192 23.6686 18.7797C23.6801 18.6759 23.7025 18.5737 23.7354 18.4746L30.0624 21.005V31H31V20.6877C30.9999 20.5951 30.9727 20.5046 30.9212 20.4277ZM23.0877 13.0035C22.9295 13.1618 22.7359 13.28 22.5228 13.3484C22.3098 13.4168 22.0835 13.4334 21.8627 13.3968C21.642 13.3602 21.4332 13.2715 21.2536 13.138C21.0741 13.0044 20.929 12.83 20.8304 12.6292C20.7318 12.4283 20.6825 12.2068 20.6867 11.9831C20.691 11.7594 20.7485 11.54 20.8545 11.3429C20.9606 11.1459 21.1122 10.9771 21.2966 10.8504C21.481 10.7237 21.6931 10.6429 21.915 10.6146C22.021 10.6012 22.1192 10.5519 22.1934 10.4751C22.2675 10.3982 22.3132 10.2983 22.3229 10.1919C22.3325 10.0856 22.3056 9.97909 22.2464 9.89013C22.1873 9.80118 22.0996 9.73508 21.9978 9.70279C21.7834 9.63523 21.5887 9.51671 21.4303 9.35738C21.1701 9.09294 21.025 8.7364 21.0265 8.36544C21.028 7.99447 21.176 7.63913 21.4384 7.37681C21.7007 7.1145 22.0561 6.96646 22.4271 6.96495C22.7981 6.96344 23.1546 7.10858 23.4191 7.36875C23.5784 7.52717 23.6969 7.72187 23.7645 7.93616C23.7968 8.03797 23.8629 8.1257 23.9519 8.18482C24.0408 8.24395 24.1473 8.27091 24.2537 8.26126C24.3601 8.25161 24.46 8.20592 24.5368 8.13175C24.6137 8.05758 24.6629 7.95939 24.6764 7.85343C24.7147 7.54428 24.8556 7.25692 25.0765 7.03735C25.2067 6.90502 25.3619 6.79978 25.5329 6.7277C25.704 6.65561 25.8877 6.61811 26.0733 6.61735C26.259 6.6166 26.4429 6.6526 26.6146 6.72329C26.7862 6.79398 26.9422 6.89795 27.0735 7.02922C27.2047 7.16048 27.3087 7.31643 27.3794 7.48807C27.4501 7.65972 27.4861 7.84366 27.4853 8.02929C27.4846 8.21492 27.4471 8.39857 27.375 8.56963C27.3029 8.74069 27.1977 8.89579 27.0653 9.02598C26.8457 9.24692 26.5584 9.38779 26.2492 9.42605C26.1433 9.43948 26.0451 9.48869 25.9709 9.56554C25.8967 9.6424 25.851 9.74229 25.8413 9.84866C25.8316 9.95504 25.8586 10.0615 25.9177 10.1505C25.9768 10.2395 26.0646 10.3056 26.1664 10.3379C26.3963 10.4111 26.6036 10.5422 26.7681 10.7187C26.9327 10.8952 27.0491 11.111 27.1062 11.3455C27.1632 11.58 27.1589 11.8252 27.0937 12.0575C27.0286 12.2899 26.9047 12.5015 26.7341 12.6721C26.5634 12.8428 26.3518 12.9666 26.1194 13.0318C25.887 13.0969 25.6418 13.1012 25.4074 13.0442C25.1729 12.9872 24.957 12.8708 24.7805 12.7062C24.604 12.5416 24.4729 12.3344 24.3996 12.1045C24.3673 12.0027 24.3012 11.915 24.2122 11.8558C24.1233 11.7967 24.0168 11.7698 23.9104 11.7794C23.804 11.7891 23.7041 11.8348 23.6273 11.909C23.5504 11.9832 23.5012 12.0814 23.4878 12.1874C23.4495 12.4965 23.3086 12.7839 23.0877 13.0035ZM28.3522 18.2645L29.304 19.692L25.3435 18.108L25.1916 17.1358L28.3522 18.2645ZM23.7084 20.609C23.7354 20.627 23.7642 20.6421 23.7943 20.6542L24.4371 20.9113V23.6792L24.3545 23.6378C24.097 23.5102 23.8804 23.3129 23.7293 23.0685C23.5782 22.824 23.4986 22.5421 23.4996 22.2547V20.4545C23.5645 20.5075 23.6336 20.5592 23.7084 20.609ZM23.6737 17.4401C23.5738 17.4001 23.4633 17.3957 23.3606 17.4276C23.2578 17.4595 23.1692 17.5258 23.1096 17.6153C23.0762 17.6654 23.0441 17.719 23.0134 17.7752C22.4969 17.4173 22.2001 17.0394 22.1512 16.6721C22.1288 16.4712 22.1696 16.2683 22.2679 16.0917L24.1865 16.7768L24.3313 17.703L23.6737 17.4401Z" fill="#23685C"/>
<path d="M2.8751 22.5628C3.24596 22.5628 3.60849 22.4529 3.91685 22.2468C4.2252 22.0408 4.46554 21.748 4.60746 21.4054C4.74938 21.0628 4.78652 20.6858 4.71416 20.3221C4.64181 19.9584 4.46323 19.6243 4.20099 19.3621C3.93875 19.0998 3.60464 18.9213 3.24091 18.8489C2.87718 18.7766 2.50016 18.8137 2.15753 18.9556C1.8149 19.0975 1.52205 19.3379 1.31601 19.6462C1.10997 19.9545 1 20.317 1 20.6879C1.00057 21.185 1.19831 21.6615 1.54984 22.013C1.90136 22.3645 2.37797 22.5623 2.8751 22.5628ZM2.8751 19.7504C3.06053 19.7504 3.24179 19.8054 3.39597 19.9084C3.55015 20.0114 3.67032 20.1578 3.74128 20.3291C3.81224 20.5004 3.83081 20.6889 3.79463 20.8708C3.75846 21.0526 3.66916 21.2197 3.53804 21.3508C3.40693 21.4819 3.23987 21.5712 3.058 21.6073C2.87614 21.6435 2.68763 21.6249 2.51631 21.554C2.345 21.483 2.19857 21.3629 2.09555 21.2087C1.99253 21.0545 1.93755 20.8733 1.93755 20.6879C1.93783 20.4393 2.03669 20.201 2.21246 20.0253C2.38822 19.8495 2.62653 19.7507 2.8751 19.7504Z" stroke="#23685C" stroke-width="0.5"/>
<path d="M18.0083 11.9642L17.2726 10.6193C17.2323 10.5455 17.1728 10.484 17.1004 10.4411C17.0281 10.3982 16.9455 10.3755 16.8614 10.3755C16.7773 10.3755 16.6947 10.3982 16.6223 10.4411C16.55 10.484 16.4905 10.5455 16.4501 10.6193L15.7145 11.9642L14.3695 12.6998C14.2957 12.7401 14.2342 12.7996 14.1913 12.872C14.1484 12.9443 14.1257 13.0269 14.1257 13.111C14.1257 13.1951 14.1484 13.2777 14.1913 13.35C14.2342 13.4224 14.2957 13.4819 14.3695 13.5222L15.7145 14.2578L16.4501 15.6027C16.4905 15.6765 16.55 15.7381 16.6223 15.781C16.6947 15.8238 16.7773 15.8465 16.8614 15.8465C16.9455 15.8465 17.0281 15.8238 17.1004 15.781C17.1728 15.7381 17.2323 15.6765 17.2726 15.6027L18.0083 14.2578L19.3532 13.5222C19.427 13.4819 19.4886 13.4224 19.5315 13.35C19.5744 13.2777 19.597 13.1951 19.597 13.111C19.597 13.0269 19.5744 12.9443 19.5315 12.872C19.4886 12.7996 19.427 12.7401 19.3532 12.6998L18.0083 11.9642ZM17.438 13.5012C17.3593 13.5442 17.2946 13.6088 17.2516 13.6875L16.8614 14.4008L16.4712 13.6874C16.4282 13.6088 16.3635 13.5441 16.2849 13.5011L15.5714 13.1109L16.2849 12.7208C16.3635 12.6777 16.4282 12.6131 16.4712 12.5344L16.8614 11.821L17.2516 12.5344C17.2946 12.6131 17.3593 12.6777 17.438 12.7208L18.1514 13.1109L17.438 13.5012Z" stroke="#23685C" stroke-width="0.5"/>
<path d="M11.5569 23.5204L12.9018 24.2559L13.6374 25.6008C13.6778 25.6746 13.7373 25.7362 13.8097 25.7791C13.882 25.822 13.9646 25.8446 14.0487 25.8446C14.1328 25.8446 14.2154 25.822 14.2878 25.7791C14.3601 25.7362 14.4196 25.6746 14.46 25.6008L15.1956 24.2559L16.5406 23.5204C16.6144 23.48 16.6759 23.4205 16.7188 23.3482C16.7617 23.2758 16.7844 23.1932 16.7844 23.1091C16.7844 23.025 16.7617 22.9424 16.7188 22.8701C16.6759 22.7977 16.6144 22.7383 16.5406 22.6979L15.1956 21.9623L14.46 20.6174C14.4196 20.5436 14.3601 20.4821 14.2878 20.4392C14.2154 20.3963 14.1328 20.3737 14.0487 20.3737C13.9646 20.3737 13.882 20.3963 13.8097 20.4392C13.7373 20.4821 13.6778 20.5436 13.6374 20.6174L12.9018 21.9623L11.5569 22.6979C11.4831 22.7383 11.4215 22.7977 11.3786 22.8701C11.3357 22.9424 11.3131 23.025 11.3131 23.1091C11.3131 23.1932 11.3357 23.2758 11.3786 23.3482C11.4215 23.4205 11.4831 23.48 11.5569 23.5204ZM13.4722 22.7189C13.5509 22.6759 13.6155 22.6112 13.6585 22.5326L14.0487 21.8192L14.4389 22.5326C14.4819 22.6112 14.5466 22.6759 14.6253 22.7189L15.3387 23.1091L14.6253 23.4993C14.5466 23.5423 14.4819 23.6069 14.4389 23.6856L14.0487 24.399L13.6585 23.6856C13.6155 23.6069 13.5509 23.5423 13.4722 23.4993L12.7587 23.1091L13.4722 22.7189Z" stroke="#23685C" stroke-width="0.5"/>
<path d="M23.97 2.8757H24.9075V3.81318H23.97V2.8757Z" stroke="#23685C" stroke-width="0.5"/>
<path d="M12.7194 5.21939H13.6569V6.15687H12.7194V5.21939Z" stroke="#23685C" stroke-width="0.5"/>
<path d="M23.7824 9.48349H24.4405V10.421H23.7824V9.48349Z" stroke="#23685C" stroke-width="0.5"/>
<path d="M3.3446 13.6565C3.50218 13.6565 3.65938 13.6408 3.81384 13.6096C3.81357 13.6252 3.81341 13.6409 3.81337 13.6565C3.81329 14.2017 4.00335 14.7299 4.35083 15.1501C4.69831 15.5703 5.18144 15.8562 5.71703 15.9585C6.25261 16.0608 6.80712 15.9732 7.28504 15.7107C7.76297 15.4482 8.13439 15.0273 8.33534 14.5204L9.53652 16.4689H8.03234C7.90801 16.4689 7.78878 16.5183 7.70087 16.6062C7.61295 16.6941 7.56357 16.8133 7.56357 16.9377V22.2684C7.56357 23.501 10.2188 29.5264 10.7512 30.7218C10.7881 30.8045 10.8481 30.8749 10.9241 30.9242C11.0001 30.9736 11.0887 30.9999 11.1793 30.9999H15.3121C15.4038 30.9999 15.4935 30.973 15.5701 30.9226C15.6467 30.8721 15.7068 30.8003 15.7429 30.716C16.2558 29.5211 18.8142 23.4979 18.8142 22.2684V16.9377C18.8142 16.8133 18.7648 16.6941 18.6769 16.6062C18.5889 16.5183 18.4697 16.4689 18.3454 16.4689H13.6576V10.3284C14.1867 10.2197 14.6621 9.93183 15.0037 9.51344C15.3452 9.09504 15.5321 8.57168 15.5327 8.03158C15.5327 8.016 15.5327 8.00053 15.5323 7.98471C15.8726 8.05364 16.224 8.04608 16.5611 7.96259C16.8982 7.8791 17.2125 7.72176 17.4813 7.50194C17.7501 7.28212 17.9667 7.00532 18.1155 6.69155C18.2642 6.37778 18.3414 6.03488 18.3414 5.68765C18.3414 5.34041 18.2642 4.99751 18.1155 4.68374C17.9667 4.36997 17.7501 4.09317 17.4813 3.87335C17.2125 3.65353 16.8982 3.49619 16.5611 3.4127C16.224 3.32921 15.8726 3.32165 15.5323 3.39058C15.5323 3.37499 15.5327 3.35953 15.5327 3.34371C15.5327 2.72212 15.2858 2.12599 14.8462 1.68646C14.4067 1.24693 13.8105 1 13.1889 1C12.5672 1 11.9711 1.24693 11.5315 1.68646C11.0919 2.12599 10.845 2.72212 10.845 3.34371C10.845 3.35929 10.845 3.37476 10.8455 3.39058C10.5051 3.32165 10.1537 3.32921 9.81661 3.4127C9.47954 3.49619 9.16523 3.65353 8.89641 3.87335C8.62759 4.09317 8.41097 4.36997 8.26222 4.68374C8.11348 4.99751 8.03631 5.34041 8.03631 5.68765C8.03631 6.03488 8.11348 6.37778 8.26222 6.69155C8.41097 7.00532 8.62759 7.28212 8.89641 7.50194C9.16523 7.72176 9.47954 7.8791 9.81661 7.96259C10.1537 8.04608 10.5051 8.05364 10.8455 7.98471C10.8455 8.0003 10.845 8.01576 10.845 8.03158C10.8456 8.57168 11.0325 9.09504 11.374 9.51344C11.7156 9.93183 12.191 10.2197 12.7201 10.3284V16.4689H10.638L8.9035 13.6548C8.92571 13.6554 8.94786 13.6565 8.97018 13.6565C9.29763 13.6561 9.62136 13.5871 9.92052 13.4539C10.2197 13.3208 10.4876 13.1264 10.707 12.8834C10.9265 12.6404 11.0926 12.3541 11.1946 12.0429C11.2966 11.7318 11.3323 11.4028 11.2993 11.077C11.2664 10.7512 11.1656 10.436 11.0033 10.1516C10.8411 9.86716 10.6211 9.61989 10.3574 9.42571C10.0938 9.23153 9.79234 9.09474 9.47258 9.02416C9.15283 8.95359 8.82184 8.95078 8.50094 9.01594C8.50121 9.00032 8.50137 8.98469 8.50141 8.96907C8.50141 8.34748 8.25446 7.75135 7.8149 7.31182C7.37534 6.87229 6.77917 6.62536 6.15754 6.62536C5.5359 6.62536 4.93973 6.87229 4.50017 7.31182C4.06061 7.75135 3.81366 8.34748 3.81366 8.96907C3.81366 8.98465 3.81366 9.00012 3.81413 9.01594C3.49301 8.95024 3.16167 8.95261 2.84151 9.0229C2.52136 9.09318 2.2195 9.22982 1.95544 9.424C1.69137 9.61817 1.47096 9.86556 1.30844 10.1502C1.14592 10.4348 1.0449 10.7504 1.01191 11.0765C0.978912 11.4026 1.01468 11.7319 1.11689 12.0434C1.2191 12.3548 1.38548 12.6413 1.6053 12.8844C1.82513 13.1276 2.09349 13.3219 2.39308 13.4549C2.69267 13.5878 3.01682 13.6565 3.3446 13.6565ZM11.7825 8.03158C11.7819 7.8069 11.8358 7.58542 11.9396 7.38613C11.9885 7.29133 12.0036 7.18267 11.9825 7.07811C11.9613 6.97354 11.9051 6.87933 11.8231 6.81103C11.7412 6.74273 11.6383 6.70444 11.5317 6.70247C11.425 6.7005 11.3208 6.73497 11.2364 6.8002C10.9907 6.99167 10.6878 7.09516 10.3762 7.0941C10.0032 7.0941 9.64553 6.94595 9.38179 6.68223C9.11805 6.41851 8.96989 6.06083 8.96989 5.68788C8.96989 5.31493 9.11805 4.95725 9.38179 4.69353C9.64553 4.42981 10.0032 4.28166 10.3762 4.28166C10.6877 4.2807 10.9906 4.38427 11.2362 4.57579C11.3207 4.64102 11.4248 4.67549 11.5315 4.67353C11.6382 4.67156 11.741 4.63326 11.8229 4.56496C11.9049 4.49666 11.9611 4.40245 11.9823 4.29789C12.0035 4.19332 11.9883 4.08467 11.9394 3.98986C11.8357 3.79049 11.7818 3.56892 11.7825 3.34417C11.7825 2.97122 11.9307 2.61354 12.1944 2.34982C12.4582 2.08611 12.8159 1.93795 13.1889 1.93795C13.5618 1.93795 13.9195 2.08611 14.1833 2.34982C14.447 2.61354 14.5952 2.97122 14.5952 3.34417C14.5958 3.56886 14.5419 3.79034 14.4381 3.98963C14.3892 4.08443 14.3741 4.19309 14.3952 4.29765C14.4164 4.40222 14.4726 4.49643 14.5546 4.56473C14.6366 4.63303 14.7394 4.67132 14.846 4.67329C14.9527 4.67526 15.0569 4.64078 15.1413 4.57556C15.3871 4.38408 15.69 4.2806 16.0015 4.28166C16.3745 4.28166 16.7322 4.42981 16.9959 4.69353C17.2597 4.95725 17.4078 5.31493 17.4078 5.68788C17.4078 6.06083 17.2597 6.41851 16.9959 6.68223C16.7322 6.94595 16.3745 7.0941 16.0015 7.0941C15.69 7.09506 15.3872 6.99149 15.1415 6.79997C15.0571 6.73474 14.9529 6.70026 14.8462 6.70223C14.7395 6.7042 14.6367 6.7425 14.5548 6.8108C14.4728 6.8791 14.4166 6.97331 14.3954 7.07787C14.3742 7.18244 14.3894 7.29109 14.4383 7.38589C14.5421 7.58527 14.5959 7.80684 14.5952 8.03158C14.5952 8.40454 14.447 8.76222 14.1833 9.02593C13.9195 9.28965 13.5618 9.43781 13.1889 9.43781C12.8159 9.43781 12.4582 9.28965 12.1944 9.02593C11.9307 8.76222 11.7825 8.40454 11.7825 8.03158ZM17.8766 22.2684C17.8766 22.9623 16.4181 26.7439 15.0028 30.0624H11.4842C10.0155 26.7438 8.50111 22.9606 8.50111 22.2684V17.4064H17.8766V22.2684ZM3.3446 9.90655C3.65613 9.90559 3.95898 10.0092 4.20468 10.2007C4.28913 10.266 4.39336 10.3006 4.50012 10.2987C4.60688 10.2967 4.70979 10.2584 4.7918 10.19C4.87381 10.1216 4.93002 10.0273 4.95112 9.92262C4.97222 9.81795 4.95695 9.70922 4.90784 9.61441C4.8041 9.41515 4.75026 9.1937 4.75092 8.96907C4.75092 8.59611 4.89909 8.23843 5.16282 7.97472C5.42656 7.711 5.78426 7.56284 6.15724 7.56284C6.53022 7.56284 6.88793 7.711 7.15166 7.97472C7.4154 8.23843 7.56357 8.59611 7.56357 8.96907C7.56417 9.19377 7.51029 9.41527 7.40653 9.61458C7.35759 9.70938 7.34246 9.81804 7.36363 9.9226C7.3848 10.0272 7.44102 10.1214 7.52298 10.1897C7.60494 10.258 7.70775 10.2963 7.81443 10.2982C7.9211 10.3002 8.02526 10.2657 8.10969 10.2005C8.35545 10.009 8.65834 9.90553 8.96989 9.90655C9.34287 9.90655 9.70057 10.0547 9.96431 10.3184C10.228 10.5821 10.3762 10.9398 10.3762 11.3128C10.3762 11.6857 10.228 12.0434 9.96431 12.3071C9.70057 12.5708 9.34287 12.719 8.96989 12.719C8.65835 12.72 8.3555 12.6164 8.10981 12.4249C8.02536 12.3595 7.92113 12.3249 7.81437 12.3269C7.7076 12.3288 7.6047 12.3672 7.52269 12.4355C7.44068 12.5039 7.38447 12.5983 7.36337 12.7029C7.34226 12.8076 7.35753 12.9163 7.40664 13.0111C7.51038 13.2104 7.56423 13.4318 7.56357 13.6565C7.56357 14.0294 7.4154 14.3871 7.15166 14.6508C6.88793 14.9145 6.53022 15.0627 6.15724 15.0627C5.78426 15.0627 5.42656 14.9145 5.16282 14.6508C4.89909 14.3871 4.75092 14.0294 4.75092 13.6565C4.75031 13.4318 4.8042 13.2103 4.90796 13.011C4.9569 12.9162 4.97203 12.8075 4.95086 12.7029C4.92968 12.5984 4.87347 12.5042 4.79151 12.4359C4.70954 12.3676 4.60673 12.3293 4.50006 12.3273C4.39338 12.3253 4.28923 12.3598 4.2048 12.425C3.95904 12.6165 3.65615 12.72 3.3446 12.719C2.97162 12.719 2.61391 12.5708 2.35018 12.3071C2.08644 12.0434 1.93827 11.6857 1.93827 11.3128C1.93827 10.9398 2.08644 10.5821 2.35018 10.3184C2.61391 10.0547 2.97162 9.90655 3.3446 9.90655Z" stroke="#23685C" stroke-width="0.5"/>
<path d="M5.68776 10.8443H6.62531V11.7818H5.68776V10.8443Z" stroke="#23685C" stroke-width="0.5"/>
<path d="M9.43791 18.3441H10.3755V20.2191H9.43791V18.3441Z" stroke="#23685C" stroke-width="0.5"/>
<path d="M30.9212 20.4277L30.9194 20.425L29.0462 17.6154C28.9903 17.5315 28.9088 17.4678 28.8138 17.4338L25.0268 16.0814L24.6641 13.7607C25.161 14.0172 25.7333 14.0875 26.2775 13.9591C26.8218 13.8307 27.3022 13.512 27.6321 13.0605C27.9619 12.609 28.1195 12.0544 28.0764 11.4969C28.0333 10.9394 27.7923 10.4157 27.3969 10.0203C27.3859 10.0093 27.3748 9.9985 27.3636 9.98766C27.4948 9.90046 27.617 9.80036 27.7283 9.68884C27.9486 9.4718 28.1238 9.21331 28.2437 8.92827C28.3636 8.64324 28.426 8.33729 28.4271 8.02805C28.4283 7.71882 28.3682 7.41241 28.2504 7.1265C28.1326 6.84058 27.9593 6.58081 27.7406 6.36215C27.522 6.14348 27.2622 5.97025 26.9762 5.85244C26.6903 5.73463 26.3839 5.67456 26.0746 5.67571C25.7654 5.67685 25.4594 5.73917 25.1743 5.85909C24.8893 5.97901 24.6308 6.15416 24.4137 6.37443C24.3022 6.48577 24.2021 6.60797 24.1149 6.73923C24.1041 6.72802 24.0932 6.7169 24.0822 6.70589C23.6427 6.26635 23.0465 6.01943 22.4248 6.01943C21.8032 6.01943 21.207 6.26635 20.7675 6.70589C20.3279 7.14542 20.0809 7.74156 20.0809 8.36315C20.0809 8.98475 20.3279 9.58088 20.7675 10.0204C20.7785 10.0314 20.7896 10.0423 20.8008 10.0531C20.5112 10.2451 20.2679 10.499 20.0884 10.7965C19.9089 11.094 19.7977 11.4276 19.7628 11.7733C19.7279 12.119 19.7702 12.4681 19.8866 12.7955C20.003 13.1229 20.1907 13.4203 20.436 13.6663C20.868 14.0986 21.4518 14.3449 22.0629 14.3527C22.674 14.3605 23.264 14.1291 23.7069 13.7081L24.0218 15.7225L22.251 15.0901C22.1674 15.0602 22.0771 15.0547 21.9905 15.0742C21.9039 15.0937 21.8246 15.1373 21.7618 15.2001C21.7351 15.2268 21.1074 15.8663 21.2196 16.778C21.3026 17.4518 21.7546 18.0643 22.5621 18.6014V22.2548C22.5605 22.7164 22.6884 23.1692 22.9311 23.5619C23.1738 23.9546 23.5216 24.2714 23.9353 24.4764L24.4371 24.7273V25.8438C24.4371 25.9078 24.4502 25.9711 24.4756 26.0298L25.2473 27.8157V31H26.1848V27.7188C26.1848 27.6549 26.1718 27.5916 26.1464 27.5329L25.3747 25.7469V21.2863L25.754 21.438C25.5526 22.3585 25.2982 24.5551 26.9183 26.1753L27.5813 25.5124C25.9393 23.8706 26.7489 21.3292 26.757 21.3047C26.7948 21.1913 26.7878 21.0677 26.7375 20.9592C26.6872 20.8508 26.5974 20.7657 26.4863 20.7213L24.1902 19.8029C23.7963 19.5272 23.6257 19.192 23.6686 18.7797C23.6801 18.6759 23.7025 18.5737 23.7354 18.4746L30.0624 21.005V31H31V20.6877C30.9999 20.5951 30.9727 20.5046 30.9212 20.4277ZM23.0877 13.0035C22.9295 13.1618 22.7359 13.28 22.5228 13.3484C22.3098 13.4168 22.0835 13.4334 21.8627 13.3968C21.642 13.3602 21.4332 13.2715 21.2536 13.138C21.0741 13.0044 20.929 12.83 20.8304 12.6292C20.7318 12.4283 20.6825 12.2068 20.6867 11.9831C20.691 11.7594 20.7485 11.54 20.8545 11.3429C20.9606 11.1459 21.1122 10.9771 21.2966 10.8504C21.481 10.7237 21.6931 10.6429 21.915 10.6146C22.021 10.6012 22.1192 10.5519 22.1934 10.4751C22.2675 10.3982 22.3132 10.2983 22.3229 10.1919C22.3325 10.0856 22.3056 9.97909 22.2464 9.89013C22.1873 9.80118 22.0996 9.73508 21.9978 9.70279C21.7834 9.63523 21.5887 9.51671 21.4303 9.35738C21.1701 9.09294 21.025 8.7364 21.0265 8.36544C21.028 7.99447 21.176 7.63913 21.4384 7.37681C21.7007 7.1145 22.0561 6.96646 22.4271 6.96495C22.7981 6.96344 23.1546 7.10858 23.4191 7.36875C23.5784 7.52717 23.6969 7.72187 23.7645 7.93616C23.7968 8.03797 23.8629 8.1257 23.9519 8.18482C24.0408 8.24395 24.1473 8.27091 24.2537 8.26126C24.3601 8.25161 24.46 8.20592 24.5368 8.13175C24.6137 8.05758 24.6629 7.95939 24.6764 7.85343C24.7147 7.54428 24.8556 7.25692 25.0765 7.03735C25.2067 6.90502 25.3619 6.79978 25.5329 6.7277C25.704 6.65561 25.8877 6.61811 26.0733 6.61735C26.259 6.6166 26.4429 6.6526 26.6146 6.72329C26.7862 6.79398 26.9422 6.89795 27.0735 7.02922C27.2047 7.16048 27.3087 7.31643 27.3794 7.48807C27.4501 7.65972 27.4861 7.84366 27.4853 8.02929C27.4846 8.21492 27.4471 8.39857 27.375 8.56963C27.3029 8.74069 27.1977 8.89579 27.0653 9.02598C26.8457 9.24692 26.5584 9.38779 26.2492 9.42605C26.1433 9.43948 26.0451 9.48869 25.9709 9.56554C25.8967 9.6424 25.851 9.74229 25.8413 9.84866C25.8316 9.95504 25.8586 10.0615 25.9177 10.1505C25.9768 10.2395 26.0646 10.3056 26.1664 10.3379C26.3963 10.4111 26.6036 10.5422 26.7681 10.7187C26.9327 10.8952 27.0491 11.111 27.1062 11.3455C27.1632 11.58 27.1589 11.8252 27.0937 12.0575C27.0286 12.2899 26.9047 12.5015 26.7341 12.6721C26.5634 12.8428 26.3518 12.9666 26.1194 13.0318C25.887 13.0969 25.6418 13.1012 25.4074 13.0442C25.1729 12.9872 24.957 12.8708 24.7805 12.7062C24.604 12.5416 24.4729 12.3344 24.3996 12.1045C24.3673 12.0027 24.3012 11.915 24.2122 11.8558C24.1233 11.7967 24.0168 11.7698 23.9104 11.7794C23.804 11.7891 23.7041 11.8348 23.6273 11.909C23.5504 11.9832 23.5012 12.0814 23.4878 12.1874C23.4495 12.4965 23.3086 12.7839 23.0877 13.0035ZM28.3522 18.2645L29.304 19.692L25.3435 18.108L25.1916 17.1358L28.3522 18.2645ZM23.7084 20.609C23.7354 20.627 23.7642 20.6421 23.7943 20.6542L24.4371 20.9113V23.6792L24.3545 23.6378C24.097 23.5102 23.8804 23.3129 23.7293 23.0685C23.5782 22.824 23.4986 22.5421 23.4996 22.2547V20.4545C23.5645 20.5075 23.6336 20.5592 23.7084 20.609ZM23.6737 17.4401C23.5738 17.4001 23.4633 17.3957 23.3606 17.4276C23.2578 17.4595 23.1692 17.5258 23.1096 17.6153C23.0762 17.6654 23.0441 17.719 23.0134 17.7752C22.4969 17.4173 22.2001 17.0394 22.1512 16.6721C22.1288 16.4712 22.1696 16.2683 22.2679 16.0917L24.1865 16.7768L24.3313 17.703L23.6737 17.4401Z" stroke="#23685C" stroke-width="0.5"/>
</svg>
