<svg width="33" height="33" viewBox="0 0 33 33" fill="none" xmlns="http://www.w3.org/2000/svg">
<path d="M28 19H27V20H28V19Z" fill="#23685C"/>
<path d="M28 23H27V24H28V23Z" fill="#23685C"/>
<path d="M28 27H27V28H28V27Z" fill="#23685C"/>
<path d="M31 15H28.7585C28.5035 13.8325 27.955 12.751 27.154 11.851C26.7905 11.4425 26.366 11.113 25.9115 10.876C26.823 10.2435 27.422 9.191 27.422 8V7.5H24.922C23.648 7.5 22.5345 8.1865 21.922 9.2065V8C21.922 6.897 22.819 6 23.922 6V5C22.2675 5 20.922 6.3455 20.922 8V10.7745C19.4425 10.2385 17.779 10.6395 16.716 11.8215C16.5875 11.9645 16.467 12.113 16.3515 12.265L16.395 12.0565C16.4645 11.7215 16.5 11.378 16.5 11C16.5 9.5955 15.916 8.3265 14.9805 7.4175L16.7335 4.8375C16.771 4.782 16.805 4.7235 16.8365 4.661C17.218 3.8975 16.9075 2.9655 16.144 2.584L16.019 2.5215C15.6495 2.3365 15.23 2.3065 14.8375 2.4375C14.445 2.5685 14.127 2.844 13.938 3.221C13.911 3.2745 13.8875 3.33 13.8675 3.3855L12.848 6.1895C12.779 6.17 12.709 6.152 12.639 6.1355L12.992 2.601C12.9975 2.552 13 2.502 13 2.4525C13 1.6515 12.348 1 11.5475 1H11.453C10.652 1 10 1.6515 10 2.4525C10 2.5025 10.0025 2.552 10.0075 2.5975L10.361 6.1365C10.2905 6.153 10.221 6.171 10.152 6.1905L9.133 3.387C9.1125 3.3305 9.089 3.275 9.0585 3.214C8.8735 2.844 8.5555 2.5685 8.163 2.4375C7.771 2.3065 7.3515 2.3365 6.9815 2.5215L6.8565 2.584C6.0935 2.966 5.783 3.8975 6.165 4.663C6.196 4.7235 6.2295 4.7815 6.268 4.8385L8.022 7.42C7.085 8.334 6.5 9.6125 6.5 11.036C6.5 11.378 6.5355 11.7215 6.6055 12.056L7.219 15H6.5C5.9485 15 5.5 15.4485 5.5 16V16.04C5.336 16.0165 5.17 16 5 16H2.5V16.5C2.5 17.691 3.099 18.7435 4.0105 19.376C3.5555 19.613 3.131 19.9425 2.768 20.3515C1.628 21.6325 1 23.2835 1 25C1 26.921 1.7625 28.7125 3.147 30.045C4.464 31.312 6.177 32.0005 7.997 32.0005C8.0905 32.0005 8.1835 31.9985 8.2775 31.995C10.057 31.9265 11.6755 31.175 12.879 30.0005H27.5C28.8785 30.0005 30 28.879 30 27.5005V18H31C31.5515 18 32 17.5515 32 17V16C32 15.4485 31.5515 15 31 15ZM24.922 8.5H26.3715C26.139 9.6395 25.1295 10.5 23.922 10.5H22.4725C22.7045 9.3605 23.7145 8.5 24.922 8.5ZM17.459 12.49C18.2735 11.585 19.621 11.2865 20.736 11.7635C20.796 11.789 20.8595 11.809 20.922 11.8305V12.898C20.4255 12.713 19.954 12.3235 19.775 12.1455L19.0685 12.8535C19.1855 12.971 20.2485 14 21.422 14C22.5955 14 23.6585 12.971 23.7755 12.8535L23.069 12.1455C22.89 12.323 22.4185 12.7125 21.922 12.898V11.5H23.922C24.0915 11.5 24.2565 11.484 24.4195 11.4605C25.12 11.5105 25.861 11.9025 26.407 12.5155C27.0445 13.2315 27.493 14.082 27.7295 15H16.1145C16.3535 14.071 16.81 13.2115 17.459 12.49ZM14.8075 3.7265C14.8145 3.7075 14.822 3.689 14.8365 3.661C14.902 3.53 15.014 3.4325 15.1535 3.386C15.2935 3.3395 15.441 3.3505 15.572 3.416L15.697 3.4785C15.9675 3.6135 16.0775 3.9435 15.943 4.212C15.932 4.2345 15.9185 4.257 15.9055 4.2765L14.1945 6.7945C14.06 6.708 13.9215 6.628 13.779 6.5545L14.8075 3.7265ZM11 2.4525C11 2.203 11.203 2 11.4525 2H11.547C11.7965 2 11.9995 2.203 11.997 2.4975L11.646 6.0075C11.5975 6.006 11.5495 6 11.5 6C11.4505 6 11.4025 6.006 11.3535 6.0075L11 2.4525ZM7.0955 4.278C7.0815 4.257 7.068 4.235 7.058 4.214C6.9225 3.9435 7.0325 3.6135 7.303 3.4785L7.428 3.416C7.5585 3.351 7.707 3.3395 7.8465 3.386C7.9855 3.4325 8.098 3.53 8.1685 3.6705C8.178 3.6885 8.1855 3.707 8.193 3.727L9.2215 6.5555C9.079 6.629 8.9405 6.709 8.8065 6.7955L7.0955 4.278ZM11.5 7C13.7055 7 15.5 8.7945 15.5 11.036C15.5 11.3095 15.4715 11.584 15.416 11.852L14.76 15H9.191C9.5425 14.6925 9.997 14.5 10.5 14.5V13.5C9.555 13.5 8.712 13.94 8.1615 14.625L7.5835 11.852C7.5285 11.584 7.5 11.3095 7.5 11C7.5 8.7945 9.2945 7 11.5 7ZM6.5 16H7.545C7.5175 16.163 7.5 16.3295 7.5 16.5V17.0555C7.213 16.762 6.8745 16.5215 6.5 16.343V16ZM5 17C6.2075 17 7.2175 17.8605 7.4495 19H6C4.7925 19 3.7825 18.1395 3.5505 17H5ZM8.239 30.9955C6.58 31.055 5.027 30.4655 3.8405 29.324C2.654 28.182 2 26.6465 2 25C2 23.5285 2.538 22.114 3.5145 21.0155C4.0605 20.402 4.8015 20.01 5.5025 19.9605C5.6655 19.984 5.8305 20 6 20H7.5V21.398C7.0035 21.213 6.532 20.8235 6.353 20.6455L5.6465 21.3535C5.7635 21.471 6.8265 22.5 8 22.5C9.1735 22.5 10.2365 21.471 10.3535 21.3535L9.647 20.6455C9.468 20.823 8.9965 21.2125 8.5 21.398V20.4565C8.7395 20.418 8.9715 20.3555 9.186 20.2635C10.3005 19.7855 11.6485 20.0855 12.4625 20.99C13.52 22.1655 14.064 23.6865 13.994 25.2725C13.8575 28.3625 11.329 30.876 8.239 30.9955ZM14.992 25C14.992 23.949 14.7675 22.9285 14.326 22H29V25H14.992ZM27.5 29H13.7315C14.3475 28.123 14.7685 27.1015 14.928 26H29V27.5C29 28.327 28.327 29 27.5 29ZM31 17H29V21H13.7375C13.5735 20.7655 13.4 20.537 13.206 20.3215C12.0925 19.084 10.318 18.692 8.793 19.3445C8.7015 19.3835 8.601 19.409 8.5005 19.434V18H28.0005V17H8.5V16.5C8.5 16.3265 8.529 16.161 8.571 16H31V17Z" fill="#23685C"/>
<path d="M4 25H3C3 27.757 5.243 30 8 30V29C5.7945 29 4 27.2055 4 25Z" fill="#23685C"/>
<path d="M14 9H13V10H14V9Z" fill="#23685C"/>
<path d="M14 11H13V12H14V11Z" fill="#23685C"/>
<path d="M14 13H13V14H14V13Z" fill="#23685C"/>
<path d="M28 19H27V20H28V19Z" stroke="#23685C" stroke-width="0.5"/>
<path d="M28 23H27V24H28V23Z" stroke="#23685C" stroke-width="0.5"/>
<path d="M28 27H27V28H28V27Z" stroke="#23685C" stroke-width="0.5"/>
<path d="M31 15H28.7585C28.5035 13.8325 27.955 12.751 27.154 11.851C26.7905 11.4425 26.366 11.113 25.9115 10.876C26.823 10.2435 27.422 9.191 27.422 8V7.5H24.922C23.648 7.5 22.5345 8.1865 21.922 9.2065V8C21.922 6.897 22.819 6 23.922 6V5C22.2675 5 20.922 6.3455 20.922 8V10.7745C19.4425 10.2385 17.779 10.6395 16.716 11.8215C16.5875 11.9645 16.467 12.113 16.3515 12.265L16.395 12.0565C16.4645 11.7215 16.5 11.378 16.5 11C16.5 9.5955 15.916 8.3265 14.9805 7.4175L16.7335 4.8375C16.771 4.782 16.805 4.7235 16.8365 4.661C17.218 3.8975 16.9075 2.9655 16.144 2.584L16.019 2.5215C15.6495 2.3365 15.23 2.3065 14.8375 2.4375C14.445 2.5685 14.127 2.844 13.938 3.221C13.911 3.2745 13.8875 3.33 13.8675 3.3855L12.848 6.1895C12.779 6.17 12.709 6.152 12.639 6.1355L12.992 2.601C12.9975 2.552 13 2.502 13 2.4525C13 1.6515 12.348 1 11.5475 1H11.453C10.652 1 10 1.6515 10 2.4525C10 2.5025 10.0025 2.552 10.0075 2.5975L10.361 6.1365C10.2905 6.153 10.221 6.171 10.152 6.1905L9.133 3.387C9.1125 3.3305 9.089 3.275 9.0585 3.214C8.8735 2.844 8.5555 2.5685 8.163 2.4375C7.771 2.3065 7.3515 2.3365 6.9815 2.5215L6.8565 2.584C6.0935 2.966 5.783 3.8975 6.165 4.663C6.196 4.7235 6.2295 4.7815 6.268 4.8385L8.022 7.42C7.085 8.334 6.5 9.6125 6.5 11.036C6.5 11.378 6.5355 11.7215 6.6055 12.056L7.219 15H6.5C5.9485 15 5.5 15.4485 5.5 16V16.04C5.336 16.0165 5.17 16 5 16H2.5V16.5C2.5 17.691 3.099 18.7435 4.0105 19.376C3.5555 19.613 3.131 19.9425 2.768 20.3515C1.628 21.6325 1 23.2835 1 25C1 26.921 1.7625 28.7125 3.147 30.045C4.464 31.312 6.177 32.0005 7.997 32.0005C8.0905 32.0005 8.1835 31.9985 8.2775 31.995C10.057 31.9265 11.6755 31.175 12.879 30.0005H27.5C28.8785 30.0005 30 28.879 30 27.5005V18H31C31.5515 18 32 17.5515 32 17V16C32 15.4485 31.5515 15 31 15ZM24.922 8.5H26.3715C26.139 9.6395 25.1295 10.5 23.922 10.5H22.4725C22.7045 9.3605 23.7145 8.5 24.922 8.5ZM17.459 12.49C18.2735 11.585 19.621 11.2865 20.736 11.7635C20.796 11.789 20.8595 11.809 20.922 11.8305V12.898C20.4255 12.713 19.954 12.3235 19.775 12.1455L19.0685 12.8535C19.1855 12.971 20.2485 14 21.422 14C22.5955 14 23.6585 12.971 23.7755 12.8535L23.069 12.1455C22.89 12.323 22.4185 12.7125 21.922 12.898V11.5H23.922C24.0915 11.5 24.2565 11.484 24.4195 11.4605C25.12 11.5105 25.861 11.9025 26.407 12.5155C27.0445 13.2315 27.493 14.082 27.7295 15H16.1145C16.3535 14.071 16.81 13.2115 17.459 12.49ZM14.8075 3.7265C14.8145 3.7075 14.822 3.689 14.8365 3.661C14.902 3.53 15.014 3.4325 15.1535 3.386C15.2935 3.3395 15.441 3.3505 15.572 3.416L15.697 3.4785C15.9675 3.6135 16.0775 3.9435 15.943 4.212C15.932 4.2345 15.9185 4.257 15.9055 4.2765L14.1945 6.7945C14.06 6.708 13.9215 6.628 13.779 6.5545L14.8075 3.7265ZM11 2.4525C11 2.203 11.203 2 11.4525 2H11.547C11.7965 2 11.9995 2.203 11.997 2.4975L11.646 6.0075C11.5975 6.006 11.5495 6 11.5 6C11.4505 6 11.4025 6.006 11.3535 6.0075L11 2.4525ZM7.0955 4.278C7.0815 4.257 7.068 4.235 7.058 4.214C6.9225 3.9435 7.0325 3.6135 7.303 3.4785L7.428 3.416C7.5585 3.351 7.707 3.3395 7.8465 3.386C7.9855 3.4325 8.098 3.53 8.1685 3.6705C8.178 3.6885 8.1855 3.707 8.193 3.727L9.2215 6.5555C9.079 6.629 8.9405 6.709 8.8065 6.7955L7.0955 4.278ZM11.5 7C13.7055 7 15.5 8.7945 15.5 11.036C15.5 11.3095 15.4715 11.584 15.416 11.852L14.76 15H9.191C9.5425 14.6925 9.997 14.5 10.5 14.5V13.5C9.555 13.5 8.712 13.94 8.1615 14.625L7.5835 11.852C7.5285 11.584 7.5 11.3095 7.5 11C7.5 8.7945 9.2945 7 11.5 7ZM6.5 16H7.545C7.5175 16.163 7.5 16.3295 7.5 16.5V17.0555C7.213 16.762 6.8745 16.5215 6.5 16.343V16ZM5 17C6.2075 17 7.2175 17.8605 7.4495 19H6C4.7925 19 3.7825 18.1395 3.5505 17H5ZM8.239 30.9955C6.58 31.055 5.027 30.4655 3.8405 29.324C2.654 28.182 2 26.6465 2 25C2 23.5285 2.538 22.114 3.5145 21.0155C4.0605 20.402 4.8015 20.01 5.5025 19.9605C5.6655 19.984 5.8305 20 6 20H7.5V21.398C7.0035 21.213 6.532 20.8235 6.353 20.6455L5.6465 21.3535C5.7635 21.471 6.8265 22.5 8 22.5C9.1735 22.5 10.2365 21.471 10.3535 21.3535L9.647 20.6455C9.468 20.823 8.9965 21.2125 8.5 21.398V20.4565C8.7395 20.418 8.9715 20.3555 9.186 20.2635C10.3005 19.7855 11.6485 20.0855 12.4625 20.99C13.52 22.1655 14.064 23.6865 13.994 25.2725C13.8575 28.3625 11.329 30.876 8.239 30.9955ZM14.992 25C14.992 23.949 14.7675 22.9285 14.326 22H29V25H14.992ZM27.5 29H13.7315C14.3475 28.123 14.7685 27.1015 14.928 26H29V27.5C29 28.327 28.327 29 27.5 29ZM31 17H29V21H13.7375C13.5735 20.7655 13.4 20.537 13.206 20.3215C12.0925 19.084 10.318 18.692 8.793 19.3445C8.7015 19.3835 8.601 19.409 8.5005 19.434V18H28.0005V17H8.5V16.5C8.5 16.3265 8.529 16.161 8.571 16H31V17Z" stroke="#23685C" stroke-width="0.5"/>
<path d="M4 25H3C3 27.757 5.243 30 8 30V29C5.7945 29 4 27.2055 4 25Z" stroke="#23685C" stroke-width="0.5"/>
<path d="M14 9H13V10H14V9Z" stroke="#23685C" stroke-width="0.5"/>
<path d="M14 11H13V12H14V11Z" stroke="#23685C" stroke-width="0.5"/>
<path d="M14 13H13V14H14V13Z" stroke="#23685C" stroke-width="0.5"/>
</svg>
