<svg width="26" height="26" viewBox="0 0 26 26" fill="none" xmlns="http://www.w3.org/2000/svg">
<path fill-rule="evenodd" clip-rule="evenodd" d="M13 26C20.1797 26 26 20.1797 26 13C26 5.8203 20.1797 0 13 0C5.8203 0 0 5.8203 0 13C0 20.1797 5.8203 26 13 26ZM10.899 8.60095C10.2644 7.96635 9.23555 7.96635 8.60095 8.60095C7.96635 9.23555 7.96635 10.2644 8.60095 10.899L10.7019 13L8.60095 15.101C7.96635 15.7356 7.96635 16.7644 8.60095 17.399C9.23555 18.0337 10.2644 18.0337 10.899 17.399L13 15.2981L15.101 17.399C15.7356 18.0337 16.7644 18.0337 17.399 17.399C18.0337 16.7644 18.0337 15.7356 17.399 15.101L15.2981 13L17.399 10.899C18.0337 10.2644 18.0337 9.23555 17.399 8.60095C16.7644 7.96635 15.7356 7.96635 15.101 8.60095L13 10.7019L10.899 8.60095Z" fill="#AF2F2F"/>
<path fill-rule="evenodd" clip-rule="evenodd" d="M13 26C20.1797 26 26 20.1797 26 13C26 5.8203 20.1797 0 13 0C5.8203 0 0 5.8203 0 13C0 20.1797 5.8203 26 13 26ZM10.899 8.60095C10.2644 7.96635 9.23555 7.96635 8.60095 8.60095C7.96635 9.23555 7.96635 10.2644 8.60095 10.899L10.7019 13L8.60095 15.101C7.96635 15.7356 7.96635 16.7644 8.60095 17.399C9.23555 18.0337 10.2644 18.0337 10.899 17.399L13 15.2981L15.101 17.399C15.7356 18.0337 16.7644 18.0337 17.399 17.399C18.0337 16.7644 18.0337 15.7356 17.399 15.101L15.2981 13L17.399 10.899C18.0337 10.2644 18.0337 9.23555 17.399 8.60095C16.7644 7.96635 15.7356 7.96635 15.101 8.60095L13 10.7019L10.899 8.60095Z" fill="url(#paint0_linear_66_11417)" fill-opacity="0.2"/>
<defs>
<linearGradient id="paint0_linear_66_11417" x1="0" y1="0" x2="13.1189" y2="0.0601077" gradientUnits="userSpaceOnUse">
<stop/>
<stop offset="1" stop-opacity="0"/>
</linearGradient>
</defs>
</svg>
