<svg width="28" height="28" viewBox="0 0 28 28" fill="none" xmlns="http://www.w3.org/2000/svg">
<path fill-rule="evenodd" clip-rule="evenodd" d="M14 24.5C19.799 24.5 24.5 19.799 24.5 14C24.5 8.20101 19.799 3.5 14 3.5C8.20101 3.5 3.5 8.20101 3.5 14C3.5 19.799 8.20101 24.5 14 24.5ZM14.0787 5.90169C14 5.97573 14 6.09493 14 6.33333V13.7113C14 13.8522 14 13.9226 13.9665 13.9807C13.933 14.0387 13.872 14.0739 13.75 14.1443L7.36047 17.8333C7.15401 17.9525 7.05078 18.0121 7.02602 18.1173C7.00126 18.2225 7.06436 18.3178 7.19056 18.5084C7.88727 19.5607 8.81979 20.4393 9.91667 21.0725C11.1582 21.7893 12.5664 22.1667 14 22.1667C15.4335 22.1667 16.8418 21.7893 18.0833 21.0725C19.3248 20.3558 20.3558 19.3248 21.0725 18.0833C21.7893 16.8418 22.1667 15.4335 22.1667 14C22.1667 12.5665 21.7893 11.1582 21.0725 9.91667C20.3558 8.67518 19.3248 7.64423 18.0833 6.92746C16.9865 6.29418 15.7594 5.92585 14.4997 5.84863C14.2715 5.83465 14.1574 5.82765 14.0787 5.90169Z" fill="white"/>
</svg>
