<svg width="32" height="32" viewBox="0 0 32 32" fill="none" xmlns="http://www.w3.org/2000/svg">
<path fill-rule="evenodd" clip-rule="evenodd" d="M15.9992 28.7999C23.0685 28.7999 28.7992 23.0692 28.7992 16C28.7992 8.93071 23.0685 3.19995 15.9992 3.19995C8.92997 3.19995 3.19922 8.93071 3.19922 16C3.19922 23.0692 8.92997 28.7999 15.9992 28.7999ZM21.9306 13.9313C22.5554 13.3065 22.5554 12.2934 21.9306 11.6686C21.3057 11.0437 20.2927 11.0437 19.6678 11.6686L14.3992 16.9372L12.3306 14.8686C11.7058 14.2437 10.6927 14.2437 10.0678 14.8686C9.44301 15.4934 9.44301 16.5065 10.0678 17.1313L13.2678 20.3313C13.8927 20.9562 14.9058 20.9562 15.5306 20.3313L21.9306 13.9313Z" fill="#749E1B"/>
<path fill-rule="evenodd" clip-rule="evenodd" d="M15.9992 28.7999C23.0685 28.7999 28.7992 23.0692 28.7992 16C28.7992 8.93071 23.0685 3.19995 15.9992 3.19995C8.92997 3.19995 3.19922 8.93071 3.19922 16C3.19922 23.0692 8.92997 28.7999 15.9992 28.7999ZM21.9306 13.9313C22.5554 13.3065 22.5554 12.2934 21.9306 11.6686C21.3057 11.0437 20.2927 11.0437 19.6678 11.6686L14.3992 16.9372L12.3306 14.8686C11.7058 14.2437 10.6927 14.2437 10.0678 14.8686C9.44301 15.4934 9.44301 16.5065 10.0678 17.1313L13.2678 20.3313C13.8927 20.9562 14.9058 20.9562 15.5306 20.3313L21.9306 13.9313Z" fill="url(#paint0_linear_66_11270)" fill-opacity="0.2"/>
<defs>
<linearGradient id="paint0_linear_66_11270" x1="3.19922" y1="3.19995" x2="16.1162" y2="3.25913" gradientUnits="userSpaceOnUse">
<stop/>
<stop offset="1" stop-opacity="0"/>
</linearGradient>
</defs>
</svg>
