<svg width="14" height="8" viewBox="0 0 14 8" fill="none" xmlns="http://www.w3.org/2000/svg">
<path d="M6.58008 7.67804L0.930076 2.01804C0.836347 1.92508 0.761953 1.81448 0.711184 1.69262C0.660416 1.57076 0.634277 1.44006 0.634277 1.30804C0.634277 1.17603 0.660416 1.04533 0.711184 0.923467C0.761953 0.801607 0.836347 0.691006 0.930076 0.598043C1.11744 0.411792 1.37089 0.307251 1.63508 0.307251C1.89926 0.307251 2.15271 0.411792 2.34008 0.598043L7.34008 5.54804L12.2901 0.598043C12.4774 0.411792 12.7309 0.307251 12.9951 0.307251C13.2593 0.307251 13.5127 0.411792 13.7001 0.598043C13.7946 0.690658 13.8697 0.801103 13.9212 0.922978C13.9727 1.04485 13.9995 1.17574 14.0001 1.30804C13.9995 1.44035 13.9727 1.57123 13.9212 1.69311C13.8697 1.81498 13.7946 1.92543 13.7001 2.01804L8.05008 7.67804C7.95643 7.77955 7.84278 7.86056 7.71628 7.91596C7.58978 7.97137 7.45318 7.99998 7.31507 7.99998C7.17697 7.99998 7.04037 7.97137 6.91387 7.91596C6.78737 7.86056 6.67372 7.77955 6.58008 7.67804Z" fill="#443E3E"/>
</svg>
