<svg width="42" height="40" viewBox="0 0 42 40" fill="none" xmlns="http://www.w3.org/2000/svg">
<path d="M0.0376045 26.7427H0.480135C4.99918 26.7412 9.43412 27.9647 13.3133 30.2829C13.6834 29.175 14.1681 28.1087 14.7594 27.1013C10.4196 24.5901 5.49413 23.2682 0.480135 23.269H0.248754C0.0872734 24.1946 0.00405309 25.1321 3.15721e-06 26.0717C-0.000228851 26.2959 0.0123262 26.5199 0.0376045 26.7427Z" fill="white"/>
<path d="M12.7465 32.4955C9.14141 30.2023 4.96393 28.9695 0.691406 28.938C2.54248 32.6575 7.63293 35.3329 12.7205 37.745C12.4223 36.0071 12.4311 34.2304 12.7465 32.4955Z" fill="white"/>
<path d="M15.9738 25.2787C18.4698 21.9988 22.0707 19.578 25.6254 18.7999C29.7291 17.9403 33.9787 18.0712 38.0218 19.1817C37.4433 17.3856 36.726 15.6329 36.0405 13.9351L36.0174 13.8744C34.8287 10.9329 33.8019 8.37899 33.8019 6.38909C33.8045 5.79657 33.9379 5.21194 34.1924 4.67684C29.9233 4.5438 27.5632 3.08608 25.663 1.91181C23.9276 0.844547 22.5682 0 19.6528 0C16.7373 0 15.3779 0.841661 13.6512 1.90892C11.7481 3.08319 9.3822 4.5438 5.11606 4.67684C5.36867 5.21258 5.5019 5.7968 5.50653 6.38909C5.50653 8.39056 4.47686 10.9358 3.28812 13.8801C2.38862 16.1014 1.37632 18.6119 0.722656 21.082C6.08578 21.1239 11.3442 22.5709 15.9738 25.2787Z" fill="white"/>
<path d="M41.6525 22.2471H41.6149L40.7935 21.9868C40.2873 21.8248 39.7204 21.6455 39.1304 21.4691C36.494 20.6256 33.7476 20.1753 30.9799 20.1328C29.2742 20.1126 27.5747 20.3425 25.9357 20.8154H25.9039C24.8747 21.1198 23.8748 21.5157 22.9162 21.9984L22.8843 22.0157C21.767 22.6296 20.7287 23.3775 19.7925 24.2428C19.6334 24.4076 19.4425 24.5841 19.2805 24.7345C18.6623 25.3511 18.0937 26.0155 17.5799 26.7215C17.3224 27.0715 17.0997 27.4012 16.8973 27.7309C16.8163 27.8553 16.7469 27.9738 16.6804 28.0895C16.5097 28.3788 16.3477 28.668 16.2031 28.9572V28.9919L16.1077 29.177C16.0122 29.3853 15.9052 29.6138 15.8011 29.851C15.7942 29.8639 15.7884 29.8775 15.7837 29.8914L15.6044 30.3195C15.2903 31.0991 15.0511 31.9068 14.89 32.7317C14.6314 34.0662 14.5943 35.4343 14.7801 36.7809C20.0984 32.685 26.0356 29.4631 32.3682 27.2363L33.395 26.9153L32.4607 27.4475C32.3884 27.488 25.2792 31.5603 14.4648 39.9914C17.7158 40.0579 27.191 39.8757 33.395 35.8583C39.2345 32.0751 41.1058 25.1567 41.6525 22.2471Z" fill="white"/>
</svg>
