<?xml version="1.0"?>
<svg xmlns="http://www.w3.org/2000/svg" xmlns:xlink="http://www.w3.org/1999/xlink" version="1.1" xml:space="preserve">
	<defs>
		<symbol id="box" width="100%" height="100%" viewBox="0 0 30 30">
			<path d="M29.9869 6.51803C29.9813 6.4224 29.9756 6.32678 29.94 6.23115C29.9194 6.17678 29.8819 6.13928 29.8519 6.09053C29.8312 6.05678 29.8162 6.02678 29.7938 5.99678C29.6888 5.8599 29.5594 5.7549 29.4037 5.6949C29.3981 5.69303 29.3962 5.6874 29.3906 5.68553L14.3906 0.062401C14.1638 -0.025724 13.9144 -0.020099 13.6931 0.075526L0.568125 5.69865C0.555 5.70428 0.549375 5.71928 0.53625 5.7249C0.406875 5.78678 0.298125 5.8824 0.208125 6.00053C0.181875 6.03428 0.159375 6.06428 0.136875 6.10178C0.118125 6.13365 0.09 6.15615 0.075 6.19178C0.024375 6.31178 0 6.43553 0 6.55928V6.56115V23.4362C0 23.8112 0.223125 24.1505 0.568125 24.2987L13.6931 29.9237H13.695C13.8094 29.9724 13.9331 29.9987 14.0625 29.9987C14.175 29.9987 14.2856 29.978 14.3925 29.9387L14.4262 29.9255C14.4262 29.9255 14.4263 29.9255 14.4281 29.9255L29.3925 24.3137C29.7581 24.1768 30 23.8262 30 23.4362V6.56115C30 6.54428 29.9869 6.53303 29.9869 6.51803ZM13.125 27.638L1.875 22.8174V7.98422L13.125 12.8048V27.638ZM14.085 11.1755L3.31875 6.56115L14.085 1.94865L26.3925 6.56115L23.4581 7.66178L18.1969 5.3049C17.9306 5.1849 17.6269 5.19803 17.3737 5.33678L13.6969 6.89865C13.35 7.0449 13.125 7.3899 13.125 7.76678C13.125 8.14553 13.3538 8.48865 13.7063 8.63303L17.1169 10.0412L14.085 11.1755ZM20.625 10.7255L22.5 10.0224V14.5918L20.625 15.2949V10.7255ZM19.6912 9.07365L16.485 7.75178L17.8125 7.1874L20.9625 8.5974L19.6912 9.07365ZM28.125 22.7855L15 27.7074V12.8349L18.75 11.4287V16.6487C18.75 16.9562 18.9019 17.243 19.1531 17.4193C19.3125 17.5299 19.4981 17.5862 19.6875 17.5862C19.7981 17.5862 19.9106 17.5655 20.0175 17.5262L23.7675 16.1199C24.1331 15.9812 24.375 15.6324 24.375 15.2424V9.31928L28.125 7.91303V22.7855Z" />
		</symbol>
		<symbol id="bookmark" width="100%" height="100%" viewBox="0 0 18 26">
			<path d="M14.2964 0.817261H4.44856C3.46914 0.817261 2.52982 1.20634 1.83726 1.8989C1.1447 2.59146 0.755625 3.53077 0.755625 4.5102V24.2059C0.754764 24.4228 0.811234 24.6361 0.919318 24.8241C1.0274 25.0122 1.18326 25.1684 1.37111 25.2768C1.55825 25.3849 1.77052 25.4417 1.9866 25.4417C2.20269 25.4417 2.41496 25.3849 2.60209 25.2768L9.37248 21.3623L16.1429 25.2768C16.3305 25.3832 16.5427 25.4383 16.7584 25.4368C16.974 25.4383 17.1862 25.3832 17.3738 25.2768C17.5617 25.1684 17.7176 25.0122 17.8256 24.8241C17.9337 24.6361 17.9902 24.4228 17.9893 24.2059V4.5102C17.9893 3.53077 17.6003 2.59146 16.9077 1.8989C16.2151 1.20634 15.2758 0.817261 14.2964 0.817261ZM15.5274 22.0763L9.98797 18.8757C9.80084 18.7677 9.58856 18.7108 9.37248 18.7108C9.1564 18.7108 8.94412 18.7677 8.75699 18.8757L3.21758 22.0763V4.5102C3.21758 4.18372 3.34728 3.87062 3.57813 3.63977C3.80898 3.40891 4.12209 3.27922 4.44856 3.27922H14.2964C14.6229 3.27922 14.936 3.40891 15.1668 3.63977C15.3977 3.87062 15.5274 4.18372 15.5274 4.5102V22.0763Z" />
		</symbol>
		<symbol id="comment" width="100%" height="100%" viewBox="0 0 21 20">
			<path d="M10.9999 0C9.68665 0 8.38629 0.258658 7.17303 0.761205C5.95978 1.26375 4.85738 2.00035 3.9288 2.92893C2.05343 4.8043 0.999866 7.34784 0.999866 10C0.991124 12.3091 1.79066 14.5485 3.25987 16.33L1.25987 18.33C1.12111 18.4706 1.02711 18.6492 0.989738 18.8432C0.952364 19.0372 0.973287 19.2379 1.04987 19.42C1.13292 19.5999 1.26757 19.7511 1.43671 19.8544C1.60586 19.9577 1.80187 20.0083 1.99987 20H10.9999C13.652 20 16.1956 18.9464 18.0709 17.0711C19.9463 15.1957 20.9999 12.6522 20.9999 10C20.9999 7.34784 19.9463 4.8043 18.0709 2.92893C16.1956 1.05357 13.652 0 10.9999 0ZM10.9999 18H4.40987L5.33987 17.07C5.52612 16.8826 5.63066 16.6292 5.63066 16.365C5.63066 16.1008 5.52612 15.8474 5.33987 15.66C4.03045 14.352 3.21504 12.6305 3.03256 10.7888C2.85007 8.94705 3.31181 7.09901 4.33909 5.55952C5.36638 4.02004 6.89566 2.88436 8.66638 2.34597C10.4371 1.80759 12.3397 1.8998 14.0501 2.60691C15.7604 3.31402 17.1727 4.59227 18.0463 6.22389C18.9199 7.85551 19.2007 9.73954 18.841 11.555C18.4813 13.3705 17.5032 15.005 16.0734 16.1802C14.6436 17.3554 12.8506 17.9985 10.9999 18Z" fill="#443E3E" />
		</symbol>
		<symbol id="like" width="100%" height="100%" viewBox="0 0 21 18">
			<path d="M19.1598 1.99998C18.0998 0.93719 16.6946 0.288522 15.1981 0.171152C13.7017 0.0537822 12.2126 0.475448 10.9998 1.35998C9.72744 0.41362 8.14378 -0.0155064 6.56771 0.15902C4.99164 0.333546 3.54023 1.09876 2.50576 2.30057C1.47129 3.50237 0.93061 5.0515 0.992588 6.636C1.05457 8.22049 1.71461 9.72265 2.83979 10.84L9.04979 17.06C9.56981 17.5718 10.2702 17.8586 10.9998 17.8586C11.7294 17.8586 12.4298 17.5718 12.9498 17.06L19.1598 10.84C20.3274 9.66525 20.9827 8.07626 20.9827 6.41998C20.9827 4.76371 20.3274 3.17472 19.1598 1.99998ZM17.7498 9.45998L11.5398 15.67C11.4691 15.7413 11.385 15.798 11.2923 15.8366C11.1996 15.8753 11.1002 15.8952 10.9998 15.8952C10.8994 15.8952 10.7999 15.8753 10.7072 15.8366C10.6146 15.798 10.5305 15.7413 10.4598 15.67L4.24979 9.42998C3.46555 8.62833 3.0264 7.55145 3.0264 6.42998C3.0264 5.30852 3.46555 4.23164 4.24979 3.42998C5.04894 2.64097 6.12676 2.19855 7.24979 2.19855C8.37281 2.19855 9.45063 2.64097 10.2498 3.42998C10.3428 3.52371 10.4534 3.59811 10.5752 3.64887C10.6971 3.69964 10.8278 3.72578 10.9598 3.72578C11.0918 3.72578 11.2225 3.69964 11.3444 3.64887C11.4662 3.59811 11.5768 3.52371 11.6698 3.42998C12.4689 2.64097 13.5468 2.19855 14.6698 2.19855C15.7928 2.19855 16.8706 2.64097 17.6698 3.42998C18.4648 4.22113 18.9184 5.29217 18.9333 6.41367C18.9483 7.53516 18.5234 8.61792 17.7498 9.42998V9.45998Z" />
		</symbol>
		<symbol id="burger" width="100%" height="100%" viewBox="0 0 21 20">
			<path d="M18.6954 9.16602H2.97122C2.73954 9.16602 2.51734 9.25381 2.35352 9.41009C2.18969 9.56637 2.09766 9.77834 2.09766 9.99935C2.09766 10.2204 2.18969 10.4323 2.35352 10.5886C2.51734 10.7449 2.73954 10.8327 2.97122 10.8327H18.6954C18.927 10.8327 19.1492 10.7449 19.3131 10.5886C19.4769 10.4323 19.5689 10.2204 19.5689 9.99935C19.5689 9.77834 19.4769 9.56637 19.3131 9.41009C19.1492 9.25381 18.927 9.16602 18.6954 9.16602Z" />
			<path d="M18.6954 13.334H2.97122C2.73954 13.334 2.51734 13.4218 2.35352 13.5781C2.18969 13.7343 2.09766 13.9463 2.09766 14.1673C2.09766 14.3883 2.18969 14.6003 2.35352 14.7566C2.51734 14.9129 2.73954 15.0006 2.97122 15.0006H18.6954C18.927 15.0006 19.1492 14.9129 19.3131 14.7566C19.4769 14.6003 19.5689 14.3883 19.5689 14.1673C19.5689 13.9463 19.4769 13.7343 19.3131 13.5781C19.1492 13.4218 18.927 13.334 18.6954 13.334Z" />
			<path d="M2.97122 6.66667H18.6954C18.927 6.66667 19.1492 6.57887 19.3131 6.42259C19.4769 6.26631 19.5689 6.05435 19.5689 5.83333C19.5689 5.61232 19.4769 5.40036 19.3131 5.24408C19.1492 5.0878 18.927 5 18.6954 5H2.97122C2.73954 5 2.51734 5.0878 2.35352 5.24408C2.18969 5.40036 2.09766 5.61232 2.09766 5.83333C2.09766 6.05435 2.18969 6.26631 2.35352 6.42259C2.51734 6.57887 2.73954 6.66667 2.97122 6.66667Z" />
		</symbol>
		<symbol id="share" width="100%" height="100%" viewBox="0 0 26 23">
			<path d="M24.7208 10.9014L14.873 1.05353C14.7008 0.881427 14.4815 0.76423 14.2428 0.716754C14.004 0.669278 13.7565 0.693656 13.5316 0.786804C13.3067 0.879952 13.1145 1.03769 12.9792 1.24007C12.844 1.44246 12.7718 1.68041 12.7717 1.92383V6.28765C9.40903 6.59884 6.28349 8.15365 4.00675 10.6478C1.73001 13.142 0.465941 16.396 0.461914 19.773V21.6195C0.462108 21.875 0.541817 22.1242 0.689983 22.3323C0.838149 22.5405 1.04743 22.6974 1.28879 22.7813C1.53016 22.8652 1.79165 22.8719 2.03699 22.8005C2.28233 22.7291 2.49936 22.583 2.65798 22.3827C3.86397 20.9486 5.34368 19.7691 7.01066 18.9134C8.67763 18.0576 10.4984 17.5426 12.3667 17.3985C12.4283 17.3911 12.5821 17.3788 12.7717 17.3665V21.6195C12.7718 21.8629 12.844 22.1009 12.9792 22.3033C13.1145 22.5056 13.3067 22.6634 13.5316 22.7565C13.7565 22.8497 14.004 22.8741 14.2428 22.8266C14.4815 22.7791 14.7008 22.6619 14.873 22.4898L24.7208 12.642C24.9516 12.4111 25.0812 12.0981 25.0812 11.7717C25.0812 11.4453 24.9516 11.1322 24.7208 10.9014ZM15.2337 18.6479V16.0801C15.2337 15.7536 15.104 15.4405 14.8731 15.2097C14.6423 14.9788 14.3292 14.8491 14.0027 14.8491C13.6888 14.8491 12.4073 14.9107 12.0799 14.9538C8.76224 15.2594 5.60423 16.5199 2.98788 18.5827C3.28485 15.8677 4.57282 13.3576 6.60518 11.5331C8.63755 9.70851 11.2715 8.69772 14.0027 8.69422C14.3292 8.69422 14.6423 8.56453 14.8731 8.33367C15.104 8.10282 15.2337 7.78972 15.2337 7.46324V4.89542L22.1099 11.7717L15.2337 18.6479Z" />
		</symbol>
		<symbol id="view" width="100%" height="100%" viewBox="0 0 17 15">
			<path d="M16.6996 7.18948C15.0419 3.34061 11.9234 0.952515 8.55875 0.952515C5.19408 0.952515 2.0756 3.34061 0.417877 7.18948C0.372689 7.29302 0.349365 7.40477 0.349365 7.51774C0.349365 7.63071 0.372689 7.74246 0.417877 7.846C2.0756 11.6949 5.19408 14.083 8.55875 14.083C11.9234 14.083 15.0419 11.6949 16.6996 7.846C16.7448 7.74246 16.7681 7.63071 16.7681 7.51774C16.7681 7.40477 16.7448 7.29302 16.6996 7.18948ZM8.55875 12.4417C5.95728 12.4417 3.49533 10.5624 2.0756 7.51774C3.49533 4.47312 5.95728 2.59382 8.55875 2.59382C11.1602 2.59382 13.6222 4.47312 15.0419 7.51774C13.6222 10.5624 11.1602 12.4417 8.55875 12.4417ZM8.55875 4.23513C7.90952 4.23513 7.27486 4.42765 6.73503 4.78835C6.19521 5.14904 5.77447 5.66172 5.52602 6.26154C5.27756 6.86135 5.21256 7.52138 5.33922 8.15814C5.46588 8.79491 5.77852 9.37981 6.2376 9.83889C6.69668 10.298 7.28159 10.6106 7.91835 10.7373C8.55511 10.8639 9.21514 10.7989 9.81496 10.5505C10.4148 10.302 10.9274 9.88128 11.2881 9.34146C11.6488 8.80164 11.8414 8.16698 11.8414 7.51774C11.8414 6.64713 11.4955 5.81219 10.8799 5.19658C10.2643 4.58097 9.42936 4.23513 8.55875 4.23513ZM8.55875 9.15904C8.23414 9.15904 7.91681 9.06278 7.64689 8.88243C7.37698 8.70208 7.16661 8.44575 7.04239 8.14584C6.91816 7.84593 6.88566 7.51592 6.94899 7.19753C7.01232 6.87915 7.16864 6.5867 7.39818 6.35716C7.62772 6.12762 7.92017 5.9713 8.23855 5.90797C8.55693 5.84464 8.88695 5.87714 9.18686 6.00137C9.48676 6.1256 9.7431 6.33597 9.92345 6.60588C10.1038 6.87579 10.2001 7.19312 10.2001 7.51774C10.2001 7.95304 10.0271 8.37051 9.71933 8.67832C9.41153 8.98612 8.99406 9.15904 8.55875 9.15904Z" />
		</symbol>
		<symbol id="cross" width="100%" height="100%" viewBox="0 0 329.26933 329">
			<path d="m194.800781 164.769531 128.210938-128.214843c8.34375-8.339844 8.34375-21.824219 0-30.164063-8.339844-8.339844-21.824219-8.339844-30.164063 0l-128.214844 128.214844-128.210937-128.214844c-8.34375-8.339844-21.824219-8.339844-30.164063 0-8.34375 8.339844-8.34375 21.824219 0 30.164063l128.210938 128.214843-128.210938 128.214844c-8.34375 8.339844-8.34375 21.824219 0 30.164063 4.15625 4.160156 9.621094 6.25 15.082032 6.25 5.460937 0 10.921875-2.089844 15.082031-6.25l128.210937-128.214844 128.214844 128.214844c4.160156 4.160156 9.621094 6.25 15.082032 6.25 5.460937 0 10.921874-2.089844 15.082031-6.25 8.34375-8.339844 8.34375-21.824219 0-30.164063zm0 0" />
		</symbol>
		<symbol id="explanation" width="100%" height="100%" viewBox="0 0 20 20">
			<path d="M9.29 13.29C9.247 13.3375 9.20693 13.3876 9.17 13.44C9.13216 13.4957 9.10189 13.5563 9.08 13.62C9.05117 13.6767 9.03095 13.7374 9.02001 13.8C9.0151 13.8666 9.0151 13.9334 9.02001 14C9.01663 14.1312 9.04402 14.2613 9.10001 14.38C9.14492 14.5041 9.21657 14.6168 9.30989 14.7101C9.40321 14.8034 9.51591 14.8751 9.64001 14.92C9.75971 14.9729 9.88913 15.0002 10.02 15.0002C10.1509 15.0002 10.2803 14.9729 10.4 14.92C10.5241 14.8751 10.6368 14.8034 10.7301 14.7101C10.8234 14.6168 10.8951 14.5041 10.94 14.38C10.9844 14.2584 11.0048 14.1294 11 14C11.0008 13.8684 10.9755 13.7379 10.9258 13.6161C10.876 13.4943 10.8027 13.3834 10.71 13.29C10.617 13.1963 10.5064 13.1219 10.3846 13.0711C10.2627 13.0203 10.132 12.9942 10 12.9942C9.86799 12.9942 9.73729 13.0203 9.61543 13.0711C9.49357 13.1219 9.38297 13.1963 9.29 13.29ZM10 0C8.02219 0 6.08879 0.58649 4.4443 1.6853C2.79981 2.78412 1.51809 4.3459 0.761209 6.17317C0.00433284 8.00043 -0.193701 10.0111 0.192152 11.9509C0.578004 13.8907 1.53041 15.6725 2.92894 17.0711C4.32746 18.4696 6.10929 19.422 8.0491 19.8079C9.98891 20.1937 11.9996 19.9957 13.8268 19.2388C15.6541 18.4819 17.2159 17.2002 18.3147 15.5557C19.4135 13.9112 20 11.9778 20 10C20 8.68678 19.7413 7.38642 19.2388 6.17317C18.7363 4.95991 17.9997 3.85752 17.0711 2.92893C16.1425 2.00035 15.0401 1.26375 13.8268 0.761205C12.6136 0.258658 11.3132 0 10 0ZM10 18C8.41775 18 6.87104 17.5308 5.55544 16.6518C4.23985 15.7727 3.21447 14.5233 2.60897 13.0615C2.00347 11.5997 1.84504 9.99113 2.15372 8.43928C2.4624 6.88743 3.22433 5.46197 4.34315 4.34315C5.46197 3.22433 6.88743 2.4624 8.43928 2.15372C9.99113 1.84504 11.5997 2.00346 13.0615 2.60896C14.5233 3.21447 15.7727 4.23984 16.6518 5.55544C17.5308 6.87103 18 8.41775 18 10C18 12.1217 17.1572 14.1566 15.6569 15.6569C14.1566 17.1571 12.1217 18 10 18ZM10 5C9.47307 4.99966 8.95534 5.13812 8.49891 5.40144C8.04249 5.66476 7.66347 6.04366 7.4 6.5C7.32765 6.61382 7.27907 6.7411 7.25718 6.87418C7.23529 7.00726 7.24055 7.14339 7.27263 7.27439C7.30472 7.40538 7.36297 7.52854 7.44389 7.63643C7.52481 7.74433 7.62671 7.83475 7.74348 7.90224C7.86024 7.96974 7.98945 8.01292 8.12334 8.02918C8.25722 8.04544 8.39301 8.03445 8.52254 7.99688C8.65207 7.9593 8.77266 7.89591 8.87705 7.81052C8.98145 7.72513 9.06749 7.6195 9.13 7.5C9.21811 7.3474 9.34497 7.22078 9.49775 7.13298C9.65053 7.04518 9.82379 6.9993 10 7C10.2652 7 10.5196 7.10536 10.7071 7.29289C10.8946 7.48043 11 7.73478 11 8C11 8.26522 10.8946 8.51957 10.7071 8.70711C10.5196 8.89464 10.2652 9 10 9C9.73479 9 9.48043 9.10536 9.2929 9.29289C9.10536 9.48043 9 9.73478 9 10V11C9 11.2652 9.10536 11.5196 9.2929 11.7071C9.48043 11.8946 9.73479 12 10 12C10.2652 12 10.5196 11.8946 10.7071 11.7071C10.8946 11.5196 11 11.2652 11 11V10.82C11.6614 10.58 12.2174 10.1152 12.5708 9.50687C12.9242 8.89851 13.0525 8.18529 12.9334 7.49189C12.8143 6.79849 12.4552 6.16902 11.919 5.71352C11.3828 5.25801 10.7035 5.00546 10 5Z" />
		</symbol>
		<symbol id="picture" width="100%" height="100%" viewBox="0 0 20 20">
			<path d="M17 0H3C2.20435 0 1.44129 0.316071 0.87868 0.87868C0.316071 1.44129 0 2.20435 0 3V17C0 17.7956 0.316071 18.5587 0.87868 19.1213C1.44129 19.6839 2.20435 20 3 20H17C17.1645 19.9977 17.3284 19.981 17.49 19.95L17.79 19.88H17.91L18.28 19.74L18.41 19.67C18.51 19.61 18.62 19.56 18.72 19.49C18.8535 19.3918 18.9805 19.2849 19.1 19.17L19.17 19.08C19.2682 18.9805 19.3585 18.8735 19.44 18.76L19.53 18.63C19.5998 18.5187 19.6601 18.4016 19.71 18.28C19.7374 18.232 19.7609 18.1818 19.78 18.13C19.83 18.01 19.86 17.88 19.9 17.75V17.6C19.9567 17.4046 19.9903 17.2032 20 17V3C20 2.20435 19.6839 1.44129 19.1213 0.87868C18.5587 0.316071 17.7956 0 17 0ZM3 18C2.73478 18 2.48043 17.8946 2.29289 17.7071C2.10536 17.5196 2 17.2652 2 17V12.69L5.29 9.39C5.38296 9.29627 5.49356 9.22188 5.61542 9.17111C5.73728 9.12034 5.86799 9.0942 6 9.0942C6.13201 9.0942 6.26272 9.12034 6.38458 9.17111C6.50644 9.22188 6.61704 9.29627 6.71 9.39L15.31 18H3ZM18 17C17.9991 17.1233 17.9753 17.2453 17.93 17.36C17.9071 17.4087 17.8804 17.4556 17.85 17.5C17.8232 17.5423 17.7931 17.5825 17.76 17.62L12.41 12.27L13.29 11.39C13.383 11.2963 13.4936 11.2219 13.6154 11.1711C13.7373 11.1203 13.868 11.0942 14 11.0942C14.132 11.0942 14.2627 11.1203 14.3846 11.1711C14.5064 11.2219 14.617 11.2963 14.71 11.39L18 14.69V17ZM18 11.86L16.12 10C15.5477 9.45699 14.7889 9.15428 14 9.15428C13.2111 9.15428 12.4523 9.45699 11.88 10L11 10.88L8.12 8C7.54772 7.45699 6.7889 7.15428 6 7.15428C5.2111 7.15428 4.45228 7.45699 3.88 8L2 9.86V3C2 2.73478 2.10536 2.48043 2.29289 2.29289C2.48043 2.10536 2.73478 2 3 2H17C17.2652 2 17.5196 2.10536 17.7071 2.29289C17.8946 2.48043 18 2.73478 18 3V11.86ZM11.5 4C11.2033 4 10.9133 4.08797 10.6666 4.2528C10.42 4.41762 10.2277 4.65189 10.1142 4.92597C10.0006 5.20006 9.97094 5.50166 10.0288 5.79264C10.0867 6.08361 10.2296 6.35088 10.4393 6.56066C10.6491 6.77044 10.9164 6.9133 11.2074 6.97118C11.4983 7.02906 11.7999 6.99935 12.074 6.88582C12.3481 6.77229 12.5824 6.58003 12.7472 6.33335C12.912 6.08668 13 5.79667 13 5.5C13 5.10218 12.842 4.72064 12.5607 4.43934C12.2794 4.15804 11.8978 4 11.5 4Z" />
		</symbol>
		<symbol id="check-circle" width="100%" height="100%" viewBox="0 0 20 20">
			<path d="M12.72 6.79L8.43001 11.09L6.78 9.44C6.69036 9.33532 6.58004 9.2503 6.45597 9.19027C6.33191 9.13025 6.19678 9.09652 6.05906 9.0912C5.92134 9.08588 5.78401 9.10909 5.65568 9.15936C5.52736 9.20964 5.41081 9.28589 5.31335 9.38335C5.2159 9.4808 5.13964 9.59735 5.08937 9.72568C5.03909 9.854 5.01589 9.99133 5.02121 10.1291C5.02653 10.2668 5.06026 10.4019 5.12028 10.526C5.1803 10.65 5.26532 10.7604 5.37 10.85L7.72 13.21C7.81344 13.3027 7.92426 13.376 8.0461 13.4258C8.16794 13.4755 8.2984 13.5008 8.43001 13.5C8.69234 13.4989 8.94374 13.3947 9.13 13.21L14.13 8.21C14.2237 8.11704 14.2981 8.00644 14.3489 7.88458C14.3997 7.76272 14.4258 7.63201 14.4258 7.5C14.4258 7.36799 14.3997 7.23728 14.3489 7.11542C14.2981 6.99356 14.2237 6.88296 14.13 6.79C13.9426 6.60375 13.6892 6.49921 13.425 6.49921C13.1608 6.49921 12.9074 6.60375 12.72 6.79ZM10 0C8.02219 0 6.08879 0.58649 4.4443 1.6853C2.79981 2.78412 1.51809 4.3459 0.761209 6.17317C0.00433284 8.00043 -0.193701 10.0111 0.192152 11.9509C0.578004 13.8907 1.53041 15.6725 2.92894 17.0711C4.32746 18.4696 6.10929 19.422 8.0491 19.8079C9.98891 20.1937 11.9996 19.9957 13.8268 19.2388C15.6541 18.4819 17.2159 17.2002 18.3147 15.5557C19.4135 13.9112 20 11.9778 20 10C20 8.68678 19.7413 7.38642 19.2388 6.17317C18.7363 4.95991 17.9997 3.85752 17.0711 2.92893C16.1425 2.00035 15.0401 1.26375 13.8268 0.761205C12.6136 0.258658 11.3132 0 10 0ZM10 18C8.41775 18 6.87104 17.5308 5.55544 16.6518C4.23985 15.7727 3.21447 14.5233 2.60897 13.0615C2.00347 11.5997 1.84504 9.99113 2.15372 8.43928C2.4624 6.88743 3.22433 5.46197 4.34315 4.34315C5.46197 3.22433 6.88743 2.4624 8.43928 2.15372C9.99113 1.84504 11.5997 2.00346 13.0615 2.60896C14.5233 3.21447 15.7727 4.23984 16.6518 5.55544C17.5308 6.87103 18 8.41775 18 10C18 12.1217 17.1572 14.1566 15.6569 15.6569C14.1566 17.1571 12.1217 18 10 18Z" />
		</symbol>
		<symbol id="uncheck-circle" width="100%" height="100%" viewBox="0 0 22 22">
			<path d="M14.7098 7.28983C14.6169 7.19611 14.5063 7.12171 14.3844 7.07094C14.2626 7.02017 14.1318 6.99404 13.9998 6.99404C13.8678 6.99404 13.7371 7.02017 13.6153 7.07094C13.4934 7.12171 13.3828 7.19611 13.2898 7.28983L10.9998 9.58984L8.70984 7.28983C8.52153 7.10153 8.26614 6.99574 7.99984 6.99574C7.73353 6.99574 7.47814 7.10153 7.28983 7.28983C7.10153 7.47814 6.99574 7.73353 6.99574 7.99984C6.99574 8.26614 7.10153 8.52153 7.28983 8.70984L9.58984 10.9998L7.28983 13.2898C7.19611 13.3828 7.12171 13.4934 7.07094 13.6153C7.02017 13.7371 6.99404 13.8678 6.99404 13.9998C6.99404 14.1318 7.02017 14.2626 7.07094 14.3844C7.12171 14.5063 7.19611 14.6169 7.28983 14.7098C7.3828 14.8036 7.4934 14.878 7.61526 14.9287C7.73712 14.9795 7.86782 15.0056 7.99984 15.0056C8.13185 15.0056 8.26255 14.9795 8.38441 14.9287C8.50627 14.878 8.61687 14.8036 8.70984 14.7098L10.9998 12.4098L13.2898 14.7098C13.3828 14.8036 13.4934 14.878 13.6153 14.9287C13.7371 14.9795 13.8678 15.0056 13.9998 15.0056C14.1318 15.0056 14.2626 14.9795 14.3844 14.9287C14.5063 14.878 14.6169 14.8036 14.7098 14.7098C14.8036 14.6169 14.878 14.5063 14.9287 14.3844C14.9795 14.2626 15.0056 14.1318 15.0056 13.9998C15.0056 13.8678 14.9795 13.7371 14.9287 13.6153C14.878 13.4934 14.8036 13.3828 14.7098 13.2898L12.4098 10.9998L14.7098 8.70984C14.8036 8.61687 14.878 8.50627 14.9287 8.38441C14.9795 8.26255 15.0056 8.13185 15.0056 7.99984C15.0056 7.86782 14.9795 7.73712 14.9287 7.61526C14.878 7.4934 14.8036 7.3828 14.7098 7.28983ZM18.0698 3.92984C17.1474 2.97473 16.0439 2.21291 14.8239 1.68882C13.6038 1.16473 12.2916 0.888869 10.9638 0.877331C9.63605 0.865793 8.31926 1.11881 7.09029 1.62162C5.86133 2.12443 4.74481 2.86696 3.80589 3.80589C2.86696 4.74481 2.12443 5.86133 1.62162 7.09029C1.11881 8.31926 0.865793 9.63605 0.877331 10.9638C0.888869 12.2916 1.16473 13.6038 1.68882 14.8239C2.21291 16.0439 2.97473 17.1474 3.92984 18.0698C4.8523 19.0249 5.95575 19.7868 7.17579 20.3109C8.39583 20.8349 9.70803 21.1108 11.0358 21.1223C12.3636 21.1339 13.6804 20.8809 14.9094 20.3781C16.1383 19.8752 17.2549 19.1327 18.1938 18.1938C19.1327 17.2549 19.8752 16.1383 20.3781 14.9094C20.8809 13.6804 21.1339 12.3636 21.1223 11.0358C21.1108 9.70803 20.8349 8.39583 20.3109 7.17579C19.7868 5.95575 19.0249 4.8523 18.0698 3.92984ZM16.6598 16.6598C15.3519 17.9692 13.6304 18.7847 11.7886 18.9671C9.94688 19.1496 8.09884 18.6879 6.55936 17.6606C5.01987 16.6333 3.88419 15.104 3.34581 13.3333C2.80742 11.5626 2.89964 9.65998 3.60675 7.94962C4.31386 6.23926 5.59211 4.82698 7.22373 3.9534C8.85534 3.07981 10.7394 2.79897 12.5548 3.15871C14.3703 3.51845 16.0049 4.49653 17.1801 5.9263C18.3553 7.35607 18.9984 9.14907 18.9998 10.9998C19.0034 12.0511 18.7984 13.0927 18.3968 14.0642C17.9951 15.0358 17.4047 15.918 16.6598 16.6598Z" fill="#D62D30" />
		</symbol>
		<symbol id="gal-ochka" width="100%" height="100%" viewBox="0 0 12 10">
			<path d="M11.5917 1.00834C11.5142 0.930232 11.4221 0.868237 11.3205 0.82593C11.219 0.783622 11.11 0.761841 11 0.761841C10.89 0.761841 10.7811 0.783622 10.6796 0.82593C10.578 0.868237 10.4858 0.930232 10.4084 1.00834L4.20004 7.22501L1.59171 4.60834C1.51127 4.53064 1.41632 4.46955 1.31227 4.42854C1.20823 4.38754 1.09713 4.36743 0.985308 4.36936C0.873491 4.3713 0.76315 4.39524 0.660584 4.43982C0.558019 4.48439 0.465238 4.54874 0.387539 4.62917C0.309841 4.70961 0.248746 4.80456 0.207742 4.9086C0.166739 5.01265 0.14663 5.12375 0.148565 5.23557C0.150499 5.34739 0.174439 5.45773 0.219017 5.56029C0.263595 5.66286 0.327938 5.75564 0.408373 5.83334L3.60837 9.03334C3.68584 9.11145 3.77801 9.17344 3.87956 9.21575C3.98111 9.25805 4.09003 9.27984 4.20004 9.27984C4.31005 9.27984 4.41897 9.25805 4.52052 9.21575C4.62207 9.17344 4.71424 9.11145 4.79171 9.03334L11.5917 2.23334C11.6763 2.1553 11.7438 2.06059 11.79 1.95518C11.8361 1.84976 11.86 1.73592 11.86 1.62084C11.86 1.50575 11.8361 1.39192 11.79 1.2865C11.7438 1.18108 11.6763 1.08637 11.5917 1.00834Z" />
		</symbol>
		<symbol id="headphones" width="100%" height="100%" viewBox="0 0 28 30">
			<path d="M14 0C6.73057 0 0.816406 5.91416 0.816406 13.1836C0.816406 13.9892 0.816406 20.2212 0.816406 20.332C0.816406 21.7859 1.99924 22.9688 3.45312 22.9688H4.4832C4.84602 23.9917 5.82295 24.7266 6.96875 24.7266C8.42264 24.7266 9.60547 23.5437 9.60547 22.0898V14.9414C9.60547 13.4875 8.42264 12.3047 6.96875 12.3047C5.82295 12.3047 4.84602 13.0396 4.4832 14.0625H3.45312C3.14498 14.0625 2.84932 14.1161 2.57422 14.2137V13.1836C2.57422 6.88342 7.69982 1.75781 14 1.75781C20.3002 1.75781 25.4258 6.88342 25.4258 13.1836V14.2137C25.1507 14.1161 24.855 14.0625 24.5469 14.0625H23.5168C23.154 13.0396 22.1771 12.3047 21.0312 12.3047C19.5774 12.3047 18.3945 13.4875 18.3945 14.9414V22.0898C18.3945 23.5437 19.5774 24.7266 21.0312 24.7266C21.2973 24.7266 21.5542 24.6866 21.7965 24.6129C21.4678 25.6947 20.4613 26.4844 19.2734 26.4844H16.4855C16.1227 25.4614 15.1458 24.7266 14 24.7266C12.5461 24.7266 11.3633 25.9094 11.3633 27.3633C11.3633 28.8172 12.5461 30 14 30C15.1458 30 16.1227 29.2651 16.4855 28.2422H19.2734C21.6966 28.2422 23.668 26.2708 23.668 23.8477V22.9688H24.5469C26.0008 22.9688 27.1836 21.7859 27.1836 20.332C27.1836 20.2228 27.1836 13.9886 27.1836 13.1836C27.1836 5.91416 21.2694 0 14 0ZM6.08984 14.9414C6.08984 14.4568 6.48412 14.0625 6.96875 14.0625C7.45338 14.0625 7.84766 14.4568 7.84766 14.9414V22.0898C7.84766 22.5745 7.45338 22.9688 6.96875 22.9688C6.48412 22.9688 6.08984 22.5745 6.08984 22.0898V14.9414ZM3.45312 15.8203H4.33203V21.2109H3.45312C2.9685 21.2109 2.57422 20.8167 2.57422 20.332V16.6992C2.57422 16.2146 2.9685 15.8203 3.45312 15.8203ZM14 28.2422C13.5154 28.2422 13.1211 27.8479 13.1211 27.3633C13.1211 26.8787 13.5154 26.4844 14 26.4844C14.4846 26.4844 14.8789 26.8787 14.8789 27.3633C14.8789 27.8479 14.4846 28.2422 14 28.2422ZM21.9102 22.0898C21.9102 22.5745 21.5159 22.9688 21.0312 22.9688C20.5466 22.9688 20.1523 22.5745 20.1523 22.0898V14.9414C20.1523 14.4568 20.5466 14.0625 21.0312 14.0625C21.5159 14.0625 21.9102 14.4568 21.9102 14.9414V22.0898ZM25.4258 20.332C25.4258 20.8167 25.0315 21.2109 24.5469 21.2109H23.668V15.8203H24.5469C25.0315 15.8203 25.4258 16.2146 25.4258 16.6992V20.332Z" />
		</symbol>
		<symbol id="navigate-up" width="100%" height="100%" viewBox="0 0 17 10">
			<path d="M7.47522 0.402599L0.412717 7.4776C0.295556 7.5938 0.202564 7.73205 0.139103 7.88438C0.0756418 8.0367 0.0429687 8.20008 0.0429687 8.3651C0.0429687 8.53011 0.0756418 8.6935 0.139103 8.84582C0.202564 8.99814 0.295556 9.13639 0.412717 9.2526C0.64692 9.48541 0.963734 9.61609 1.29397 9.61609C1.6242 9.61609 1.94101 9.48541 2.17522 9.2526L8.42522 3.0651L14.6127 9.2526C14.8469 9.48541 15.1637 9.61609 15.494 9.61609C15.8242 9.61609 16.141 9.48541 16.3752 9.2526C16.4933 9.13683 16.5873 8.99877 16.6517 8.84643C16.716 8.69409 16.7495 8.53048 16.7502 8.3651C16.7495 8.19971 16.716 8.03611 16.6517 7.88377C16.5873 7.73142 16.4933 7.59337 16.3752 7.4776L9.31272 0.402599C9.19566 0.275719 9.0536 0.174458 8.89547 0.105198C8.73735 0.0359392 8.56659 0.000183105 8.39397 0.000183105C8.22134 0.000183105 8.05058 0.0359392 7.89246 0.105198C7.73433 0.174458 7.59227 0.275719 7.47522 0.402599Z" />
		</symbol>
		<symbol id="search" width="100%" height="100%" viewBox="0 0 19 18">
			<path d="M17.9737 15.9188L14.7328 12.8521C15.9908 11.3558 16.6001 9.4565 16.4352 7.54484C16.2704 5.63317 15.344 3.8544 13.8466 2.57429C12.3492 1.29417 10.3945 0.61001 8.38457 0.662477C6.3746 0.714944 4.46209 1.50005 3.0403 2.85637C1.6185 4.21269 0.795493 6.03712 0.740494 7.95452C0.685494 9.87192 1.40269 11.7366 2.7446 13.165C4.08651 14.5935 5.95115 15.4772 7.95511 15.6344C9.95906 15.7917 11.95 15.2105 13.5186 14.0104L16.7333 17.0771C16.8145 17.1552 16.9111 17.2172 17.0176 17.2595C17.124 17.3018 17.2382 17.3236 17.3535 17.3236C17.4688 17.3236 17.583 17.3018 17.6895 17.2595C17.7959 17.2172 17.8925 17.1552 17.9737 17.0771C18.1312 16.9217 18.2192 16.714 18.2192 16.4979C18.2192 16.2818 18.1312 16.0741 17.9737 15.9188ZM8.61788 14.0104C7.40846 14.0104 6.22619 13.6683 5.2206 13.0273C4.215 12.3864 3.43123 11.4753 2.96841 10.4094C2.50558 9.3435 2.38448 8.17061 2.62043 7.03906C2.85638 5.9075 3.43877 4.8681 4.29396 4.0523C5.14915 3.23649 6.23873 2.68092 7.42491 2.45584C8.6111 2.23076 9.84061 2.34628 10.958 2.78779C12.0753 3.2293 13.0304 3.97697 13.7023 4.93626C14.3742 5.89555 14.7328 7.02336 14.7328 8.17709C14.7328 9.72418 14.0886 11.2079 12.9418 12.3019C11.795 13.3958 10.2397 14.0104 8.61788 14.0104Z" />
		</symbol>
		<symbol id="navigate-left" width="100%" height="100%" viewBox="0 0 8 14">
			<path d="M0.500012 7.80005L6.20001 13.4C6.60001 13.8 7.20001 13.8 7.60001 13.4C8.00001 13 8.00001 12.4 7.60001 12L2.70001 7.00005L7.60001 2.00005C8.00001 1.60005 8.00001 1.00005 7.60001 0.600049C7.40001 0.400049 7.20001 0.300049 6.90001 0.300049C6.60001 0.300049 6.40001 0.400049 6.20001 0.600049L0.500012 6.20005C0.100012 6.70005 0.100012 7.30005 0.500012 7.80005C0.500012 7.70005 0.500012 7.70005 0.500012 7.80005Z" />
		</symbol>
		<symbol id="navigate-right" width="100%" height="100%" viewBox="0 0 8 13">
			<path d="M7.63918 7.36446L2.30729 12.6869C2.21972 12.7752 2.11553 12.8453 2.00074 12.8931C1.88594 12.941 1.76281 12.9656 1.63845 12.9656C1.5141 12.9656 1.39097 12.941 1.27617 12.8931C1.16138 12.8453 1.05719 12.7752 0.969614 12.6869C0.79416 12.5104 0.695679 12.2717 0.695679 12.0228C0.695679 11.7739 0.79416 11.5352 0.969614 11.3587L5.63266 6.64852L0.969614 1.98548C0.79416 1.80898 0.695679 1.57022 0.695679 1.32135C0.695679 1.07248 0.79416 0.833718 0.969614 0.657217C1.05686 0.568207 1.1609 0.497394 1.27571 0.448883C1.39052 0.400372 1.51382 0.375127 1.63845 0.374609C1.76309 0.375127 1.88639 0.400372 2.0012 0.448883C2.11601 0.497394 2.22005 0.568207 2.30729 0.657217L7.63918 5.97968C7.7348 6.06789 7.81111 6.17496 7.86331 6.29412C7.9155 6.41329 7.94245 6.54198 7.94245 6.67207C7.94245 6.80217 7.9155 6.93085 7.86331 7.05002C7.81111 7.16919 7.7348 7.27625 7.63918 7.36446Z" />
		</symbol>
		<symbol id="navigate-down" width="100%" height="100%" viewBox="0 0 14 8">
			<path d="M6.57861 7.67743L0.928611 2.01743C0.834882 1.92447 0.760488 1.81387 0.70972 1.69201C0.658951 1.57015 0.632812 1.43944 0.632812 1.30743C0.632812 1.17542 0.658951 1.04472 0.70972 0.922856C0.760488 0.800997 0.834882 0.690396 0.928611 0.597433C1.11597 0.411182 1.36942 0.306641 1.63361 0.306641C1.8978 0.306641 2.15125 0.411182 2.33861 0.597433L7.33861 5.54743L12.2886 0.597433C12.476 0.411182 12.7294 0.306641 12.9936 0.306641C13.2578 0.306641 13.5112 0.411182 13.6986 0.597433C13.7931 0.690048 13.8683 0.800493 13.9198 0.922368C13.9713 1.04424 13.9981 1.17513 13.9986 1.30743C13.9981 1.43974 13.9713 1.57062 13.9198 1.6925C13.8683 1.81437 13.7931 1.92482 13.6986 2.01743L8.04861 7.67743C7.95497 7.77894 7.84132 7.85995 7.71482 7.91535C7.58832 7.97076 7.45171 7.99936 7.31361 7.99936C7.17551 7.99936 7.0389 7.97076 6.9124 7.91535C6.7859 7.85995 6.67225 7.77894 6.57861 7.67743Z" />
		</symbol>
		<symbol id="shopping-cart" width="100%" height="100%" viewBox="0 0 24 24">
			<path d="M3 3H5L5.4 5M7 13H17L21 5H5.4M7 13L5.4 5M7 13L4.70711 15.2929C4.07714 15.9229 4.52331 17 5.41421 17H17M17 17C15.8954 17 15 17.8954 15 19C15 20.1046 15.8954 21 17 21C18.1046 21 19 20.1046 19 19C19 17.8954 18.1046 17 17 17ZM9 19C9 20.1046 8.10457 21 7 21C5.89543 21 5 20.1046 5 19C5 17.8954 5.89543 17 7 17C8.10457 17 9 17.8954 9 19Z" stroke="currentColor" stroke-width="2" stroke-linecap="round" stroke-linejoin="round" fill="rgba(0, 0, 0, 0)"/>
		</symbol>
		<symbol id="sliders" width="100%" height="100%" viewBox="0 0 18 18">
			<path d="M15.6679 5.8165V1.49984C15.6679 1.27882 15.5801 1.06686 15.4238 0.910582C15.2675 0.754301 15.0556 0.666504 14.8346 0.666504C14.6136 0.666504 14.4016 0.754301 14.2453 0.910582C14.089 1.06686 14.0012 1.27882 14.0012 1.49984V5.8165C13.5186 5.99167 13.1016 6.31119 12.8069 6.73164C12.5122 7.15209 12.3542 7.65307 12.3542 8.1665C12.3542 8.67994 12.5122 9.18092 12.8069 9.60137C13.1016 10.0218 13.5186 10.3413 14.0012 10.5165V16.4998C14.0012 16.7209 14.089 16.9328 14.2453 17.0891C14.4016 17.2454 14.6136 17.3332 14.8346 17.3332C15.0556 17.3332 15.2675 17.2454 15.4238 17.0891C15.5801 16.9328 15.6679 16.7209 15.6679 16.4998V10.5165C16.1505 10.3413 16.5675 10.0218 16.8622 9.60137C17.1569 9.18092 17.315 8.67994 17.315 8.1665C17.315 7.65307 17.1569 7.15209 16.8622 6.73164C16.5675 6.31119 16.1505 5.99167 15.6679 5.8165ZM14.8346 8.99984C14.6697 8.99984 14.5086 8.95096 14.3716 8.8594C14.2345 8.76783 14.1277 8.63768 14.0647 8.48541C14.0016 8.33314 13.9851 8.16558 14.0172 8.00393C14.0494 7.84228 14.1288 7.69379 14.2453 7.57725C14.3619 7.4607 14.5103 7.38134 14.672 7.34918C14.8336 7.31703 15.0012 7.33353 15.1535 7.3966C15.3057 7.45968 15.4359 7.56649 15.5275 7.70353C15.619 7.84057 15.6679 8.00169 15.6679 8.1665C15.6679 8.38752 15.5801 8.59948 15.4238 8.75576C15.2675 8.91204 15.0556 8.99984 14.8346 8.99984ZM9.83456 10.8165V1.49984C9.83456 1.27882 9.74677 1.06686 9.59049 0.910582C9.43421 0.754301 9.22224 0.666504 9.00123 0.666504C8.78022 0.666504 8.56826 0.754301 8.41198 0.910582C8.2557 1.06686 8.1679 1.27882 8.1679 1.49984V10.8165C7.68527 10.9917 7.26828 11.3112 6.9736 11.7316C6.67892 12.1521 6.52083 12.6531 6.52083 13.1665C6.52083 13.6799 6.67892 14.1809 6.9736 14.6014C7.26828 15.0218 7.68527 15.3413 8.1679 15.5165V16.4998C8.1679 16.7209 8.2557 16.9328 8.41198 17.0891C8.56826 17.2454 8.78022 17.3332 9.00123 17.3332C9.22224 17.3332 9.43421 17.2454 9.59049 17.0891C9.74677 16.9328 9.83456 16.7209 9.83456 16.4998V15.5165C10.3172 15.3413 10.7342 15.0218 11.0289 14.6014C11.3235 14.1809 11.4816 13.6799 11.4816 13.1665C11.4816 12.6531 11.3235 12.1521 11.0289 11.7316C10.7342 11.3112 10.3172 10.9917 9.83456 10.8165ZM9.00123 13.9998C8.83641 13.9998 8.6753 13.951 8.53826 13.8594C8.40121 13.7678 8.2944 13.6377 8.23133 13.4854C8.16826 13.3331 8.15176 13.1656 8.18391 13.0039C8.21606 12.8423 8.29543 12.6938 8.41198 12.5772C8.52852 12.4607 8.677 12.3813 8.83866 12.3492C9.00031 12.317 9.16786 12.3335 9.32013 12.3966C9.47241 12.4597 9.60255 12.5665 9.69412 12.7035C9.78569 12.8406 9.83456 13.0017 9.83456 13.1665C9.83456 13.3875 9.74677 13.5995 9.59049 13.7558C9.43421 13.912 9.22224 13.9998 9.00123 13.9998ZM4.00123 4.14984V1.49984C4.00123 1.27882 3.91343 1.06686 3.75715 0.910582C3.60087 0.754301 3.38891 0.666504 3.1679 0.666504C2.94688 0.666504 2.73492 0.754301 2.57864 0.910582C2.42236 1.06686 2.33456 1.27882 2.33456 1.49984V4.14984C1.85194 4.32501 1.43495 4.64453 1.14027 5.06498C0.845583 5.48542 0.6875 5.9864 0.6875 6.49984C0.6875 7.01327 0.845583 7.51425 1.14027 7.9347C1.43495 8.35515 1.85194 8.67467 2.33456 8.84984V16.4998C2.33456 16.7209 2.42236 16.9328 2.57864 17.0891C2.73492 17.2454 2.94688 17.3332 3.1679 17.3332C3.38891 17.3332 3.60087 17.2454 3.75715 17.0891C3.91343 16.9328 4.00123 16.7209 4.00123 16.4998V8.84984C4.48386 8.67467 4.90085 8.35515 5.19553 7.9347C5.49021 7.51425 5.64829 7.01327 5.64829 6.49984C5.64829 5.9864 5.49021 5.48542 5.19553 5.06498C4.90085 4.64453 4.48386 4.32501 4.00123 4.14984ZM3.1679 7.33317C3.00308 7.33317 2.84196 7.2843 2.70492 7.19273C2.56788 7.10116 2.46107 6.97101 2.398 6.81874C2.33492 6.66647 2.31842 6.49891 2.35058 6.33726C2.38273 6.17561 2.4621 6.02713 2.57864 5.91058C2.69519 5.79404 2.84367 5.71467 3.00532 5.68252C3.16697 5.65036 3.33453 5.66686 3.4868 5.72994C3.63907 5.79301 3.76922 5.89982 3.86079 6.03686C3.95236 6.1739 4.00123 6.33502 4.00123 6.49984C4.00123 6.72085 3.91343 6.93281 3.75715 7.08909C3.60087 7.24537 3.38891 7.33317 3.1679 7.33317Z" />
		</symbol>
		<symbol id="sort" width="100%" height="100%" viewBox="0 0 18 14">
			<path d="M5.42971 0.572228C5.35046 0.496361 5.257 0.43689 5.15471 0.397228C4.95183 0.31388 4.72426 0.31388 4.52138 0.397228C4.41909 0.43689 4.32563 0.496361 4.24638 0.572228L0.913045 3.90556C0.835346 3.98326 0.773713 4.0755 0.731662 4.17702C0.689612 4.27854 0.667969 4.38735 0.667969 4.49723C0.667969 4.60711 0.689612 4.71592 0.731662 4.81744C0.773713 4.91895 0.835346 5.0112 0.913045 5.0889C0.990744 5.16659 1.08299 5.22823 1.1845 5.27028C1.28602 5.31233 1.39483 5.33397 1.50471 5.33397C1.61459 5.33397 1.7234 5.31233 1.82492 5.27028C1.92644 5.22823 2.01868 5.16659 2.09638 5.0889L4.00471 3.17223V12.8306C4.00471 13.0516 4.09251 13.2635 4.24879 13.4198C4.40507 13.5761 4.61703 13.6639 4.83804 13.6639C5.05906 13.6639 5.27102 13.5761 5.4273 13.4198C5.58358 13.2635 5.67138 13.0516 5.67138 12.8306V3.17223L7.57971 5.0889C7.65718 5.167 7.74935 5.229 7.8509 5.2713C7.95245 5.31361 8.06137 5.33539 8.17138 5.33539C8.28139 5.33539 8.39031 5.31361 8.49186 5.2713C8.59341 5.229 8.68557 5.167 8.76304 5.0889C8.84115 5.01143 8.90315 4.91926 8.94545 4.81771C8.98776 4.71616 9.00954 4.60724 9.00954 4.49723C9.00954 4.38722 8.98776 4.2783 8.94545 4.17675C8.90315 4.0752 8.84115 3.98303 8.76304 3.90556L5.42971 0.572228Z" />
			<path d="M13.7696 13.4266C13.6903 13.5024 13.5968 13.5619 13.4946 13.6016C13.2917 13.6849 13.0641 13.6849 12.8612 13.6016C12.7589 13.5619 12.6655 13.5024 12.5862 13.4266L9.25289 10.0932C9.17519 10.0155 9.11356 9.92328 9.07151 9.82176C9.02946 9.72024 9.00781 9.61143 9.00781 9.50155C9.00781 9.39167 9.02946 9.28286 9.07151 9.18134C9.11356 9.07983 9.17519 8.98758 9.25289 8.90988C9.33059 8.83219 9.42283 8.77055 9.52435 8.7285C9.62587 8.68645 9.73467 8.66481 9.84456 8.66481C9.95444 8.66481 10.0632 8.68645 10.1648 8.7285C10.2663 8.77055 10.3585 8.83219 10.4362 8.90988L12.3446 10.8266V1.16822C12.3446 0.947206 12.4324 0.735245 12.5886 0.578964C12.7449 0.422684 12.9569 0.334887 13.1779 0.334887C13.3989 0.334887 13.6109 0.422684 13.7671 0.578964C13.9234 0.735245 14.0112 0.947206 14.0112 1.16822V10.8266L15.9196 8.90988C15.997 8.83178 16.0892 8.76978 16.1907 8.72748C16.2923 8.68517 16.4012 8.66339 16.5112 8.66339C16.6212 8.66339 16.7302 8.68517 16.8317 8.72748C16.9333 8.76978 17.0254 8.83178 17.1029 8.90988C17.181 8.98735 17.243 9.07952 17.2853 9.18107C17.3276 9.28262 17.3494 9.39154 17.3494 9.50155C17.3494 9.61156 17.3276 9.72048 17.2853 9.82203C17.243 9.92358 17.181 10.0157 17.1029 10.0932L13.7696 13.4266Z" />
		</symbol>
		<symbol id="truck" width="100%" height="100%" viewBox="0 0 28 24">
			<path d="M27.75 12.625V18.875C27.75 19.2065 27.6183 19.5245 27.3839 19.7589C27.1495 19.9933 26.8315 20.125 26.5 20.125H25.25C25.25 21.1196 24.8549 22.0734 24.1517 22.7767C23.4484 23.4799 22.4946 23.875 21.5 23.875C20.5054 23.875 19.5516 23.4799 18.8483 22.7767C18.1451 22.0734 17.75 21.1196 17.75 20.125H10.25C10.25 21.1196 9.85491 22.0734 9.15165 22.7767C8.44839 23.4799 7.49456 23.875 6.5 23.875C5.50544 23.875 4.55161 23.4799 3.84835 22.7767C3.14509 22.0734 2.75 21.1196 2.75 20.125H1.5C1.16848 20.125 0.850536 19.9933 0.616116 19.7589C0.381695 19.5245 0.25 19.2065 0.25 18.875V3.875C0.25 2.88044 0.645088 1.92661 1.34835 1.22335C2.05161 0.520088 3.00544 0.125 4 0.125H15.25C16.2446 0.125 17.1984 0.520088 17.9017 1.22335C18.6049 1.92661 19 2.88044 19 3.875V6.375H21.5C22.0822 6.375 22.6563 6.51054 23.1771 6.7709C23.6978 7.03125 24.1507 7.40926 24.5 7.875L27.5 11.875C27.5366 11.9293 27.566 11.9882 27.5875 12.05L27.6625 12.1875C27.7177 12.3269 27.7473 12.4751 27.75 12.625ZM7.75 20.125C7.75 19.8778 7.67669 19.6361 7.53934 19.4305C7.40199 19.225 7.20676 19.0648 6.97835 18.9701C6.74995 18.8755 6.49861 18.8508 6.25614 18.899C6.01366 18.9473 5.79093 19.0663 5.61612 19.2411C5.4413 19.4159 5.32225 19.6387 5.27402 19.8811C5.22579 20.1236 5.25054 20.3749 5.34515 20.6034C5.43976 20.8318 5.59998 21.027 5.80554 21.1643C6.0111 21.3017 6.25277 21.375 6.5 21.375C6.83152 21.375 7.14946 21.2433 7.38388 21.0089C7.61831 20.7745 7.75 20.4565 7.75 20.125ZM16.5 3.875C16.5 3.54348 16.3683 3.22554 16.1339 2.99112C15.8995 2.7567 15.5815 2.625 15.25 2.625H4C3.66848 2.625 3.35054 2.7567 3.11612 2.99112C2.88169 3.22554 2.75 3.54348 2.75 3.875V17.625H3.725C4.07648 17.2383 4.50489 16.9293 4.98277 16.7179C5.46065 16.5065 5.97744 16.3973 6.5 16.3973C7.02256 16.3973 7.53935 16.5065 8.01723 16.7179C8.49511 16.9293 8.92352 17.2383 9.275 17.625H16.5V3.875ZM19 11.375H24L22.5 9.375C22.3836 9.21975 22.2326 9.09375 22.059 9.00697C21.8854 8.92018 21.6941 8.875 21.5 8.875H19V11.375ZM22.75 20.125C22.75 19.8778 22.6767 19.6361 22.5393 19.4305C22.402 19.225 22.2068 19.0648 21.9784 18.9701C21.7499 18.8755 21.4986 18.8508 21.2561 18.899C21.0137 18.9473 20.7909 19.0663 20.6161 19.2411C20.4413 19.4159 20.3222 19.6387 20.274 19.8811C20.2258 20.1236 20.2505 20.3749 20.3452 20.6034C20.4398 20.8318 20.6 21.027 20.8055 21.1643C21.0111 21.3017 21.2528 21.375 21.5 21.375C21.8315 21.375 22.1495 21.2433 22.3839 21.0089C22.6183 20.7745 22.75 20.4565 22.75 20.125ZM25.25 13.875H19V17.35C19.7377 16.6907 20.7061 16.3496 21.6941 16.4012C22.6822 16.4527 23.6098 16.8926 24.275 17.625H25.25V13.875Z" />
		</symbol>
		<symbol id="trash" width="100%" height="100%" viewBox="0 0 24 26">
			<path d="M9.5 20.2217C9.83152 20.2217 10.1495 20.09 10.3839 19.8556C10.6183 19.6211 10.75 19.3032 10.75 18.9717V11.4717C10.75 11.1402 10.6183 10.8222 10.3839 10.5878C10.1495 10.3534 9.83152 10.2217 9.5 10.2217C9.16848 10.2217 8.85054 10.3534 8.61612 10.5878C8.3817 10.8222 8.25 11.1402 8.25 11.4717V18.9717C8.25 19.3032 8.3817 19.6211 8.61612 19.8556C8.85054 20.09 9.16848 20.2217 9.5 20.2217ZM22 5.22168H17V3.97168C17 2.97712 16.6049 2.02329 15.9017 1.32003C15.1984 0.616768 14.2446 0.22168 13.25 0.22168H10.75C9.75544 0.22168 8.80161 0.616768 8.09835 1.32003C7.39509 2.02329 7 2.97712 7 3.97168V5.22168H2C1.66848 5.22168 1.35054 5.35338 1.11612 5.5878C0.881696 5.82222 0.75 6.14016 0.75 6.47168C0.75 6.8032 0.881696 7.12114 1.11612 7.35556C1.35054 7.58998 1.66848 7.72168 2 7.72168H3.25V21.4717C3.25 22.4662 3.64509 23.4201 4.34835 24.1233C5.05161 24.8266 6.00544 25.2217 7 25.2217H17C17.9946 25.2217 18.9484 24.8266 19.6517 24.1233C20.3549 23.4201 20.75 22.4662 20.75 21.4717V7.72168H22C22.3315 7.72168 22.6495 7.58998 22.8839 7.35556C23.1183 7.12114 23.25 6.8032 23.25 6.47168C23.25 6.14016 23.1183 5.82222 22.8839 5.5878C22.6495 5.35338 22.3315 5.22168 22 5.22168ZM9.5 3.97168C9.5 3.64016 9.6317 3.32222 9.86612 3.0878C10.1005 2.85338 10.4185 2.72168 10.75 2.72168H13.25C13.5815 2.72168 13.8995 2.85338 14.1339 3.0878C14.3683 3.32222 14.5 3.64016 14.5 3.97168V5.22168H9.5V3.97168ZM18.25 21.4717C18.25 21.8032 18.1183 22.1211 17.8839 22.3556C17.6495 22.59 17.3315 22.7217 17 22.7217H7C6.66848 22.7217 6.35054 22.59 6.11612 22.3556C5.8817 22.1211 5.75 21.8032 5.75 21.4717V7.72168H18.25V21.4717ZM14.5 20.2217C14.8315 20.2217 15.1495 20.09 15.3839 19.8556C15.6183 19.6211 15.75 19.3032 15.75 18.9717V11.4717C15.75 11.1402 15.6183 10.8222 15.3839 10.5878C15.1495 10.3534 14.8315 10.2217 14.5 10.2217C14.1685 10.2217 13.8505 10.3534 13.6161 10.5878C13.3817 10.8222 13.25 11.1402 13.25 11.4717V18.9717C13.25 19.3032 13.3817 19.6211 13.6161 19.8556C13.8505 20.09 14.1685 20.2217 14.5 20.2217Z" />
		</symbol>
		<symbol id="copy" width="100%" height="100%" viewBox="0 0 18 20">
			<path d="M18 6.94C17.9896 6.84813 17.9695 6.75763 17.94 6.67V6.58C17.8919 6.47718 17.8278 6.38267 17.75 6.3L11.75 0.3C11.6673 0.222216 11.5728 0.158081 11.47 0.11C11.4402 0.10576 11.4099 0.10576 11.38 0.11C11.2784 0.0517412 11.1662 0.0143442 11.05 0H7C6.20435 0 5.44129 0.316071 4.87868 0.87868C4.31607 1.44129 4 2.20435 4 3V4H3C2.20435 4 1.44129 4.31607 0.87868 4.87868C0.316071 5.44129 0 6.20435 0 7V17C0 17.7956 0.316071 18.5587 0.87868 19.1213C1.44129 19.6839 2.20435 20 3 20H11C11.7956 20 12.5587 19.6839 13.1213 19.1213C13.6839 18.5587 14 17.7956 14 17V16H15C15.7956 16 16.5587 15.6839 17.1213 15.1213C17.6839 14.5587 18 13.7956 18 13V7V6.94ZM12 3.41L14.59 6H13C12.7348 6 12.4804 5.89464 12.2929 5.70711C12.1054 5.51957 12 5.26522 12 5V3.41ZM12 17C12 17.2652 11.8946 17.5196 11.7071 17.7071C11.5196 17.8946 11.2652 18 11 18H3C2.73478 18 2.48043 17.8946 2.29289 17.7071C2.10536 17.5196 2 17.2652 2 17V7C2 6.73478 2.10536 6.48043 2.29289 6.29289C2.48043 6.10536 2.73478 6 3 6H4V13C4 13.7956 4.31607 14.5587 4.87868 15.1213C5.44129 15.6839 6.20435 16 7 16H12V17ZM16 13C16 13.2652 15.8946 13.5196 15.7071 13.7071C15.5196 13.8946 15.2652 14 15 14H7C6.73478 14 6.48043 13.8946 6.29289 13.7071C6.10536 13.5196 6 13.2652 6 13V3C6 2.73478 6.10536 2.48043 6.29289 2.29289C6.48043 2.10536 6.73478 2 7 2H10V5C10 5.79565 10.3161 6.55871 10.8787 7.12132C11.4413 7.68393 12.2044 8 13 8H16V13Z" />
		</symbol>
		<symbol id="female" width="100%" height="100%" viewBox="0 0 10 14">
			<path d="M4.99988 -0.000152588C6.19335 -0.000152588 7.33794 0.473953 8.18186 1.31787C9.02577 2.16178 9.49988 3.30637 9.49988 4.49985C9.49988 6.72735 7.87988 8.57985 5.74988 8.93985V10.4998H7.24988V11.9998H5.74988V13.4998H4.24988V11.9998H2.74988V10.4998H4.24988V8.93985C2.11988 8.57985 0.499878 6.72735 0.499878 4.49985C0.499878 3.30637 0.973984 2.16178 1.8179 1.31787C2.66181 0.473953 3.8064 -0.000152588 4.99988 -0.000152588ZM4.99988 1.49985C4.20423 1.49985 3.44117 1.81592 2.87856 2.37853C2.31595 2.94114 1.99988 3.7042 1.99988 4.49985C1.99988 5.2955 2.31595 6.05856 2.87856 6.62117C3.44117 7.18378 4.20423 7.49985 4.99988 7.49985C5.79553 7.49985 6.55859 7.18378 7.1212 6.62117C7.68381 6.05856 7.99988 5.2955 7.99988 4.49985C7.99988 3.7042 7.68381 2.94114 7.1212 2.37853C6.55859 1.81592 5.79553 1.49985 4.99988 1.49985Z" />
		</symbol>
		<symbol id="male" width="100%" height="100%" viewBox="0 0 14 14">
			<path d="M4.75 4.74995C5.7175 4.74995 6.625 5.05745 7.3525 5.58245L11.185 1.74995H7.75V0.249954H13.75V6.24995H12.25V2.80745L8.4175 6.62495C8.9425 7.37495 9.25 8.27495 9.25 9.24995C9.25 10.4434 8.77589 11.588 7.93198 12.4319C7.08807 13.2758 5.94347 13.75 4.75 13.75C3.55653 13.75 2.41193 13.2758 1.56802 12.4319C0.724106 11.588 0.25 10.4434 0.25 9.24995C0.25 8.05648 0.724106 6.91189 1.56802 6.06797C2.41193 5.22406 3.55653 4.74995 4.75 4.74995ZM4.75 6.24995C3.95435 6.24995 3.19129 6.56602 2.62868 7.12863C2.06607 7.69124 1.75 8.4543 1.75 9.24995C1.75 10.0456 2.06607 10.8087 2.62868 11.3713C3.19129 11.9339 3.95435 12.25 4.75 12.25C5.54565 12.25 6.30871 11.9339 6.87132 11.3713C7.43393 10.8087 7.75 10.0456 7.75 9.24995C7.75 8.4543 7.43393 7.69124 6.87132 7.12863C6.30871 6.56602 5.54565 6.24995 4.75 6.24995Z" />
		</symbol>
		<symbol id="eye" width="100%" height="100%" viewBox="0 0 22 15">
			<path d="M20.9201 7.6C18.9001 2.91 15.1001 0 11.0001 0C6.90007 0 3.10007 2.91 1.08007 7.6C1.025 7.72617 0.996582 7.86234 0.996582 8C0.996582 8.13766 1.025 8.27383 1.08007 8.4C3.10007 13.09 6.90007 16 11.0001 16C15.1001 16 18.9001 13.09 20.9201 8.4C20.9751 8.27383 21.0036 8.13766 21.0036 8C21.0036 7.86234 20.9751 7.72617 20.9201 7.6ZM11.0001 14C7.83007 14 4.83007 11.71 3.10007 8C4.83007 4.29 7.83007 2 11.0001 2C14.1701 2 17.1701 4.29 18.9001 8C17.1701 11.71 14.1701 14 11.0001 14ZM11.0001 4C10.2089 4 9.43558 4.2346 8.77779 4.67412C8.11999 5.11365 7.6073 5.73836 7.30455 6.46927C7.0018 7.20017 6.92258 8.00444 7.07693 8.78036C7.23127 9.55628 7.61223 10.269 8.17164 10.8284C8.73105 11.3878 9.44378 11.7688 10.2197 11.9231C10.9956 12.0775 11.7999 11.9983 12.5308 11.6955C13.2617 11.3928 13.8864 10.8801 14.3259 10.2223C14.7655 9.56448 15.0001 8.79113 15.0001 8C15.0001 6.93913 14.5786 5.92172 13.8285 5.17157C13.0783 4.42143 12.0609 4 11.0001 4ZM11.0001 10C10.6045 10 10.2178 9.8827 9.88893 9.66294C9.56003 9.44318 9.30368 9.13082 9.15231 8.76537C9.00093 8.39991 8.96133 7.99778 9.0385 7.60982C9.11567 7.22186 9.30615 6.86549 9.58585 6.58579C9.86556 6.30608 10.2219 6.1156 10.6099 6.03843C10.9978 5.96126 11.4 6.00087 11.7654 6.15224C12.1309 6.30362 12.4432 6.55996 12.663 6.88886C12.8828 7.21776 13.0001 7.60444 13.0001 8C13.0001 8.53043 12.7894 9.03914 12.4143 9.41421C12.0392 9.78929 11.5305 10 11.0001 10Z" />
		</symbol>
		<symbol id="eye-closed" width="100%" height="100%" viewBox="0 0 22 22">
			<path d="M9.64421 5.08C10.0175 5.02624 10.3947 4.99949 10.7724 5C14.1571 5 17.3395 7.29 19.1915 11C18.9083 11.5646 18.5883 12.1123 18.2336 12.64C18.1209 12.8038 18.0617 12.995 18.0633 13.19C18.0656 13.4082 18.1439 13.6198 18.2862 13.7923C18.4285 13.9648 18.6269 14.0889 18.8513 14.1455C19.0756 14.2022 19.3135 14.1883 19.5287 14.1061C19.7438 14.0238 19.9245 13.8777 20.043 13.69C20.5389 12.9579 20.9696 12.1887 21.3308 11.39C21.3879 11.2652 21.4174 11.1308 21.4174 10.995C21.4174 10.8592 21.3879 10.7248 21.3308 10.6C19.1808 5.91 15.1363 3 10.7724 3C10.2729 2.99764 9.77415 3.0378 9.28233 3.12C9.14256 3.14233 9.00883 3.1903 8.88879 3.26118C8.76875 3.33206 8.66475 3.42446 8.58271 3.5331C8.50068 3.64175 8.44223 3.76451 8.41069 3.89438C8.37916 4.02425 8.37515 4.15868 8.39892 4.29C8.42268 4.42132 8.47374 4.54696 8.54918 4.65975C8.62462 4.77253 8.72297 4.87024 8.8386 4.94732C8.95424 5.02439 9.0849 5.07931 9.22313 5.10894C9.36135 5.13857 9.50444 5.14233 9.64421 5.12V5.08ZM1.94892 1.29C1.84968 1.19676 1.73186 1.1228 1.6022 1.07234C1.47254 1.02188 1.33357 0.995911 1.19322 0.995911C1.05288 0.995911 0.913907 1.02188 0.784245 1.07234C0.654583 1.1228 0.536769 1.19676 0.43753 1.29C0.237108 1.47831 0.124512 1.7337 0.124512 2C0.124512 2.2663 0.237108 2.5217 0.43753 2.71L3.73703 5.8C2.23158 7.16153 1.03342 8.79399 0.214015 10.6C0.155408 10.7262 0.125158 10.8623 0.125158 11C0.125158 11.1377 0.155408 11.2738 0.214015 11.4C2.36401 16.09 6.40857 19 10.7724 19C12.6852 18.9876 14.5528 18.4525 16.1474 17.46L19.5959 20.71C19.6949 20.8037 19.8126 20.8781 19.9423 20.9289C20.072 20.9797 20.2111 21.0058 20.3516 21.0058C20.4921 21.0058 20.6313 20.9797 20.761 20.9289C20.8907 20.8781 21.0084 20.8037 21.1073 20.71C21.2071 20.617 21.2863 20.5064 21.3403 20.3846C21.3943 20.2627 21.4222 20.132 21.4222 20C21.4222 19.868 21.3943 19.7373 21.3403 19.6154C21.2863 19.4936 21.2071 19.383 21.1073 19.29L1.94892 1.29ZM8.71822 10.48L11.3259 12.93C11.146 12.9785 10.9596 13.002 10.7724 13C10.2079 13 9.66641 12.7893 9.2672 12.4142C8.86799 12.0391 8.64372 11.5304 8.64372 11C8.64154 10.8242 8.66664 10.649 8.71822 10.48ZM10.7724 17C7.38778 17 4.20535 14.71 2.36401 11C3.05168 9.57375 4.02768 8.28658 5.23778 7.21L7.12169 9C6.67918 9.7588 6.51047 10.6319 6.64087 11.4885C6.77128 12.345 7.19376 13.1387 7.84495 13.7505C8.49613 14.3623 9.3409 14.7592 10.2525 14.8817C11.1642 15.0043 12.0935 14.8458 12.9011 14.43L14.5935 16C13.4345 16.6409 12.1172 16.9856 10.7724 17Z" />
		</symbol>
		<symbol id="i-note" width="100%" height="100%" viewBox="0 0 20 20">
			<path fill-rule="evenodd" clip-rule="evenodd" d="M19.6004 9.9999C19.6004 15.3018 15.3023 19.5999 10.0004 19.5999C4.69846 19.5999 0.400391 15.3018 0.400391 9.9999C0.400391 4.69797 4.69846 0.399902 10.0004 0.399902C15.3023 0.399902 19.6004 4.69797 19.6004 9.9999ZM11.2004 14.7999C11.2004 15.4626 10.6631 15.9999 10.0004 15.9999C9.33765 15.9999 8.80039 15.4626 8.80039 14.7999C8.80039 14.1372 9.33765 13.5999 10.0004 13.5999C10.6631 13.5999 11.2004 14.1372 11.2004 14.7999ZM10.0004 3.9999C9.33765 3.9999 8.80039 4.53716 8.80039 5.1999V9.9999C8.80039 10.6626 9.33765 11.1999 10.0004 11.1999C10.6631 11.1999 11.2004 10.6626 11.2004 9.9999V5.1999C11.2004 4.53716 10.6631 3.9999 10.0004 3.9999Z" />
		</symbol>
		<symbol id="pilot" width="100%" height="100%" viewBox="0 0 20 20">
			<path d="M1.50155 7.15361C1.4843 7.46186 1.6568 7.74911 1.9373 7.87811L7.5653 10.4596L10.1468 16.0869C10.2698 16.3539 10.5368 16.5241 10.8286 16.5241L10.8713 16.5226C11.0218 16.5142 11.1663 16.4606 11.2859 16.3688C11.4055 16.277 11.4947 16.1513 11.5418 16.0081L15.738 3.23411C15.8258 2.96561 15.7553 2.66936 15.5558 2.46911C15.3563 2.26886 15.0608 2.20061 14.7908 2.28686L2.01605 6.48386C1.87279 6.53065 1.747 6.61963 1.65519 6.73914C1.56338 6.85866 1.50983 7.00313 1.50155 7.15361Z" fill="currentColor"/>
		</symbol>
		<symbol id="cash" width="100%" height="100%" viewBox="0 0 18 20">
			<path d="M3.60005 4.68286C2.60594 4.68286 1.80005 5.51926 1.80005 6.55102V10.2873C1.80005 11.3191 2.60594 12.1555 3.60005 12.1555L3.60005 6.55102H12.6C12.6 5.51926 11.7942 4.68286 10.8 4.68286H3.60005Z" fill="currentColor"/>
			<path fill-rule="evenodd" clip-rule="evenodd" d="M5.40005 10.2873C5.40005 9.25558 6.20594 8.41917 7.20005 8.41917H14.4C15.3942 8.41917 16.2 9.25558 16.2 10.2873V14.0236C16.2 15.0554 15.3942 15.8918 14.4 15.8918H7.20005C6.20594 15.8918 5.40005 15.0554 5.40005 14.0236V10.2873ZM10.8 14.0236C11.7942 14.0236 12.6 13.1872 12.6 12.1555C12.6 11.1237 11.7942 10.2873 10.8 10.2873C9.80594 10.2873 9.00005 11.1237 9.00005 12.1555C9.00005 13.1872 9.80594 14.0236 10.8 14.0236Z" fill="currentColor"/>
		</symbol>
		<symbol id="shield" width="100%" height="100%" viewBox="0 0 18 20">
			<path fill-rule="evenodd" clip-rule="evenodd" d="M1.94955 5.61579C4.65698 5.57767 7.1238 4.50557 9.00005 2.7627C10.8763 4.50557 13.3431 5.57766 16.0506 5.61579C16.1489 6.22366 16.2 6.84812 16.2 7.485C16.2 12.3654 13.1947 16.5173 9.00005 18.0561C4.80536 16.5173 1.80005 12.3654 1.80005 7.485C1.80005 6.84813 1.85123 6.22366 1.94955 5.61579ZM12.3364 9.07954C12.6879 8.71476 12.6879 8.12333 12.3364 7.75855C11.985 7.39377 11.4151 7.39377 11.0637 7.75855L8.10005 10.8344L6.93644 9.62671C6.58497 9.26193 6.01512 9.26193 5.66365 9.62671C5.31218 9.99149 5.31218 10.5829 5.66365 10.9477L7.46365 12.8158C7.81512 13.1806 8.38497 13.1806 8.73644 12.8158L12.3364 9.07954Z" fill="currentColor"/>
		</symbol>
		<symbol id="geo" width="100%" height="100%" viewBox="0 0 18 20">
			<path fill-rule="evenodd" clip-rule="evenodd" d="M4.54518 4.72979C7.00548 2.17633 10.9944 2.17633 13.4547 4.72979C15.915 7.28325 15.915 11.4232 13.4547 13.9767L8.99995 18.6001L4.54518 13.9767C2.08488 11.4232 2.08488 7.28325 4.54518 4.72979ZM8.99995 11.2214C9.99406 11.2214 10.8 10.385 10.8 9.35324C10.8 8.32149 9.99406 7.48509 8.99995 7.48509C8.00584 7.48509 7.19995 8.32149 7.19995 9.35324C7.19995 10.385 8.00584 11.2214 8.99995 11.2214Z" fill="currentColor"/>
		</symbol>
		<symbol id="squares" width="100%" height="100%" viewBox="0 0 18 18">
			<path d="M0.750062 7.49912C0.551134 7.49912 0.360352 7.4201 0.219688 7.27944C0.0790244 7.13877 0 6.94799 0 6.74906V0.750062C0 0.551134 0.0790244 0.360352 0.219688 0.219688C0.360352 0.0790244 0.551134 0 0.750062 0H6.75056C6.94949 0 7.14027 0.0790244 7.28094 0.219688C7.4216 0.360352 7.50062 0.551134 7.50062 0.750062V6.74906C7.50062 6.94799 7.4216 7.13877 7.28094 7.27944C7.14027 7.4201 6.94949 7.49912 6.75056 7.49912H0.750062ZM11.2509 7.49912C11.052 7.49912 10.8612 7.4201 10.7206 7.27944C10.5799 7.13877 10.5009 6.94799 10.5009 6.74906V0.750062C10.5009 0.551134 10.5799 0.360352 10.7206 0.219688C10.8612 0.0790244 11.052 0 11.2509 0H17.2499C17.4489 0 17.6396 0.0790244 17.7803 0.219688C17.921 0.360352 18 0.551134 18 0.750062V6.74906C18 6.94799 17.921 7.13877 17.7803 7.27944C17.6396 7.4201 17.4489 7.49912 17.2499 7.49912H11.2509ZM0.750062 18C0.551134 18 0.360352 17.921 0.219688 17.7803C0.0790244 17.6396 0 17.4489 0 17.2499V11.2494C0 11.0505 0.0790244 10.8597 0.219688 10.7191C0.360352 10.5784 0.551134 10.4994 0.750062 10.4994H6.75056C6.94949 10.4994 7.14027 10.5784 7.28094 10.7191C7.4216 10.8597 7.50062 11.0505 7.50062 11.2494V17.2499C7.50062 17.4489 7.4216 17.6396 7.28094 17.7803C7.14027 17.921 6.94949 18 6.75056 18H0.750062ZM11.2509 18C11.052 18 10.8612 17.921 10.7206 17.7803C10.5799 17.6396 10.5009 17.4489 10.5009 17.2499V11.2494C10.5009 11.0505 10.5799 10.8597 10.7206 10.7191C10.8612 10.5784 11.052 10.4994 11.2509 10.4994H17.2499C17.4489 10.4994 17.6396 10.5784 17.7803 10.7191C17.921 10.8597 18 11.0505 18 11.2494V17.2499C18 17.4489 17.921 17.6396 17.7803 17.7803C17.6396 17.921 17.4489 18 17.2499 18H11.2509Z" fill="currentColor"/>
		</symbol>
		<symbol id="triangle-right" width="100%" height="100%" viewBox="0 0 8 12">
			<path d="M7.73333 6.2L1.28 11.04C0.75261 11.4355 -8.68819e-07 11.0592 -8.09356e-07 10.4L-1.5607e-08 1.6C4.38553e-08 0.940764 0.752611 0.564457 1.28 0.959998L7.73333 5.8C7.86667 5.9 7.86667 6.1 7.73333 6.2Z" />
		</symbol>
		<symbol id="ms" width="100%" height="100%" viewBox="0 0 16 16">
			<path fill-rule="evenodd" clip-rule="evenodd" d="M16 8C16 12.4183 12.4183 16 8 16C3.58172 16 0 12.4183 0 8C0 3.58172 3.58172 0 8 0C12.4183 0 16 3.58172 16 8ZM9 12C9 12.5523 8.55229 13 8 13C7.44772 13 7 12.5523 7 12C7 11.4477 7.44772 11 8 11C8.55229 11 9 11.4477 9 12ZM8 3C7.44772 3 7 3.44772 7 4V8C7 8.55228 7.44772 9 8 9C8.55229 9 9 8.55228 9 8V4C9 3.44772 8.55229 3 8 3Z" fill="currentColor"/>
		</symbol>
		<symbol id="cub" width="100%" height="100%" viewBox="0 0 36 36">
			<path d="M30 11.25V24.75L24 28.125L18 31.5L12 28.125L6 24.75V11.25L12 7.875L18 4.5L24 7.875L30 11.25Z" fill="rgba(0, 0, 0, 0)" stroke="currentColor" stroke-width="2" stroke-linecap="round" stroke-linejoin="round"/>
			<path d="M18 18L24 14.625L30 11.25" fill="rgba(0, 0, 0, 0)" stroke="currentColor" stroke-width="2" stroke-linecap="round" stroke-linejoin="round"/>
			<path d="M18 18V31.5" fill="rgba(0, 0, 0, 0)" stroke="currentColor" stroke-width="2" stroke-linecap="round" stroke-linejoin="round"/>
			<path d="M18 18L12 14.625L6 11.25" fill="rgba(0, 0, 0, 0)" stroke="currentColor" stroke-width="2" stroke-linecap="round" stroke-linejoin="round"/>
			<path d="M30 18L24 21V28.125" fill="rgba(0, 0, 0, 0)" stroke="currentColor" stroke-width="2" stroke-linecap="round" stroke-linejoin="round"/>
			<path d="M6 18L12 21V28.125" fill="rgba(0, 0, 0, 0)" stroke="currentColor" stroke-width="2" stroke-linecap="round" stroke-linejoin="round"/>
			<path d="M12 7.875L18 11.25L24 7.875" fill="rgba(0, 0, 0, 0)" stroke="currentColor" stroke-width="2" stroke-linecap="round" stroke-linejoin="round"/>
		</symbol>
		<symbol id="card" width="100%" height="100%" viewBox="0 0 28 28">
			<path d="M5.5998 5.59998C4.05341 5.59998 2.7998 6.85358 2.7998 8.39998V9.79998H25.1998V8.39998C25.1998 6.85358 23.9462 5.59998 22.3998 5.59998H5.5998Z" fill="currentColor"/>
			<path fill-rule="evenodd" clip-rule="evenodd" d="M25.1998 12.6H2.7998V19.6C2.7998 21.1464 4.05341 22.4 5.5998 22.4H22.3998C23.9462 22.4 25.1998 21.1464 25.1998 19.6V12.6ZM5.5998 18.2C5.5998 17.4268 6.22661 16.8 6.9998 16.8H8.3998C9.173 16.8 9.7998 17.4268 9.7998 18.2C9.7998 18.9732 9.173 19.6 8.3998 19.6H6.9998C6.22661 19.6 5.5998 18.9732 5.5998 18.2ZM12.5998 16.8C11.8266 16.8 11.1998 17.4268 11.1998 18.2C11.1998 18.9732 11.8266 19.6 12.5998 19.6H13.9998C14.773 19.6 15.3998 18.9732 15.3998 18.2C15.3998 17.4268 14.773 16.8 13.9998 16.8H12.5998Z" fill="currentColor"/>
		</symbol>
		<symbol id="mob" width="100%" height="100%" viewBox="0 0 28 28">
			<path fill-rule="evenodd" clip-rule="evenodd" d="M9.8 2.79999C8.2536 2.79999 7 4.05359 7 5.59999V22.4C7 23.9464 8.2536 25.2 9.8 25.2H18.2C19.7464 25.2 21 23.9464 21 22.4V5.59999C21 4.05359 19.7464 2.79999 18.2 2.79999H9.8ZM14 22.4C14.7732 22.4 15.4 21.7732 15.4 21C15.4 20.2268 14.7732 19.6 14 19.6C13.2268 19.6 12.6 20.2268 12.6 21C12.6 21.7732 13.2268 22.4 14 22.4Z" fill="currentColor"/>
		</symbol>
	</defs>
</svg>