<svg width="18" height="18" viewBox="0 0 18 18" fill="none" xmlns="http://www.w3.org/2000/svg">
<path d="M7.33341 9.79289H1.50008C1.27907 9.79289 1.06711 9.88068 0.910826 10.037C0.754545 10.1932 0.666748 10.4052 0.666748 10.6262V16.4596C0.666748 16.6806 0.754545 16.8925 0.910826 17.0488C1.06711 17.2051 1.27907 17.2929 1.50008 17.2929H7.33341C7.55443 17.2929 7.76639 17.2051 7.92267 17.0488C8.07895 16.8925 8.16675 16.6806 8.16675 16.4596V10.6262C8.16675 10.4052 8.07895 10.1932 7.92267 10.037C7.76639 9.88068 7.55443 9.79289 7.33341 9.79289ZM6.50008 15.6262H2.33341V11.4596H6.50008V15.6262ZM16.5001 0.626221H10.6667C10.4457 0.626221 10.2338 0.714018 10.0775 0.870298C9.92121 1.02658 9.83341 1.23854 9.83341 1.45955V7.29289C9.83341 7.5139 9.92121 7.72586 10.0775 7.88214C10.2338 8.03842 10.4457 8.12622 10.6667 8.12622H16.5001C16.7211 8.12622 16.9331 8.03842 17.0893 7.88214C17.2456 7.72586 17.3334 7.5139 17.3334 7.29289V1.45955C17.3334 1.23854 17.2456 1.02658 17.0893 0.870298C16.9331 0.714018 16.7211 0.626221 16.5001 0.626221ZM15.6667 6.45955H11.5001V2.29289H15.6667V6.45955ZM16.5001 9.79289H10.6667C10.4457 9.79289 10.2338 9.88068 10.0775 10.037C9.92121 10.1932 9.83341 10.4052 9.83341 10.6262V16.4596C9.83341 16.6806 9.92121 16.8925 10.0775 17.0488C10.2338 17.2051 10.4457 17.2929 10.6667 17.2929H16.5001C16.7211 17.2929 16.9331 17.2051 17.0893 17.0488C17.2456 16.8925 17.3334 16.6806 17.3334 16.4596V10.6262C17.3334 10.4052 17.2456 10.1932 17.0893 10.037C16.9331 9.88068 16.7211 9.79289 16.5001 9.79289ZM15.6667 15.6262H11.5001V11.4596H15.6667V15.6262ZM7.33341 0.626221H1.50008C1.27907 0.626221 1.06711 0.714018 0.910826 0.870298C0.754545 1.02658 0.666748 1.23854 0.666748 1.45955V7.29289C0.666748 7.5139 0.754545 7.72586 0.910826 7.88214C1.06711 8.03842 1.27907 8.12622 1.50008 8.12622H7.33341C7.55443 8.12622 7.76639 8.03842 7.92267 7.88214C8.07895 7.72586 8.16675 7.5139 8.16675 7.29289V1.45955C8.16675 1.23854 8.07895 1.02658 7.92267 0.870298C7.76639 0.714018 7.55443 0.626221 7.33341 0.626221ZM6.50008 6.45955H2.33341V2.29289H6.50008V6.45955Z" fill="#443E3E"/>
</svg>
