<svg width="50" height="50" viewBox="0 0 50 50" fill="none" xmlns="http://www.w3.org/2000/svg">
<rect width="50" height="50" rx="25" fill="#EE8208"/>
<path d="M25.0019 13.3761C26.9661 13.3761 28.5638 14.9738 28.5638 16.938C28.5638 18.9005 26.9657 20.4982 25.0019 20.4982C23.0389 20.4982 21.4408 18.9005 21.4408 16.938C21.4404 14.9734 23.0394 13.3761 25.0019 13.3761ZM25.0019 25.5376C29.7464 25.5376 33.6048 21.6804 33.6048 16.938C33.6048 12.193 29.7468 8.33423 25.0019 8.33423C20.2578 8.33423 16.399 12.1934 16.399 16.938C16.399 21.6804 20.2578 25.5376 25.0019 25.5376ZM28.4823 32.5547C30.252 32.1517 31.9409 31.4524 33.4776 30.4864C34.0433 30.1304 34.4444 29.5644 34.5928 28.9127C34.7411 28.261 34.6245 27.5771 34.2686 27.0113C34.0926 26.731 33.863 26.488 33.593 26.2964C33.323 26.1048 33.0179 25.9683 32.6951 25.8947C32.3723 25.8212 32.0382 25.8119 31.7119 25.8676C31.3855 25.9232 31.0733 26.0427 30.7932 26.2191C27.2688 28.4349 22.7326 28.4332 19.211 26.2191C18.9309 26.0426 18.6188 25.9232 18.2924 25.8675C17.9661 25.8118 17.632 25.821 17.3092 25.8946C16.9865 25.9682 16.6814 26.1047 16.4114 26.2963C16.1415 26.488 15.912 26.7309 15.736 27.0113C15.38 27.5769 15.2632 28.2607 15.4113 28.9124C15.5594 29.5641 15.9603 30.1302 16.5258 30.4864C18.0624 31.452 19.7509 32.1513 21.5203 32.5547L16.7111 37.3647C16.2385 37.8375 15.9731 38.4787 15.9732 39.1472C15.9733 39.8156 16.239 40.4567 16.7117 40.9293C17.1845 41.4019 17.8257 41.6674 18.4942 41.6672C19.1626 41.6671 19.8037 41.4015 20.2763 40.9287L25.0011 36.2031L29.7287 40.9291C29.9625 41.1632 30.2401 41.3489 30.5457 41.4756C30.8513 41.6023 31.1789 41.6676 31.5097 41.6676C31.8405 41.6676 32.1681 41.6023 32.4737 41.4756C32.7793 41.3489 33.0569 41.1632 33.2906 40.9291C33.5251 40.6954 33.7111 40.4177 33.838 40.1119C33.9649 39.8062 34.0303 39.4784 34.0303 39.1473C34.0303 38.8163 33.9649 38.4885 33.838 38.1827C33.7111 37.877 33.5251 37.5993 33.2906 37.3656L28.4823 32.5547Z" fill="white"/>
</svg>
