<svg width="51" height="50" viewBox="0 0 51 50" fill="none" xmlns="http://www.w3.org/2000/svg">
<circle cx="25.5" cy="25" r="25" fill="#7294C7"/>
<path d="M37.755 31.3958C37.755 31.292 37.6512 31.292 37.6512 31.1882C37.2361 30.358 36.3021 29.3202 35.0567 28.1786C34.434 27.6598 34.1227 27.2446 33.9151 27.0371C33.6038 26.622 33.6038 26.3106 33.7076 25.8955C33.8114 25.5842 34.2265 25.0653 34.9529 24.1313C35.368 23.6124 35.5756 23.3011 35.8869 22.9897C37.4436 20.9141 38.1701 19.565 37.9625 18.9423L37.8587 18.8386C37.755 18.7348 37.6512 18.631 37.4436 18.631C37.236 18.5272 36.9247 18.5272 36.6134 18.631H32.6698C32.566 18.631 32.566 18.631 32.3585 18.631C32.2547 18.631 32.1509 18.631 32.1509 18.631H32.0471H31.9433L31.8396 18.7348C31.7358 18.8386 31.7358 18.8386 31.7358 18.9423C31.3207 20.0839 30.8018 21.0179 30.2829 22.0557C29.9715 22.5746 29.6602 23.0935 29.3489 23.5086C29.0375 23.9237 28.83 24.2351 28.6224 24.4426C28.4149 24.6502 28.2073 24.7539 28.1035 24.9615C27.9997 25.0653 27.7922 25.1691 27.7922 25.0653C27.6884 25.0653 27.5846 25.0653 27.5846 24.9615C27.4809 24.8577 27.3771 24.7539 27.2733 24.6502C27.1695 24.5464 27.1695 24.3388 27.0657 24.1313C27.0657 23.9237 27.0657 23.7162 27.0657 23.6124C27.0657 23.5086 27.0657 23.1973 27.0657 22.9897C27.0657 22.6784 27.0657 22.4708 27.0657 22.367C27.0657 22.0557 27.0657 21.6406 27.0657 21.2255C27.0657 20.8104 27.0657 20.499 27.0657 20.2915C27.0657 20.0839 27.0657 19.7726 27.0657 19.565C27.0657 19.2537 27.0657 19.0461 27.0657 18.9423C27.0657 18.8386 26.962 18.631 26.962 18.5272C26.8582 18.4235 26.7544 18.3197 26.6506 18.2159C26.5469 18.1121 26.3393 18.1121 26.2355 18.0083C25.7166 17.9046 25.094 17.8008 24.3675 17.8008C22.7071 17.8008 21.5655 17.9046 21.1504 18.1121C20.9428 18.2159 20.7353 18.3197 20.6315 18.5272C20.4239 18.7348 20.4239 18.8386 20.5277 18.8386C21.0466 18.9423 21.4617 19.1499 21.6693 19.4612L21.7731 19.6688C21.8768 19.7726 21.8768 19.9801 21.9806 20.2915C22.0844 20.6028 22.0844 20.9141 22.0844 21.3292C22.0844 21.9519 22.0844 22.5746 22.0844 22.9897C22.0844 23.5086 21.9806 23.8199 21.9806 24.1313C21.9806 24.4426 21.8768 24.6502 21.7731 24.7539C21.6693 24.9615 21.6693 25.0653 21.5655 25.0653C21.5655 25.0653 21.5655 25.1691 21.4617 25.1691C21.3579 25.1691 21.2541 25.2728 21.0466 25.2728C20.9428 25.2728 20.7353 25.1691 20.6315 25.0653C20.4239 24.9615 20.2164 24.754 20.1126 24.5464C19.905 24.3388 19.6975 24.0275 19.4899 23.6124C19.2824 23.1973 18.971 22.7822 18.7634 22.1595L18.5559 21.7444C18.4521 21.5368 18.2446 21.1217 18.037 20.6028C17.8295 20.0839 17.6219 19.6688 17.4143 19.1499C17.3106 18.9423 17.2068 18.8386 17.103 18.7348H16.9992C16.9992 18.7348 16.8954 18.631 16.7917 18.631C16.6879 18.631 16.5841 18.5272 16.4803 18.5272H12.7443C12.3292 18.5272 12.1216 18.631 12.0178 18.7348L11.9141 18.8386C11.9141 18.8386 11.9141 18.9423 11.9141 19.0461C11.9141 19.1499 11.9141 19.2537 12.0178 19.4612C12.5367 20.7066 13.1594 21.9519 13.7821 23.1973C14.4048 24.3388 15.0274 25.3766 15.4425 26.1031C15.9614 26.8295 16.3765 27.556 16.8954 28.1786C17.4143 28.8013 17.7257 29.2164 17.8294 29.424C18.037 29.6315 18.1408 29.7353 18.2446 29.8391L18.5559 30.1504C18.7635 30.358 19.0748 30.6693 19.4899 30.9807C19.905 31.292 20.4239 31.6033 20.9428 31.9147C21.4617 32.226 22.0844 32.4336 22.7071 32.6411C23.4335 32.8487 24.0562 32.9525 24.6788 32.8487H26.2355C26.5469 32.8487 26.7544 32.7449 26.962 32.5373L27.0657 32.4336C27.0657 32.3298 27.1695 32.3298 27.1695 32.226C27.1695 32.1222 27.1695 32.0185 27.1695 31.8109C27.1695 31.3958 27.1695 31.0844 27.2733 30.7731C27.3771 30.4618 27.3771 30.2542 27.4809 30.0467C27.5847 29.8391 27.6884 29.7353 27.7922 29.6315C27.896 29.5278 27.9998 29.424 27.9998 29.424H28.1035C28.3111 29.3202 28.6224 29.424 28.83 29.6315C29.1413 29.8391 29.4526 30.1504 29.6602 30.4618C29.8678 30.7731 30.1791 31.0844 30.5942 31.4996C31.0094 31.9147 31.3207 32.226 31.5282 32.3298L31.8396 32.5373C32.0471 32.6411 32.2547 32.7449 32.566 32.8487C32.8774 32.9525 33.0849 32.9525 33.2925 32.9525L36.821 32.8487C37.1323 32.8487 37.4436 32.7449 37.6512 32.6411C37.8587 32.5374 37.9625 32.4336 37.9625 32.226C37.9625 32.1222 37.9625 31.9147 37.9625 31.8109C37.7549 31.6033 37.755 31.4996 37.755 31.3958Z" fill="white"/>
</svg>
